<?xml version="1.0" standalone="no"?>
<!DOCTYPE svg PUBLIC "-//W3C//DTD SVG 1.1//EN" "http://www.w3.org/Graphics/SVG/1.1/DTD/svg11.dtd" >
<svg>
<metadata>
Created by FontForge 20090914 at Sat Jun 11 08:42:05 2022
 By www-data
Copyright (c) 2018 by Swiss Typefaces. All rights reserved. |DCNT
</metadata>
<defs>
<font id="EuclidSquare-Light" horiz-adv-x="0" >
  <font-face 
    font-family="Euclid Square Light"
    font-weight="300"
    font-stretch="normal"
    units-per-em="1000"
    panose-1="2 11 3 4 0 0 0 0 0 0"
    ascent="732"
    descent="-268"
    x-height="500"
    cap-height="710"
    bbox="-358 -258.001 1385 993.002"
    underline-thickness="50"
    underline-position="-215"
    unicode-range="U+0020-U+FEFF"
  />
<missing-glyph horiz-adv-x="694" 
d="M97 0v710h500v-710h-500zM336 355l-220 327v-654zM357 355l221 -327v654zM563 691h-432l216 -321zM347 339l-216 -320h432z" />
    <glyph glyph-name="_368" unicode="ff" horiz-adv-x="770" 
d="M133 0l-0.000976562 434.001h-117v66h117v84c0 47.333 13.833 84.5 41.5 111.5s64.167 40.5 109.5 40.5c36.667 0 69 -8 97 -24l-27 -59c-26 12 -49.333 18 -70 18c-25.333 0 -45.166 -8.33301 -59.499 -25s-21.5 -39.334 -21.5 -68.001v-78h149v-66h-149v-434h-70z
M517.999 0.000976562l-0.000976562 434.001h-108v66h108v84c0 47.333 13.833 84.5 41.5 111.5s64.167 40.5 109.5 40.5c36.667 0 69 -8 97 -24l-27 -59c-26 12 -49.333 18 -70 18c-25.333 0 -45.166 -8.33301 -59.499 -25s-21.5 -39.334 -21.5 -68.001v-78h171v-66h-171
v-434h-70z" />
    <glyph glyph-name="f_i" unicode="fi" horiz-adv-x="627" 
d="M133 0l-0.000976562 434.001h-117v66h117v84c0 47.333 13.833 84.5 41.5 111.5s64.167 40.5 109.5 40.5c36.667 0 69 -8 97 -24l-27 -59c-26 12 -49.333 18 -70 18c-25.333 0 -45.166 -8.33301 -59.499 -25s-21.5 -39.334 -21.5 -68.001v-78h171v-66h-171v-434h-70z
M506.999 630.001c-15.333 0 -28.166 5.16699 -38.499 15.5s-15.5 22.833 -15.5 37.5s5.16699 27.167 15.5 37.5s23.166 15.5 38.499 15.5c14.667 0 27 -5.16699 37 -15.5s15 -22.833 15 -37.5s-5 -27.167 -15 -37.5s-22.333 -15.5 -37 -15.5zM470.999 0.000976562v500h70
v-500h-70z" />
    <glyph glyph-name="_372" unicode="ffi" horiz-adv-x="1012" 
d="M892 630c-15.333 0 -28.166 5.16699 -38.499 15.5s-15.5 22.833 -15.5 37.5s5.16699 27.167 15.5 37.5s23.166 15.5 38.499 15.5c14.667 0 27 -5.16699 37 -15.5s15 -22.833 15 -37.5s-5 -27.167 -15 -37.5s-22.333 -15.5 -37 -15.5zM856 0v500h70v-500h-70zM133 0
l-0.000976562 434.001h-117v66h117v84c0 47.333 13.833 84.5 41.5 111.5s64.167 40.5 109.5 40.5c36.667 0 69 -8 97 -24l-27 -59c-26 12 -49.333 18 -70 18c-25.333 0 -45.166 -8.33301 -59.499 -25s-21.5 -39.334 -21.5 -68.001v-78h149v-66h-149v-434h-70z
M517.999 0.000976562l-0.000976562 434.001h-108v66h108v84c0 47.333 13.833 84.5 41.5 111.5s64.167 40.5 109.5 40.5c36.667 0 69 -8 97 -24l-27 -59c-26 12 -49.333 18 -70 18c-25.333 0 -45.166 -8.33301 -59.499 -25s-21.5 -39.334 -21.5 -68.001v-78h171v-66h-171
v-434h-70z" />
    <glyph glyph-name="f_l" unicode="fl" horiz-adv-x="627" 
d="M133 0l-0.000976562 434.001h-117v66h117v84c0 47.333 13.833 84.5 41.5 111.5s64.167 40.5 109.5 40.5c36.667 0 69 -8 97 -24l-27 -59c-26 12 -49.333 18 -70 18c-25.333 0 -45.166 -8.33301 -59.499 -25s-21.5 -39.334 -21.5 -68.001v-78h171v-66h-171v-434h-70z
M470.999 0.000976562v730h70v-730h-70z" />
    <glyph glyph-name="_376" unicode="ffl" horiz-adv-x="1012" 
d="M856 0v730h70v-730h-70zM133 0l-0.000976562 434.001h-117v66h117v84c0 47.333 13.833 84.5 41.5 111.5s64.167 40.5 109.5 40.5c36.667 0 69 -8 97 -24l-27 -59c-26 12 -49.333 18 -70 18c-25.333 0 -45.166 -8.33301 -59.499 -25s-21.5 -39.334 -21.5 -68.001v-78h149
v-66h-149v-434h-70zM517.999 0.000976562l-0.000976562 434.001h-108v66h108v84c0 47.333 13.833 84.5 41.5 111.5s64.167 40.5 109.5 40.5c36.667 0 69 -8 97 -24l-27 -59c-26 12 -49.333 18 -70 18c-25.333 0 -45.166 -8.33301 -59.499 -25s-21.5 -39.334 -21.5 -68.001
v-78h171v-66h-171v-434h-70z" />
    <glyph glyph-name="f_t" unicode="ft" horiz-adv-x="784" 
d="M133 0l-0.000976562 434.001h-117v66h117v84c0 47.333 13.833 84.5 41.5 111.5s64.167 40.5 109.5 40.5c36.667 0 69 -8 97 -24l-27 -59c-26 12 -49.333 18 -70 18c-25.333 0 -45.166 -8.33301 -59.499 -25s-21.5 -39.334 -21.5 -68.001v-78h147v-66h-147v-434h-70z
M669.999 -4.99902c-41.333 0 -75.834 12.332 -103.501 36.999s-41.5 60.334 -41.5 107.001v295h-117v66h117v139h70v-139h156v-66h-156v-289c0 -30 7.5 -52 22.5 -66s34.5 -21 58.5 -21c26.667 0 51.334 6.33301 74.001 19l21 -60c-28 -14.667 -61.667 -22 -101 -22z" />
    <glyph glyph-name="t_t" unicode="tt" horiz-adv-x="798" 
d="M285 -5c-41.333 0 -75.834 12.332 -103.501 36.999s-41.5 60.334 -41.5 107.001v295h-127v66h127v139h70v-139h149v-66h-149v-289c0 -30 7.5 -52 22.5 -66s34.5 -21 58.5 -21c26.667 0 51.334 6.33301 74.001 19l21 -60c-28 -14.667 -61.667 -22 -101 -22z
M683.999 -5.00098c-41.333 0 -75.834 12.332 -103.501 36.999s-41.5 60.334 -41.5 107.001v295h-122v66h122v139h70v-139h156v-66h-156v-289c0 -30 7.5 -52 22.5 -66s34.5 -21 58.5 -21c26.667 0 51.334 6.33301 74.001 19l21 -60c-28 -14.667 -61.667 -22 -101 -22z" />
    <glyph glyph-name="uni0407_uni0407" unicode="&#x407;&#x407;" horiz-adv-x="548" 
d="M99 0v710h76v-710h-76zM373 0v710h76v-710h-76zM24 789c-15.333 0 -28.166 5.16699 -38.499 15.5s-15.5 22.833 -15.5 37.5s5.16699 27.167 15.5 37.5s23.166 15.5 38.499 15.5c14.667 0 27 -5.16699 37 -15.5s15 -22.833 15 -37.5s-5 -27.167 -15 -37.5
s-22.333 -15.5 -37 -15.5zM275 789c-15.333 0 -28.166 5.16699 -38.499 15.5s-15.5 22.833 -15.5 37.5s5.16699 27.167 15.5 37.5s23.166 15.5 38.499 15.5c14.667 0 27 -5.16699 37 -15.5s15 -22.833 15 -37.5s-5 -27.167 -15 -37.5s-22.333 -15.5 -37 -15.5zM525 789
c-15.333 0 -28.166 5.16699 -38.499 15.5s-15.5 22.833 -15.5 37.5s5.16699 27.167 15.5 37.5s23.166 15.5 38.499 15.5c14.667 0 27 -5.16699 37 -15.5s15 -22.833 15 -37.5s-5 -27.167 -15 -37.5s-22.333 -15.5 -37 -15.5z" />
    <glyph glyph-name="uni0457_uni0458" unicode="&#x457;&#x458;" horiz-adv-x="484" 
d="M156 0h-70v500h70v-500zM41 602c-15.333 0 -28.5 5.5 -39.5 16.5s-16.5 24.167 -16.5 39.5s5.5 28.333 16.5 39s24.167 16 39.5 16s28.5 -5.33301 39.5 -16s16.5 -23.667 16.5 -39s-5.5 -28.5 -16.5 -39.5s-24.167 -16.5 -39.5 -16.5zM241 602
c-15.333 0 -28.5 5.5 -39.5 16.5s-16.5 24.167 -16.5 39.5s5.5 28.333 16.5 39s24.167 16 39.5 16s28.5 -5.33301 39.5 -16s16.5 -23.667 16.5 -39s-5.5 -28.5 -16.5 -39.5s-24.167 -16.5 -39.5 -16.5zM441 602c-15.333 0 -28.5 5.5 -39.5 16.5s-16.5 24.167 -16.5 39.5
s5.5 28.333 16.5 39s24.167 16 39.5 16s28.5 -5.33301 39.5 -16s16.5 -23.667 16.5 -39s-5.5 -28.5 -16.5 -39.5s-24.167 -16.5 -39.5 -16.5zM267 -199c-26.667 0 -48 3.66602 -64 10.999l15 61c12.667 -4.66699 27.667 -7 45 -7c43.333 0 65 28.333 65 85v549h70v-555
c0 -47.333 -12.333 -83.166 -37 -107.499s-56 -36.5 -94 -36.5z" />
    <glyph glyph-name="uni0457_uni0457" unicode="&#x457;&#x457;" horiz-adv-x="484" 
d="M156 0h-70v500h70v-500zM398 0h-70v500h70v-500zM41 602c-15.333 0 -28.5 5.5 -39.5 16.5s-16.5 24.167 -16.5 39.5s5.5 28.333 16.5 39s24.167 16 39.5 16s28.5 -5.33301 39.5 -16s16.5 -23.667 16.5 -39s-5.5 -28.5 -16.5 -39.5s-24.167 -16.5 -39.5 -16.5zM241 602
c-15.333 0 -28.5 5.5 -39.5 16.5s-16.5 24.167 -16.5 39.5s5.5 28.333 16.5 39s24.167 16 39.5 16s28.5 -5.33301 39.5 -16s16.5 -23.667 16.5 -39s-5.5 -28.5 -16.5 -39.5s-24.167 -16.5 -39.5 -16.5zM441 602c-15.333 0 -28.5 5.5 -39.5 16.5s-16.5 24.167 -16.5 39.5
s5.5 28.333 16.5 39s24.167 16 39.5 16s28.5 -5.33301 39.5 -16s16.5 -23.667 16.5 -39s-5.5 -28.5 -16.5 -39.5s-24.167 -16.5 -39.5 -16.5z" />
    <glyph glyph-name=".notdef" horiz-adv-x="694" 
d="M97 0v710h500v-710h-500zM336 355l-220 327v-654zM357 355l221 -327v654zM563 691h-432l216 -321zM347 339l-216 -320h432z" />
    <glyph glyph-name="space" unicode=" " horiz-adv-x="245" 
 />
    <glyph glyph-name="exclam" unicode="!" horiz-adv-x="266" 
d="M111 212l-13 208v290h70v-290l-13 -208h-44zM181 0h-110v110h110v-110z" />
    <glyph glyph-name="quotedbl" unicode="&#x22;" horiz-adv-x="406" 
d="M69 475v235h66v-235h-66zM271 475v235h66v-235h-66z" />
    <glyph glyph-name="numbersign" unicode="#" horiz-adv-x="741" 
d="M354 0l64 205h-193l-63 -205h-68l64 205h-124v63h143l58 183h-128v63h148l61 196h67l-61 -196h192l62 196h66l-61 -196h125v-63h-144l-58 -183h130v-63h-150l-63 -205h-67zM303 451l-58 -183h192l58 183h-192z" />
    <glyph glyph-name="dollar" unicode="$" horiz-adv-x="498" 
d="M225 -88l-0.00195312 79.002c-74 6.66699 -133 33 -177 79l46 56c32.667 -37.333 76.334 -59.333 131.001 -66v273l-33 14c-100 39.333 -150 106 -150 200c0 49.333 17.833 89.666 53.5 120.999s78.834 49 129.501 53v77h54v-78c59.333 -6.66699 109.666 -30 150.999 -70
l-45 -55c-31.333 31.333 -66.666 50.333 -105.999 57v-259l22 -9c106.667 -44 160 -112 160 -204c0 -56.667 -17 -101.334 -51 -134.001s-77.667 -51 -131 -55v-79h-54zM390.998 173.002c0 34 -9.16699 61.499 -27.5 82.499s-46.5 39.833 -84.5 56.5v-253
c32.667 4.66699 59.5 17.334 80.5 38.001s31.5 46 31.5 76zM111.998 546.001c0 -30 8.66699 -55.167 26 -75.5s46 -38.833 86 -55.5l1 -1v238c-34 -4 -61.333 -15.667 -82 -35s-31 -43 -31 -71z" />
    <glyph glyph-name="percent" unicode="%" horiz-adv-x="994" 
d="M311 0h-78l450 710h78zM764 -8c-54.667 0 -101.167 19.333 -139.5 58s-57.5 85 -57.5 139c0 54.667 19.167 101.167 57.5 139.5s84.833 57.5 139.5 57.5c54 0 100.333 -19.167 139 -57.5s58 -84.833 58 -139.5c0 -54 -19.333 -100.333 -58 -139s-85 -58 -139 -58zM764 58
c36 0 66.667 12.833 92 38.5s38 56.5 38 92.5s-12.667 66.833 -38 92.5s-56 38.5 -92 38.5s-66.667 -12.833 -92 -38.5s-38 -56.5 -38 -92.5s12.667 -66.833 38 -92.5s56 -38.5 92 -38.5zM230 324c-54.667 0 -101.167 19.333 -139.5 58s-57.5 85 -57.5 139
c0 54.667 19.167 101.167 57.5 139.5s84.833 57.5 139.5 57.5c54 0 100.333 -19.167 139 -57.5s58 -84.833 58 -139.5c0 -54 -19.333 -100.333 -58 -139s-85 -58 -139 -58zM230 390c36 0 66.667 12.833 92 38.5s38 56.5 38 92.5s-12.667 66.833 -38 92.5s-56 38.5 -92 38.5
s-66.667 -12.833 -92 -38.5s-38 -56.5 -38 -92.5s12.667 -66.833 38 -92.5s56 -38.5 92 -38.5z" />
    <glyph glyph-name="ampersand" unicode="&#x26;" horiz-adv-x="733" 
d="M279 -10c-61.333 0 -112 19.001 -152 57.001s-60 86 -60 144c0 46 13.333 84.167 40 114.5s63.334 59.166 110.001 86.499l16 9c-27.333 27.333 -49.166 54 -65.499 80s-24.5 54.333 -24.5 85c0 46.667 16.833 84.334 50.5 113.001s75.167 43 124.5 43
s89.666 -15.333 120.999 -46s47 -69 47 -115c0 -68.667 -47.667 -127.334 -143 -176.001l163 -159l104 136l51 -38l-109 -143l186 -181h-93l-133 129c-39.333 -48.667 -76.833 -84 -112.5 -106s-75.834 -33 -120.501 -33zM284 55.001c34 0 64.833 9.49805 92.5 28.498
s57.5 49.167 89.5 90.5l-186 181l-22 -11c-39.333 -21.333 -69 -43.166 -89 -65.499s-30 -51.166 -30 -86.499c0 -41.333 14.167 -74.5 42.5 -99.5s62.5 -37.5 102.5 -37.5zM212 563.999c0 -16.667 4.33301 -33.0029 13 -49.0029s17.5 -29 26.5 -39s24.167 -25 45.5 -45l6 3
c25.333 14 44.5 25.167 57.5 33.5s25.5 20.333 37.5 36s18 32.834 18 51.501c0 30.667 -9 55.834 -27 75.501s-42.333 29.5 -73 29.5c-29.333 0 -54 -8.66699 -74 -26s-30 -40.666 -30 -69.999z" />
    <glyph glyph-name="quotesingle" unicode="'" horiz-adv-x="204" 
d="M69 475v235h66v-235h-66z" />
    <glyph glyph-name="parenleft" unicode="(" horiz-adv-x="258" 
d="M115 320c0 -155.333 36 -307 108 -455l-46 -25c-85.333 155.333 -128 315.333 -128 480s42.667 324.667 128 480l46 -25c-72 -148 -108 -299.667 -108 -455z" />
    <glyph glyph-name="parenright" unicode=")" horiz-adv-x="258" 
d="M143 320c0 155.333 -36 307 -108 455l46 25c85.333 -155.333 128 -315.333 128 -480s-42.667 -324.667 -128 -480l-46 25c72 148 108 299.667 108 455z" />
    <glyph glyph-name="asterisk" unicode="*" horiz-adv-x="424" 
d="M136 394l-47 33l75 104l-122 41l16 56l124 -41v123h58v-123l124 40l18 -55l-123 -40l76 -105l-46 -33l-78 104z" />
    <glyph glyph-name="plus" unicode="+" horiz-adv-x="502" 
d="M39 258v63h179v179h66v-179h179v-63h-179v-179h-66v179h-179z" />
    <glyph glyph-name="comma" unicode="," horiz-adv-x="249" 
d="M73 -150l47 150h-51v110h110v-111l-59 -149h-47z" />
    <glyph glyph-name="hyphen" unicode="-" horiz-adv-x="381" 
d="M68 244v72h245v-72h-245z" />
    <glyph glyph-name="period" unicode="." horiz-adv-x="230" 
d="M170 0h-110v110h110v-110z" />
    <glyph glyph-name="slash" unicode="/" horiz-adv-x="497" 
d="M22 -110l386 820h67l-386 -820h-67z" />
    <glyph glyph-name="zero" unicode="0" horiz-adv-x="620" 
d="M310 -10c-72 0 -131.167 24.5 -177.5 73.5s-69.5 112.167 -69.5 189.5v206c0 77.333 23.167 140.5 69.5 189.5s105.5 73.5 177.5 73.5s131.167 -24.5 177.5 -73.5s69.5 -112.167 69.5 -189.5v-206c0 -77.333 -23.167 -140.5 -69.5 -189.5s-105.5 -73.5 -177.5 -73.5z
M310 58c52.667 0 95.334 17.5 128.001 52.5s49 82.5 49 142.5v206c0 60 -16.333 107.5 -49 142.5s-75.334 52.5 -128.001 52.5s-95.334 -17.5 -128.001 -52.5s-49 -82.5 -49 -142.5v-206c0 -60 16.333 -107.5 49 -142.5s75.334 -52.5 128.001 -52.5z" />
    <glyph glyph-name="one" unicode="1" horiz-adv-x="295" 
d="M126 0v641h-89v69h159v-710h-70z" />
    <glyph glyph-name="two" unicode="2" horiz-adv-x="545" 
d="M38 0v57.001l274 265c68.667 64.667 103 126.334 103 185.001c0 41.333 -14 76.166 -42 104.499s-62.667 42.5 -104 42.5c-38 0 -71.333 -12.333 -100 -37s-45 -55.667 -49 -93l-71 13c6.66699 52.667 31 96.667 73 132s91.667 53 149 53c62 0 113.5 -20.333 154.5 -61
s61.5 -91.334 61.5 -152.001c0 -78 -41.333 -156 -124 -234l-217 -208h351v-67h-459z" />
    <glyph glyph-name="three" unicode="3" horiz-adv-x="567" 
d="M277 -10c-57.333 0 -109.998 16.001 -157.998 48.001s-77.667 73.333 -89 124l73 24c8.66699 -38 28.5 -68.833 59.5 -92.5s69.167 -35.5 114.5 -35.5s84.666 14.667 117.999 44s50 66.333 50 111c0 48.667 -15.333 86.667 -46 114s-71.334 41 -122.001 41h-82v58
l193 215h-321v69h416v-60l-192 -213c67.333 -1.33301 121.833 -23.333 163.5 -66s62.5 -95.334 62.5 -158.001s-22.5 -115.5 -67.5 -158.5s-102.5 -64.5 -172.5 -64.5z" />
    <glyph glyph-name="four" unicode="4" horiz-adv-x="610" 
d="M402 0v202h-385v57l395 451h60v-441h100v-67h-100v-202h-70zM111 269h291v332z" />
    <glyph glyph-name="five" unicode="5" horiz-adv-x="563" 
d="M293 -10c-57.333 0 -110 16 -158 48s-77.667 73.333 -89 124l73 24c8.66699 -38 28.5 -68.833 59.5 -92.5s69.167 -35.5 114.5 -35.5c44 0 81.167 16.167 111.5 48.5s45.5 71.5 45.5 117.5c0 46.667 -15.167 86 -45.5 118s-68.833 48 -115.5 48
c-60.667 0 -106 -21 -136 -63h-75v383h398v-69h-328v-240c14 16 34.167 29.667 60.5 41s55.5 17 87.5 17c66 0 120.167 -23.5 162.5 -70.5s63.5 -105.5 63.5 -175.5c0 -60.667 -22.333 -113 -67 -157s-98.667 -66 -162 -66z" />
    <glyph glyph-name="six" unicode="6" horiz-adv-x="556" 
d="M275 -10c-66 0 -122.168 22.833 -168.501 68.5s-69.5 99.834 -69.5 162.501c0 60 26 119.333 78 178l274 311h91l-231 -262c12.667 3.33301 26.667 5 42 5c60.667 0 112.834 -23.167 156.501 -69.5s65.5 -99.5 65.5 -159.5c0 -64.667 -23.167 -119.834 -69.5 -165.501
s-102.5 -68.5 -168.5 -68.5zM274.999 58c46.667 0 86 16.167 118 48.5s48 71.5 48 117.5s-16 85.167 -48 117.5s-71.333 48.5 -118 48.5s-86 -16.167 -118 -48.5s-48 -71.5 -48 -117.5s16 -85.167 48 -117.5s71.333 -48.5 118 -48.5z" />
    <glyph glyph-name="seven" unicode="7" horiz-adv-x="498" 
d="M144 0h-78l335 641h-373v69h457v-57z" />
    <glyph glyph-name="eight" unicode="8" horiz-adv-x="566" 
d="M283 -10c-68 0 -124 21.001 -168 63.001s-66 95 -66 159c0 44 10.667 82.333 32 115s51 57.334 89 74.001c-52.667 33.333 -79 80.333 -79 141c0 52 18.333 95 55 129s82.334 51 137.001 51c55.333 0 101.166 -17 137.499 -51s54.5 -77 54.5 -129
c0 -60.667 -25.667 -107.667 -77 -141c38 -16.667 67.333 -41.334 88 -74.001s31 -71 31 -115c0 -64.667 -21.5 -117.834 -64.5 -159.501s-99.5 -62.5 -169.5 -62.5zM283 58.001c50.667 0 90.666 14.499 119.999 43.499s44 65.5 44 109.5
c0 44.667 -14.667 81.334 -44 110.001s-69 43 -119 43c-49.333 0 -89.166 -14.333 -119.499 -43s-45.5 -65.334 -45.5 -110.001c0 -43.333 15.167 -79.666 45.5 -108.999s69.833 -44 118.5 -44zM282.999 431c38 0 68.001 10.999 90.001 32.999s33 48.333 33 79
c0 32.667 -10.833 59.334 -32.5 80.001s-51.834 31 -90.501 31c-36.667 0 -66.334 -10.5 -89.001 -31.5s-34 -47.5 -34 -79.5c0 -30.667 11.333 -57 34 -79s52.334 -33 89.001 -33z" />
    <glyph glyph-name="nine" unicode="9" horiz-adv-x="556" 
d="M75 0l232.001 263c-11.333 -2.66699 -25 -4 -41 -4c-60.667 0 -112.834 23.167 -156.501 69.5s-65.5 99.5 -65.5 159.5c0 64.667 23.167 119.834 69.5 165.501s102.5 68.5 168.5 68.5s122.167 -22.833 168.5 -68.5s69.5 -99.834 69.5 -162.501
c0 -60 -26 -119.333 -78 -178l-276 -313h-91zM282.001 322c46.667 0 86 16.167 118 48.5s48 71.5 48 117.5s-16 85.167 -48 117.5s-71.333 48.5 -118 48.5s-86 -16.167 -118 -48.5s-48 -71.5 -48 -117.5s16 -85.167 48 -117.5s71.333 -48.5 118 -48.5z" />
    <glyph glyph-name="colon" unicode=":" horiz-adv-x="246" 
d="M171 384h-110v110h110v-110zM171 0h-110v110h110v-110z" />
    <glyph glyph-name="semicolon" unicode=";" horiz-adv-x="246" 
d="M171 384h-110v110h110v-110zM72 -150l47 150h-51v110h110v-111l-59 -149h-47z" />
    <glyph glyph-name="less" unicode="&#x3c;" horiz-adv-x="438" 
d="M393 -11l-355 235v73l355 234v-80l-290 -191l290 -191v-80z" />
    <glyph glyph-name="equal" unicode="=" horiz-adv-x="566" 
d="M71 149v63h424v-63h-424zM71 368v63h424v-63h-424z" />
    <glyph glyph-name="greater" unicode="&#x3e;" horiz-adv-x="438" 
d="M400 224l-355 -235v80l290 191l-290 191v80l355 -234v-73z" />
    <glyph glyph-name="question" unicode="?" horiz-adv-x="521" 
d="M208 229l-0.00390625 19.999c0 38.667 31 81.667 93 129c33.333 24 57.333 46 72 66s22 44.667 22 74c0 38 -14.167 70.167 -42.5 96.5s-61.833 39.5 -100.5 39.5c-74 0 -128.667 -32.333 -164 -97l-58 33c20.667 40.667 50.5 72.834 89.5 96.501s83.167 35.5 132.5 35.5
c60.667 0 111.334 -20.167 152.001 -60.5s61 -88.166 61 -143.499c0 -29.333 -6.66699 -57 -20 -83s-26.666 -45.333 -39.999 -58s-29.666 -26.334 -48.999 -41.001c-35.333 -27.333 -57.666 -48 -66.999 -62c-7.33301 -12 -11 -23.667 -11 -35v-10h-70z
M290.996 -0.000976562h-110v110h110v-110z" />
    <glyph glyph-name="at" unicode="@" horiz-adv-x="815" 
d="M398 -10c-105.333 0 -189.83 33 -253.497 99s-95.5 148.667 -95.5 248c0 74 18.333 140.667 55 200s84.5 105 143.5 137s122.833 48 191.5 48c97.333 0 178.166 -29.167 242.499 -87.5s96.5 -134.5 96.5 -228.5c0 -80.667 -17.333 -142 -52 -184s-76 -63 -124 -63
c-55.333 0 -90.333 21.333 -105 64c-12 -18 -30.5 -33 -55.5 -45s-49.833 -18 -74.5 -18c-42.667 0 -78.834 15.5 -108.501 46.5s-44.5 73.167 -44.5 126.5c0 62.667 19.833 114.667 59.5 156s87.5 62 143.5 62c31.333 0 57.5 -7.83301 78.5 -23.5
s34.5 -30.834 40.5 -45.501l11 60h69l-50 -243c-6 -22 -6.33301 -40.667 -1 -56s18.666 -23 39.999 -23c32.667 0 58.5 15.833 77.5 47.5s28.5 78.5 28.5 140.5c0 75.333 -25.5 136.333 -76.5 183s-116.5 70 -196.5 70c-88 0 -163.667 -30.167 -227 -90.5
s-95 -138.166 -95 -233.499c0 -85.333 25.5 -154.333 76.5 -207s119.5 -79 205.5 -79c68.667 0 129.667 14 183 42l26 -59c-66 -29.333 -135.667 -44 -209 -44zM376.003 221c24 0 46.5 6.5 67.5 19.5s37.5 30.5 49.5 52.5l25 114c-6 22.667 -18 42.167 -36 58.5
s-40 24.5 -66 24.5c-32 0 -61 -11.5 -87 -34.5s-41.667 -51.5 -47 -85.5c-8 -42 -3 -77.333 15 -106s44.333 -43 79 -43z" />
    <glyph glyph-name="A" unicode="A" horiz-adv-x="710" 
d="M8 0l316 710h61l317 -710h-80l-99 221h-339l-98 -221h-78zM353 603l-138 -311h277z" />
    <glyph glyph-name="B" unicode="B" horiz-adv-x="628" 
d="M99 0l-0.000976562 710.001h224c65.333 0 117 -17.667 155 -53s57 -78.333 57 -129c0 -69.333 -27 -119.666 -81 -150.999c85.333 -28.667 128 -85.334 128 -170.001c0 -60.667 -22.167 -110.334 -66.5 -149.001s-103.166 -58 -176.499 -58h-240zM174.999 69.001h172
c52 0 91.667 12 119 36s41 56 41 96s-13.5 72.167 -40.5 96.5s-66.5 36.5 -118.5 36.5h-173v-265zM174.999 400.001l153.002 0.000976562c41.333 0 73.666 11.167 96.999 33.5s35 51.166 35 86.499c0 33.333 -11.833 61.833 -35.5 85.5s-55.834 35.5 -96.501 35.5h-153v-241
z" />
    <glyph glyph-name="C" unicode="C" horiz-adv-x="756" 
d="M415 -12c-102.667 0 -189.5 35.333 -260.5 106s-106.5 157.667 -106.5 261s35.5 190.333 106.5 261s157.833 106 260.5 106c64.667 0 124 -14.833 178 -44.5s97.667 -70.167 131 -121.5l-63 -40c-26 41.333 -60.333 74 -103 98s-90.334 36 -143.001 36
c-82 0 -150.833 -28.5 -206.5 -85.5s-83.5 -126.833 -83.5 -209.5c0 -83.333 27.833 -153.333 83.5 -210s124.5 -85 206.5 -85c52.667 0 100.334 12 143.001 36s77 56.667 103 98l63 -40c-33.333 -51.333 -77 -91.833 -131 -121.5s-113.333 -44.5 -178 -44.5z" />
    <glyph glyph-name="D" unicode="D" horiz-adv-x="723" 
d="M99 0v710h194c111.333 0 202.833 -33.5 274.5 -100.5s107.5 -151.833 107.5 -254.5s-35.833 -187.5 -107.5 -254.5s-163.167 -100.5 -274.5 -100.5h-194zM175 72h118c91.333 0 165 26.5 221 79.5s84 120.833 84 203.5s-28 150.5 -84 203.5s-129.667 79.5 -221 79.5h-118
v-566z" />
    <glyph glyph-name="E" unicode="E" horiz-adv-x="554" 
d="M99 0v710h405v-72h-329v-237h269v-72h-269v-257h329v-72h-405z" />
    <glyph glyph-name="F" unicode="F" horiz-adv-x="528" 
d="M99 0v710h407v-72h-331v-237h262v-72h-262v-329h-76z" />
    <glyph glyph-name="G" unicode="G" horiz-adv-x="765" 
d="M430 -12c-111.333 0 -202.835 35 -274.502 105s-107.5 157.333 -107.5 262c0 104 35.5 191.167 106.5 261.5s158.833 105.5 263.5 105.5c106.667 0 193.334 -31.333 260.001 -94l-49 -56c-57.333 52 -127.666 78 -210.999 78c-84 0 -153.833 -28.333 -209.5 -85
s-83.5 -126.667 -83.5 -210c0 -84.667 28.167 -155 84.5 -211s129.833 -84 220.5 -84c86 0 153 19.333 201 58v210h-216v72h291v-313c-65.333 -66 -157.333 -99 -276 -99z" />
    <glyph glyph-name="H" unicode="H" horiz-adv-x="765" 
d="M99 0v710h76v-309h415v309h76v-710h-76v329h-415v-329h-76z" />
    <glyph glyph-name="I" unicode="I" horiz-adv-x="274" 
d="M99 0v710h76v-710h-76z" />
    <glyph glyph-name="J" unicode="J" horiz-adv-x="469" 
d="M188 -12c-75.333 0 -135.333 27 -180 81l54 52c36.667 -41.333 78.667 -62 126 -62c75.333 0 113 45.667 113 137v514h76v-516c0 -68 -17 -119.333 -51 -154s-80 -52 -138 -52z" />
    <glyph glyph-name="K" unicode="K" horiz-adv-x="664" 
d="M573 0l-399 343v-343h-75v710h75v-311l327 311h103l-353 -337l435 -373h-113z" />
    <glyph glyph-name="L" unicode="L" horiz-adv-x="547" 
d="M99 0v710h76v-638h355v-72h-431z" />
    <glyph glyph-name="M" unicode="M" horiz-adv-x="886" 
d="M99 0v710h70l274 -429l274 429h70v-710h-76v560l-239 -374h-57l-240 376v-562h-76z" />
    <glyph glyph-name="N" unicode="N" horiz-adv-x="794" 
d="M695 0h-67l-453 581v-581h-76v710h67l453 -581v581h76v-710z" />
    <glyph glyph-name="O" unicode="O" horiz-adv-x="830" 
d="M415 60c82 0 150.833 28.333 206.5 85s83.5 126.667 83.5 210c0 82.667 -27.833 152.5 -83.5 209.5s-124.5 85.5 -206.5 85.5s-150.833 -28.5 -206.5 -85.5s-83.5 -126.833 -83.5 -209.5c0 -83.333 27.833 -153.333 83.5 -210s124.5 -85 206.5 -85zM415 -12
c-102.667 0 -189.5 35.333 -260.5 106s-106.5 157.667 -106.5 261s35.5 190.333 106.5 261s157.833 106 260.5 106s189.5 -35.333 260.5 -106s106.5 -157.667 106.5 -261s-35.5 -190.333 -106.5 -261s-157.833 -106 -260.5 -106z" />
    <glyph glyph-name="P" unicode="P" horiz-adv-x="584" 
d="M552 488c0 -64 -22.167 -116.833 -66.5 -158.5s-102.833 -62.5 -175.5 -62.5h-135v-267h-76v710h211c72.667 0 131.167 -21 175.5 -63s66.5 -95 66.5 -159zM475 488c0 44 -14.5 80.167 -43.5 108.5s-69.5 42.5 -121.5 42.5h-135v-301h135c52 0 92.5 14 121.5 42
s43.5 64 43.5 108z" />
    <glyph glyph-name="Q" unicode="Q" horiz-adv-x="837" 
d="M415 -12c-102.667 0 -189.5 35.333 -260.5 106s-106.5 157.667 -106.5 261s35.5 190.333 106.5 261s157.833 106 260.5 106s189.5 -35.333 260.5 -106s106.5 -157.667 106.5 -261c0 -94 -30 -175.333 -90 -244l70 -67l-49 -52l-74 70c-66 -49.333 -140.667 -74 -224 -74z
M415 60c64.667 0 121.667 18 171 54l-115 111l49 52l118 -114c44.667 52.667 67 116.667 67 192c0 82.667 -27.833 152.5 -83.5 209.5s-124.5 85.5 -206.5 85.5s-150.833 -28.5 -206.5 -85.5s-83.5 -126.833 -83.5 -209.5c0 -83.333 27.833 -153.333 83.5 -210
s124.5 -85 206.5 -85z" />
    <glyph glyph-name="R" unicode="R" horiz-adv-x="628" 
d="M99 0l0.000976562 710.002h232c65.333 0 116.666 -17.167 153.999 -51.5s56 -80.833 56 -139.5c0 -54.667 -16.5 -98.834 -49.5 -132.501s-78.5 -52.834 -136.5 -57.501l281 -329h-99l-281 330h-81v-330h-76zM175.001 400.002h147c94.667 0 142 39.667 142 119
c0 80 -47.333 120 -142 120h-147v-239z" />
    <glyph glyph-name="S" unicode="S" horiz-adv-x="549" 
d="M284 -12c-57.333 0 -108.332 12.1689 -152.999 36.502s-75.334 54.833 -92.001 91.5l63 45c42 -67.333 103 -101 183 -101c41.333 0 75.5 10.667 102.5 32s40.5 49.666 40.5 84.999c0 59.333 -34.333 102.333 -103 129l-105 40c-55.333 20.667 -95.333 46 -120 76
s-37 69.333 -37 118c0 54.667 20.5 98.667 61.5 132s92.833 50 155.5 50c43.333 0 82.5 -9 117.5 -27s62.833 -41.333 83.5 -70l-59 -48c-40.667 48.667 -89 73 -145 73c-39.333 0 -72.166 -10.167 -98.499 -30.5s-39.5 -46.5 -39.5 -78.5
c0 -31.333 8.16699 -55.833 24.5 -73.5s43.5 -33.834 81.5 -48.501l94 -36c55.333 -21.333 96.666 -48 123.999 -80s41 -73.333 41 -124c0 -58.667 -20.333 -105.167 -61 -139.5s-93.667 -51.5 -159 -51.5z" />
    <glyph glyph-name="T" unicode="T" horiz-adv-x="567" 
d="M246 0v638h-230v72h535v-72h-230v-638h-75z" />
    <glyph glyph-name="U" unicode="U" horiz-adv-x="728" 
d="M364 -12c-82 0 -148.169 25.833 -198.502 77.5s-75.5 121.5 -75.5 209.5v435h76v-437c0 -67.333 17.833 -119.666 53.5 -156.999s83.834 -56 144.501 -56s108.834 18.667 144.501 56s53.5 89.666 53.5 156.999v437h76v-435c0 -88 -25.167 -157.833 -75.5 -209.5
s-116.5 -77.5 -198.5 -77.5z" />
    <glyph glyph-name="V" unicode="V" horiz-adv-x="694" 
d="M316 0l-306 710h85l252 -586l252 586h84l-305 -710h-62z" />
    <glyph glyph-name="W" unicode="W" horiz-adv-x="993" 
d="M241 0l-222 710h80l178 -570l186 570h66l185 -570l179 570h81l-222 -710h-66l-190 580l-189 -580h-66z" />
    <glyph glyph-name="X" unicode="X" horiz-adv-x="662" 
d="M103 0h-96l276 359l-266 351h93l221 -289l221 289h93l-267 -351l277 -359h-96l-228 296z" />
    <glyph glyph-name="Y" unicode="Y" horiz-adv-x="669" 
d="M297 0v301l-280 409h92l226 -331l226 331h92l-281 -410v-300h-75z" />
    <glyph glyph-name="Z" unicode="Z" horiz-adv-x="578" 
d="M33 0v50l398 588h-386v72h488v-50l-399 -588h410v-72h-511z" />
    <glyph glyph-name="bracketleft" unicode="[" horiz-adv-x="298" 
d="M97 -160v960h176v-63h-110v-834h110v-63h-176z" />
    <glyph glyph-name="backslash" unicode="\" horiz-adv-x="497" 
d="M89 710l386 -820h-67l-386 820h67z" />
    <glyph glyph-name="bracketright" unicode="]" horiz-adv-x="298" 
d="M201 800v-960h-176v63h110v834h-110v63h176z" />
    <glyph glyph-name="asciicircum" unicode="^" horiz-adv-x="426" 
d="M125 500h-70l132 210h52l132 -210h-70l-88 140z" />
    <glyph glyph-name="underscore" unicode="_" horiz-adv-x="537" 
d="M58 -63v63h421v-63h-421z" />
    <glyph glyph-name="grave" unicode="`" 
d="M91 578h-62l-121 152h93z" />
    <glyph glyph-name="a" unicode="a" horiz-adv-x="628" 
d="M298 -10c-73.333 0 -133.833 25.167 -181.5 75.5s-71.5 111.833 -71.5 184.5s23.833 134.167 71.5 184.5s108.167 75.5 181.5 75.5c72.667 0 130.667 -23.667 174 -71v61h70v-500h-70v61c-43.333 -47.333 -101.333 -71 -174 -71zM301 55
c38.667 0 72.667 8.33496 102 25.002s52.333 38.667 69 66v208c-16.667 27.333 -39.667 49.333 -69 66s-63.333 25 -102 25c-54 0 -98.167 -18.833 -132.5 -56.5s-51.5 -83.834 -51.5 -138.501s17.167 -100.834 51.5 -138.501s78.5 -56.5 132.5 -56.5z" />
    <glyph glyph-name="b" unicode="b" horiz-adv-x="627" 
d="M330 -10c-72.667 0 -130.667 23.667 -174 71v-61h-70v730h70v-291c43.333 47.333 101.333 71 174 71c73.333 0 133.833 -25.167 181.5 -75.5s71.5 -111.833 71.5 -184.5s-23.833 -134.167 -71.5 -184.5s-108.167 -75.5 -181.5 -75.5zM327 55
c54 0 98.167 18.8311 132.5 56.498s51.5 83.834 51.5 138.501s-17.167 100.834 -51.5 138.501s-78.5 56.5 -132.5 56.5c-38.667 0 -72.667 -8.33301 -102 -25s-52.333 -38.667 -69 -66v-208c16.667 -27.333 39.667 -49.333 69 -66s63.333 -25 102 -25z" />
    <glyph glyph-name="c" unicode="c" horiz-adv-x="567" 
d="M305 -10c-75.333 0 -137.666 25.1689 -186.999 75.502s-74 111.833 -74 184.5s24.667 134.167 74 184.5s111.666 75.5 186.999 75.5c50.667 0 95.834 -11.667 135.501 -35s70.834 -55.333 93.501 -96l-61 -35c-16 31.333 -38.5 56 -67.5 74s-62.5 27 -100.5 27
c-56 0 -101.5 -18.833 -136.5 -56.5s-52.5 -83.834 -52.5 -138.501s17.5 -100.834 52.5 -138.501s80.5 -56.5 136.5 -56.5c38 0 71.5 9 100.5 27s51.5 42.667 67.5 74l61 -35c-22.667 -40.667 -53.834 -72.667 -93.501 -96s-84.834 -35 -135.501 -35z" />
    <glyph glyph-name="d" unicode="d" horiz-adv-x="628" 
d="M298 -10c-73.333 0 -133.833 25.167 -181.5 75.5s-71.5 111.833 -71.5 184.5s23.833 134.167 71.5 184.5s108.167 75.5 181.5 75.5c72.667 0 130.667 -23.667 174 -71v291h70v-730h-70v61c-43.333 -47.333 -101.333 -71 -174 -71zM301 55
c38.667 0 72.667 8.33496 102 25.002s52.333 38.667 69 66v208c-16.667 27.333 -39.667 49.333 -69 66s-63.333 25 -102 25c-54 0 -98.167 -18.833 -132.5 -56.5s-51.5 -83.834 -51.5 -138.501s17.167 -100.834 51.5 -138.501s78.5 -56.5 132.5 -56.5z" />
    <glyph glyph-name="e" unicode="e" horiz-adv-x="582" 
d="M302 -10c-76.667 0 -138.668 24.833 -186.001 74.5s-71 111.5 -71 185.5c0 73.333 24.333 135 73 185s110.667 75 186 75c67.333 0 123.333 -22.667 168 -68s67 -107 67 -185v-19h-422c0 -52 17.333 -95.5 52 -130.5s79 -52.5 133 -52.5c40 0 72.833 7.83301 98.5 23.5
s47.834 39.167 66.501 70.5l57 -37c-47.333 -81.333 -121.333 -122 -222 -122zM122.999 300h343c-6.66699 44.667 -25 80 -55 106s-66.667 39 -110 39s-81.833 -13.167 -115.5 -39.5s-54.5 -61.5 -62.5 -105.5z" />
    <glyph glyph-name="f" unicode="f" horiz-adv-x="385" 
d="M133 0l-0.000976562 434.001h-117v66h117v84c0 47.333 13.833 84.5 41.5 111.5s64.167 40.5 109.5 40.5c36.667 0 69 -8 97 -24l-27 -59c-26 12 -49.333 18 -70 18c-25.333 0 -45.166 -8.33301 -59.499 -25s-21.5 -39.334 -21.5 -68.001v-78h171v-66h-171v-434h-70z" />
    <glyph glyph-name="g" unicode="g" horiz-adv-x="628" 
d="M296 -204c-51.333 0 -96.8311 9.16895 -136.498 27.502s-69.834 42.166 -90.501 71.499l55 47c41.333 -54 98.666 -81 171.999 -81c47.333 0 88.5 14.667 123.5 44s52.5 72.666 52.5 129.999v40c-43.333 -47.333 -101.333 -71 -174 -71
c-73.333 0 -133.833 24.5 -181.5 73.5s-71.5 108.833 -71.5 179.5s24 130.5 72 179.5s108.333 73.5 181 73.5s130.667 -23.667 174 -71v61h70v-469c0 -74 -23 -131.667 -69 -173s-105 -62 -177 -62zM301.002 69.002c38.667 0 72.667 8.33301 102 25s52.333 38.667 69 66v194
c-16.667 27.333 -39.667 49.333 -69 66s-63.333 25 -102 25c-53.333 0 -97.333 -18 -132 -54s-52 -80.667 -52 -134c0 -52.667 17.5 -97.167 52.5 -133.5s78.833 -54.5 131.5 -54.5z" />
    <glyph glyph-name="h" unicode="h" horiz-adv-x="586" 
d="M156 0h-70v730h70v-300c34 53.333 88.667 80 164 80c55.333 0 100.5 -17.667 135.5 -53s52.5 -83.333 52.5 -144v-313h-70v303c0 45.333 -11.833 80.333 -35.5 105s-56.5 37 -98.5 37c-38 0 -69.5 -10.167 -94.5 -30.5s-42.833 -47.5 -53.5 -81.5v-333z" />
    <glyph glyph-name="i" unicode="i" horiz-adv-x="242" 
d="M122 630c-15.333 0 -28.166 5.16699 -38.499 15.5s-15.5 22.833 -15.5 37.5s5.16699 27.167 15.5 37.5s23.166 15.5 38.499 15.5c14.667 0 27 -5.16699 37 -15.5s15 -22.833 15 -37.5s-5 -27.167 -15 -37.5s-22.333 -15.5 -37 -15.5zM86 0v500h70v-500h-70z" />
    <glyph glyph-name="j" unicode="j" horiz-adv-x="250" 
d="M33 -199c-26.667 0 -48 3.66602 -64 10.999l15 61c12.667 -4.66699 27.667 -7 45 -7c43.333 0 65 28.333 65 85v549h70v-555c0 -47.333 -12.333 -83.166 -37 -107.499s-56 -36.5 -94 -36.5zM130 629.999c-15.333 0 -28.166 5.16699 -38.499 15.5s-15.5 22.833 -15.5 37.5
s5.16699 27.167 15.5 37.5s23.166 15.5 38.499 15.5c14.667 0 27 -5.16699 37 -15.5s15 -22.833 15 -37.5s-5 -27.167 -15 -37.5s-22.333 -15.5 -37 -15.5z" />
    <glyph glyph-name="k" unicode="k" horiz-adv-x="534" 
d="M447 0l-291 255v-255h-70v730h70v-427l235 197h99l-263 -220l320 -280h-100z" />
    <glyph glyph-name="l" unicode="l" horiz-adv-x="242" 
d="M86 0v730h70v-730h-70z" />
    <glyph glyph-name="m" unicode="m" horiz-adv-x="882" 
d="M734 0v301.999c0 44.667 -11 79.667 -33 105s-51.667 38 -89 38c-33.333 0 -61.5 -9.83301 -84.5 -29.5s-39.5 -46.5 -49.5 -80.5c1.33301 -9.33301 2 -16.666 2 -21.999v-313h-70v302c0 44.667 -11 79.667 -33 105s-51.667 38 -89 38c-32 0 -59.5 -8.83301 -82.5 -26.5
s-39.5 -41.5 -49.5 -71.5v-347h-70v500h70v-58c33.333 45.333 83 68 149 68s115.333 -29.333 148 -88c38.667 58.667 95 88 169 88c56 0 100.333 -17.667 133 -53s49 -83.333 49 -144v-313h-70z" />
    <glyph glyph-name="n" unicode="n" horiz-adv-x="586" 
d="M86 0v500h70v-70c34 53.333 88.667 80 164 80c55.333 0 100.5 -17.667 135.5 -53s52.5 -83.333 52.5 -144v-313h-70v303c0 45.333 -11.833 80.333 -35.5 105s-56.5 37 -98.5 37c-38 0 -69.5 -10.167 -94.5 -30.5s-42.833 -47.5 -53.5 -81.5v-333h-70z" />
    <glyph glyph-name="o" unicode="o" horiz-adv-x="610" 
d="M305 -10c-75.333 0 -137.666 25.167 -186.999 75.5s-74 111.833 -74 184.5s24.667 134.167 74 184.5s111.666 75.5 186.999 75.5s137.666 -25.167 186.999 -75.5s74 -111.833 74 -184.5s-24.667 -134.167 -74 -184.5s-111.666 -75.5 -186.999 -75.5zM305 55
c56 0 101.5 18.833 136.5 56.5s52.5 83.834 52.5 138.501s-17.5 100.834 -52.5 138.501s-80.5 56.5 -136.5 56.5s-101.5 -18.833 -136.5 -56.5s-52.5 -83.834 -52.5 -138.501s17.5 -100.834 52.5 -138.501s80.5 -56.5 136.5 -56.5z" />
    <glyph glyph-name="p" unicode="p" horiz-adv-x="627" 
d="M86 -194v694h70v-61c43.333 47.333 101.333 71 174 71c73.333 0 133.833 -25.167 181.5 -75.5s71.5 -111.833 71.5 -184.5s-23.833 -134.167 -71.5 -184.5s-108.167 -75.5 -181.5 -75.5c-72.667 0 -130.667 23.667 -174 71v-255h-70zM327 55
c54 0 98.167 18.8311 132.5 56.498s51.5 83.834 51.5 138.501s-17.167 100.834 -51.5 138.501s-78.5 56.5 -132.5 56.5c-38.667 0 -72.667 -8.33301 -102 -25s-52.333 -38.667 -69 -66v-208c16.667 -27.333 39.667 -49.333 69 -66s63.333 -25 102 -25z" />
    <glyph glyph-name="q" unicode="q" horiz-adv-x="628" 
d="M472 -194v255c-43.333 -47.333 -101.333 -71 -174 -71c-73.333 0 -133.833 25.167 -181.5 75.5s-71.5 111.833 -71.5 184.5s23.833 134.167 71.5 184.5s108.167 75.5 181.5 75.5c72.667 0 130.667 -23.667 174 -71v61h70v-694h-70zM301 55
c38.667 0 72.667 8.33496 102 25.002s52.333 38.667 69 66v208c-16.667 27.333 -39.667 49.333 -69 66s-63.333 25 -102 25c-54 0 -98.167 -18.833 -132.5 -56.5s-51.5 -83.834 -51.5 -138.501s17.167 -100.834 51.5 -138.501s78.5 -56.5 132.5 -56.5z" />
    <glyph glyph-name="r" unicode="r" horiz-adv-x="351" 
d="M86 0v500h70v-78c11.333 22.667 30 42.167 56 58.5s54 24.5 84 24.5c16 0 29.667 -1.33301 41 -4l-9 -72c-12.667 4 -27 6 -43 6c-28.667 0 -55 -9.83301 -79 -29.5s-40.667 -46.167 -50 -79.5v-326h-70z" />
    <glyph glyph-name="s" unicode="s" horiz-adv-x="447" 
d="M232 -10c-47.333 0 -88.166 10.5 -122.499 31.5s-58.166 51.5 -71.499 91.5l63 26c8 -26.667 24.5 -47.667 49.5 -63s52.5 -23 82.5 -23c28 0 51.167 6.83301 69.5 20.5s27.5 32.5 27.5 56.5c0 20 -7.16699 36.833 -21.5 50.5s-38.5 26.167 -72.5 37.5l-54 17
c-80 24.667 -120 72 -120 142c0 40.667 15.833 73 47.5 97s71.5 36 119.5 36c75.333 0 129.333 -29.333 162 -88l-56 -35c-26.667 40.667 -63.334 61 -110.001 61c-24.667 0 -46.334 -6.5 -65.001 -19.5s-28 -29.167 -28 -48.5c0 -37.333 26 -64.333 78 -81l57 -18
c88.667 -28 133 -76.333 133 -145c0 -46 -15.5 -81.833 -46.5 -107.5s-71.5 -38.5 -121.5 -38.5z" />
    <glyph glyph-name="t" unicode="t" horiz-adv-x="399" 
d="M285 -5c-41.333 0 -75.834 12.332 -103.501 36.999s-41.5 60.334 -41.5 107.001v295h-127v66h127v139h70v-139h156v-66h-156v-289c0 -30 7.5 -52 22.5 -66s34.5 -21 58.5 -21c26.667 0 51.334 6.33301 74.001 19l21 -60c-28 -14.667 -61.667 -22 -101 -22z" />
    <glyph glyph-name="u" unicode="u" horiz-adv-x="576" 
d="M490 500l-0.00195312 -500h-70v70c-17.333 -26.667 -40.166 -46.667 -68.499 -60s-58.5 -20 -90.5 -20c-53.333 0 -97.166 17.833 -131.499 53.5s-51.5 83.5 -51.5 143.5v313h70v-303c0 -45.333 11.667 -80.333 35 -105s54.666 -37 93.999 -37
c35.333 0 65.333 10.167 90 30.5s42.334 47.5 53.001 81.5v333h70z" />
    <glyph glyph-name="v" unicode="v" horiz-adv-x="539" 
d="M242 0l-234 500h78l183 -397l183 397h79l-234 -500h-55z" />
    <glyph glyph-name="w" unicode="w" horiz-adv-x="751" 
d="M508 0l-133 381l-132 -381h-58l-171 500h72l129 -380l133 380h54l132 -380l130 380h73l-171 -500h-58z" />
    <glyph glyph-name="x" unicode="x" horiz-adv-x="518" 
d="M422 0l-163 201l-163 -201h-89l208 256l-187 244h85l145 -189l146 189h86l-188 -245l208 -255h-88z" />
    <glyph glyph-name="y" unicode="y" horiz-adv-x="540" 
d="M208 -194h-79l103 219l-222 475h78l183 -397l183 397h79z" />
    <glyph glyph-name="z" unicode="z" horiz-adv-x="479" 
d="M40 0v56l302 379h-298v65h388v-57l-301 -378h310v-65h-401z" />
    <glyph glyph-name="braceleft" unicode="{" horiz-adv-x="308" 
d="M283 -160l-52.999 -0.000976562c-46.667 0 -78.834 11.5 -96.501 34.5s-26.5 59.167 -26.5 108.5v230c0 27.333 -3.83301 46.666 -11.5 57.999s-23.5 17 -47.5 17h-17v63h17c24 0 39.833 5.66699 47.5 17s11.5 30.666 11.5 57.999v231c0 50 8.83301 86.333 26.5 109
s49.5 34 95.5 34h54v-63h-48c-25.333 0 -42 -5.66699 -50 -17s-12 -31.333 -12 -60v-227c0 -33.333 -3.5 -58.166 -10.5 -74.499s-20.833 -29.166 -41.5 -38.499c20 -11.333 33.667 -25.166 41 -41.499s11 -40.5 11 -72.5v-226c0 -29.333 4 -49.5 12 -60.5
s24.667 -16.5 50 -16.5h48v-63z" />
    <glyph glyph-name="bar" unicode="|" horiz-adv-x="261" 
d="M97 -110v820h67v-820h-67z" />
    <glyph glyph-name="braceright" unicode="}" horiz-adv-x="308" 
d="M78 -160l-52.999 0.000976562v63h48c25.333 0 42 5.5 50 16.5s12 31.167 12 60.5v226c0 32 3.66699 56.167 11 72.5s21 30.166 41 41.499c-20.667 9.33301 -34.5 22.166 -41.5 38.499s-10.5 41.166 -10.5 74.499v227c0 28.667 -4 48.667 -12 60s-24.667 17 -50 17h-48v63
h54c46 0 77.833 -11.333 95.5 -34s26.5 -59 26.5 -109v-231c0 -27.333 3.83301 -46.666 11.5 -57.999s23.5 -17 47.5 -17h17v-63h-17c-24 0 -39.833 -5.66699 -47.5 -17s-11.5 -30.666 -11.5 -57.999v-230c0 -49.333 -8.83301 -85.5 -26.5 -108.5
s-49.834 -34.5 -96.501 -34.5z" />
    <glyph glyph-name="asciitilde" unicode="~" horiz-adv-x="432" 
d="M72 230l55 119h46l95 -61l28 61h66l-55 -119h-46l-96 60l-27 -60h-66z" />
    <glyph glyph-name="uni00A0" unicode="&#xa0;" horiz-adv-x="245" 
 />
    <glyph glyph-name="exclamdown" unicode="&#xa1;" horiz-adv-x="246" 
d="M145 289l13 -192v-291h-70v291l13 192h44zM171 390h-110v110h110v-110z" />
    <glyph glyph-name="cent" unicode="&#xa2;" horiz-adv-x="572" 
d="M277 -88l-0.000976562 80c-68 6.66699 -123.667 34.5 -167 83.5s-65 107.167 -65 174.5c0 66.667 21.833 124.667 65.5 174s99.167 77.333 166.5 84v80h54v-79c91.333 -8 159.333 -51.333 204 -130l-61 -35c-30 59.333 -77.667 92.333 -143 99v-387
c66.667 8 114.334 41.333 143.001 100l61 -35c-44.667 -78.667 -112.667 -122 -204 -130v-79h-54zM116.999 250c0 -50.667 14.5 -93.833 43.5 -129.5s67.833 -56.834 116.5 -63.501v386c-48.667 -6.66699 -87.5 -28.167 -116.5 -64.5s-43.5 -79.166 -43.5 -128.499z" />
    <glyph glyph-name="sterling" unicode="&#xa3;" horiz-adv-x="552" 
d="M53 338l0.000976562 54.002h59c-14 50 -21 92.333 -21 127c0 58 19.5 106.333 58.5 145s90.833 58 155.5 58c50 0 93.5 -15.333 130.5 -46s61.833 -69.334 74.5 -116.001l-60 -26c-16.667 37.333 -35.834 66.666 -57.501 87.999s-51.5 32 -89.5 32
c-43.333 0 -77.833 -12.5 -103.5 -37.5s-38.5 -57.5 -38.5 -97.5c0 -36.667 8.33301 -79 25 -127h196v-54h-179c17.333 -52 26 -97.667 26 -137c0 -54 -13.667 -98.333 -41 -133h320v-68h-455v68h49c38.667 32 58 74.667 58 128c0 20 -10.667 67.333 -32 142h-75z" />
    <glyph glyph-name="yen" unicode="&#xa5;" horiz-adv-x="658" 
d="M89 300v54h171l-229 356h84l214 -340l213 340h85l-229 -356h171v-54h-205v-74h205v-54h-205v-172h-70v172h-205v54h205v74h-205z" />
    <glyph glyph-name="brokenbar" unicode="&#xa6;" horiz-adv-x="261" 
d="M97 -110v367h67v-367h-67zM97 343v367h67v-367h-67z" />
    <glyph glyph-name="section" unicode="&#xa7;" horiz-adv-x="459" 
d="M240 -219c-42.667 0 -79.8291 10.6689 -111.496 32.002s-50.167 54 -55.5 98h68c5.33301 -24 17.166 -41.5 35.499 -52.5s39.5 -16.5 63.5 -16.5c27.333 0 50.166 8.5 68.499 25.5s26.833 39.167 25.5 66.5c-2.66699 54 -36.667 96.333 -102 127l-65 29
c-75.333 33.333 -113 88 -113 164c0 77.333 38 131.666 114 162.999c-34.667 18 -61.5 39.667 -80.5 65s-28.5 58 -28.5 98c0 42 13.833 76.167 41.5 102.5s64.5 39.5 110.5 39.5c42 0 77.333 -10.667 106 -32s45.667 -54 51 -98h-68c-10.667 46 -40.334 69 -89.001 69
c-26.667 0 -47.334 -7.66699 -62.001 -23s-22 -35 -22 -59c0 -30 9.5 -53.833 28.5 -71.5s43.5 -32.834 73.5 -45.501l65 -29c75.333 -33.333 113 -88 113 -164c0 -78 -38.667 -132.667 -116 -164c71.333 -40.667 108.333 -98 111 -172
c1.33301 -45.333 -13.5 -82 -44.5 -110s-70.167 -42 -117.5 -42zM122.005 254.002c0 -47.333 27.667 -83.333 83 -108l10 -5c41.333 14 72.333 30.5 93 49.5s31 45.167 31 78.5c0 47.333 -27.667 83.333 -83 108l-10 4c-41.333 -13.333 -72.333 -29.333 -93 -48
s-31 -45 -31 -79z" />
    <glyph glyph-name="dieresis" unicode="&#xa8;" 
d="M-110 602c-15.333 0 -28.166 5.16699 -38.499 15.5s-15.5 22.833 -15.5 37.5s5.16699 27.167 15.5 37.5s23.166 15.5 38.499 15.5c14.667 0 27 -5.16699 37 -15.5s15 -22.833 15 -37.5s-5 -27.167 -15 -37.5s-22.333 -15.5 -37 -15.5zM112 602
c-15.333 0 -28.166 5.16699 -38.499 15.5s-15.5 22.833 -15.5 37.5s5.16699 27.167 15.5 37.5s23.166 15.5 38.499 15.5c14.667 0 27 -5.16699 37 -15.5s15 -22.833 15 -37.5s-5 -27.167 -15 -37.5s-22.333 -15.5 -37 -15.5z" />
    <glyph glyph-name="copyright" unicode="&#xa9;" horiz-adv-x="829" 
d="M414 55c82 0 152.667 29.502 212 88.502s89 129.5 89 211.5s-29.667 152.5 -89 211.5s-130 88.5 -212 88.5s-152.5 -29.333 -211.5 -88s-88.5 -129.334 -88.5 -212.001s29.5 -153.334 88.5 -212.001s129.5 -88 211.5 -88zM414 -11.998c-100.667 0 -187 36 -259 108
s-108 158.333 -108 259s36 187 108 259s158.333 108 259 108c101.333 0 188 -35.833 260 -107.5s108 -158.167 108 -259.5s-36 -187.833 -108 -259.5s-158.667 -107.5 -260 -107.5zM417 163.002c-53.333 0 -98.8311 18.668 -136.498 56.001s-56.5 82.666 -56.5 135.999
s18.833 98.833 56.5 136.5s83.167 56.5 136.5 56.5c37.333 0 70.833 -8.5 100.5 -25.5s52.5 -40.5 68.5 -70.5l-57 -33c-24.667 43.333 -62 65 -112 65c-36 0 -66 -12.5 -90 -37.5s-36 -55.5 -36 -91.5c0 -35.333 12.167 -65.5 36.5 -90.5s54.166 -37.5 89.499 -37.5
c49.333 0 86.666 21.333 111.999 64l57 -32c-16 -30 -38.833 -53.5 -68.5 -70.5s-63.167 -25.5 -100.5 -25.5z" />
    <glyph glyph-name="ordfeminine" unicode="&#xaa;" horiz-adv-x="422" 
d="M196 404c-44 0 -80 15.1689 -108 45.502s-42 67.166 -42 110.499s14 80.166 42 110.499s64 45.5 108 45.5c38 0 68.667 -12 92 -36v30h61v-300h-61v30c-23.333 -24 -54 -36 -92 -36zM203 460.002c36.667 0 65 14.667 85 44v112c-20 29.333 -48.333 44 -85 44
c-27.333 0 -49.833 -9.66699 -67.5 -29s-26.5 -43 -26.5 -71s8.83301 -51.667 26.5 -71s40.167 -29 67.5 -29z" />
    <glyph glyph-name="guillemotleft" unicode="&#xab;" horiz-adv-x="465" 
d="M291 250l119 -202l-49 -32l-152 234l152 234l49 -32zM127 250l119 -202l-49 -32l-152 234l152 234l49 -32z" />
    <glyph glyph-name="uni00AD" unicode="&#xad;" horiz-adv-x="381" 
d="M68 244v72h245v-72h-245z" />
    <glyph glyph-name="registered" unicode="&#xae;" horiz-adv-x="829" 
d="M414 -12c-100.667 0 -187 36 -259 108s-108 158.333 -108 259s36 187 108 259s158.333 108 259 108c101.333 0 188 -35.833 260 -107.5s108 -158.167 108 -259.5s-36 -187.833 -108 -259.5s-158.667 -107.5 -260 -107.5zM414 55c82 0 152.667 29.502 212 88.502
s89 129.5 89 211.5s-29.667 152.5 -89 211.5s-130 88.5 -212 88.5s-152.5 -29.333 -211.5 -88s-88.5 -129.334 -88.5 -212.001s29.5 -153.334 88.5 -212.001s129.5 -88 211.5 -88zM297 169.002l-0.000976562 373h137c34.667 0 62.334 -10 83.001 -30s31 -46 31 -78
c0 -50 -27.333 -83 -82 -99l137 -166h-81l-133 161h-25v-161h-67zM363.999 388.002h63c16.667 0 30 4 40 12s15 19.333 15 34c0 30.667 -18.333 46 -55 46h-63v-92z" />
    <glyph glyph-name="macron" unicode="&#xaf;" 
d="M-158 649v61h316v-61h-316z" />
    <glyph glyph-name="degree" unicode="&#xb0;" horiz-adv-x="338" 
d="M169 523c19.333 0 35.666 6.66699 48.999 20s20 29.666 20 48.999s-6.66699 35.666 -20 48.999s-29.666 20 -48.999 20s-35.666 -6.66699 -48.999 -20s-20 -29.666 -20 -48.999s6.66699 -35.666 20 -48.999s29.666 -20 48.999 -20zM169 470
c-34 0 -62.833 11.833 -86.5 35.5s-35.5 52.5 -35.5 86.5s11.833 62.833 35.5 86.5s52.5 35.5 86.5 35.5s62.833 -11.833 86.5 -35.5s35.5 -52.5 35.5 -86.5s-11.833 -62.833 -35.5 -86.5s-52.5 -35.5 -86.5 -35.5z" />
    <glyph glyph-name="twosuperior" unicode="&#xb2;" horiz-adv-x="350" 
d="M31 410v52l167 162c34 31.333 51 62 51 92c0 20.667 -7 38 -21 52s-31.667 21 -53 21c-20.667 0 -38.5 -6.66699 -53.5 -20s-24.167 -30.333 -27.5 -51l-60 13c6 35.333 22.167 63.833 48.5 85.5s57.833 32.5 94.5 32.5c38.667 0 70.667 -11.833 96 -35.5
s38 -55.167 38 -94.5c0 -45.333 -24.667 -92 -74 -140l-113 -110h192v-59h-285z" />
    <glyph glyph-name="threesuperior" unicode="&#xb3;" horiz-adv-x="355" 
d="M175 403c-35.333 0 -67.667 10.001 -97 30.001s-48 45.667 -56 77l60 22c5.33301 -20.667 16.5 -37.334 33.5 -50.001s37.167 -19 60.5 -19c24.667 0 45.167 7.33301 61.5 22s24.5 33.667 24.5 57c0 24.667 -8.16699 44.167 -24.5 58.5s-37.833 21.5 -64.5 21.5h-52v50
l101 110h-174v60h255v-50l-106 -115c38.667 -2.66699 69.5 -16.667 92.5 -42s34.5 -56.333 34.5 -93c0 -40 -13.833 -73.167 -41.5 -99.5s-63.5 -39.5 -107.5 -39.5z" />
    <glyph glyph-name="acute" unicode="&#xb4;" 
d="M-92 578l90 152h93l-121 -152h-62z" />
    <glyph glyph-name="paragraph" unicode="&#xb6;" horiz-adv-x="612" 
d="M256 -184v444c-62 0 -115 22 -159 66s-66 97 -66 159s22 115 66 159s97 66 159 66h247v-894h-67v828h-113v-828h-67z" />
    <glyph glyph-name="periodcentered" unicode="&#xb7;" horiz-adv-x="244" 
d="M170 210h-110v110h110v-110z" />
    <glyph glyph-name="cedilla" unicode="&#xb8;" 
d="M-101 -187l13.001 47c22.667 -9.33301 45.667 -14 69 -14c16 0 29.833 3 41.5 9s17.5 14.667 17.5 26c0 18.667 -13.667 28 -41 28c-13.333 0 -29 -3 -47 -9l-29 23l48 80h52l-33 -53c12 4 24 6 36 6c22 0 40 -6.33301 54 -19s21 -30 21 -52
c0 -28.667 -10.667 -50.667 -32 -66s-50.333 -23 -87 -23c-32.667 0 -60.334 5.66699 -83.001 17z" />
    <glyph glyph-name="onesuperior" unicode="&#xb9;" horiz-adv-x="205" 
d="M82 410v375h-62v57h120v-432h-58z" />
    <glyph glyph-name="ordmasculine" unicode="&#xba;" horiz-adv-x="404" 
d="M202 404c-44.667 0 -82 15 -112 45s-45 67 -45 111s15 81 45 111s67.333 45 112 45s82 -15 112 -45s45 -67 45 -111s-15 -81 -45 -111s-67.333 -45 -112 -45zM202 461c28 0 50.833 9.50195 68.5 28.502s26.5 42.5 26.5 70.5s-8.83301 51.5 -26.5 70.5
s-40.5 28.5 -68.5 28.5s-50.833 -9.33301 -68.5 -28s-26.5 -42.334 -26.5 -71.001s8.83301 -52.334 26.5 -71.001s40.5 -28 68.5 -28z" />
    <glyph glyph-name="guillemotright" unicode="&#xbb;" horiz-adv-x="465" 
d="M219 48l119 202l-119 202l49 32l152 -234l-152 -234zM55 48l119 202l-119 202l49 32l152 -234l-152 -234z" />
    <glyph glyph-name="onequarter" unicode="&#xbc;" horiz-adv-x="756" 
d="M81 278v375h-62v57h120v-432h-58zM88 0h-69l500 710h69zM612 1v112h-225v49l232 271h54v-263h59v-57h-59v-112h-61zM464 170h148v171z" />
    <glyph glyph-name="onehalf" unicode="&#xbd;" horiz-adv-x="743" 
d="M81 278v375h-62v57h120v-432h-58zM88 0h-69l500 710h69zM424 1v52l167 162c34 31.333 51 62 51 92c0 20.667 -7 38 -21 52s-31.667 21 -53 21c-20.667 0 -38.5 -6.66699 -53.5 -20s-24.167 -30.333 -27.5 -51l-60 13c6 35.333 22.167 63.833 48.5 85.5
s57.833 32.5 94.5 32.5c38.667 0 70.667 -11.833 96 -35.5s38 -55.167 38 -94.5c0 -45.333 -24.667 -92 -74 -140l-113 -110h192v-59h-285z" />
    <glyph glyph-name="threequarters" unicode="&#xbe;" horiz-adv-x="898" 
d="M175 271c-35.333 0 -67.667 10.001 -97 30.001s-48 45.667 -56 77l60 22c5.33301 -20.667 16.5 -37.334 33.5 -50.001s37.167 -19 60.5 -19c24.667 0 45.167 7.33301 61.5 22s24.5 33.667 24.5 57c0 24.667 -8.16699 44.167 -24.5 58.5s-37.833 21.5 -64.5 21.5h-52v50
l101 110h-174v60h255v-50l-106 -115c38.667 -2.66699 69.5 -16.667 92.5 -42s34.5 -56.333 34.5 -93c0 -40 -13.833 -73.167 -41.5 -99.5s-63.5 -39.5 -107.5 -39.5zM229.999 0.000976562h-69l500 710h69zM753.999 1.00098v112h-225v49l232 271h54v-263h59v-57h-59v-112h-61
zM605.999 170.001h148v171z" />
    <glyph glyph-name="questiondown" unicode="&#xbf;" horiz-adv-x="511" 
d="M262 -204c-60.667 0 -111.33 20.1699 -151.997 60.5029s-61 88.166 -61 143.499c0 29.333 6.66699 57 20 83s26.666 45.333 39.999 58s29.666 26.334 48.999 41.001c35.333 27.333 57.666 48 66.999 62c7.33301 12 11 23.667 11 35v10h70v-20c0 -38 -31 -81 -93 -129
c-23.333 -18 -40.5 -32.333 -51.5 -43s-20.833 -24.334 -29.5 -41.001s-13 -35.334 -13 -56.001c0 -38 14.167 -70.167 42.5 -96.5s61.833 -39.5 100.5 -39.5c74 0 128.667 32.333 164 97l58 -33c-20.667 -40.667 -50.5 -72.834 -89.5 -96.501s-83.167 -35.5 -132.5 -35.5z
M319.004 390.003h-110v110h110v-110z" />
    <glyph glyph-name="Agrave" unicode="&#xc0;" horiz-adv-x="710" 
d="M8 0l316 710h61l317 -710h-80l-99 221h-339l-98 -221h-78zM353 603l-138 -311h277zM382 768h-63l-112 137h95z" />
    <glyph glyph-name="Aacute" unicode="&#xc1;" horiz-adv-x="710" 
d="M8 0l316 710h61l317 -710h-80l-99 221h-339l-98 -221h-78zM353 603l-138 -311h277zM325 768l80 137h95l-112 -137h-63z" />
    <glyph glyph-name="Acircumflex" unicode="&#xc2;" horiz-adv-x="710" 
d="M8 0l316 710h61l317 -710h-80l-99 221h-339l-98 -221h-78zM353 603l-138 -311h277zM184 768l130 137h82l130 -137h-83l-89 92l-87 -92h-83z" />
    <glyph glyph-name="Atilde" unicode="&#xc3;" horiz-adv-x="710" 
d="M8 0l316 710h61l317 -710h-80l-99 221h-339l-98 -221h-78zM353 603l-138 -311h277zM186 788l3 16c5.33301 26.667 17.166 48.167 35.499 64.5s40.5 24.5 66.5 24.5c18 0 41.5 -7.16699 70.5 -21.5s48.167 -21.5 57.5 -21.5c22 0 36.333 14.333 43 43h61l-3 -16
c-5.33301 -26.667 -17.166 -48.167 -35.499 -64.5s-40.5 -24.5 -66.5 -24.5c-18 0 -41.5 7.16699 -70.5 21.5s-48.167 21.5 -57.5 21.5c-22 0 -36.333 -14.333 -43 -43h-61z" />
    <glyph glyph-name="Adieresis" unicode="&#xc4;" horiz-adv-x="710" 
d="M8 0l316 710h61l317 -710h-80l-99 221h-339l-98 -221h-78zM353 603l-138 -311h277zM244 789c-15.333 0 -28.166 5.16699 -38.499 15.5s-15.5 22.833 -15.5 37.5s5.16699 27.167 15.5 37.5s23.166 15.5 38.499 15.5c14.667 0 27 -5.16699 37 -15.5s15 -22.833 15 -37.5
s-5 -27.167 -15 -37.5s-22.333 -15.5 -37 -15.5zM466 789c-15.333 0 -28.166 5.16699 -38.499 15.5s-15.5 22.833 -15.5 37.5s5.16699 27.167 15.5 37.5s23.166 15.5 38.499 15.5c14.667 0 27 -5.16699 37 -15.5s15 -22.833 15 -37.5s-5 -27.167 -15 -37.5
s-22.333 -15.5 -37 -15.5z" />
    <glyph glyph-name="Aring" unicode="&#xc5;" horiz-adv-x="710" 
d="M8 0l316 710h61l317 -710h-80l-99 221h-339l-98 -221h-78zM353 603l-138 -311h277zM354 753c-33.333 0 -61.833 11.6709 -85.5 35.0039s-35.5 51.666 -35.5 84.999s11.833 61.666 35.5 84.999s52.167 35 85.5 35s62 -11.833 86 -35.5s36 -51.834 36 -84.501
s-12 -60.834 -36 -84.501s-52.667 -35.5 -86 -35.5zM354 800.004c20.667 0 38.167 7 52.5 21s21.5 31.333 21.5 52c0 20 -7.16699 37.333 -21.5 52s-31.833 22 -52.5 22c-20 0 -37.167 -7.33301 -51.5 -22s-21.5 -32 -21.5 -52c0 -20.667 7.16699 -38 21.5 -52
s31.5 -21 51.5 -21z" />
    <glyph glyph-name="AE" unicode="&#xc6;" horiz-adv-x="906" 
d="M451 0v221h-253l-134 -221h-86l433 710h445v-72h-329v-237h269v-72h-269v-257h329v-72h-405zM450 638l-209 -346h210v346h-1z" />
    <glyph glyph-name="Ccedilla" unicode="&#xc7;" horiz-adv-x="756" 
d="M415 -12c-102.667 0 -189.5 35.333 -260.5 106s-106.5 157.667 -106.5 261s35.5 190.333 106.5 261s157.833 106 260.5 106c64.667 0 124 -14.833 178 -44.5s97.667 -70.167 131 -121.5l-63 -40c-26 41.333 -60.333 74 -103 98s-90.334 36 -143.001 36
c-82 0 -150.833 -28.5 -206.5 -85.5s-83.5 -126.833 -83.5 -209.5c0 -83.333 27.833 -153.333 83.5 -210s124.5 -85 206.5 -85c52.667 0 100.334 12 143.001 36s77 56.667 103 98l63 -40c-33.333 -51.333 -77 -91.833 -131 -121.5s-113.333 -44.5 -178 -44.5zM315 -187
l13.001 47c22.667 -9.33301 45.667 -14 69 -14c16 0 29.833 3 41.5 9s17.5 14.667 17.5 26c0 18.667 -13.667 28 -41 28c-13.333 0 -29 -3 -47 -9l-29 23l48 80h52l-33 -53c12 4 24 6 36 6c22 0 40 -6.33301 54 -19s21 -30 21 -52c0 -28.667 -10.667 -50.667 -32 -66
s-50.333 -23 -87 -23c-32.667 0 -60.334 5.66699 -83.001 17z" />
    <glyph glyph-name="Egrave" unicode="&#xc8;" horiz-adv-x="554" 
d="M99 0v710h405v-72h-329v-237h269v-72h-269v-257h329v-72h-405zM329 768h-63l-112 137h95z" />
    <glyph glyph-name="Eacute" unicode="&#xc9;" horiz-adv-x="554" 
d="M99 0v710h405v-72h-329v-237h269v-72h-269v-257h329v-72h-405zM272 768l80 137h95l-112 -137h-63z" />
    <glyph glyph-name="Ecircumflex" unicode="&#xca;" horiz-adv-x="554" 
d="M99 0v710h405v-72h-329v-237h269v-72h-269v-257h329v-72h-405zM131 768l130 137h82l130 -137h-83l-89 92l-87 -92h-83z" />
    <glyph glyph-name="Edieresis" unicode="&#xcb;" horiz-adv-x="554" 
d="M99 0v710h405v-72h-329v-237h269v-72h-269v-257h329v-72h-405zM191 789c-15.333 0 -28.166 5.16699 -38.499 15.5s-15.5 22.833 -15.5 37.5s5.16699 27.167 15.5 37.5s23.166 15.5 38.499 15.5c14.667 0 27 -5.16699 37 -15.5s15 -22.833 15 -37.5s-5 -27.167 -15 -37.5
s-22.333 -15.5 -37 -15.5zM413 789c-15.333 0 -28.166 5.16699 -38.499 15.5s-15.5 22.833 -15.5 37.5s5.16699 27.167 15.5 37.5s23.166 15.5 38.499 15.5c14.667 0 27 -5.16699 37 -15.5s15 -22.833 15 -37.5s-5 -27.167 -15 -37.5s-22.333 -15.5 -37 -15.5z" />
    <glyph glyph-name="Igrave" unicode="&#xcc;" horiz-adv-x="274" 
d="M99 0v710h76v-710h-76zM165 768h-63l-112 137h95z" />
    <glyph glyph-name="Iacute" unicode="&#xcd;" horiz-adv-x="274" 
d="M99 0v710h76v-710h-76zM108 768l80 137h95l-112 -137h-63z" />
    <glyph glyph-name="Icircumflex" unicode="&#xce;" horiz-adv-x="274" 
d="M99 0v710h76v-710h-76zM-33 768l130 137h82l130 -137h-83l-89 92l-87 -92h-83z" />
    <glyph glyph-name="Idieresis" unicode="&#xcf;" horiz-adv-x="274" 
d="M99 0v710h76v-710h-76zM27 789c-15.333 0 -28.166 5.16699 -38.499 15.5s-15.5 22.833 -15.5 37.5s5.16699 27.167 15.5 37.5s23.166 15.5 38.499 15.5c14.667 0 27 -5.16699 37 -15.5s15 -22.833 15 -37.5s-5 -27.167 -15 -37.5s-22.333 -15.5 -37 -15.5zM249 789
c-15.333 0 -28.166 5.16699 -38.499 15.5s-15.5 22.833 -15.5 37.5s5.16699 27.167 15.5 37.5s23.166 15.5 38.499 15.5c14.667 0 27 -5.16699 37 -15.5s15 -22.833 15 -37.5s-5 -27.167 -15 -37.5s-22.333 -15.5 -37 -15.5z" />
    <glyph glyph-name="Eth" unicode="&#xd0;" horiz-adv-x="728" 
d="M104 0v710h194c111.333 0 202.833 -33.5 274.5 -100.5s107.5 -151.833 107.5 -254.5s-35.833 -187.5 -107.5 -254.5s-163.167 -100.5 -274.5 -100.5h-194zM180 72h118c91.333 0 165 26.5 221 79.5s84 120.833 84 203.5s-28 150.5 -84 203.5s-129.667 79.5 -221 79.5h-118
v-566zM30 326v68h320v-68h-320z" />
    <glyph glyph-name="Ntilde" unicode="&#xd1;" horiz-adv-x="794" 
d="M695 0h-67l-453 581v-581h-76v710h67l453 -581v581h76v-710zM224 788l3 16c5.33301 26.667 17.166 48.167 35.499 64.5s40.5 24.5 66.5 24.5c18 0 41.5 -7.16699 70.5 -21.5s48.167 -21.5 57.5 -21.5c22 0 36.333 14.333 43 43h61l-3 -16
c-5.33301 -26.667 -17.166 -48.167 -35.499 -64.5s-40.5 -24.5 -66.5 -24.5c-18 0 -41.5 7.16699 -70.5 21.5s-48.167 21.5 -57.5 21.5c-22 0 -36.333 -14.333 -43 -43h-61z" />
    <glyph glyph-name="Ograve" unicode="&#xd2;" horiz-adv-x="830" 
d="M415 60c82 0 150.833 28.333 206.5 85s83.5 126.667 83.5 210c0 82.667 -27.833 152.5 -83.5 209.5s-124.5 85.5 -206.5 85.5s-150.833 -28.5 -206.5 -85.5s-83.5 -126.833 -83.5 -209.5c0 -83.333 27.833 -153.333 83.5 -210s124.5 -85 206.5 -85zM415 -12
c-102.667 0 -189.5 35.333 -260.5 106s-106.5 157.667 -106.5 261s35.5 190.333 106.5 261s157.833 106 260.5 106s189.5 -35.333 260.5 -106s106.5 -157.667 106.5 -261s-35.5 -190.333 -106.5 -261s-157.833 -106 -260.5 -106zM443 768h-63l-112 137h95z" />
    <glyph glyph-name="Oacute" unicode="&#xd3;" horiz-adv-x="830" 
d="M415 60c82 0 150.833 28.333 206.5 85s83.5 126.667 83.5 210c0 82.667 -27.833 152.5 -83.5 209.5s-124.5 85.5 -206.5 85.5s-150.833 -28.5 -206.5 -85.5s-83.5 -126.833 -83.5 -209.5c0 -83.333 27.833 -153.333 83.5 -210s124.5 -85 206.5 -85zM415 -12
c-102.667 0 -189.5 35.333 -260.5 106s-106.5 157.667 -106.5 261s35.5 190.333 106.5 261s157.833 106 260.5 106s189.5 -35.333 260.5 -106s106.5 -157.667 106.5 -261s-35.5 -190.333 -106.5 -261s-157.833 -106 -260.5 -106zM386 768l80 137h95l-112 -137h-63z" />
    <glyph glyph-name="Ocircumflex" unicode="&#xd4;" horiz-adv-x="830" 
d="M415 60c82 0 150.833 28.333 206.5 85s83.5 126.667 83.5 210c0 82.667 -27.833 152.5 -83.5 209.5s-124.5 85.5 -206.5 85.5s-150.833 -28.5 -206.5 -85.5s-83.5 -126.833 -83.5 -209.5c0 -83.333 27.833 -153.333 83.5 -210s124.5 -85 206.5 -85zM415 -12
c-102.667 0 -189.5 35.333 -260.5 106s-106.5 157.667 -106.5 261s35.5 190.333 106.5 261s157.833 106 260.5 106s189.5 -35.333 260.5 -106s106.5 -157.667 106.5 -261s-35.5 -190.333 -106.5 -261s-157.833 -106 -260.5 -106zM245 768l130 137h82l130 -137h-83l-89 92
l-87 -92h-83z" />
    <glyph glyph-name="Otilde" unicode="&#xd5;" horiz-adv-x="830" 
d="M415 60c82 0 150.833 28.333 206.5 85s83.5 126.667 83.5 210c0 82.667 -27.833 152.5 -83.5 209.5s-124.5 85.5 -206.5 85.5s-150.833 -28.5 -206.5 -85.5s-83.5 -126.833 -83.5 -209.5c0 -83.333 27.833 -153.333 83.5 -210s124.5 -85 206.5 -85zM415 -12
c-102.667 0 -189.5 35.333 -260.5 106s-106.5 157.667 -106.5 261s35.5 190.333 106.5 261s157.833 106 260.5 106s189.5 -35.333 260.5 -106s106.5 -157.667 106.5 -261s-35.5 -190.333 -106.5 -261s-157.833 -106 -260.5 -106zM247 788l3 16
c5.33301 26.667 17.166 48.167 35.499 64.5s40.5 24.5 66.5 24.5c18 0 41.5 -7.16699 70.5 -21.5s48.167 -21.5 57.5 -21.5c22 0 36.333 14.333 43 43h61l-3 -16c-5.33301 -26.667 -17.166 -48.167 -35.499 -64.5s-40.5 -24.5 -66.5 -24.5c-18 0 -41.5 7.16699 -70.5 21.5
s-48.167 21.5 -57.5 21.5c-22 0 -36.333 -14.333 -43 -43h-61z" />
    <glyph glyph-name="Odieresis" unicode="&#xd6;" horiz-adv-x="830" 
d="M415 60c82 0 150.833 28.333 206.5 85s83.5 126.667 83.5 210c0 82.667 -27.833 152.5 -83.5 209.5s-124.5 85.5 -206.5 85.5s-150.833 -28.5 -206.5 -85.5s-83.5 -126.833 -83.5 -209.5c0 -83.333 27.833 -153.333 83.5 -210s124.5 -85 206.5 -85zM415 -12
c-102.667 0 -189.5 35.333 -260.5 106s-106.5 157.667 -106.5 261s35.5 190.333 106.5 261s157.833 106 260.5 106s189.5 -35.333 260.5 -106s106.5 -157.667 106.5 -261s-35.5 -190.333 -106.5 -261s-157.833 -106 -260.5 -106zM305 789
c-15.333 0 -28.166 5.16699 -38.499 15.5s-15.5 22.833 -15.5 37.5s5.16699 27.167 15.5 37.5s23.166 15.5 38.499 15.5c14.667 0 27 -5.16699 37 -15.5s15 -22.833 15 -37.5s-5 -27.167 -15 -37.5s-22.333 -15.5 -37 -15.5zM527 789
c-15.333 0 -28.166 5.16699 -38.499 15.5s-15.5 22.833 -15.5 37.5s5.16699 27.167 15.5 37.5s23.166 15.5 38.499 15.5c14.667 0 27 -5.16699 37 -15.5s15 -22.833 15 -37.5s-5 -27.167 -15 -37.5s-22.333 -15.5 -37 -15.5z" />
    <glyph glyph-name="multiply" unicode="&#xd7;" horiz-adv-x="502" 
d="M104 99l-47 46l147 145l-147 145l47 46l147 -144l147 144l47 -46l-147 -145l147 -145l-47 -46l-147 144z" />
    <glyph glyph-name="Oslash" unicode="&#xd8;" horiz-adv-x="830" 
d="M415 60c82 0 150.833 28.333 206.5 85s83.5 126.667 83.5 210c0 82.667 -27.833 152.5 -83.5 209.5s-124.5 85.5 -206.5 85.5s-150.833 -28.5 -206.5 -85.5s-83.5 -126.833 -83.5 -209.5c0 -83.333 27.833 -153.333 83.5 -210s124.5 -85 206.5 -85zM415 -12
c-102.667 0 -189.5 35.333 -260.5 106s-106.5 157.667 -106.5 261s35.5 190.333 106.5 261s157.833 106 260.5 106s189.5 -35.333 260.5 -106s106.5 -157.667 106.5 -261s-35.5 -190.333 -106.5 -261s-157.833 -106 -260.5 -106zM746 689l-614 -709l-47 42l614 708z" />
    <glyph glyph-name="Ugrave" unicode="&#xd9;" horiz-adv-x="728" 
d="M364 -12c-82 0 -148.169 25.833 -198.502 77.5s-75.5 121.5 -75.5 209.5v435h76v-437c0 -67.333 17.833 -119.666 53.5 -156.999s83.834 -56 144.501 -56s108.834 18.667 144.501 56s53.5 89.666 53.5 156.999v437h76v-435c0 -88 -25.167 -157.833 -75.5 -209.5
s-116.5 -77.5 -198.5 -77.5zM391.998 768h-63l-112 137h95z" />
    <glyph glyph-name="Uacute" unicode="&#xda;" horiz-adv-x="728" 
d="M364 -12c-82 0 -148.169 25.833 -198.502 77.5s-75.5 121.5 -75.5 209.5v435h76v-437c0 -67.333 17.833 -119.666 53.5 -156.999s83.834 -56 144.501 -56s108.834 18.667 144.501 56s53.5 89.666 53.5 156.999v437h76v-435c0 -88 -25.167 -157.833 -75.5 -209.5
s-116.5 -77.5 -198.5 -77.5zM334.998 768l80 137h95l-112 -137h-63z" />
    <glyph glyph-name="Ucircumflex" unicode="&#xdb;" horiz-adv-x="728" 
d="M364 -12c-82 0 -148.169 25.833 -198.502 77.5s-75.5 121.5 -75.5 209.5v435h76v-437c0 -67.333 17.833 -119.666 53.5 -156.999s83.834 -56 144.501 -56s108.834 18.667 144.501 56s53.5 89.666 53.5 156.999v437h76v-435c0 -88 -25.167 -157.833 -75.5 -209.5
s-116.5 -77.5 -198.5 -77.5zM193.998 768l130 137h82l130 -137h-83l-89 92l-87 -92h-83z" />
    <glyph glyph-name="Udieresis" unicode="&#xdc;" horiz-adv-x="728" 
d="M364 -12c-82 0 -148.169 25.833 -198.502 77.5s-75.5 121.5 -75.5 209.5v435h76v-437c0 -67.333 17.833 -119.666 53.5 -156.999s83.834 -56 144.501 -56s108.834 18.667 144.501 56s53.5 89.666 53.5 156.999v437h76v-435c0 -88 -25.167 -157.833 -75.5 -209.5
s-116.5 -77.5 -198.5 -77.5zM253.998 789c-15.333 0 -28.166 5.16699 -38.499 15.5s-15.5 22.833 -15.5 37.5s5.16699 27.167 15.5 37.5s23.166 15.5 38.499 15.5c14.667 0 27 -5.16699 37 -15.5s15 -22.833 15 -37.5s-5 -27.167 -15 -37.5s-22.333 -15.5 -37 -15.5z
M475.998 789c-15.333 0 -28.166 5.16699 -38.499 15.5s-15.5 22.833 -15.5 37.5s5.16699 27.167 15.5 37.5s23.166 15.5 38.499 15.5c14.667 0 27 -5.16699 37 -15.5s15 -22.833 15 -37.5s-5 -27.167 -15 -37.5s-22.333 -15.5 -37 -15.5z" />
    <glyph glyph-name="Yacute" unicode="&#xdd;" horiz-adv-x="669" 
d="M297 0v301l-280 409h92l226 -331l226 331h92l-281 -410v-300h-75zM305 768l80 137h95l-112 -137h-63z" />
    <glyph glyph-name="Thorn" unicode="&#xde;" horiz-adv-x="594" 
d="M552 355c0 -64 -22.167 -116.833 -66.5 -158.5s-102.833 -62.5 -175.5 -62.5h-135v-134h-76v710h76v-133h135c72.667 0 131.167 -21 175.5 -63s66.5 -95 66.5 -159zM475 355c0 44 -14.5 80.167 -43.5 108.5s-69.5 42.5 -121.5 42.5h-135v-301h135c52 0 92.5 14 121.5 42
s43.5 64 43.5 108z" />
    <glyph glyph-name="germandbls" unicode="&#xdf;" horiz-adv-x="569" 
d="M86 0v532.999c0 59.333 19 108 57 146s84.667 57 140 57c54 0 100.667 -18.167 140 -54.5s59 -80.5 59 -132.5c0 -34 -8.33301 -65.167 -25 -93.5s-39.334 -50.833 -68.001 -67.5c43.333 -15.333 77 -39.666 101 -72.999s36 -70 36 -110c0 -56.667 -20.667 -105 -62 -145
s-96.666 -60 -165.999 -60h-55v67h52c46.667 0 85 12.833 115 38.5s45 59.5 45 101.5c0 40.667 -15 74.167 -45 100.5s-68.333 39.5 -115 39.5h-49v67h28c39.333 0 72 12.333 98 37s39 54.667 39 90c0 36 -12.167 66.333 -36.5 91s-54.5 37 -90.5 37
c-36.667 0 -67.167 -13 -91.5 -39s-36.5 -59 -36.5 -99v-531h-70z" />
    <glyph glyph-name="agrave" unicode="&#xe0;" horiz-adv-x="628" 
d="M298 -10c-73.333 0 -133.833 25.167 -181.5 75.5s-71.5 111.833 -71.5 184.5s23.833 134.167 71.5 184.5s108.167 75.5 181.5 75.5c72.667 0 130.667 -23.667 174 -71v61h70v-500h-70v61c-43.333 -47.333 -101.333 -71 -174 -71zM301 55
c38.667 0 72.667 8.33496 102 25.002s52.333 38.667 69 66v208c-16.667 27.333 -39.667 49.333 -69 66s-63.333 25 -102 25c-54 0 -98.167 -18.833 -132.5 -56.5s-51.5 -83.834 -51.5 -138.501s17.167 -100.834 51.5 -138.501s78.5 -56.5 132.5 -56.5zM363 578.002h-62
l-121 152h93z" />
    <glyph glyph-name="aacute" unicode="&#xe1;" horiz-adv-x="628" 
d="M298 -10c-73.333 0 -133.833 25.167 -181.5 75.5s-71.5 111.833 -71.5 184.5s23.833 134.167 71.5 184.5s108.167 75.5 181.5 75.5c72.667 0 130.667 -23.667 174 -71v61h70v-500h-70v61c-43.333 -47.333 -101.333 -71 -174 -71zM301 55
c38.667 0 72.667 8.33496 102 25.002s52.333 38.667 69 66v208c-16.667 27.333 -39.667 49.333 -69 66s-63.333 25 -102 25c-54 0 -98.167 -18.833 -132.5 -56.5s-51.5 -83.834 -51.5 -138.501s17.167 -100.834 51.5 -138.501s78.5 -56.5 132.5 -56.5zM301 578.002l90 152
h93l-121 -152h-62z" />
    <glyph glyph-name="acircumflex" unicode="&#xe2;" horiz-adv-x="628" 
d="M298 -10c-73.333 0 -133.833 25.167 -181.5 75.5s-71.5 111.833 -71.5 184.5s23.833 134.167 71.5 184.5s108.167 75.5 181.5 75.5c72.667 0 130.667 -23.667 174 -71v61h70v-500h-70v61c-43.333 -47.333 -101.333 -71 -174 -71zM301 55
c38.667 0 72.667 8.33496 102 25.002s52.333 38.667 69 66v208c-16.667 27.333 -39.667 49.333 -69 66s-63.333 25 -102 25c-54 0 -98.167 -18.833 -132.5 -56.5s-51.5 -83.834 -51.5 -138.501s17.167 -100.834 51.5 -138.501s78.5 -56.5 132.5 -56.5zM166 578.002l127 152
h78l127 -152h-80l-86 103l-86 -103h-80z" />
    <glyph glyph-name="atilde" unicode="&#xe3;" horiz-adv-x="628" 
d="M298 -10c-73.333 0 -133.833 25.167 -181.5 75.5s-71.5 111.833 -71.5 184.5s23.833 134.167 71.5 184.5s108.167 75.5 181.5 75.5c72.667 0 130.667 -23.667 174 -71v61h70v-500h-70v61c-43.333 -47.333 -101.333 -71 -174 -71zM301 55
c38.667 0 72.667 8.33496 102 25.002s52.333 38.667 69 66v208c-16.667 27.333 -39.667 49.333 -69 66s-63.333 25 -102 25c-54 0 -98.167 -18.833 -132.5 -56.5s-51.5 -83.834 -51.5 -138.501s17.167 -100.834 51.5 -138.501s78.5 -56.5 132.5 -56.5zM163 600.002l3 16
c5.33301 26.667 17.166 48.167 35.499 64.5s40.5 24.5 66.5 24.5c18 0 41.5 -7.16699 70.5 -21.5s48.167 -21.5 57.5 -21.5c22 0 36.333 14.333 43 43h61l-3 -16c-5.33301 -26.667 -17.166 -48.167 -35.499 -64.5s-40.5 -24.5 -66.5 -24.5c-18 0 -41.5 7.16699 -70.5 21.5
s-48.167 21.5 -57.5 21.5c-22 0 -36.333 -14.333 -43 -43h-61z" />
    <glyph glyph-name="adieresis" unicode="&#xe4;" horiz-adv-x="628" 
d="M298 -10c-73.333 0 -133.833 25.167 -181.5 75.5s-71.5 111.833 -71.5 184.5s23.833 134.167 71.5 184.5s108.167 75.5 181.5 75.5c72.667 0 130.667 -23.667 174 -71v61h70v-500h-70v61c-43.333 -47.333 -101.333 -71 -174 -71zM301 55
c38.667 0 72.667 8.33496 102 25.002s52.333 38.667 69 66v208c-16.667 27.333 -39.667 49.333 -69 66s-63.333 25 -102 25c-54 0 -98.167 -18.833 -132.5 -56.5s-51.5 -83.834 -51.5 -138.501s17.167 -100.834 51.5 -138.501s78.5 -56.5 132.5 -56.5zM222 602.002
c-15.333 0 -28.166 5.16699 -38.499 15.5s-15.5 22.833 -15.5 37.5s5.16699 27.167 15.5 37.5s23.166 15.5 38.499 15.5c14.667 0 27 -5.16699 37 -15.5s15 -22.833 15 -37.5s-5 -27.167 -15 -37.5s-22.333 -15.5 -37 -15.5zM444 602.002
c-15.333 0 -28.166 5.16699 -38.499 15.5s-15.5 22.833 -15.5 37.5s5.16699 27.167 15.5 37.5s23.166 15.5 38.499 15.5c14.667 0 27 -5.16699 37 -15.5s15 -22.833 15 -37.5s-5 -27.167 -15 -37.5s-22.333 -15.5 -37 -15.5z" />
    <glyph glyph-name="aring" unicode="&#xe5;" horiz-adv-x="628" 
d="M298 -10c-73.333 0 -133.833 25.167 -181.5 75.5s-71.5 111.833 -71.5 184.5s23.833 134.167 71.5 184.5s108.167 75.5 181.5 75.5c72.667 0 130.667 -23.667 174 -71v61h70v-500h-70v61c-43.333 -47.333 -101.333 -71 -174 -71zM301 55
c38.667 0 72.667 8.33496 102 25.002s52.333 38.667 69 66v208c-16.667 27.333 -39.667 49.333 -69 66s-63.333 25 -102 25c-54 0 -98.167 -18.833 -132.5 -56.5s-51.5 -83.834 -51.5 -138.501s17.167 -100.834 51.5 -138.501s78.5 -56.5 132.5 -56.5zM333 540.002
c-34 0 -62.833 11.833 -86.5 35.5s-35.5 52.5 -35.5 86.5c0 33.333 11.833 61.833 35.5 85.5s52.5 35.5 86.5 35.5c33.333 0 61.833 -11.833 85.5 -35.5s35.5 -52.167 35.5 -85.5c0 -34 -11.833 -62.833 -35.5 -86.5s-52.167 -35.5 -85.5 -35.5zM333 588.002
c19.333 0 36.333 7.33301 51 22s22 32 22 52s-7.33301 37.167 -22 51.5s-31.667 21.5 -51 21.5c-20 0 -37.333 -7.16699 -52 -21.5s-22 -31.5 -22 -51.5s7.33301 -37.333 22 -52s32 -22 52 -22z" />
    <glyph glyph-name="ae" unicode="&#xe6;" horiz-adv-x="927" 
d="M232 -10c-57.333 0 -104.003 15.834 -140.003 47.501s-54 71.834 -54 120.501c0 47.333 19.5 86.666 58.5 117.999s87.5 47 145.5 47c53.333 0 103.333 -13.667 150 -41v25c0 47.333 -12.667 82.166 -38 104.499s-57.666 33.5 -96.999 33.5
c-58 0 -108.333 -20.333 -151 -61l-40 55c21.333 20.667 49.333 37.667 84 51s70.334 20 107.001 20c89.333 0 150 -34.667 182 -104c48.667 69.333 118.667 104 210 104c67.333 0 123.333 -22.667 168 -68s67 -107 67 -185v-19h-422c0 -52 17.333 -95.5 52 -130.5
s79 -52.5 133 -52.5c40 0 72.833 7.83301 98.5 23.5s47.834 39.167 66.501 70.5l57 -37c-47.333 -81.333 -121.333 -122 -222 -122c-88.667 0 -157 32 -205 96c-26.667 -32 -58.667 -56 -96 -72s-75.333 -24 -114 -24zM232.997 55.001c77.333 0 130.332 25.333 158.999 76
v78c-46.667 34.667 -96 52 -148 52c-38 0 -69.833 -8.66699 -95.5 -26s-38.5 -43 -38.5 -77c0 -35.333 11.833 -61.333 35.5 -78s52.834 -25 87.501 -25zM645.996 445.001c-43.333 0 -81.833 -13.167 -115.5 -39.5s-54.5 -61.5 -62.5 -105.5h343
c-6.66699 44.667 -25 80 -55 106s-66.667 39 -110 39z" />
    <glyph glyph-name="ccedilla" unicode="&#xe7;" horiz-adv-x="567" 
d="M305 -10c-75.333 0 -137.666 25.1689 -186.999 75.502s-74 111.833 -74 184.5s24.667 134.167 74 184.5s111.666 75.5 186.999 75.5c50.667 0 95.834 -11.667 135.501 -35s70.834 -55.333 93.501 -96l-61 -35c-16 31.333 -38.5 56 -67.5 74s-62.5 27 -100.5 27
c-56 0 -101.5 -18.833 -136.5 -56.5s-52.5 -83.834 -52.5 -138.501s17.5 -100.834 52.5 -138.501s80.5 -56.5 136.5 -56.5c38 0 71.5 9 100.5 27s51.5 42.667 67.5 74l61 -35c-22.667 -40.667 -53.834 -72.667 -93.501 -96s-84.834 -35 -135.501 -35zM205 -186.998
l13.001 47c22.667 -9.33301 45.667 -14 69 -14c16 0 29.833 3 41.5 9s17.5 14.667 17.5 26c0 18.667 -13.667 28 -41 28c-13.333 0 -29 -3 -47 -9l-29 23l48 80h52l-33 -53c12 4 24 6 36 6c22 0 40 -6.33301 54 -19s21 -30 21 -52c0 -28.667 -10.667 -50.667 -32 -66
s-50.333 -23 -87 -23c-32.667 0 -60.334 5.66699 -83.001 17z" />
    <glyph glyph-name="egrave" unicode="&#xe8;" horiz-adv-x="582" 
d="M302 -10c-76.667 0 -138.668 24.833 -186.001 74.5s-71 111.5 -71 185.5c0 73.333 24.333 135 73 185s110.667 75 186 75c67.333 0 123.333 -22.667 168 -68s67 -107 67 -185v-19h-422c0 -52 17.333 -95.5 52 -130.5s79 -52.5 133 -52.5c40 0 72.833 7.83301 98.5 23.5
s47.834 39.167 66.501 70.5l57 -37c-47.333 -81.333 -121.333 -122 -222 -122zM122.999 300h343c-6.66699 44.667 -25 80 -55 106s-66.667 39 -110 39s-81.833 -13.167 -115.5 -39.5s-54.5 -61.5 -62.5 -105.5zM334.999 578h-62l-121 152h93z" />
    <glyph glyph-name="eacute" unicode="&#xe9;" horiz-adv-x="582" 
d="M302 -10c-76.667 0 -138.668 24.833 -186.001 74.5s-71 111.5 -71 185.5c0 73.333 24.333 135 73 185s110.667 75 186 75c67.333 0 123.333 -22.667 168 -68s67 -107 67 -185v-19h-422c0 -52 17.333 -95.5 52 -130.5s79 -52.5 133 -52.5c40 0 72.833 7.83301 98.5 23.5
s47.834 39.167 66.501 70.5l57 -37c-47.333 -81.333 -121.333 -122 -222 -122zM122.999 300h343c-6.66699 44.667 -25 80 -55 106s-66.667 39 -110 39s-81.833 -13.167 -115.5 -39.5s-54.5 -61.5 -62.5 -105.5zM272.999 578l90 152h93l-121 -152h-62z" />
    <glyph glyph-name="ecircumflex" unicode="&#xea;" horiz-adv-x="582" 
d="M302 -10c-76.667 0 -138.668 24.833 -186.001 74.5s-71 111.5 -71 185.5c0 73.333 24.333 135 73 185s110.667 75 186 75c67.333 0 123.333 -22.667 168 -68s67 -107 67 -185v-19h-422c0 -52 17.333 -95.5 52 -130.5s79 -52.5 133 -52.5c40 0 72.833 7.83301 98.5 23.5
s47.834 39.167 66.501 70.5l57 -37c-47.333 -81.333 -121.333 -122 -222 -122zM122.999 300h343c-6.66699 44.667 -25 80 -55 106s-66.667 39 -110 39s-81.833 -13.167 -115.5 -39.5s-54.5 -61.5 -62.5 -105.5zM137.999 578l127 152h78l127 -152h-80l-86 103l-86 -103h-80z
" />
    <glyph glyph-name="edieresis" unicode="&#xeb;" horiz-adv-x="582" 
d="M302 -10c-76.667 0 -138.668 24.833 -186.001 74.5s-71 111.5 -71 185.5c0 73.333 24.333 135 73 185s110.667 75 186 75c67.333 0 123.333 -22.667 168 -68s67 -107 67 -185v-19h-422c0 -52 17.333 -95.5 52 -130.5s79 -52.5 133 -52.5c40 0 72.833 7.83301 98.5 23.5
s47.834 39.167 66.501 70.5l57 -37c-47.333 -81.333 -121.333 -122 -222 -122zM122.999 300h343c-6.66699 44.667 -25 80 -55 106s-66.667 39 -110 39s-81.833 -13.167 -115.5 -39.5s-54.5 -61.5 -62.5 -105.5zM193.999 602c-15.333 0 -28.166 5.16699 -38.499 15.5
s-15.5 22.833 -15.5 37.5s5.16699 27.167 15.5 37.5s23.166 15.5 38.499 15.5c14.667 0 27 -5.16699 37 -15.5s15 -22.833 15 -37.5s-5 -27.167 -15 -37.5s-22.333 -15.5 -37 -15.5zM415.999 602c-15.333 0 -28.166 5.16699 -38.499 15.5s-15.5 22.833 -15.5 37.5
s5.16699 27.167 15.5 37.5s23.166 15.5 38.499 15.5c14.667 0 27 -5.16699 37 -15.5s15 -22.833 15 -37.5s-5 -27.167 -15 -37.5s-22.333 -15.5 -37 -15.5z" />
    <glyph glyph-name="igrave" unicode="&#xec;" horiz-adv-x="242" 
d="M86 0v500h70v-500h-70zM152 578h-62l-121 152h93z" />
    <glyph glyph-name="iacute" unicode="&#xed;" horiz-adv-x="242" 
d="M86 0v500h70v-500h-70zM90 578l90 152h93l-121 -152h-62z" />
    <glyph glyph-name="icircumflex" unicode="&#xee;" horiz-adv-x="242" 
d="M86 0v500h70v-500h-70zM-45 578l127 152h78l127 -152h-80l-86 103l-86 -103h-80z" />
    <glyph glyph-name="idieresis" unicode="&#xef;" horiz-adv-x="242" 
d="M86 0v500h70v-500h-70zM22 602c-15.333 0 -28.5 5.5 -39.5 16.5s-16.5 24.167 -16.5 39.5s5.5 28.333 16.5 39s24.167 16 39.5 16s28.5 -5.33301 39.5 -16s16.5 -23.667 16.5 -39s-5.5 -28.5 -16.5 -39.5s-24.167 -16.5 -39.5 -16.5zM220 602
c-15.333 0 -28.5 5.5 -39.5 16.5s-16.5 24.167 -16.5 39.5s5.5 28.333 16.5 39s24.167 16 39.5 16s28.5 -5.33301 39.5 -16s16.5 -23.667 16.5 -39s-5.5 -28.5 -16.5 -39.5s-24.167 -16.5 -39.5 -16.5z" />
    <glyph glyph-name="eth" unicode="&#xf0;" horiz-adv-x="610" 
d="M483 578h-85.001l113 -165c36.667 -54 55 -108.333 55 -163c0 -72.667 -24.667 -134.167 -74 -184.5s-111.666 -75.5 -186.999 -75.5s-137.666 25.167 -186.999 75.5s-74 111.833 -74 184.5s24.667 134.167 74 184.5s111.666 75.5 186.999 75.5
c22 0 44.667 -2.66699 68 -8l-52 76h-144v61h103l-62 91h77l62 -91h126v-61zM304.999 55c56 0 101.5 18.833 136.5 56.5s52.5 83.834 52.5 138.501s-17.5 100.834 -52.5 138.501s-80.5 56.5 -136.5 56.5s-101.5 -18.833 -136.5 -56.5s-52.5 -83.834 -52.5 -138.501
s17.5 -100.834 52.5 -138.501s80.5 -56.5 136.5 -56.5z" />
    <glyph glyph-name="ntilde" unicode="&#xf1;" horiz-adv-x="586" 
d="M86 0v500h70v-70c34 53.333 88.667 80 164 80c55.333 0 100.5 -17.667 135.5 -53s52.5 -83.333 52.5 -144v-313h-70v303c0 45.333 -11.833 80.333 -35.5 105s-56.5 37 -98.5 37c-38 0 -69.5 -10.167 -94.5 -30.5s-42.833 -47.5 -53.5 -81.5v-333h-70zM128 600l3 16
c5.33301 26.667 17.166 48.167 35.499 64.5s40.5 24.5 66.5 24.5c18 0 41.5 -7.16699 70.5 -21.5s48.167 -21.5 57.5 -21.5c22 0 36.333 14.333 43 43h61l-3 -16c-5.33301 -26.667 -17.166 -48.167 -35.499 -64.5s-40.5 -24.5 -66.5 -24.5c-18 0 -41.5 7.16699 -70.5 21.5
s-48.167 21.5 -57.5 21.5c-22 0 -36.333 -14.333 -43 -43h-61z" />
    <glyph glyph-name="ograve" unicode="&#xf2;" horiz-adv-x="610" 
d="M305 -10c-75.333 0 -137.666 25.167 -186.999 75.5s-74 111.833 -74 184.5s24.667 134.167 74 184.5s111.666 75.5 186.999 75.5s137.666 -25.167 186.999 -75.5s74 -111.833 74 -184.5s-24.667 -134.167 -74 -184.5s-111.666 -75.5 -186.999 -75.5zM305 55
c56 0 101.5 18.833 136.5 56.5s52.5 83.834 52.5 138.501s-17.5 100.834 -52.5 138.501s-80.5 56.5 -136.5 56.5s-101.5 -18.833 -136.5 -56.5s-52.5 -83.834 -52.5 -138.501s17.5 -100.834 52.5 -138.501s80.5 -56.5 136.5 -56.5zM336 578h-62l-121 152h93z" />
    <glyph glyph-name="oacute" unicode="&#xf3;" horiz-adv-x="610" 
d="M305 -10c-75.333 0 -137.666 25.167 -186.999 75.5s-74 111.833 -74 184.5s24.667 134.167 74 184.5s111.666 75.5 186.999 75.5s137.666 -25.167 186.999 -75.5s74 -111.833 74 -184.5s-24.667 -134.167 -74 -184.5s-111.666 -75.5 -186.999 -75.5zM305 55
c56 0 101.5 18.833 136.5 56.5s52.5 83.834 52.5 138.501s-17.5 100.834 -52.5 138.501s-80.5 56.5 -136.5 56.5s-101.5 -18.833 -136.5 -56.5s-52.5 -83.834 -52.5 -138.501s17.5 -100.834 52.5 -138.501s80.5 -56.5 136.5 -56.5zM274 578l90 152h93l-121 -152h-62z" />
    <glyph glyph-name="ocircumflex" unicode="&#xf4;" horiz-adv-x="610" 
d="M305 -10c-75.333 0 -137.666 25.167 -186.999 75.5s-74 111.833 -74 184.5s24.667 134.167 74 184.5s111.666 75.5 186.999 75.5s137.666 -25.167 186.999 -75.5s74 -111.833 74 -184.5s-24.667 -134.167 -74 -184.5s-111.666 -75.5 -186.999 -75.5zM305 55
c56 0 101.5 18.833 136.5 56.5s52.5 83.834 52.5 138.501s-17.5 100.834 -52.5 138.501s-80.5 56.5 -136.5 56.5s-101.5 -18.833 -136.5 -56.5s-52.5 -83.834 -52.5 -138.501s17.5 -100.834 52.5 -138.501s80.5 -56.5 136.5 -56.5zM139 578l127 152h78l127 -152h-80l-86 103
l-86 -103h-80z" />
    <glyph glyph-name="otilde" unicode="&#xf5;" horiz-adv-x="610" 
d="M305 -10c-75.333 0 -137.666 25.167 -186.999 75.5s-74 111.833 -74 184.5s24.667 134.167 74 184.5s111.666 75.5 186.999 75.5s137.666 -25.167 186.999 -75.5s74 -111.833 74 -184.5s-24.667 -134.167 -74 -184.5s-111.666 -75.5 -186.999 -75.5zM305 55
c56 0 101.5 18.833 136.5 56.5s52.5 83.834 52.5 138.501s-17.5 100.834 -52.5 138.501s-80.5 56.5 -136.5 56.5s-101.5 -18.833 -136.5 -56.5s-52.5 -83.834 -52.5 -138.501s17.5 -100.834 52.5 -138.501s80.5 -56.5 136.5 -56.5zM136 600l3 16
c5.33301 26.667 17.166 48.167 35.499 64.5s40.5 24.5 66.5 24.5c18 0 41.5 -7.16699 70.5 -21.5s48.167 -21.5 57.5 -21.5c22 0 36.333 14.333 43 43h61l-3 -16c-5.33301 -26.667 -17.166 -48.167 -35.499 -64.5s-40.5 -24.5 -66.5 -24.5c-18 0 -41.5 7.16699 -70.5 21.5
s-48.167 21.5 -57.5 21.5c-22 0 -36.333 -14.333 -43 -43h-61z" />
    <glyph glyph-name="odieresis" unicode="&#xf6;" horiz-adv-x="610" 
d="M305 -10c-75.333 0 -137.666 25.167 -186.999 75.5s-74 111.833 -74 184.5s24.667 134.167 74 184.5s111.666 75.5 186.999 75.5s137.666 -25.167 186.999 -75.5s74 -111.833 74 -184.5s-24.667 -134.167 -74 -184.5s-111.666 -75.5 -186.999 -75.5zM305 55
c56 0 101.5 18.833 136.5 56.5s52.5 83.834 52.5 138.501s-17.5 100.834 -52.5 138.501s-80.5 56.5 -136.5 56.5s-101.5 -18.833 -136.5 -56.5s-52.5 -83.834 -52.5 -138.501s17.5 -100.834 52.5 -138.501s80.5 -56.5 136.5 -56.5zM195 602
c-15.333 0 -28.166 5.16699 -38.499 15.5s-15.5 22.833 -15.5 37.5s5.16699 27.167 15.5 37.5s23.166 15.5 38.499 15.5c14.667 0 27 -5.16699 37 -15.5s15 -22.833 15 -37.5s-5 -27.167 -15 -37.5s-22.333 -15.5 -37 -15.5zM417 602
c-15.333 0 -28.166 5.16699 -38.499 15.5s-15.5 22.833 -15.5 37.5s5.16699 27.167 15.5 37.5s23.166 15.5 38.499 15.5c14.667 0 27 -5.16699 37 -15.5s15 -22.833 15 -37.5s-5 -27.167 -15 -37.5s-22.333 -15.5 -37 -15.5z" />
    <glyph glyph-name="oslash" unicode="&#xf8;" horiz-adv-x="622" 
d="M311 -10c-75.333 0 -137.666 25.167 -186.999 75.5s-74 111.833 -74 184.5s24.667 134.167 74 184.5s111.666 75.5 186.999 75.5s137.666 -25.167 186.999 -75.5s74 -111.833 74 -184.5s-24.667 -134.167 -74 -184.5s-111.666 -75.5 -186.999 -75.5zM311 55
c56 0 101.5 18.833 136.5 56.5s52.5 83.834 52.5 138.501s-17.5 100.834 -52.5 138.501s-80.5 56.5 -136.5 56.5s-101.5 -18.833 -136.5 -56.5s-52.5 -83.834 -52.5 -138.501s17.5 -100.834 52.5 -138.501s80.5 -56.5 136.5 -56.5zM565 473l-469 -483l-39 38l470 482z" />
    <glyph glyph-name="ugrave" unicode="&#xf9;" horiz-adv-x="576" 
d="M490 500l-0.00195312 -500h-70v70c-17.333 -26.667 -40.166 -46.667 -68.499 -60s-58.5 -20 -90.5 -20c-53.333 0 -97.166 17.833 -131.499 53.5s-51.5 83.5 -51.5 143.5v313h70v-303c0 -45.333 11.667 -80.333 35 -105s54.666 -37 93.999 -37
c35.333 0 65.333 10.167 90 30.5s42.334 47.5 53.001 81.5v333h70zM313.998 578h-62l-121 152h93z" />
    <glyph glyph-name="uacute" unicode="&#xfa;" horiz-adv-x="576" 
d="M490 500l-0.00195312 -500h-70v70c-17.333 -26.667 -40.166 -46.667 -68.499 -60s-58.5 -20 -90.5 -20c-53.333 0 -97.166 17.833 -131.499 53.5s-51.5 83.5 -51.5 143.5v313h70v-303c0 -45.333 11.667 -80.333 35 -105s54.666 -37 93.999 -37
c35.333 0 65.333 10.167 90 30.5s42.334 47.5 53.001 81.5v333h70zM251.998 578l90 152h93l-121 -152h-62z" />
    <glyph glyph-name="ucircumflex" unicode="&#xfb;" horiz-adv-x="576" 
d="M490 500l-0.00195312 -500h-70v70c-17.333 -26.667 -40.166 -46.667 -68.499 -60s-58.5 -20 -90.5 -20c-53.333 0 -97.166 17.833 -131.499 53.5s-51.5 83.5 -51.5 143.5v313h70v-303c0 -45.333 11.667 -80.333 35 -105s54.666 -37 93.999 -37
c35.333 0 65.333 10.167 90 30.5s42.334 47.5 53.001 81.5v333h70zM116.998 578l127 152h78l127 -152h-80l-86 103l-86 -103h-80z" />
    <glyph glyph-name="udieresis" unicode="&#xfc;" horiz-adv-x="576" 
d="M490 500l-0.00195312 -500h-70v70c-17.333 -26.667 -40.166 -46.667 -68.499 -60s-58.5 -20 -90.5 -20c-53.333 0 -97.166 17.833 -131.499 53.5s-51.5 83.5 -51.5 143.5v313h70v-303c0 -45.333 11.667 -80.333 35 -105s54.666 -37 93.999 -37
c35.333 0 65.333 10.167 90 30.5s42.334 47.5 53.001 81.5v333h70zM172.998 602c-15.333 0 -28.166 5.16699 -38.499 15.5s-15.5 22.833 -15.5 37.5s5.16699 27.167 15.5 37.5s23.166 15.5 38.499 15.5c14.667 0 27 -5.16699 37 -15.5s15 -22.833 15 -37.5
s-5 -27.167 -15 -37.5s-22.333 -15.5 -37 -15.5zM394.998 602c-15.333 0 -28.166 5.16699 -38.499 15.5s-15.5 22.833 -15.5 37.5s5.16699 27.167 15.5 37.5s23.166 15.5 38.499 15.5c14.667 0 27 -5.16699 37 -15.5s15 -22.833 15 -37.5s-5 -27.167 -15 -37.5
s-22.333 -15.5 -37 -15.5z" />
    <glyph glyph-name="yacute" unicode="&#xfd;" horiz-adv-x="540" 
d="M208 -194h-79l103 219l-222 475h78l183 -397l183 397h79zM240 578l90 152h93l-121 -152h-62z" />
    <glyph glyph-name="thorn" unicode="&#xfe;" horiz-adv-x="627" 
d="M86 -194v924h70v-291c43.333 47.333 101.333 71 174 71c73.333 0 133.833 -25.167 181.5 -75.5s71.5 -111.833 71.5 -184.5s-23.833 -134.167 -71.5 -184.5s-108.167 -75.5 -181.5 -75.5c-72.667 0 -130.667 23.667 -174 71v-255h-70zM327 55
c54 0 98.167 18.8311 132.5 56.498s51.5 83.834 51.5 138.501s-17.167 100.834 -51.5 138.501s-78.5 56.5 -132.5 56.5c-38.667 0 -72.667 -8.33301 -102 -25s-52.333 -38.667 -69 -66v-208c16.667 -27.333 39.667 -49.333 69 -66s63.333 -25 102 -25z" />
    <glyph glyph-name="ydieresis" unicode="&#xff;" horiz-adv-x="540" 
d="M208 -194h-79l103 219l-222 475h78l183 -397l183 397h79zM161 602c-15.333 0 -28.166 5.16699 -38.499 15.5s-15.5 22.833 -15.5 37.5s5.16699 27.167 15.5 37.5s23.166 15.5 38.499 15.5c14.667 0 27 -5.16699 37 -15.5s15 -22.833 15 -37.5s-5 -27.167 -15 -37.5
s-22.333 -15.5 -37 -15.5zM383 602c-15.333 0 -28.166 5.16699 -38.499 15.5s-15.5 22.833 -15.5 37.5s5.16699 27.167 15.5 37.5s23.166 15.5 38.499 15.5c14.667 0 27 -5.16699 37 -15.5s15 -22.833 15 -37.5s-5 -27.167 -15 -37.5s-22.333 -15.5 -37 -15.5z" />
    <glyph glyph-name="Amacron" unicode="&#x100;" horiz-adv-x="710" 
d="M8 0l316 710h61l317 -710h-80l-99 221h-339l-98 -221h-78zM353 603l-138 -311h277zM196 809v61h316v-61h-316z" />
    <glyph glyph-name="amacron" unicode="&#x101;" horiz-adv-x="628" 
d="M298 -10c-73.333 0 -133.833 25.167 -181.5 75.5s-71.5 111.833 -71.5 184.5s23.833 134.167 71.5 184.5s108.167 75.5 181.5 75.5c72.667 0 130.667 -23.667 174 -71v61h70v-500h-70v61c-43.333 -47.333 -101.333 -71 -174 -71zM301 55
c38.667 0 72.667 8.33496 102 25.002s52.333 38.667 69 66v208c-16.667 27.333 -39.667 49.333 -69 66s-63.333 25 -102 25c-54 0 -98.167 -18.833 -132.5 -56.5s-51.5 -83.834 -51.5 -138.501s17.167 -100.834 51.5 -138.501s78.5 -56.5 132.5 -56.5zM174 649.002v61h316
v-61h-316z" />
    <glyph glyph-name="Abreve" unicode="&#x102;" horiz-adv-x="710" 
d="M8 0l316 710h61l317 -710h-80l-99 221h-339l-98 -221h-78zM353 603l-138 -311h277zM354 762c-43.333 0 -79.833 14 -109.5 42s-44.5 65 -44.5 111h51c0 -32.667 9.66699 -58 29 -76s44 -27 74 -27s54.667 9 74 27s29 43.333 29 76h51c0 -46 -14.833 -83 -44.5 -111
s-66.167 -42 -109.5 -42z" />
    <glyph glyph-name="abreve" unicode="&#x103;" horiz-adv-x="628" 
d="M298 -10c-73.333 0 -133.833 25.167 -181.5 75.5s-71.5 111.833 -71.5 184.5s23.833 134.167 71.5 184.5s108.167 75.5 181.5 75.5c72.667 0 130.667 -23.667 174 -71v61h70v-500h-70v61c-43.333 -47.333 -101.333 -71 -174 -71zM301 55
c38.667 0 72.667 8.33496 102 25.002s52.333 38.667 69 66v208c-16.667 27.333 -39.667 49.333 -69 66s-63.333 25 -102 25c-54 0 -98.167 -18.833 -132.5 -56.5s-51.5 -83.834 -51.5 -138.501s17.167 -100.834 51.5 -138.501s78.5 -56.5 132.5 -56.5zM332 565.002
c-44 0 -80.667 14 -110 42s-44 65.333 -44 112v11h51v-11c0 -32.667 9.66699 -58.167 29 -76.5s44 -27.5 74 -27.5s54.667 9.16699 74 27.5s29 43.833 29 76.5v11h51v-11c0 -46.667 -14.667 -84 -44 -112s-66 -42 -110 -42z" />
    <glyph glyph-name="Aogonek" unicode="&#x104;" horiz-adv-x="710" 
d="M8 0l316 709.999h61l317 -710c-56.667 -39.333 -85 -74.666 -85 -105.999c0 -22 12.667 -33 38 -33c14 0 26 3 36 9l26 -51c-19.333 -15.333 -44 -23 -74 -23c-28 0 -50.833 8 -68.5 24s-26.5 36 -26.5 60c0 42.667 24.667 82.667 74 120l-99 221h-339l-98 -221h-78z
M353 602.999l-138 -311h277z" />
    <glyph glyph-name="aogonek" unicode="&#x105;" horiz-adv-x="628" 
d="M298 -10c-73.333 0 -133.833 25.167 -181.5 75.5s-71.5 111.833 -71.5 184.5s23.833 134.167 71.5 184.5s108.167 75.5 181.5 75.5c72.667 0 130.667 -23.667 174 -71v61h70v-500h-70v61c-43.333 -47.333 -101.333 -71 -174 -71zM301 55
c38.667 0 72.667 8.33496 102 25.002s52.333 38.667 69 66v208c-16.667 27.333 -39.667 49.333 -69 66s-63.333 25 -102 25c-54 0 -98.167 -18.833 -132.5 -56.5s-51.5 -83.834 -51.5 -138.501s17.167 -100.834 51.5 -138.501s78.5 -56.5 132.5 -56.5zM483 -203.998
c-27.333 0 -49 7.83203 -65 23.499s-24 35.834 -24 60.501c0 40.667 26 80.667 78 120h70c-56.667 -38.667 -85 -74.667 -85 -108c0 -11.333 3.66699 -20 11 -26s16.333 -9 27 -9c15.333 0 28 3 38 9l24 -47c-19.333 -15.333 -44 -23 -74 -23z" />
    <glyph glyph-name="Cacute" unicode="&#x106;" horiz-adv-x="756" 
d="M415 -12c-102.667 0 -189.5 35.333 -260.5 106s-106.5 157.667 -106.5 261s35.5 190.333 106.5 261s157.833 106 260.5 106c64.667 0 124 -14.833 178 -44.5s97.667 -70.167 131 -121.5l-63 -40c-26 41.333 -60.333 74 -103 98s-90.334 36 -143.001 36
c-82 0 -150.833 -28.5 -206.5 -85.5s-83.5 -126.833 -83.5 -209.5c0 -83.333 27.833 -153.333 83.5 -210s124.5 -85 206.5 -85c52.667 0 100.334 12 143.001 36s77 56.667 103 98l63 -40c-33.333 -51.333 -77 -91.833 -131 -121.5s-113.333 -44.5 -178 -44.5zM386 768
l80 137h95l-112 -137h-63z" />
    <glyph glyph-name="cacute" unicode="&#x107;" horiz-adv-x="567" 
d="M305 -10c-75.333 0 -137.666 25.1689 -186.999 75.502s-74 111.833 -74 184.5s24.667 134.167 74 184.5s111.666 75.5 186.999 75.5c50.667 0 95.834 -11.667 135.501 -35s70.834 -55.333 93.501 -96l-61 -35c-16 31.333 -38.5 56 -67.5 74s-62.5 27 -100.5 27
c-56 0 -101.5 -18.833 -136.5 -56.5s-52.5 -83.834 -52.5 -138.501s17.5 -100.834 52.5 -138.501s80.5 -56.5 136.5 -56.5c38 0 71.5 9 100.5 27s51.5 42.667 67.5 74l61 -35c-22.667 -40.667 -53.834 -72.667 -93.501 -96s-84.834 -35 -135.501 -35zM274 578.002l90 152h93
l-121 -152h-62z" />
    <glyph glyph-name="Ccircumflex" unicode="&#x108;" horiz-adv-x="756" 
d="M415 -12c-102.667 0 -189.5 35.333 -260.5 106s-106.5 157.667 -106.5 261s35.5 190.333 106.5 261s157.833 106 260.5 106c64.667 0 124 -14.833 178 -44.5s97.667 -70.167 131 -121.5l-63 -40c-26 41.333 -60.333 74 -103 98s-90.334 36 -143.001 36
c-82 0 -150.833 -28.5 -206.5 -85.5s-83.5 -126.833 -83.5 -209.5c0 -83.333 27.833 -153.333 83.5 -210s124.5 -85 206.5 -85c52.667 0 100.334 12 143.001 36s77 56.667 103 98l63 -40c-33.333 -51.333 -77 -91.833 -131 -121.5s-113.333 -44.5 -178 -44.5zM245 768
l130 137h82l130 -137h-83l-89 92l-87 -92h-83z" />
    <glyph glyph-name="ccircumflex" unicode="&#x109;" horiz-adv-x="567" 
d="M305 -10c-75.333 0 -137.666 25.1689 -186.999 75.502s-74 111.833 -74 184.5s24.667 134.167 74 184.5s111.666 75.5 186.999 75.5c50.667 0 95.834 -11.667 135.501 -35s70.834 -55.333 93.501 -96l-61 -35c-16 31.333 -38.5 56 -67.5 74s-62.5 27 -100.5 27
c-56 0 -101.5 -18.833 -136.5 -56.5s-52.5 -83.834 -52.5 -138.501s17.5 -100.834 52.5 -138.501s80.5 -56.5 136.5 -56.5c38 0 71.5 9 100.5 27s51.5 42.667 67.5 74l61 -35c-22.667 -40.667 -53.834 -72.667 -93.501 -96s-84.834 -35 -135.501 -35zM139 578.002l127 152
h78l127 -152h-80l-86 103l-86 -103h-80z" />
    <glyph glyph-name="Cdotaccent" unicode="&#x10a;" horiz-adv-x="756" 
d="M415 -12c-102.667 0 -189.5 35.333 -260.5 106s-106.5 157.667 -106.5 261s35.5 190.333 106.5 261s157.833 106 260.5 106c64.667 0 124 -14.833 178 -44.5s97.667 -70.167 131 -121.5l-63 -40c-26 41.333 -60.333 74 -103 98s-90.334 36 -143.001 36
c-82 0 -150.833 -28.5 -206.5 -85.5s-83.5 -126.833 -83.5 -209.5c0 -83.333 27.833 -153.333 83.5 -210s124.5 -85 206.5 -85c52.667 0 100.334 12 143.001 36s77 56.667 103 98l63 -40c-33.333 -51.333 -77 -91.833 -131 -121.5s-113.333 -44.5 -178 -44.5zM415 789
c-15.333 0 -28.166 5.16699 -38.499 15.5s-15.5 22.833 -15.5 37.5s5.16699 27.167 15.5 37.5s23.166 15.5 38.499 15.5c14.667 0 27 -5.16699 37 -15.5s15 -22.833 15 -37.5s-5 -27.167 -15 -37.5s-22.333 -15.5 -37 -15.5z" />
    <glyph glyph-name="cdotaccent" unicode="&#x10b;" horiz-adv-x="567" 
d="M305 -10c-75.333 0 -137.666 25.1689 -186.999 75.502s-74 111.833 -74 184.5s24.667 134.167 74 184.5s111.666 75.5 186.999 75.5c50.667 0 95.834 -11.667 135.501 -35s70.834 -55.333 93.501 -96l-61 -35c-16 31.333 -38.5 56 -67.5 74s-62.5 27 -100.5 27
c-56 0 -101.5 -18.833 -136.5 -56.5s-52.5 -83.834 -52.5 -138.501s17.5 -100.834 52.5 -138.501s80.5 -56.5 136.5 -56.5c38 0 71.5 9 100.5 27s51.5 42.667 67.5 74l61 -35c-22.667 -40.667 -53.834 -72.667 -93.501 -96s-84.834 -35 -135.501 -35zM305 602.002
c-15.333 0 -28.166 5.16699 -38.499 15.5s-15.5 22.833 -15.5 37.5s5.16699 27.167 15.5 37.5s23.166 15.5 38.499 15.5c14.667 0 27 -5.16699 37 -15.5s15 -22.833 15 -37.5s-5 -27.167 -15 -37.5s-22.333 -15.5 -37 -15.5z" />
    <glyph glyph-name="Ccaron" unicode="&#x10c;" horiz-adv-x="756" 
d="M415 -12c-102.667 0 -189.5 35.333 -260.5 106s-106.5 157.667 -106.5 261s35.5 190.333 106.5 261s157.833 106 260.5 106c64.667 0 124 -14.833 178 -44.5s97.667 -70.167 131 -121.5l-63 -40c-26 41.333 -60.333 74 -103 98s-90.334 36 -143.001 36
c-82 0 -150.833 -28.5 -206.5 -85.5s-83.5 -126.833 -83.5 -209.5c0 -83.333 27.833 -153.333 83.5 -210s124.5 -85 206.5 -85c52.667 0 100.334 12 143.001 36s77 56.667 103 98l63 -40c-33.333 -51.333 -77 -91.833 -131 -121.5s-113.333 -44.5 -178 -44.5zM375 768
l-130 137h83l87 -92l89 92h83l-130 -137h-82z" />
    <glyph glyph-name="ccaron" unicode="&#x10d;" horiz-adv-x="567" 
d="M305 -10c-75.333 0 -137.666 25.1689 -186.999 75.502s-74 111.833 -74 184.5s24.667 134.167 74 184.5s111.666 75.5 186.999 75.5c50.667 0 95.834 -11.667 135.501 -35s70.834 -55.333 93.501 -96l-61 -35c-16 31.333 -38.5 56 -67.5 74s-62.5 27 -100.5 27
c-56 0 -101.5 -18.833 -136.5 -56.5s-52.5 -83.834 -52.5 -138.501s17.5 -100.834 52.5 -138.501s80.5 -56.5 136.5 -56.5c38 0 71.5 9 100.5 27s51.5 42.667 67.5 74l61 -35c-22.667 -40.667 -53.834 -72.667 -93.501 -96s-84.834 -35 -135.501 -35zM139 730.002h80
l86 -103l86 103h80l-127 -152h-78z" />
    <glyph glyph-name="Dcaron" unicode="&#x10e;" horiz-adv-x="723" 
d="M99 0v710h194c111.333 0 202.833 -33.5 274.5 -100.5s107.5 -151.833 107.5 -254.5s-35.833 -187.5 -107.5 -254.5s-163.167 -100.5 -274.5 -100.5h-194zM175 72h118c91.333 0 165 26.5 221 79.5s84 120.833 84 203.5s-28 150.5 -84 203.5s-129.667 79.5 -221 79.5h-118
v-566zM302 768l-130 137h83l87 -92l89 92h83l-130 -137h-82z" />
    <glyph glyph-name="dcaron" unicode="&#x10f;" horiz-adv-x="628" 
d="M298 -10c-73.333 0 -133.833 25.167 -181.5 75.5s-71.5 111.833 -71.5 184.5s23.833 134.167 71.5 184.5s108.167 75.5 181.5 75.5c72.667 0 130.667 -23.667 174 -71v291h70v-730h-70v61c-43.333 -47.333 -101.333 -71 -174 -71zM301 55
c38.667 0 72.667 8.33496 102 25.002s52.333 38.667 69 66v208c-16.667 27.333 -39.667 49.333 -69 66s-63.333 25 -102 25c-54 0 -98.167 -18.833 -132.5 -56.5s-51.5 -83.834 -51.5 -138.501s17.167 -100.834 51.5 -138.501s78.5 -56.5 132.5 -56.5zM582 564.002l25 166
h70l-45 -166h-50z" />
    <glyph glyph-name="Dcroat" unicode="&#x110;" horiz-adv-x="728" 
d="M104 0v710h194c111.333 0 202.833 -33.5 274.5 -100.5s107.5 -151.833 107.5 -254.5s-35.833 -187.5 -107.5 -254.5s-163.167 -100.5 -274.5 -100.5h-194zM180 72h118c91.333 0 165 26.5 221 79.5s84 120.833 84 203.5s-28 150.5 -84 203.5s-129.667 79.5 -221 79.5h-118
v-566zM30 326v68h320v-68h-320z" />
    <glyph glyph-name="dcroat" unicode="&#x111;" horiz-adv-x="628" 
d="M298 -10c-73.333 0 -133.833 25.167 -181.5 75.5s-71.5 111.833 -71.5 184.5s23.833 134.167 71.5 184.5s108.167 75.5 181.5 75.5c72.667 0 130.667 -23.667 174 -71v291h70v-730h-70v61c-43.333 -47.333 -101.333 -71 -174 -71zM301 55
c38.667 0 72.667 8.33496 102 25.002s52.333 38.667 69 66v208c-16.667 27.333 -39.667 49.333 -69 66s-63.333 25 -102 25c-54 0 -98.167 -18.833 -132.5 -56.5s-51.5 -83.834 -51.5 -138.501s17.167 -100.834 51.5 -138.501s78.5 -56.5 132.5 -56.5zM623 580.002h-318v61
h318v-61z" />
    <glyph glyph-name="Emacron" unicode="&#x112;" horiz-adv-x="554" 
d="M99 0v710h405v-72h-329v-237h269v-72h-269v-257h329v-72h-405zM143 809v61h316v-61h-316z" />
    <glyph glyph-name="emacron" unicode="&#x113;" horiz-adv-x="582" 
d="M302 -10c-76.667 0 -138.668 24.833 -186.001 74.5s-71 111.5 -71 185.5c0 73.333 24.333 135 73 185s110.667 75 186 75c67.333 0 123.333 -22.667 168 -68s67 -107 67 -185v-19h-422c0 -52 17.333 -95.5 52 -130.5s79 -52.5 133 -52.5c40 0 72.833 7.83301 98.5 23.5
s47.834 39.167 66.501 70.5l57 -37c-47.333 -81.333 -121.333 -122 -222 -122zM122.999 300h343c-6.66699 44.667 -25 80 -55 106s-66.667 39 -110 39s-81.833 -13.167 -115.5 -39.5s-54.5 -61.5 -62.5 -105.5zM145.999 649v61h316v-61h-316z" />
    <glyph glyph-name="Ebreve" unicode="&#x114;" horiz-adv-x="554" 
d="M99 0v710h405v-72h-329v-237h269v-72h-269v-257h329v-72h-405zM301 762c-43.333 0 -79.833 14 -109.5 42s-44.5 65 -44.5 111h51c0 -32.667 9.66699 -58 29 -76s44 -27 74 -27s54.667 9 74 27s29 43.333 29 76h51c0 -46 -14.833 -83 -44.5 -111s-66.167 -42 -109.5 -42z
" />
    <glyph glyph-name="ebreve" unicode="&#x115;" horiz-adv-x="582" 
d="M302 -10c-76.667 0 -138.668 24.833 -186.001 74.5s-71 111.5 -71 185.5c0 73.333 24.333 135 73 185s110.667 75 186 75c67.333 0 123.333 -22.667 168 -68s67 -107 67 -185v-19h-422c0 -52 17.333 -95.5 52 -130.5s79 -52.5 133 -52.5c40 0 72.833 7.83301 98.5 23.5
s47.834 39.167 66.501 70.5l57 -37c-47.333 -81.333 -121.333 -122 -222 -122zM122.999 300h343c-6.66699 44.667 -25 80 -55 106s-66.667 39 -110 39s-81.833 -13.167 -115.5 -39.5s-54.5 -61.5 -62.5 -105.5zM303.999 565c-44 0 -80.667 14 -110 42s-44 65.333 -44 112v11
h51v-11c0 -32.667 9.66699 -58.167 29 -76.5s44 -27.5 74 -27.5s54.667 9.16699 74 27.5s29 43.833 29 76.5v11h51v-11c0 -46.667 -14.667 -84 -44 -112s-66 -42 -110 -42z" />
    <glyph glyph-name="Edotaccent" unicode="&#x116;" horiz-adv-x="554" 
d="M99 0v710h405v-72h-329v-237h269v-72h-269v-257h329v-72h-405zM301 789c-15.333 0 -28.166 5.16699 -38.499 15.5s-15.5 22.833 -15.5 37.5s5.16699 27.167 15.5 37.5s23.166 15.5 38.499 15.5c14.667 0 27 -5.16699 37 -15.5s15 -22.833 15 -37.5s-5 -27.167 -15 -37.5
s-22.333 -15.5 -37 -15.5z" />
    <glyph glyph-name="edotaccent" unicode="&#x117;" horiz-adv-x="582" 
d="M302 -10c-76.667 0 -138.668 24.833 -186.001 74.5s-71 111.5 -71 185.5c0 73.333 24.333 135 73 185s110.667 75 186 75c67.333 0 123.333 -22.667 168 -68s67 -107 67 -185v-19h-422c0 -52 17.333 -95.5 52 -130.5s79 -52.5 133 -52.5c40 0 72.833 7.83301 98.5 23.5
s47.834 39.167 66.501 70.5l57 -37c-47.333 -81.333 -121.333 -122 -222 -122zM122.999 300h343c-6.66699 44.667 -25 80 -55 106s-66.667 39 -110 39s-81.833 -13.167 -115.5 -39.5s-54.5 -61.5 -62.5 -105.5zM303.999 602c-15.333 0 -28.166 5.16699 -38.499 15.5
s-15.5 22.833 -15.5 37.5s5.16699 27.167 15.5 37.5s23.166 15.5 38.499 15.5c14.667 0 27 -5.16699 37 -15.5s15 -22.833 15 -37.5s-5 -27.167 -15 -37.5s-22.333 -15.5 -37 -15.5z" />
    <glyph glyph-name="Eogonek" unicode="&#x118;" horiz-adv-x="554" 
d="M99 0v710h405v-72h-329v-237h269v-72h-269v-257h329v-72h-405zM445 -204c-28 0 -50.833 7.99902 -68.5 23.999s-26.5 36 -26.5 60c0 40.667 26 80.667 78 120h76c-56.667 -39.333 -85 -74.666 -85 -105.999c0 -22 12.667 -33 38 -33c14 0 26 3 36 9l26 -51
c-19.333 -15.333 -44 -23 -74 -23z" />
    <glyph glyph-name="eogonek" unicode="&#x119;" horiz-adv-x="582" 
d="M449 -204c-26 0 -48.002 7.33203 -66.002 21.999s-27 35.334 -27 62.001c0 9.33301 1 19 3 29s4 18.167 6 24.5s5.83301 14.666 11.5 24.999s9.33398 16.833 11.001 19.5s6.16699 9.33398 13.5 20.001l11 17c-26 -16.667 -62.667 -25 -110 -25
c-76.667 0 -138.667 24.833 -186 74.5s-71 111.5 -71 185.5c0 73.333 24.333 135 73 185s110.667 75 186 75c67.333 0 123.333 -22.667 168 -68s67 -107 67 -185v-19h-422c0 -52 17.333 -95.5 52 -130.5s79 -52.5 133 -52.5c40 0 72.833 7.83301 98.5 23.5
s47.834 39.167 66.501 70.5l57 -37c-68.667 -102 -103 -171.333 -103 -208c0 -31.333 16 -47 48 -47c14 0 26 3 36 9l24 -47c-24 -15.333 -50.667 -23 -80 -23zM300.998 444.999c-43.333 0 -81.833 -13.167 -115.5 -39.5s-54.5 -61.5 -62.5 -105.5h343
c-6.66699 44.667 -25 80 -55 106s-66.667 39 -110 39z" />
    <glyph glyph-name="Ecaron" unicode="&#x11a;" horiz-adv-x="554" 
d="M99 0v710h405v-72h-329v-237h269v-72h-269v-257h329v-72h-405zM261 768l-130 137h83l87 -92l89 92h83l-130 -137h-82z" />
    <glyph glyph-name="ecaron" unicode="&#x11b;" horiz-adv-x="582" 
d="M302 -10c-76.667 0 -138.668 24.833 -186.001 74.5s-71 111.5 -71 185.5c0 73.333 24.333 135 73 185s110.667 75 186 75c67.333 0 123.333 -22.667 168 -68s67 -107 67 -185v-19h-422c0 -52 17.333 -95.5 52 -130.5s79 -52.5 133 -52.5c40 0 72.833 7.83301 98.5 23.5
s47.834 39.167 66.501 70.5l57 -37c-47.333 -81.333 -121.333 -122 -222 -122zM122.999 300h343c-6.66699 44.667 -25 80 -55 106s-66.667 39 -110 39s-81.833 -13.167 -115.5 -39.5s-54.5 -61.5 -62.5 -105.5zM137.999 730h80l86 -103l86 103h80l-127 -152h-78z" />
    <glyph glyph-name="Gcircumflex" unicode="&#x11c;" horiz-adv-x="765" 
d="M430 -12c-111.333 0 -202.835 35 -274.502 105s-107.5 157.333 -107.5 262c0 104 35.5 191.167 106.5 261.5s158.833 105.5 263.5 105.5c106.667 0 193.334 -31.333 260.001 -94l-49 -56c-57.333 52 -127.666 78 -210.999 78c-84 0 -153.833 -28.333 -209.5 -85
s-83.5 -126.667 -83.5 -210c0 -84.667 28.167 -155 84.5 -211s129.833 -84 220.5 -84c86 0 153 19.333 201 58v210h-216v72h291v-313c-65.333 -66 -157.333 -99 -276 -99zM247.998 768l130 137h82l130 -137h-83l-89 92l-87 -92h-83z" />
    <glyph glyph-name="gcircumflex" unicode="&#x11d;" horiz-adv-x="628" 
d="M296 -204c-51.333 0 -96.8311 9.16895 -136.498 27.502s-69.834 42.166 -90.501 71.499l55 47c41.333 -54 98.666 -81 171.999 -81c47.333 0 88.5 14.667 123.5 44s52.5 72.666 52.5 129.999v40c-43.333 -47.333 -101.333 -71 -174 -71
c-73.333 0 -133.833 24.5 -181.5 73.5s-71.5 108.833 -71.5 179.5s24 130.5 72 179.5s108.333 73.5 181 73.5s130.667 -23.667 174 -71v61h70v-469c0 -74 -23 -131.667 -69 -173s-105 -62 -177 -62zM301.002 69.002c38.667 0 72.667 8.33301 102 25s52.333 38.667 69 66v194
c-16.667 27.333 -39.667 49.333 -69 66s-63.333 25 -102 25c-53.333 0 -97.333 -18 -132 -54s-52 -80.667 -52 -134c0 -52.667 17.5 -97.167 52.5 -133.5s78.833 -54.5 131.5 -54.5zM161.002 578.002l127 152h78l127 -152h-80l-86 103l-86 -103h-80z" />
    <glyph glyph-name="Gbreve" unicode="&#x11e;" horiz-adv-x="765" 
d="M430 -12c-111.333 0 -202.835 35 -274.502 105s-107.5 157.333 -107.5 262c0 104 35.5 191.167 106.5 261.5s158.833 105.5 263.5 105.5c106.667 0 193.334 -31.333 260.001 -94l-49 -56c-57.333 52 -127.666 78 -210.999 78c-84 0 -153.833 -28.333 -209.5 -85
s-83.5 -126.667 -83.5 -210c0 -84.667 28.167 -155 84.5 -211s129.833 -84 220.5 -84c86 0 153 19.333 201 58v210h-216v72h291v-313c-65.333 -66 -157.333 -99 -276 -99zM417.998 762c-43.333 0 -79.833 14 -109.5 42s-44.5 65 -44.5 111h51c0 -32.667 9.66699 -58 29 -76
s44 -27 74 -27s54.667 9 74 27s29 43.333 29 76h51c0 -46 -14.833 -83 -44.5 -111s-66.167 -42 -109.5 -42z" />
    <glyph glyph-name="gbreve" unicode="&#x11f;" horiz-adv-x="628" 
d="M296 -204c-51.333 0 -96.8311 9.16895 -136.498 27.502s-69.834 42.166 -90.501 71.499l55 47c41.333 -54 98.666 -81 171.999 -81c47.333 0 88.5 14.667 123.5 44s52.5 72.666 52.5 129.999v40c-43.333 -47.333 -101.333 -71 -174 -71
c-73.333 0 -133.833 24.5 -181.5 73.5s-71.5 108.833 -71.5 179.5s24 130.5 72 179.5s108.333 73.5 181 73.5s130.667 -23.667 174 -71v61h70v-469c0 -74 -23 -131.667 -69 -173s-105 -62 -177 -62zM301.002 69.002c38.667 0 72.667 8.33301 102 25s52.333 38.667 69 66v194
c-16.667 27.333 -39.667 49.333 -69 66s-63.333 25 -102 25c-53.333 0 -97.333 -18 -132 -54s-52 -80.667 -52 -134c0 -52.667 17.5 -97.167 52.5 -133.5s78.833 -54.5 131.5 -54.5zM327.002 565.002c-44 0 -80.667 14 -110 42s-44 65.333 -44 112v11h51v-11
c0 -32.667 9.66699 -58.167 29 -76.5s44 -27.5 74 -27.5s54.667 9.16699 74 27.5s29 43.833 29 76.5v11h51v-11c0 -46.667 -14.667 -84 -44 -112s-66 -42 -110 -42z" />
    <glyph glyph-name="Gdotaccent" unicode="&#x120;" horiz-adv-x="765" 
d="M430 -12c-111.333 0 -202.835 35 -274.502 105s-107.5 157.333 -107.5 262c0 104 35.5 191.167 106.5 261.5s158.833 105.5 263.5 105.5c106.667 0 193.334 -31.333 260.001 -94l-49 -56c-57.333 52 -127.666 78 -210.999 78c-84 0 -153.833 -28.333 -209.5 -85
s-83.5 -126.667 -83.5 -210c0 -84.667 28.167 -155 84.5 -211s129.833 -84 220.5 -84c86 0 153 19.333 201 58v210h-216v72h291v-313c-65.333 -66 -157.333 -99 -276 -99zM417.998 789c-15.333 0 -28.166 5.16699 -38.499 15.5s-15.5 22.833 -15.5 37.5
s5.16699 27.167 15.5 37.5s23.166 15.5 38.499 15.5c14.667 0 27 -5.16699 37 -15.5s15 -22.833 15 -37.5s-5 -27.167 -15 -37.5s-22.333 -15.5 -37 -15.5z" />
    <glyph glyph-name="gdotaccent" unicode="&#x121;" horiz-adv-x="628" 
d="M296 -204c-51.333 0 -96.8311 9.16895 -136.498 27.502s-69.834 42.166 -90.501 71.499l55 47c41.333 -54 98.666 -81 171.999 -81c47.333 0 88.5 14.667 123.5 44s52.5 72.666 52.5 129.999v40c-43.333 -47.333 -101.333 -71 -174 -71
c-73.333 0 -133.833 24.5 -181.5 73.5s-71.5 108.833 -71.5 179.5s24 130.5 72 179.5s108.333 73.5 181 73.5s130.667 -23.667 174 -71v61h70v-469c0 -74 -23 -131.667 -69 -173s-105 -62 -177 -62zM301.002 69.002c38.667 0 72.667 8.33301 102 25s52.333 38.667 69 66v194
c-16.667 27.333 -39.667 49.333 -69 66s-63.333 25 -102 25c-53.333 0 -97.333 -18 -132 -54s-52 -80.667 -52 -134c0 -52.667 17.5 -97.167 52.5 -133.5s78.833 -54.5 131.5 -54.5zM327.002 602.002c-15.333 0 -28.166 5.16699 -38.499 15.5s-15.5 22.833 -15.5 37.5
s5.16699 27.167 15.5 37.5s23.166 15.5 38.499 15.5c14.667 0 27 -5.16699 37 -15.5s15 -22.833 15 -37.5s-5 -27.167 -15 -37.5s-22.333 -15.5 -37 -15.5z" />
    <glyph glyph-name="uni0122" unicode="&#x122;" horiz-adv-x="765" 
d="M430 -12c-111.333 0 -202.835 35 -274.502 105s-107.5 157.333 -107.5 262c0 104 35.5 191.167 106.5 261.5s158.833 105.5 263.5 105.5c106.667 0 193.334 -31.333 260.001 -94l-49 -56c-57.333 52 -127.666 78 -210.999 78c-84 0 -153.833 -28.333 -209.5 -85
s-83.5 -126.667 -83.5 -210c0 -84.667 28.167 -155 84.5 -211s129.833 -84 220.5 -84c86 0 153 19.333 201 58v210h-216v72h291v-313c-65.333 -66 -157.333 -99 -276 -99zM427.998 -258h-42l24 87h-44v96h97v-96z" />
    <glyph glyph-name="uni0123" unicode="&#x123;" horiz-adv-x="628" 
d="M296 -204c-51.333 0 -96.8311 9.16895 -136.498 27.502s-69.834 42.166 -90.501 71.499l55 47c41.333 -54 98.666 -81 171.999 -81c47.333 0 88.5 14.667 123.5 44s52.5 72.666 52.5 129.999v40c-43.333 -47.333 -101.333 -71 -174 -71
c-73.333 0 -133.833 24.5 -181.5 73.5s-71.5 108.833 -71.5 179.5s24 130.5 72 179.5s108.333 73.5 181 73.5s130.667 -23.667 174 -71v61h70v-469c0 -74 -23 -131.667 -69 -173s-105 -62 -177 -62zM301.002 69.002c38.667 0 72.667 8.33301 102 25s52.333 38.667 69 66v194
c-16.667 27.333 -39.667 49.333 -69 66s-63.333 25 -102 25c-53.333 0 -97.333 -18 -132 -54s-52 -80.667 -52 -134c0 -52.667 17.5 -97.167 52.5 -133.5s78.833 -54.5 131.5 -54.5zM313.002 789.002h42l-24 -87h44v-96h-97v96z" />
    <glyph glyph-name="Hcircumflex" unicode="&#x124;" horiz-adv-x="765" 
d="M99 0v710h76v-309h415v309h76v-710h-76v329h-415v-329h-76zM212 768l130 137h82l130 -137h-83l-89 92l-87 -92h-83z" />
    <glyph glyph-name="hcircumflex" unicode="&#x125;" horiz-adv-x="586" 
d="M156 0h-70v730h70v-300c34 53.333 88.667 80 164 80c55.333 0 100.5 -17.667 135.5 -53s52.5 -83.333 52.5 -144v-313h-70v303c0 45.333 -11.833 80.333 -35.5 105s-56.5 37 -98.5 37c-38 0 -69.5 -10.167 -94.5 -30.5s-42.833 -47.5 -53.5 -81.5v-333zM123 768l130 137
h82l130 -137h-83l-89 92l-87 -92h-83z" />
    <glyph glyph-name="Hbar" unicode="&#x126;" horiz-adv-x="773" 
d="M103 0v710h76v-309h415v309h76v-710h-76v329h-415v-329h-76zM29 525v63h715v-63h-715z" />
    <glyph glyph-name="hbar" unicode="&#x127;" horiz-adv-x="586" 
d="M156 0h-70v730h70v-300c34 53.333 88.667 80 164 80c55.333 0 100.5 -17.667 135.5 -53s52.5 -83.333 52.5 -144v-313h-70v303c0 45.333 -11.833 80.333 -35.5 105s-56.5 37 -98.5 37c-38 0 -69.5 -10.167 -94.5 -30.5s-42.833 -47.5 -53.5 -81.5v-333zM330 580h-318v61
h318v-61z" />
    <glyph glyph-name="Itilde" unicode="&#x128;" horiz-adv-x="274" 
d="M99 0v710h76v-710h-76zM-31 788l3 16c5.33301 26.667 17.166 48.167 35.499 64.5s40.5 24.5 66.5 24.5c18 0 41.5 -7.16699 70.5 -21.5s48.167 -21.5 57.5 -21.5c22 0 36.333 14.333 43 43h61l-3 -16c-5.33301 -26.667 -17.166 -48.167 -35.499 -64.5
s-40.5 -24.5 -66.5 -24.5c-18 0 -41.5 7.16699 -70.5 21.5s-48.167 21.5 -57.5 21.5c-22 0 -36.333 -14.333 -43 -43h-61z" />
    <glyph glyph-name="itilde" unicode="&#x129;" horiz-adv-x="242" 
d="M86 0v500h70v-500h-70zM-48 600l3 16c5.33301 26.667 17.166 48.167 35.499 64.5s40.5 24.5 66.5 24.5c18 0 41.5 -7.16699 70.5 -21.5s48.167 -21.5 57.5 -21.5c22 0 36.333 14.333 43 43h61l-3 -16c-5.33301 -26.667 -17.166 -48.167 -35.499 -64.5
s-40.5 -24.5 -66.5 -24.5c-18 0 -41.5 7.16699 -70.5 21.5s-48.167 21.5 -57.5 21.5c-22 0 -36.333 -14.333 -43 -43h-61z" />
    <glyph glyph-name="Imacron" unicode="&#x12a;" horiz-adv-x="274" 
d="M99 0v710h76v-710h-76zM-21 809v61h316v-61h-316z" />
    <glyph glyph-name="imacron" unicode="&#x12b;" horiz-adv-x="242" 
d="M86 0v500h70v-500h-70zM-37 649v61h316v-61h-316z" />
    <glyph glyph-name="Ibreve" unicode="&#x12c;" horiz-adv-x="274" 
d="M99 0v710h76v-710h-76zM137 762c-43.333 0 -79.833 14 -109.5 42s-44.5 65 -44.5 111h51c0 -32.667 9.66699 -58 29 -76s44 -27 74 -27s54.667 9 74 27s29 43.333 29 76h51c0 -46 -14.833 -83 -44.5 -111s-66.167 -42 -109.5 -42z" />
    <glyph glyph-name="ibreve" unicode="&#x12d;" horiz-adv-x="242" 
d="M86 0v500h70v-500h-70zM121 565c-44 0 -80.667 14 -110 42s-44 65.333 -44 112v11h51v-11c0 -32.667 9.66699 -58.167 29 -76.5s44 -27.5 74 -27.5s54.667 9.16699 74 27.5s29 43.833 29 76.5v11h51v-11c0 -46.667 -14.667 -84 -44 -112s-66 -42 -110 -42z" />
    <glyph glyph-name="Iogonek" unicode="&#x12e;" horiz-adv-x="274" 
d="M99 0v710h76v-710h-76zM116 -204c-28 0 -50.833 7.99902 -68.5 23.999s-26.5 36 -26.5 60c0 40.667 26 80.667 78 120h76c-56.667 -39.333 -85 -74.666 -85 -105.999c0 -22 12.667 -33 38 -33c14 0 26 3 36 9l26 -51c-19.333 -15.333 -44 -23 -74 -23z" />
    <glyph glyph-name="iogonek" unicode="&#x12f;" horiz-adv-x="242" 
d="M123 630c-15.333 0 -28.166 5.16699 -38.499 15.5s-15.5 22.833 -15.5 37.5s5.16699 27.167 15.5 37.5s23.166 15.5 38.499 15.5c14.667 0 27 -5.16699 37 -15.5s15 -22.833 15 -37.5s-5 -27.167 -15 -37.5s-22.333 -15.5 -37 -15.5zM86 0v500h70v-500h-70zM97 -204
c-27.333 0 -49 7.83203 -65 23.499s-24 35.834 -24 60.501c0 40.667 26 80.667 78 120h70c-56.667 -38.667 -85 -74.667 -85 -108c0 -11.333 3.66699 -20 11 -26s16.333 -9 27 -9c15.333 0 28 3 38 9l24 -47c-19.333 -15.333 -44 -23 -74 -23z" />
    <glyph glyph-name="Idotaccent" unicode="&#x130;" horiz-adv-x="274" 
d="M99 0v710h76v-710h-76zM137 789c-15.333 0 -28.166 5.16699 -38.499 15.5s-15.5 22.833 -15.5 37.5s5.16699 27.167 15.5 37.5s23.166 15.5 38.499 15.5c14.667 0 27 -5.16699 37 -15.5s15 -22.833 15 -37.5s-5 -27.167 -15 -37.5s-22.333 -15.5 -37 -15.5z" />
    <glyph glyph-name="dotlessi" unicode="&#x131;" horiz-adv-x="242" 
d="M86 0v500h70v-500h-70z" />
    <glyph glyph-name="Jcircumflex" unicode="&#x134;" horiz-adv-x="469" 
d="M188 -12c-75.333 0 -135.333 27 -180 81l54 52c36.667 -41.333 78.667 -62 126 -62c75.333 0 113 45.667 113 137v514h76v-516c0 -68 -17 -119.333 -51 -154s-80 -52 -138 -52zM169 768l130 137h82l130 -137h-83l-89 92l-87 -92h-83z" />
    <glyph glyph-name="jcircumflex" unicode="&#x135;" horiz-adv-x="250" 
d="M33 -199c-26.667 0 -48 3.66602 -64 10.999l15 61c12.667 -4.66699 27.667 -7 45 -7c43.333 0 65 28.333 65 85v549h70v-555c0 -47.333 -12.333 -83.166 -37 -107.499s-56 -36.5 -94 -36.5zM-38 577.999l127 152h78l127 -152h-80l-86 103l-86 -103h-80z" />
    <glyph glyph-name="uni0136" unicode="&#x136;" horiz-adv-x="664" 
d="M573 0l-399 343v-343h-75v710h75v-311l327 311h103l-353 -337l435 -373h-113zM387 -258h-42l24 87h-44v96h97v-96z" />
    <glyph glyph-name="uni0137" unicode="&#x137;" horiz-adv-x="534" 
d="M447 0l-291 255v-255h-70v730h70v-427l235 197h99l-263 -220l320 -280h-100zM313 -258h-42l24 87h-44v96h97v-96z" />
    <glyph glyph-name="Lacute" unicode="&#x139;" horiz-adv-x="547" 
d="M99 0v710h76v-638h355v-72h-431zM108 768l80 137h95l-112 -137h-63z" />
    <glyph glyph-name="lacute" unicode="&#x13a;" horiz-adv-x="242" 
d="M86 0v730h70v-730h-70zM90 808l90 152h93l-121 -152h-62z" />
    <glyph glyph-name="uni013B" unicode="&#x13b;" horiz-adv-x="547" 
d="M99 0v710h76v-638h355v-72h-431zM320 -258h-42l24 87h-44v96h97v-96z" />
    <glyph glyph-name="uni013C" unicode="&#x13c;" horiz-adv-x="242" 
d="M86 0v730h70v-730h-70zM134 -258h-42l24 87h-44v96h97v-96z" />
    <glyph glyph-name="Lcaron" unicode="&#x13d;" horiz-adv-x="547" 
d="M99 0v710h76v-638h355v-72h-431zM285 564l25 166h70l-45 -166h-50z" />
    <glyph glyph-name="lcaron" unicode="&#x13e;" horiz-adv-x="242" 
d="M86 0v730h70v-730h-70zM197 564l25 166h70l-45 -166h-50z" />
    <glyph glyph-name="Ldot" unicode="&#x13f;" horiz-adv-x="551" 
d="M99 0v710h76v-638h355v-72h-431zM415 338c-15.333 0 -28.166 5.16699 -38.499 15.5s-15.5 22.833 -15.5 37.5s5.16699 27.167 15.5 37.5s23.166 15.5 38.499 15.5c14.667 0 27 -5.16699 37 -15.5s15 -22.833 15 -37.5s-5 -27.167 -15 -37.5s-22.333 -15.5 -37 -15.5z" />
    <glyph glyph-name="ldot" unicode="&#x140;" horiz-adv-x="376" 
d="M86 0v730h70v-730h-70zM310 322c-15.333 0 -28.166 5.16699 -38.499 15.5s-15.5 22.833 -15.5 37.5s5.16699 27.167 15.5 37.5s23.166 15.5 38.499 15.5c14.667 0 27 -5.16699 37 -15.5s15 -22.833 15 -37.5s-5 -27.167 -15 -37.5s-22.333 -15.5 -37 -15.5z" />
    <glyph glyph-name="Lslash" unicode="&#x141;" horiz-adv-x="563" 
d="M115 0v710h76v-638h355v-72h-431zM358 424l-317 -211v74l317 211v-74z" />
    <glyph glyph-name="lslash" unicode="&#x142;" horiz-adv-x="310" 
d="M122 0v730h70v-730h-70zM272 417l-230 -153v68l230 153v-68z" />
    <glyph glyph-name="Nacute" unicode="&#x143;" horiz-adv-x="794" 
d="M695 0h-67l-453 581v-581h-76v710h67l453 -581v581h76v-710zM363 768l80 137h95l-112 -137h-63z" />
    <glyph glyph-name="nacute" unicode="&#x144;" horiz-adv-x="586" 
d="M86 0v500h70v-70c34 53.333 88.667 80 164 80c55.333 0 100.5 -17.667 135.5 -53s52.5 -83.333 52.5 -144v-313h-70v303c0 45.333 -11.833 80.333 -35.5 105s-56.5 37 -98.5 37c-38 0 -69.5 -10.167 -94.5 -30.5s-42.833 -47.5 -53.5 -81.5v-333h-70zM266 578l90 152h93
l-121 -152h-62z" />
    <glyph glyph-name="uni0145" unicode="&#x145;" horiz-adv-x="794" 
d="M695 0h-67l-453 581v-581h-76v710h67l453 -581v581h76v-710zM414 -258h-42l24 87h-44v96h97v-96z" />
    <glyph glyph-name="uni0146" unicode="&#x146;" horiz-adv-x="586" 
d="M86 0v500h70v-70c34 53.333 88.667 80 164 80c55.333 0 100.5 -17.667 135.5 -53s52.5 -83.333 52.5 -144v-313h-70v303c0 45.333 -11.833 80.333 -35.5 105s-56.5 37 -98.5 37c-38 0 -69.5 -10.167 -94.5 -30.5s-42.833 -47.5 -53.5 -81.5v-333h-70zM310 -258h-42l24 87
h-44v96h97v-96z" />
    <glyph glyph-name="Ncaron" unicode="&#x147;" horiz-adv-x="794" 
d="M695 0h-67l-453 581v-581h-76v710h67l453 -581v581h76v-710zM352 768l-130 137h83l87 -92l89 92h83l-130 -137h-82z" />
    <glyph glyph-name="ncaron" unicode="&#x148;" horiz-adv-x="586" 
d="M86 0v500h70v-70c34 53.333 88.667 80 164 80c55.333 0 100.5 -17.667 135.5 -53s52.5 -83.333 52.5 -144v-313h-70v303c0 45.333 -11.833 80.333 -35.5 105s-56.5 37 -98.5 37c-38 0 -69.5 -10.167 -94.5 -30.5s-42.833 -47.5 -53.5 -81.5v-333h-70zM131 730h80l86 -103
l86 103h80l-127 -152h-78z" />
    <glyph glyph-name="Eng" unicode="&#x14a;" horiz-adv-x="794" 
d="M515 -194v65h27c51.333 0 77 26 77 78v62l-444 570v-581h-76v710h67l453 -581v581h76v-757c0 -98 -49 -147 -147 -147h-33z" />
    <glyph glyph-name="eng" unicode="&#x14b;" horiz-adv-x="586" 
d="M86 0v500h70v-70c34 53.333 88.667 80 164 80c55.333 0 100.5 -17.667 135.5 -53s52.5 -83.333 52.5 -144v-369c0 -46.667 -14.167 -83 -42.5 -109s-62.833 -39 -103.5 -39c-28 0 -51 3.66699 -69 11l16 60c14 -5.33301 29.667 -8 47 -8c24 0 43.667 7 59 21s23 36 23 66
v357c0 45.333 -11.833 80.333 -35.5 105s-56.5 37 -98.5 37c-38 0 -69.5 -10.167 -94.5 -30.5s-42.833 -47.5 -53.5 -81.5v-333h-70z" />
    <glyph glyph-name="Omacron" unicode="&#x14c;" horiz-adv-x="830" 
d="M415 60c82 0 150.833 28.333 206.5 85s83.5 126.667 83.5 210c0 82.667 -27.833 152.5 -83.5 209.5s-124.5 85.5 -206.5 85.5s-150.833 -28.5 -206.5 -85.5s-83.5 -126.833 -83.5 -209.5c0 -83.333 27.833 -153.333 83.5 -210s124.5 -85 206.5 -85zM415 -12
c-102.667 0 -189.5 35.333 -260.5 106s-106.5 157.667 -106.5 261s35.5 190.333 106.5 261s157.833 106 260.5 106s189.5 -35.333 260.5 -106s106.5 -157.667 106.5 -261s-35.5 -190.333 -106.5 -261s-157.833 -106 -260.5 -106zM257 809v61h316v-61h-316z" />
    <glyph glyph-name="omacron" unicode="&#x14d;" horiz-adv-x="610" 
d="M305 -10c-75.333 0 -137.666 25.167 -186.999 75.5s-74 111.833 -74 184.5s24.667 134.167 74 184.5s111.666 75.5 186.999 75.5s137.666 -25.167 186.999 -75.5s74 -111.833 74 -184.5s-24.667 -134.167 -74 -184.5s-111.666 -75.5 -186.999 -75.5zM305 55
c56 0 101.5 18.833 136.5 56.5s52.5 83.834 52.5 138.501s-17.5 100.834 -52.5 138.501s-80.5 56.5 -136.5 56.5s-101.5 -18.833 -136.5 -56.5s-52.5 -83.834 -52.5 -138.501s17.5 -100.834 52.5 -138.501s80.5 -56.5 136.5 -56.5zM147 649v61h316v-61h-316z" />
    <glyph glyph-name="Obreve" unicode="&#x14e;" horiz-adv-x="830" 
d="M415 60c82 0 150.833 28.333 206.5 85s83.5 126.667 83.5 210c0 82.667 -27.833 152.5 -83.5 209.5s-124.5 85.5 -206.5 85.5s-150.833 -28.5 -206.5 -85.5s-83.5 -126.833 -83.5 -209.5c0 -83.333 27.833 -153.333 83.5 -210s124.5 -85 206.5 -85zM415 -12
c-102.667 0 -189.5 35.333 -260.5 106s-106.5 157.667 -106.5 261s35.5 190.333 106.5 261s157.833 106 260.5 106s189.5 -35.333 260.5 -106s106.5 -157.667 106.5 -261s-35.5 -190.333 -106.5 -261s-157.833 -106 -260.5 -106zM415 762c-43.333 0 -79.833 14 -109.5 42
s-44.5 65 -44.5 111h51c0 -32.667 9.66699 -58 29 -76s44 -27 74 -27s54.667 9 74 27s29 43.333 29 76h51c0 -46 -14.833 -83 -44.5 -111s-66.167 -42 -109.5 -42z" />
    <glyph glyph-name="obreve" unicode="&#x14f;" horiz-adv-x="610" 
d="M305 -10c-75.333 0 -137.666 25.167 -186.999 75.5s-74 111.833 -74 184.5s24.667 134.167 74 184.5s111.666 75.5 186.999 75.5s137.666 -25.167 186.999 -75.5s74 -111.833 74 -184.5s-24.667 -134.167 -74 -184.5s-111.666 -75.5 -186.999 -75.5zM305 55
c56 0 101.5 18.833 136.5 56.5s52.5 83.834 52.5 138.501s-17.5 100.834 -52.5 138.501s-80.5 56.5 -136.5 56.5s-101.5 -18.833 -136.5 -56.5s-52.5 -83.834 -52.5 -138.501s17.5 -100.834 52.5 -138.501s80.5 -56.5 136.5 -56.5zM305 565c-44 0 -80.667 14 -110 42
s-44 65.333 -44 112v11h51v-11c0 -32.667 9.66699 -58.167 29 -76.5s44 -27.5 74 -27.5s54.667 9.16699 74 27.5s29 43.833 29 76.5v11h51v-11c0 -46.667 -14.667 -84 -44 -112s-66 -42 -110 -42z" />
    <glyph glyph-name="Ohungarumlaut" unicode="&#x150;" horiz-adv-x="830" 
d="M415 60c82 0 150.833 28.333 206.5 85s83.5 126.667 83.5 210c0 82.667 -27.833 152.5 -83.5 209.5s-124.5 85.5 -206.5 85.5s-150.833 -28.5 -206.5 -85.5s-83.5 -126.833 -83.5 -209.5c0 -83.333 27.833 -153.333 83.5 -210s124.5 -85 206.5 -85zM415 -12
c-102.667 0 -189.5 35.333 -260.5 106s-106.5 157.667 -106.5 261s35.5 190.333 106.5 261s157.833 106 260.5 106s189.5 -35.333 260.5 -106s106.5 -157.667 106.5 -261s-35.5 -190.333 -106.5 -261s-157.833 -106 -260.5 -106zM314 768l55 137h85l-86 -137h-54zM476 768
l55 137h85l-86 -137h-54z" />
    <glyph glyph-name="ohungarumlaut" unicode="&#x151;" horiz-adv-x="610" 
d="M305 -10c-75.333 0 -137.666 25.167 -186.999 75.5s-74 111.833 -74 184.5s24.667 134.167 74 184.5s111.666 75.5 186.999 75.5s137.666 -25.167 186.999 -75.5s74 -111.833 74 -184.5s-24.667 -134.167 -74 -184.5s-111.666 -75.5 -186.999 -75.5zM305 55
c56 0 101.5 18.833 136.5 56.5s52.5 83.834 52.5 138.501s-17.5 100.834 -52.5 138.501s-80.5 56.5 -136.5 56.5s-101.5 -18.833 -136.5 -56.5s-52.5 -83.834 -52.5 -138.501s17.5 -100.834 52.5 -138.501s80.5 -56.5 136.5 -56.5zM204 578l55 152h85l-86 -152h-54zM366 578
l55 152h85l-86 -152h-54z" />
    <glyph glyph-name="OE" unicode="&#x152;" horiz-adv-x="1160" 
d="M415 60c82 0 150.833 28.333 206.5 85s83.5 126.667 83.5 210c0 82.667 -27.833 152.5 -83.5 209.5s-124.5 85.5 -206.5 85.5s-150.833 -28.5 -206.5 -85.5s-83.5 -126.833 -83.5 -209.5c0 -83.333 27.833 -153.333 83.5 -210s124.5 -85 206.5 -85zM705 0v133
c-71.333 -96.667 -168 -145 -290 -145c-102.667 0 -189.5 35.333 -260.5 106s-106.5 157.667 -106.5 261s35.5 190.333 106.5 261s157.833 106 260.5 106c122 0 218.667 -48.333 290 -145v133h405v-72h-329v-237h269v-72h-269v-257h329v-72h-405z" />
    <glyph glyph-name="oe" unicode="&#x153;" horiz-adv-x="1031" 
d="M751 -10c-100.667 0 -174.668 41 -222.001 123c-22.667 -38 -53.5 -68 -92.5 -90s-82.833 -33 -131.5 -33c-75.333 0 -137.666 25.167 -186.999 75.5s-74 111.833 -74 184.5s24.667 134.167 74 184.5s111.666 75.5 186.999 75.5c48.667 0 92.5 -11 131.5 -33
s69.833 -52.333 92.5 -91c22.667 38.667 53.5 69 92.5 91s82.833 33 131.5 33c67.333 0 123.333 -22.667 168 -68s67 -107 67 -185v-19h-422c0 -52 17.333 -95.5 52 -130.5s79 -52.5 133 -52.5c40 0 72.833 7.83301 98.5 23.5s47.834 39.167 66.501 70.5l57 -37
c-47.333 -81.333 -121.333 -122 -222 -122zM304.999 55c56 0 101.5 18.833 136.5 56.5s52.5 83.834 52.5 138.501s-17.5 100.834 -52.5 138.501s-80.5 56.5 -136.5 56.5s-101.5 -18.833 -136.5 -56.5s-52.5 -83.834 -52.5 -138.501s17.5 -100.834 52.5 -138.501
s80.5 -56.5 136.5 -56.5zM749.999 445c-43.333 0 -81.833 -13.167 -115.5 -39.5s-54.5 -61.5 -62.5 -105.5h343c-6.66699 44.667 -25 80 -55 106s-66.667 39 -110 39z" />
    <glyph glyph-name="Racute" unicode="&#x154;" horiz-adv-x="628" 
d="M99 0l0.000976562 710.002h232c65.333 0 116.666 -17.167 153.999 -51.5s56 -80.833 56 -139.5c0 -54.667 -16.5 -98.834 -49.5 -132.501s-78.5 -52.834 -136.5 -57.501l281 -329h-99l-281 330h-81v-330h-76zM175.001 400.002h147c94.667 0 142 39.667 142 119
c0 80 -47.333 120 -142 120h-147v-239zM270.001 768.002l80 137h95l-112 -137h-63z" />
    <glyph glyph-name="racute" unicode="&#x155;" horiz-adv-x="351" 
d="M86 0v500h70v-78c11.333 22.667 30 42.167 56 58.5s54 24.5 84 24.5c16 0 29.667 -1.33301 41 -4l-9 -72c-12.667 4 -27 6 -43 6c-28.667 0 -55 -9.83301 -79 -29.5s-40.667 -46.167 -50 -79.5v-326h-70zM180 578l90 152h93l-121 -152h-62z" />
    <glyph glyph-name="uni0156" unicode="&#x156;" horiz-adv-x="628" 
d="M99 0l0.000976562 710.002h232c65.333 0 116.666 -17.167 153.999 -51.5s56 -80.833 56 -139.5c0 -54.667 -16.5 -98.834 -49.5 -132.501s-78.5 -52.834 -136.5 -57.501l281 -329h-99l-281 330h-81v-330h-76zM175.001 400.002h147c94.667 0 142 39.667 142 119
c0 80 -47.333 120 -142 120h-147v-239zM369.001 -257.998h-42l24 87h-44v96h97v-96z" />
    <glyph glyph-name="uni0157" unicode="&#x157;" horiz-adv-x="351" 
d="M86 0v500h70v-78c11.333 22.667 30 42.167 56 58.5s54 24.5 84 24.5c16 0 29.667 -1.33301 41 -4l-9 -72c-12.667 4 -27 6 -43 6c-28.667 0 -55 -9.83301 -79 -29.5s-40.667 -46.167 -50 -79.5v-326h-70zM135 -258h-42l24 87h-44v96h97v-96z" />
    <glyph glyph-name="Rcaron" unicode="&#x158;" horiz-adv-x="628" 
d="M99 0l0.000976562 710.002h232c65.333 0 116.666 -17.167 153.999 -51.5s56 -80.833 56 -139.5c0 -54.667 -16.5 -98.834 -49.5 -132.501s-78.5 -52.834 -136.5 -57.501l281 -329h-99l-281 330h-81v-330h-76zM175.001 400.002h147c94.667 0 142 39.667 142 119
c0 80 -47.333 120 -142 120h-147v-239zM259.001 768.002l-130 137h83l87 -92l89 92h83l-130 -137h-82z" />
    <glyph glyph-name="rcaron" unicode="&#x159;" horiz-adv-x="351" 
d="M86 0v500h70v-78c11.333 22.667 30 42.167 56 58.5s54 24.5 84 24.5c16 0 29.667 -1.33301 41 -4l-9 -72c-12.667 4 -27 6 -43 6c-28.667 0 -55 -9.83301 -79 -29.5s-40.667 -46.167 -50 -79.5v-326h-70zM45 730h80l86 -103l86 103h80l-127 -152h-78z" />
    <glyph glyph-name="Sacute" unicode="&#x15a;" horiz-adv-x="549" 
d="M284 -12c-57.333 0 -108.332 12.1689 -152.999 36.502s-75.334 54.833 -92.001 91.5l63 45c42 -67.333 103 -101 183 -101c41.333 0 75.5 10.667 102.5 32s40.5 49.666 40.5 84.999c0 59.333 -34.333 102.333 -103 129l-105 40c-55.333 20.667 -95.333 46 -120 76
s-37 69.333 -37 118c0 54.667 20.5 98.667 61.5 132s92.833 50 155.5 50c43.333 0 82.5 -9 117.5 -27s62.833 -41.333 83.5 -70l-59 -48c-40.667 48.667 -89 73 -145 73c-39.333 0 -72.166 -10.167 -98.499 -30.5s-39.5 -46.5 -39.5 -78.5
c0 -31.333 8.16699 -55.833 24.5 -73.5s43.5 -33.834 81.5 -48.501l94 -36c55.333 -21.333 96.666 -48 123.999 -80s41 -73.333 41 -124c0 -58.667 -20.333 -105.167 -61 -139.5s-93.667 -51.5 -159 -51.5zM251.001 768.002l80 137h95l-112 -137h-63z" />
    <glyph glyph-name="sacute" unicode="&#x15b;" horiz-adv-x="447" 
d="M232 -10c-47.333 0 -88.166 10.5 -122.499 31.5s-58.166 51.5 -71.499 91.5l63 26c8 -26.667 24.5 -47.667 49.5 -63s52.5 -23 82.5 -23c28 0 51.167 6.83301 69.5 20.5s27.5 32.5 27.5 56.5c0 20 -7.16699 36.833 -21.5 50.5s-38.5 26.167 -72.5 37.5l-54 17
c-80 24.667 -120 72 -120 142c0 40.667 15.833 73 47.5 97s71.5 36 119.5 36c75.333 0 129.333 -29.333 162 -88l-56 -35c-26.667 40.667 -63.334 61 -110.001 61c-24.667 0 -46.334 -6.5 -65.001 -19.5s-28 -29.167 -28 -48.5c0 -37.333 26 -64.333 78 -81l57 -18
c88.667 -28 133 -76.333 133 -145c0 -46 -15.5 -81.833 -46.5 -107.5s-71.5 -38.5 -121.5 -38.5zM201 578l90 152h93l-121 -152h-62z" />
    <glyph glyph-name="Scircumflex" unicode="&#x15c;" horiz-adv-x="549" 
d="M284 -12c-57.333 0 -108.332 12.1689 -152.999 36.502s-75.334 54.833 -92.001 91.5l63 45c42 -67.333 103 -101 183 -101c41.333 0 75.5 10.667 102.5 32s40.5 49.666 40.5 84.999c0 59.333 -34.333 102.333 -103 129l-105 40c-55.333 20.667 -95.333 46 -120 76
s-37 69.333 -37 118c0 54.667 20.5 98.667 61.5 132s92.833 50 155.5 50c43.333 0 82.5 -9 117.5 -27s62.833 -41.333 83.5 -70l-59 -48c-40.667 48.667 -89 73 -145 73c-39.333 0 -72.166 -10.167 -98.499 -30.5s-39.5 -46.5 -39.5 -78.5
c0 -31.333 8.16699 -55.833 24.5 -73.5s43.5 -33.834 81.5 -48.501l94 -36c55.333 -21.333 96.666 -48 123.999 -80s41 -73.333 41 -124c0 -58.667 -20.333 -105.167 -61 -139.5s-93.667 -51.5 -159 -51.5zM110.001 768.002l130 137h82l130 -137h-83l-89 92l-87 -92h-83z
" />
    <glyph glyph-name="scircumflex" unicode="&#x15d;" horiz-adv-x="447" 
d="M232 -10c-47.333 0 -88.166 10.5 -122.499 31.5s-58.166 51.5 -71.499 91.5l63 26c8 -26.667 24.5 -47.667 49.5 -63s52.5 -23 82.5 -23c28 0 51.167 6.83301 69.5 20.5s27.5 32.5 27.5 56.5c0 20 -7.16699 36.833 -21.5 50.5s-38.5 26.167 -72.5 37.5l-54 17
c-80 24.667 -120 72 -120 142c0 40.667 15.833 73 47.5 97s71.5 36 119.5 36c75.333 0 129.333 -29.333 162 -88l-56 -35c-26.667 40.667 -63.334 61 -110.001 61c-24.667 0 -46.334 -6.5 -65.001 -19.5s-28 -29.167 -28 -48.5c0 -37.333 26 -64.333 78 -81l57 -18
c88.667 -28 133 -76.333 133 -145c0 -46 -15.5 -81.833 -46.5 -107.5s-71.5 -38.5 -121.5 -38.5zM66 578l127 152h78l127 -152h-80l-86 103l-86 -103h-80z" />
    <glyph glyph-name="Scedilla" unicode="&#x15e;" horiz-adv-x="549" 
d="M284 -12c-57.333 0 -108.332 12.1689 -152.999 36.502s-75.334 54.833 -92.001 91.5l63 45c42 -67.333 103 -101 183 -101c41.333 0 75.5 10.667 102.5 32s40.5 49.666 40.5 84.999c0 59.333 -34.333 102.333 -103 129l-105 40c-55.333 20.667 -95.333 46 -120 76
s-37 69.333 -37 118c0 54.667 20.5 98.667 61.5 132s92.833 50 155.5 50c43.333 0 82.5 -9 117.5 -27s62.833 -41.333 83.5 -70l-59 -48c-40.667 48.667 -89 73 -145 73c-39.333 0 -72.166 -10.167 -98.499 -30.5s-39.5 -46.5 -39.5 -78.5
c0 -31.333 8.16699 -55.833 24.5 -73.5s43.5 -33.834 81.5 -48.501l94 -36c55.333 -21.333 96.666 -48 123.999 -80s41 -73.333 41 -124c0 -58.667 -20.333 -105.167 -61 -139.5s-93.667 -51.5 -159 -51.5zM184.001 -186.998l13.001 47c22.667 -9.33301 45.667 -14 69 -14
c16 0 29.833 3 41.5 9s17.5 14.667 17.5 26c0 18.667 -13.667 28 -41 28c-13.333 0 -29 -3 -47 -9l-29 23l48 80h52l-33 -53c12 4 24 6 36 6c22 0 40 -6.33301 54 -19s21 -30 21 -52c0 -28.667 -10.667 -50.667 -32 -66s-50.333 -23 -87 -23
c-32.667 0 -60.334 5.66699 -83.001 17z" />
    <glyph glyph-name="scedilla" unicode="&#x15f;" horiz-adv-x="447" 
d="M232 -10c-47.333 0 -88.166 10.5 -122.499 31.5s-58.166 51.5 -71.499 91.5l63 26c8 -26.667 24.5 -47.667 49.5 -63s52.5 -23 82.5 -23c28 0 51.167 6.83301 69.5 20.5s27.5 32.5 27.5 56.5c0 20 -7.16699 36.833 -21.5 50.5s-38.5 26.167 -72.5 37.5l-54 17
c-80 24.667 -120 72 -120 142c0 40.667 15.833 73 47.5 97s71.5 36 119.5 36c75.333 0 129.333 -29.333 162 -88l-56 -35c-26.667 40.667 -63.334 61 -110.001 61c-24.667 0 -46.334 -6.5 -65.001 -19.5s-28 -29.167 -28 -48.5c0 -37.333 26 -64.333 78 -81l57 -18
c88.667 -28 133 -76.333 133 -145c0 -46 -15.5 -81.833 -46.5 -107.5s-71.5 -38.5 -121.5 -38.5zM131 -187l13.001 47c22.667 -9.33301 45.667 -14 69 -14c16 0 29.833 3 41.5 9s17.5 14.667 17.5 26c0 18.667 -13.667 28 -41 28c-13.333 0 -29 -3 -47 -9l-29 23l48 80h52
l-33 -53c12 4 24 6 36 6c22 0 40 -6.33301 54 -19s21 -30 21 -52c0 -28.667 -10.667 -50.667 -32 -66s-50.333 -23 -87 -23c-32.667 0 -60.334 5.66699 -83.001 17z" />
    <glyph glyph-name="Scaron" unicode="&#x160;" horiz-adv-x="549" 
d="M284 -12c-57.333 0 -108.332 12.1689 -152.999 36.502s-75.334 54.833 -92.001 91.5l63 45c42 -67.333 103 -101 183 -101c41.333 0 75.5 10.667 102.5 32s40.5 49.666 40.5 84.999c0 59.333 -34.333 102.333 -103 129l-105 40c-55.333 20.667 -95.333 46 -120 76
s-37 69.333 -37 118c0 54.667 20.5 98.667 61.5 132s92.833 50 155.5 50c43.333 0 82.5 -9 117.5 -27s62.833 -41.333 83.5 -70l-59 -48c-40.667 48.667 -89 73 -145 73c-39.333 0 -72.166 -10.167 -98.499 -30.5s-39.5 -46.5 -39.5 -78.5
c0 -31.333 8.16699 -55.833 24.5 -73.5s43.5 -33.834 81.5 -48.501l94 -36c55.333 -21.333 96.666 -48 123.999 -80s41 -73.333 41 -124c0 -58.667 -20.333 -105.167 -61 -139.5s-93.667 -51.5 -159 -51.5zM240.001 768.002l-130 137h83l87 -92l89 92h83l-130 -137h-82z" />
    <glyph glyph-name="scaron" unicode="&#x161;" horiz-adv-x="447" 
d="M232 -10c-47.333 0 -88.166 10.5 -122.499 31.5s-58.166 51.5 -71.499 91.5l63 26c8 -26.667 24.5 -47.667 49.5 -63s52.5 -23 82.5 -23c28 0 51.167 6.83301 69.5 20.5s27.5 32.5 27.5 56.5c0 20 -7.16699 36.833 -21.5 50.5s-38.5 26.167 -72.5 37.5l-54 17
c-80 24.667 -120 72 -120 142c0 40.667 15.833 73 47.5 97s71.5 36 119.5 36c75.333 0 129.333 -29.333 162 -88l-56 -35c-26.667 40.667 -63.334 61 -110.001 61c-24.667 0 -46.334 -6.5 -65.001 -19.5s-28 -29.167 -28 -48.5c0 -37.333 26 -64.333 78 -81l57 -18
c88.667 -28 133 -76.333 133 -145c0 -46 -15.5 -81.833 -46.5 -107.5s-71.5 -38.5 -121.5 -38.5zM66 730h80l86 -103l86 103h80l-127 -152h-78z" />
    <glyph glyph-name="uni0162" unicode="&#x162;" horiz-adv-x="567" 
d="M246 0v638h-230v72h535v-72h-230v-638h-75zM296 -258h-42l24 87h-44v96h97v-96z" />
    <glyph glyph-name="uni0163" unicode="&#x163;" horiz-adv-x="399" 
d="M285 -5c-41.333 0 -75.834 12.332 -103.501 36.999s-41.5 60.334 -41.5 107.001v295h-127v66h127v139h70v-139h156v-66h-156v-289c0 -30 7.5 -52 22.5 -66s34.5 -21 58.5 -21c26.667 0 51.334 6.33301 74.001 19l21 -60c-28 -14.667 -61.667 -22 -101 -22z
M273.999 -258.001h-42l24 87h-44v96h97v-96z" />
    <glyph glyph-name="Tcaron" unicode="&#x164;" horiz-adv-x="567" 
d="M246 0v638h-230v72h535v-72h-230v-638h-75zM243 768l-130 137h83l87 -92l89 92h83l-130 -137h-82z" />
    <glyph glyph-name="tcaron" unicode="&#x165;" horiz-adv-x="399" 
d="M285 -5c-41.333 0 -75.834 12.332 -103.501 36.999s-41.5 60.334 -41.5 107.001v295h-127v66h127v139h70v-139h156v-66h-156v-289c0 -30 7.5 -52 22.5 -66s34.5 -21 58.5 -21c26.667 0 51.334 6.33301 74.001 19l21 -60c-28 -14.667 -61.667 -22 -101 -22z
M249.999 543.999l25 166h70l-45 -166h-50z" />
    <glyph glyph-name="Tbar" unicode="&#x166;" horiz-adv-x="593" 
d="M259 0v638h-230v72h535v-72h-230v-638h-75zM97 332v68h399v-68h-399z" />
    <glyph glyph-name="tbar" unicode="&#x167;" horiz-adv-x="414" 
d="M296 -5c-41.333 0 -75.834 12.332 -103.501 36.999s-41.5 60.334 -41.5 107.001v295h-127v66h127v139h70v-139h156v-66h-156v-289c0 -30 7.5 -52 22.5 -66s34.5 -21 58.5 -21c26.667 0 51.334 6.33301 74.001 19l21 -60c-28 -14.667 -61.667 -22 -101 -22z
M23.999 280.999v61h353v-61h-353z" />
    <glyph glyph-name="Utilde" unicode="&#x168;" horiz-adv-x="728" 
d="M364 -12c-82 0 -148.169 25.833 -198.502 77.5s-75.5 121.5 -75.5 209.5v435h76v-437c0 -67.333 17.833 -119.666 53.5 -156.999s83.834 -56 144.501 -56s108.834 18.667 144.501 56s53.5 89.666 53.5 156.999v437h76v-435c0 -88 -25.167 -157.833 -75.5 -209.5
s-116.5 -77.5 -198.5 -77.5zM195.998 788l3 16c5.33301 26.667 17.166 48.167 35.499 64.5s40.5 24.5 66.5 24.5c18 0 41.5 -7.16699 70.5 -21.5s48.167 -21.5 57.5 -21.5c22 0 36.333 14.333 43 43h61l-3 -16c-5.33301 -26.667 -17.166 -48.167 -35.499 -64.5
s-40.5 -24.5 -66.5 -24.5c-18 0 -41.5 7.16699 -70.5 21.5s-48.167 21.5 -57.5 21.5c-22 0 -36.333 -14.333 -43 -43h-61z" />
    <glyph glyph-name="utilde" unicode="&#x169;" horiz-adv-x="576" 
d="M490 500l-0.00195312 -500h-70v70c-17.333 -26.667 -40.166 -46.667 -68.499 -60s-58.5 -20 -90.5 -20c-53.333 0 -97.166 17.833 -131.499 53.5s-51.5 83.5 -51.5 143.5v313h70v-303c0 -45.333 11.667 -80.333 35 -105s54.666 -37 93.999 -37
c35.333 0 65.333 10.167 90 30.5s42.334 47.5 53.001 81.5v333h70zM113.998 600l3 16c5.33301 26.667 17.166 48.167 35.499 64.5s40.5 24.5 66.5 24.5c18 0 41.5 -7.16699 70.5 -21.5s48.167 -21.5 57.5 -21.5c22 0 36.333 14.333 43 43h61l-3 -16
c-5.33301 -26.667 -17.166 -48.167 -35.499 -64.5s-40.5 -24.5 -66.5 -24.5c-18 0 -41.5 7.16699 -70.5 21.5s-48.167 21.5 -57.5 21.5c-22 0 -36.333 -14.333 -43 -43h-61z" />
    <glyph glyph-name="Umacron" unicode="&#x16a;" horiz-adv-x="728" 
d="M364 -12c-82 0 -148.169 25.833 -198.502 77.5s-75.5 121.5 -75.5 209.5v435h76v-437c0 -67.333 17.833 -119.666 53.5 -156.999s83.834 -56 144.501 -56s108.834 18.667 144.501 56s53.5 89.666 53.5 156.999v437h76v-435c0 -88 -25.167 -157.833 -75.5 -209.5
s-116.5 -77.5 -198.5 -77.5zM205.998 809v61h316v-61h-316z" />
    <glyph glyph-name="umacron" unicode="&#x16b;" horiz-adv-x="576" 
d="M490 500l-0.00195312 -500h-70v70c-17.333 -26.667 -40.166 -46.667 -68.499 -60s-58.5 -20 -90.5 -20c-53.333 0 -97.166 17.833 -131.499 53.5s-51.5 83.5 -51.5 143.5v313h70v-303c0 -45.333 11.667 -80.333 35 -105s54.666 -37 93.999 -37
c35.333 0 65.333 10.167 90 30.5s42.334 47.5 53.001 81.5v333h70zM124.998 649v61h316v-61h-316z" />
    <glyph glyph-name="Ubreve" unicode="&#x16c;" horiz-adv-x="728" 
d="M364 -12c-82 0 -148.169 25.833 -198.502 77.5s-75.5 121.5 -75.5 209.5v435h76v-437c0 -67.333 17.833 -119.666 53.5 -156.999s83.834 -56 144.501 -56s108.834 18.667 144.501 56s53.5 89.666 53.5 156.999v437h76v-435c0 -88 -25.167 -157.833 -75.5 -209.5
s-116.5 -77.5 -198.5 -77.5zM363.998 762c-43.333 0 -79.833 14 -109.5 42s-44.5 65 -44.5 111h51c0 -32.667 9.66699 -58 29 -76s44 -27 74 -27s54.667 9 74 27s29 43.333 29 76h51c0 -46 -14.833 -83 -44.5 -111s-66.167 -42 -109.5 -42z" />
    <glyph glyph-name="ubreve" unicode="&#x16d;" horiz-adv-x="576" 
d="M490 500l-0.00195312 -500h-70v70c-17.333 -26.667 -40.166 -46.667 -68.499 -60s-58.5 -20 -90.5 -20c-53.333 0 -97.166 17.833 -131.499 53.5s-51.5 83.5 -51.5 143.5v313h70v-303c0 -45.333 11.667 -80.333 35 -105s54.666 -37 93.999 -37
c35.333 0 65.333 10.167 90 30.5s42.334 47.5 53.001 81.5v333h70zM282.998 565c-44 0 -80.667 14 -110 42s-44 65.333 -44 112v11h51v-11c0 -32.667 9.66699 -58.167 29 -76.5s44 -27.5 74 -27.5s54.667 9.16699 74 27.5s29 43.833 29 76.5v11h51v-11
c0 -46.667 -14.667 -84 -44 -112s-66 -42 -110 -42z" />
    <glyph glyph-name="Uring" unicode="&#x16e;" horiz-adv-x="728" 
d="M364 -12c-82 0 -148.169 25.833 -198.502 77.5s-75.5 121.5 -75.5 209.5v435h76v-437c0 -67.333 17.833 -119.666 53.5 -156.999s83.834 -56 144.501 -56s108.834 18.667 144.501 56s53.5 89.666 53.5 156.999v437h76v-435c0 -88 -25.167 -157.833 -75.5 -209.5
s-116.5 -77.5 -198.5 -77.5zM363.998 753c-33.333 0 -61.833 11.6709 -85.5 35.0039s-35.5 51.666 -35.5 84.999s11.833 61.666 35.5 84.999s52.167 35 85.5 35s62 -11.833 86 -35.5s36 -51.834 36 -84.501s-12 -60.834 -36 -84.501s-52.667 -35.5 -86 -35.5z
M363.998 800.004c20.667 0 38.167 7 52.5 21s21.5 31.333 21.5 52c0 20 -7.16699 37.333 -21.5 52s-31.833 22 -52.5 22c-20 0 -37.167 -7.33301 -51.5 -22s-21.5 -32 -21.5 -52c0 -20.667 7.16699 -38 21.5 -52s31.5 -21 51.5 -21z" />
    <glyph glyph-name="uring" unicode="&#x16f;" horiz-adv-x="576" 
d="M490 500l-0.00195312 -500h-70v70c-17.333 -26.667 -40.166 -46.667 -68.499 -60s-58.5 -20 -90.5 -20c-53.333 0 -97.166 17.833 -131.499 53.5s-51.5 83.5 -51.5 143.5v313h70v-303c0 -45.333 11.667 -80.333 35 -105s54.666 -37 93.999 -37
c35.333 0 65.333 10.167 90 30.5s42.334 47.5 53.001 81.5v333h70zM283.998 540c-34 0 -62.833 11.833 -86.5 35.5s-35.5 52.5 -35.5 86.5c0 33.333 11.833 61.833 35.5 85.5s52.5 35.5 86.5 35.5c33.333 0 61.833 -11.833 85.5 -35.5s35.5 -52.167 35.5 -85.5
c0 -34 -11.833 -62.833 -35.5 -86.5s-52.167 -35.5 -85.5 -35.5zM283.998 588c19.333 0 36.333 7.33301 51 22s22 32 22 52s-7.33301 37.167 -22 51.5s-31.667 21.5 -51 21.5c-20 0 -37.333 -7.16699 -52 -21.5s-22 -31.5 -22 -51.5s7.33301 -37.333 22 -52s32 -22 52 -22z
" />
    <glyph glyph-name="Uhungarumlaut" unicode="&#x170;" horiz-adv-x="728" 
d="M364 -12c-82 0 -148.169 25.833 -198.502 77.5s-75.5 121.5 -75.5 209.5v435h76v-437c0 -67.333 17.833 -119.666 53.5 -156.999s83.834 -56 144.501 -56s108.834 18.667 144.501 56s53.5 89.666 53.5 156.999v437h76v-435c0 -88 -25.167 -157.833 -75.5 -209.5
s-116.5 -77.5 -198.5 -77.5zM262.998 768l55 137h85l-86 -137h-54zM424.998 768l55 137h85l-86 -137h-54z" />
    <glyph glyph-name="uhungarumlaut" unicode="&#x171;" horiz-adv-x="576" 
d="M490 500l-0.00195312 -500h-70v70c-17.333 -26.667 -40.166 -46.667 -68.499 -60s-58.5 -20 -90.5 -20c-53.333 0 -97.166 17.833 -131.499 53.5s-51.5 83.5 -51.5 143.5v313h70v-303c0 -45.333 11.667 -80.333 35 -105s54.666 -37 93.999 -37
c35.333 0 65.333 10.167 90 30.5s42.334 47.5 53.001 81.5v333h70zM181.998 578l55 152h85l-86 -152h-54zM343.998 578l55 152h85l-86 -152h-54z" />
    <glyph glyph-name="Uogonek" unicode="&#x172;" horiz-adv-x="728" 
d="M424 -204c-27.333 0 -50.002 7.16602 -68.002 21.499s-27 33.833 -27 58.5c0 40.667 25.333 79.334 76 116.001c-18.667 -2.66699 -32.334 -4 -41.001 -4c-82 0 -148.167 25.833 -198.5 77.5s-75.5 121.5 -75.5 209.5v435h76v-437
c0 -67.333 17.833 -119.666 53.5 -156.999s83.834 -56 144.501 -56s108.834 18.667 144.501 56s53.5 89.666 53.5 156.999v437h76v-435c0 -98 -30.333 -172.667 -91 -224c-6.66699 -6 -21.5 -18.167 -44.5 -36.5s-40.167 -32.5 -51.5 -42.5s-22.666 -22.667 -33.999 -38
s-17 -29 -17 -41c0 -10 3.33301 -17.833 10 -23.5s15 -8.5 25 -8.5c14.667 0 27 3 37 9l26 -51c-19.333 -15.333 -44 -23 -74 -23z" />
    <glyph glyph-name="uogonek" unicode="&#x173;" horiz-adv-x="576" 
d="M490 500l-0.00195312 -500h-70v70c-17.333 -26.667 -40.166 -46.667 -68.499 -60s-58.5 -20 -90.5 -20c-53.333 0 -97.166 17.833 -131.499 53.5s-51.5 83.5 -51.5 143.5v313h70v-303c0 -45.333 11.667 -80.333 35 -105s54.666 -37 93.999 -37
c35.333 0 65.333 10.167 90 30.5s42.334 47.5 53.001 81.5v333h70zM430.998 -204c-27.333 0 -49 7.83203 -65 23.499s-24 35.834 -24 60.501c0 40.667 26 80.667 78 120h70c-56.667 -38.667 -85 -74.667 -85 -108c0 -11.333 3.66699 -20 11 -26s16.333 -9 27 -9
c15.333 0 28 3 38 9l24 -47c-19.333 -15.333 -44 -23 -74 -23z" />
    <glyph glyph-name="Wcircumflex" unicode="&#x174;" horiz-adv-x="993" 
d="M241 0l-222 710h80l178 -570l186 570h66l185 -570l179 570h81l-222 -710h-66l-190 580l-189 -580h-66zM327 768l130 137h82l130 -137h-83l-89 92l-87 -92h-83z" />
    <glyph glyph-name="wcircumflex" unicode="&#x175;" horiz-adv-x="751" 
d="M508 0l-133 381l-132 -381h-58l-171 500h72l129 -380l133 380h54l132 -380l130 380h73l-171 -500h-58zM209 578l127 152h78l127 -152h-80l-86 103l-86 -103h-80z" />
    <glyph glyph-name="Ycircumflex" unicode="&#x176;" horiz-adv-x="669" 
d="M297 0v301l-280 409h92l226 -331l226 331h92l-281 -410v-300h-75zM164 768l130 137h82l130 -137h-83l-89 92l-87 -92h-83z" />
    <glyph glyph-name="ycircumflex" unicode="&#x177;" horiz-adv-x="540" 
d="M208 -194h-79l103 219l-222 475h78l183 -397l183 397h79zM105 578l127 152h78l127 -152h-80l-86 103l-86 -103h-80z" />
    <glyph glyph-name="Ydieresis" unicode="&#x178;" horiz-adv-x="669" 
d="M297 0v301l-280 409h92l226 -331l226 331h92l-281 -410v-300h-75zM224 789c-15.333 0 -28.166 5.16699 -38.499 15.5s-15.5 22.833 -15.5 37.5s5.16699 27.167 15.5 37.5s23.166 15.5 38.499 15.5c14.667 0 27 -5.16699 37 -15.5s15 -22.833 15 -37.5
s-5 -27.167 -15 -37.5s-22.333 -15.5 -37 -15.5zM446 789c-15.333 0 -28.166 5.16699 -38.499 15.5s-15.5 22.833 -15.5 37.5s5.16699 27.167 15.5 37.5s23.166 15.5 38.499 15.5c14.667 0 27 -5.16699 37 -15.5s15 -22.833 15 -37.5s-5 -27.167 -15 -37.5
s-22.333 -15.5 -37 -15.5z" />
    <glyph glyph-name="Zacute" unicode="&#x179;" horiz-adv-x="578" 
d="M33 0v50l398 588h-386v72h488v-50l-399 -588h410v-72h-511zM269 768l80 137h95l-112 -137h-63z" />
    <glyph glyph-name="zacute" unicode="&#x17a;" horiz-adv-x="479" 
d="M40 0v56l302 379h-298v65h388v-57l-301 -378h310v-65h-401zM207 578l90 152h93l-121 -152h-62z" />
    <glyph glyph-name="Zdotaccent" unicode="&#x17b;" horiz-adv-x="578" 
d="M33 0v50l398 588h-386v72h488v-50l-399 -588h410v-72h-511zM298 789c-15.333 0 -28.166 5.16699 -38.499 15.5s-15.5 22.833 -15.5 37.5s5.16699 27.167 15.5 37.5s23.166 15.5 38.499 15.5c14.667 0 27 -5.16699 37 -15.5s15 -22.833 15 -37.5s-5 -27.167 -15 -37.5
s-22.333 -15.5 -37 -15.5z" />
    <glyph glyph-name="zdotaccent" unicode="&#x17c;" horiz-adv-x="479" 
d="M40 0v56l302 379h-298v65h388v-57l-301 -378h310v-65h-401zM238 602c-15.333 0 -28.166 5.16699 -38.499 15.5s-15.5 22.833 -15.5 37.5s5.16699 27.167 15.5 37.5s23.166 15.5 38.499 15.5c14.667 0 27 -5.16699 37 -15.5s15 -22.833 15 -37.5s-5 -27.167 -15 -37.5
s-22.333 -15.5 -37 -15.5z" />
    <glyph glyph-name="Zcaron" unicode="&#x17d;" horiz-adv-x="578" 
d="M33 0v50l398 588h-386v72h488v-50l-399 -588h410v-72h-511zM258 768l-130 137h83l87 -92l89 92h83l-130 -137h-82z" />
    <glyph glyph-name="zcaron" unicode="&#x17e;" horiz-adv-x="479" 
d="M40 0v56l302 379h-298v65h388v-57l-301 -378h310v-65h-401zM72 730h80l86 -103l86 103h80l-127 -152h-78z" />
    <glyph glyph-name="uni018F" unicode="&#x18f;" horiz-adv-x="817" 
d="M402 -12c-102.667 0 -189.5 35.332 -260.5 105.999s-106.5 157.667 -106.5 261v43h654c-9.33301 72.667 -40.833 132.834 -94.5 180.501s-117.834 71.5 -192.501 71.5c-40.667 0 -80.167 -7.33301 -118.5 -22s-70.166 -35 -95.499 -61l-53 53c33.333 32 73.5 57 120.5 75
s95.833 27 146.5 27c102.667 0 189.5 -35.333 260.5 -106s106.5 -157.667 106.5 -261s-35.5 -190.333 -106.5 -261s-157.833 -106 -260.5 -106zM402 59.999c78 0 144 25.5 198 76.5s84.333 115.167 91 192.5h-578c5.33301 -76.667 35.5 -140.667 90.5 -192
s121.167 -77 198.5 -77z" />
    <glyph glyph-name="uni0218" unicode="&#x218;" horiz-adv-x="549" 
d="M284 -12c-57.333 0 -108.332 12.1689 -152.999 36.502s-75.334 54.833 -92.001 91.5l63 45c42 -67.333 103 -101 183 -101c41.333 0 75.5 10.667 102.5 32s40.5 49.666 40.5 84.999c0 59.333 -34.333 102.333 -103 129l-105 40c-55.333 20.667 -95.333 46 -120 76
s-37 69.333 -37 118c0 54.667 20.5 98.667 61.5 132s92.833 50 155.5 50c43.333 0 82.5 -9 117.5 -27s62.833 -41.333 83.5 -70l-59 -48c-40.667 48.667 -89 73 -145 73c-39.333 0 -72.166 -10.167 -98.499 -30.5s-39.5 -46.5 -39.5 -78.5
c0 -31.333 8.16699 -55.833 24.5 -73.5s43.5 -33.834 81.5 -48.501l94 -36c55.333 -21.333 96.666 -48 123.999 -80s41 -73.333 41 -124c0 -58.667 -20.333 -105.167 -61 -139.5s-93.667 -51.5 -159 -51.5zM297.001 -257.998h-42l24 87h-44v96h97v-96z" />
    <glyph glyph-name="uni0219" unicode="&#x219;" horiz-adv-x="447" 
d="M232 -10c-47.333 0 -88.166 10.5 -122.499 31.5s-58.166 51.5 -71.499 91.5l63 26c8 -26.667 24.5 -47.667 49.5 -63s52.5 -23 82.5 -23c28 0 51.167 6.83301 69.5 20.5s27.5 32.5 27.5 56.5c0 20 -7.16699 36.833 -21.5 50.5s-38.5 26.167 -72.5 37.5l-54 17
c-80 24.667 -120 72 -120 142c0 40.667 15.833 73 47.5 97s71.5 36 119.5 36c75.333 0 129.333 -29.333 162 -88l-56 -35c-26.667 40.667 -63.334 61 -110.001 61c-24.667 0 -46.334 -6.5 -65.001 -19.5s-28 -29.167 -28 -48.5c0 -37.333 26 -64.333 78 -81l57 -18
c88.667 -28 133 -76.333 133 -145c0 -46 -15.5 -81.833 -46.5 -107.5s-71.5 -38.5 -121.5 -38.5zM244 -258h-42l24 87h-44v96h97v-96z" />
    <glyph glyph-name="uni021A" unicode="&#x21a;" horiz-adv-x="567" 
d="M246 0v638h-230v72h535v-72h-230v-638h-75zM296 -258h-42l24 87h-44v96h97v-96z" />
    <glyph glyph-name="uni021B" unicode="&#x21b;" horiz-adv-x="399" 
d="M285 -5c-41.333 0 -75.834 12.332 -103.501 36.999s-41.5 60.334 -41.5 107.001v295h-127v66h127v139h70v-139h156v-66h-156v-289c0 -30 7.5 -52 22.5 -66s34.5 -21 58.5 -21c26.667 0 51.334 6.33301 74.001 19l21 -60c-28 -14.667 -61.667 -22 -101 -22z
M273.999 -258.001h-42l24 87h-44v96h97v-96z" />
    <glyph glyph-name="uni0232" unicode="&#x232;" horiz-adv-x="669" 
d="M297 0v301l-280 409h92l226 -331l226 331h92l-281 -410v-300h-75zM176 809v61h316v-61h-316z" />
    <glyph glyph-name="uni0233" unicode="&#x233;" horiz-adv-x="540" 
d="M208 -194h-79l103 219l-222 475h78l183 -397l183 397h79zM113 649v61h316v-61h-316z" />
    <glyph glyph-name="uni0237" unicode="&#x237;" horiz-adv-x="250" 
d="M33 -199c-26.667 0 -48 3.66602 -64 10.999l15 61c12.667 -4.66699 27.667 -7 45 -7c43.333 0 65 28.333 65 85v549h70v-555c0 -47.333 -12.333 -83.166 -37 -107.499s-56 -36.5 -94 -36.5z" />
    <glyph glyph-name="uni0259" unicode="&#x259;" horiz-adv-x="580" 
d="M283 -10c-70 0 -127.834 22.668 -173.501 68.001s-68.5 107 -68.5 185v19h422c0 51.333 -17.5 94.666 -52.5 129.999s-76.833 53 -125.5 53c-71.333 0 -125.333 -31.333 -162 -94l-57 37c47.333 81.333 120.333 122 219 122c72.667 0 132.5 -25 179.5 -75
s70.5 -111.667 70.5 -185s-23.667 -135 -71 -185s-107.666 -75 -180.999 -75zM283.999 55.001c40.667 0 77.667 13.167 111 39.5s54 61.5 62 105.5h-343c6 -44.667 24.5 -80 55.5 -106s69.167 -39 114.5 -39z" />
    <glyph glyph-name="uni02BB" unicode="&#x2bb;" horiz-adv-x="239" 
d="M168 710l-47 -150h51v-110h-110v111l59 149h47z" />
    <glyph glyph-name="uni02BC" unicode="&#x2bc;" horiz-adv-x="228" 
d="M70 450l47 150h-51v110h110v-111l-59 -149h-47z" />
    <glyph glyph-name="circumflex" unicode="&#x2c6;" 
d="M-166 578l127 152h78l127 -152h-80l-86 103l-86 -103h-80z" />
    <glyph glyph-name="caron" unicode="&#x2c7;" 
d="M-166 730h80l86 -103l86 103h80l-127 -152h-78z" />
    <glyph glyph-name="breve" unicode="&#x2d8;" 
d="M0 565c-44 0 -80.667 14 -110 42s-44 65.333 -44 112v11h51v-11c0 -32.667 9.66699 -58.167 29 -76.5s44 -27.5 74 -27.5s54.667 9.16699 74 27.5s29 43.833 29 76.5v11h51v-11c0 -46.667 -14.667 -84 -44 -112s-66 -42 -110 -42z" />
    <glyph glyph-name="dotaccent" unicode="&#x2d9;" 
d="M0 602c-15.333 0 -28.166 5.16699 -38.499 15.5s-15.5 22.833 -15.5 37.5s5.16699 27.167 15.5 37.5s23.166 15.5 38.499 15.5c14.667 0 27 -5.16699 37 -15.5s15 -22.833 15 -37.5s-5 -27.167 -15 -37.5s-22.333 -15.5 -37 -15.5z" />
    <glyph glyph-name="ring" unicode="&#x2da;" 
d="M1 540c-34 0 -62.833 11.833 -86.5 35.5s-35.5 52.5 -35.5 86.5c0 33.333 11.833 61.833 35.5 85.5s52.5 35.5 86.5 35.5c33.333 0 61.833 -11.833 85.5 -35.5s35.5 -52.167 35.5 -85.5c0 -34 -11.833 -62.833 -35.5 -86.5s-52.167 -35.5 -85.5 -35.5zM1 588
c19.333 0 36.333 7.33301 51 22s22 32 22 52s-7.33301 37.167 -22 51.5s-31.667 21.5 -51 21.5c-20 0 -37.333 -7.16699 -52 -21.5s-22 -31.5 -22 -51.5s7.33301 -37.333 22 -52s32 -22 52 -22z" />
    <glyph glyph-name="ogonek" unicode="&#x2db;" 
d="M7 -204c-27.333 0 -49 7.83203 -65 23.499s-24 35.834 -24 60.501c0 40.667 26 80.667 78 120h70c-56.667 -38.667 -85 -74.667 -85 -108c0 -11.333 3.66699 -20 11 -26s16.333 -9 27 -9c15.333 0 28 3 38 9l24 -47c-19.333 -15.333 -44 -23 -74 -23z" />
    <glyph glyph-name="tilde" unicode="&#x2dc;" 
d="M-169 600l3 16c5.33301 26.667 17.166 48.167 35.499 64.5s40.5 24.5 66.5 24.5c18 0 41.5 -7.16699 70.5 -21.5s48.167 -21.5 57.5 -21.5c22 0 36.333 14.333 43 43h61l-3 -16c-5.33301 -26.667 -17.166 -48.167 -35.499 -64.5s-40.5 -24.5 -66.5 -24.5
c-18 0 -41.5 7.16699 -70.5 21.5s-48.167 21.5 -57.5 21.5c-22 0 -36.333 -14.333 -43 -43h-61z" />
    <glyph glyph-name="hungarumlaut" unicode="&#x2dd;" 
d="M-151 578l55 152h85l-86 -152h-54zM11 578l55 152h85l-86 -152h-54z" />
    <glyph glyph-name="uni0401" unicode="&#x401;" horiz-adv-x="554" 
d="M99 0v710h405v-72h-329v-237h269v-72h-269v-257h329v-72h-405zM190 789c-15.333 0 -28.166 5.16699 -38.499 15.5s-15.5 22.833 -15.5 37.5s5.16699 27.167 15.5 37.5s23.166 15.5 38.499 15.5c14.667 0 27 -5.16699 37 -15.5s15 -22.833 15 -37.5s-5 -27.167 -15 -37.5
s-22.333 -15.5 -37 -15.5zM412 789c-15.333 0 -28.166 5.16699 -38.499 15.5s-15.5 22.833 -15.5 37.5s5.16699 27.167 15.5 37.5s23.166 15.5 38.499 15.5c14.667 0 27 -5.16699 37 -15.5s15 -22.833 15 -37.5s-5 -27.167 -15 -37.5s-22.333 -15.5 -37 -15.5z" />
    <glyph glyph-name="uni0402" unicode="&#x402;" horiz-adv-x="742" 
d="M479 440c79.333 0 137 -22.168 173 -66.501s54 -101.166 54 -170.499c0 -68.667 -20.833 -121.667 -62.5 -159s-95.167 -56 -160.5 -56c-30 0 -61.333 3 -94 9l12 71c26.667 -6 54.667 -9 84 -9c40.667 0 75 12 103 36s42 60 42 108c0 110 -52.333 165 -157 165
c-64 0 -132.667 -13.333 -206 -40v-328h-76v638h-174v72h478v-72h-228v-238c71.333 26.667 142 40 212 40z" />
    <glyph glyph-name="uni0403" unicode="&#x403;" horiz-adv-x="511" 
d="M494 710v-72h-319v-638h-76v710h395zM268 768l80 137h95l-112 -137h-63z" />
    <glyph glyph-name="uni0404" unicode="&#x404;" horiz-adv-x="755" 
d="M415 -12c-102.667 0 -189.5 35.333 -260.5 106s-106.5 157.667 -106.5 261s35.5 190.333 106.5 261s157.833 106 260.5 106c64.667 0 124 -14.833 178 -44.5s97.667 -70.167 131 -121.5l-63 -40c-26 41.333 -60.333 74 -103 98s-90.334 36 -143.001 36
c-74.667 0 -139 -24.167 -193 -72.5s-85.667 -108.833 -95 -181.5h384v-72h-385c8 -76 38.833 -139 92.5 -189s119.167 -75 196.5 -75c52.667 0 100.334 12 143.001 36s77 56.667 103 98l63 -40c-33.333 -51.333 -77 -91.833 -131 -121.5s-113.333 -44.5 -178 -44.5z" />
    <glyph glyph-name="uni0405" unicode="&#x405;" horiz-adv-x="548" 
d="M284 -12c-57.333 0 -108.332 12.1689 -152.999 36.502s-75.334 54.833 -92.001 91.5l63 45c42 -67.333 103 -101 183 -101c41.333 0 75.5 10.667 102.5 32s40.5 49.666 40.5 84.999c0 59.333 -34.333 102.333 -103 129l-105 40c-55.333 20.667 -95.333 46 -120 76
s-37 69.333 -37 118c0 54.667 20.5 98.667 61.5 132s92.833 50 155.5 50c43.333 0 82.5 -9 117.5 -27s62.833 -41.333 83.5 -70l-59 -48c-40.667 48.667 -89 73 -145 73c-39.333 0 -72.166 -10.167 -98.499 -30.5s-39.5 -46.5 -39.5 -78.5
c0 -31.333 8.16699 -55.833 24.5 -73.5s43.5 -33.834 81.5 -48.501l94 -36c55.333 -21.333 96.666 -48 123.999 -80s41 -73.333 41 -124c0 -58.667 -20.333 -105.167 -61 -139.5s-93.667 -51.5 -159 -51.5z" />
    <glyph glyph-name="uni0406" unicode="&#x406;" horiz-adv-x="274" 
d="M99 0v710h76v-710h-76z" />
    <glyph glyph-name="uni0407" unicode="&#x407;" horiz-adv-x="274" 
d="M99 0v710h76v-710h-76zM38 812c-15.333 0 -28.5 5.5 -39.5 16.5s-16.5 24.167 -16.5 39.5s5.5 28.333 16.5 39s24.167 16 39.5 16s28.5 -5.33301 39.5 -16s16.5 -23.667 16.5 -39s-5.5 -28.5 -16.5 -39.5s-24.167 -16.5 -39.5 -16.5zM236 812
c-15.333 0 -28.5 5.5 -39.5 16.5s-16.5 24.167 -16.5 39.5s5.5 28.333 16.5 39s24.167 16 39.5 16s28.5 -5.33301 39.5 -16s16.5 -23.667 16.5 -39s-5.5 -28.5 -16.5 -39.5s-24.167 -16.5 -39.5 -16.5z" />
    <glyph glyph-name="uni0408" unicode="&#x408;" horiz-adv-x="468" 
d="M187 -12c-75.333 0 -135.333 27 -180 81l54 52c36.667 -41.333 78.667 -62 126 -62c75.333 0 113 45.667 113 137v514h76v-516c0 -68 -17 -119.333 -51 -154s-80 -52 -138 -52z" />
    <glyph glyph-name="uni0409" unicode="&#x409;" horiz-adv-x="1027" 
d="M917 205c0 38.667 -14.332 69.167 -42.999 91.5s-69.334 33.5 -122.001 33.5h-126v-259h126c54 0 95 11.5 123 34.5s42 56.167 42 99.5zM138.001 710h488.001v-309h127c74.667 0 133.5 -18.5 176.5 -55.5s64.5 -83.5 64.5 -139.5c0 -62.667 -21.333 -112.667 -64 -150
s-101.667 -56 -177 -56h-203v638h-336v-461c0 -126 -48 -189 -144 -189c-18 0 -37 2.33301 -57 7l15 68c10 -2.66699 22.667 -4 38 -4c25.333 0 43.666 9.5 54.999 28.5s17 53.167 17 102.5v520z" />
    <glyph glyph-name="uni040A" unicode="&#x40a;" horiz-adv-x="1044" 
d="M99 0v710h76v-309h392v309h76v-309h127c74.667 0 133.5 -18.5 176.5 -55.5s64.5 -83.5 64.5 -139.5c0 -62.667 -21.333 -112.667 -64 -150s-101.667 -56 -177 -56h-203v329h-392v-329h-76zM769 330h-125.999v-259h126c54 0 95 11.5 123 34.5s42 56.167 42 99.5
c0 38.667 -14.333 69.167 -43 91.5s-69.334 33.5 -122.001 33.5z" />
    <glyph glyph-name="uni040B" unicode="&#x40b;" horiz-adv-x="753" 
d="M191 638l-174 -0.000976562v72h478v-72h-228v-238c71.333 26.667 143.333 40 216 40c67.333 0 121.166 -19.167 161.499 -57.5s60.5 -89.166 60.5 -152.499v-230h-76v222c0 46 -13.167 81.833 -39.5 107.5s-63.5 38.5 -111.5 38.5
c-73.333 0 -143.666 -13.333 -210.999 -40v-328h-76v638z" />
    <glyph glyph-name="uni040C" unicode="&#x40c;" horiz-adv-x="664" 
d="M573 0l-399 343v-343h-75v710h75v-311l327 311h103l-353 -337l435 -373h-113zM312 768l80 137h95l-112 -137h-63z" />
    <glyph glyph-name="uni040E" unicode="&#x40e;" horiz-adv-x="689" 
d="M128 -4l14 67.999c18.667 -3.33301 37.334 -5 56.001 -5c42 0 76.333 25.667 103 77l17 32l-278 542h86l235 -461l248 461h81l-307 -575c-27.333 -51.333 -54.5 -88.666 -81.5 -111.999s-59.167 -35 -96.5 -35c-28.667 0 -54.334 2.66699 -77.001 8zM367 761.999
c-43.333 0 -79.835 14 -109.502 42s-44.5 65 -44.5 111h58c0 -31.333 8.83301 -56 26.5 -74s40.834 -27 69.501 -27s51.834 9 69.501 27s26.5 42.667 26.5 74h58c0 -46 -14.833 -83 -44.5 -111s-66.167 -42 -109.5 -42z" />
    <glyph glyph-name="uni040F" unicode="&#x40f;" horiz-adv-x="745" 
d="M410 0v-148h-74v148h-237v710h76v-638h395v638h76v-710h-236z" />
    <glyph glyph-name="uni0410" unicode="&#x410;" horiz-adv-x="710" 
d="M8 0l316 710h61l317 -710h-80l-99 221h-339l-98 -221h-78zM353 603l-138 -311h277z" />
    <glyph glyph-name="uni0411" unicode="&#x411;" horiz-adv-x="620" 
d="M175 407l171 -0.000976562c71.333 0 129 -17.667 173 -53s66 -85.666 66 -150.999c0 -64.667 -22 -114.667 -66 -150s-101.667 -53 -173 -53h-247v710h419v-72h-343v-231zM508 202.999c0 42.667 -13.833 75.5 -41.5 98.5s-67.5 34.5 -119.5 34.5h-172v-265h172
c52 0 91.833 11.5 119.5 34.5s41.5 55.5 41.5 97.5z" />
    <glyph glyph-name="uni0412" unicode="&#x412;" horiz-adv-x="628" 
d="M99 0l-0.000976562 710.001h224c65.333 0 117 -17.667 155 -53s57 -78.333 57 -129c0 -69.333 -27 -119.666 -81 -150.999c85.333 -28.667 128 -85.334 128 -170.001c0 -60.667 -22.167 -110.334 -66.5 -149.001s-103.166 -58 -176.499 -58h-240zM174.999 69.001h172
c52 0 91.667 12 119 36s41 56 41 96s-13.5 72.167 -40.5 96.5s-66.5 36.5 -118.5 36.5h-173v-265zM174.999 400.001l153.002 0.000976562c41.333 0 73.666 11.167 96.999 33.5s35 51.166 35 86.499c0 33.333 -11.833 61.833 -35.5 85.5s-55.834 35.5 -96.501 35.5h-153v-241
z" />
    <glyph glyph-name="uni0413" unicode="&#x413;" horiz-adv-x="511" 
d="M494 710v-72h-319v-638h-76v710h395z" />
    <glyph glyph-name="uni0414" unicode="&#x414;" horiz-adv-x="753" 
d="M643 -148v148h-537v-148h-72v220h14c18.667 0 34.167 6.33301 46.5 19s23 39.167 32 79.5s13.5 94.5 13.5 162.5v377h488v-638h87v-220h-72zM216 638v-320c0 -118.667 -15.667 -200.667 -47 -246h383v566h-336z" />
    <glyph glyph-name="uni0415" unicode="&#x415;" horiz-adv-x="554" 
d="M99 0v710h405v-72h-329v-237h269v-72h-269v-257h329v-72h-405z" />
    <glyph glyph-name="uni0416" unicode="&#x416;" horiz-adv-x="950" 
d="M852 0l-339 320v-320h-76v320l-339 -320h-105l372 351l-343 359h96l319 -335v335h76v-335l319 335h96l-343 -359l372 -351h-105z" />
    <glyph glyph-name="uni0417" unicode="&#x417;" horiz-adv-x="570" 
d="M109 586l-50.998 50.0029c55.333 57.333 126.666 86 213.999 86c65.333 0 118 -18 158 -54s60 -82 60 -138c0 -74 -32.667 -127 -98 -159c40.667 -14 71.667 -36.333 93 -67s32 -66.667 32 -108c0 -64.667 -23.667 -115.5 -71 -152.5s-105.666 -55.5 -174.999 -55.5
c-53.333 0 -101.833 10 -145.5 30s-77.834 47.333 -102.501 82l56 49c21.333 -28.667 49.166 -50.834 83.499 -66.501s70.833 -23.5 109.5 -23.5c50.667 0 91.667 13.167 123 39.5s47 59.833 47 100.5c0 40 -13.833 72.5 -41.5 97.5s-66.834 37.5 -117.501 37.5h-91v66h94
c40.667 0 72.334 12 95.001 36s34 53.667 34 89c0 38 -12.667 68.167 -38 90.5s-61.333 34.166 -108 35.499c-62 1.33301 -115.333 -20.334 -160 -65.001z" />
    <glyph glyph-name="uni0418" unicode="&#x418;" horiz-adv-x="794" 
d="M166 0h-67v710h76v-581l453 581h67v-710h-76v581z" />
    <glyph glyph-name="uni0419" unicode="&#x419;" horiz-adv-x="794" 
d="M166 0h-67v710h76v-581l453 581h67v-710h-76v581zM406 762c-43.333 0 -79.835 14 -109.502 42s-44.5 65 -44.5 111h58c0 -31.333 8.83301 -56 26.5 -74s40.834 -27 69.501 -27s51.834 9 69.501 27s26.5 42.667 26.5 74h58c0 -46 -14.833 -83 -44.5 -111
s-66.167 -42 -109.5 -42z" />
    <glyph glyph-name="uni041A" unicode="&#x41a;" horiz-adv-x="664" 
d="M573 0l-399 343v-343h-75v710h75v-311l327 311h103l-353 -337l435 -373h-113z" />
    <glyph glyph-name="uni041B" unicode="&#x41b;" horiz-adv-x="725" 
d="M138 190l0.000976562 520h488v-710h-76v638h-336v-461c0 -126 -48 -189 -144 -189c-18 0 -37 2.33301 -57 7l15 68c10 -2.66699 22.667 -4 38 -4c25.333 0 43.666 9.5 54.999 28.5s17 53.167 17 102.5z" />
    <glyph glyph-name="uni041C" unicode="&#x41c;" horiz-adv-x="886" 
d="M99 0v710h70l274 -429l274 429h70v-710h-76v560l-239 -374h-57l-240 376v-562h-76z" />
    <glyph glyph-name="uni041D" unicode="&#x41d;" horiz-adv-x="765" 
d="M99 0v710h76v-309h415v309h76v-710h-76v329h-415v-329h-76z" />
    <glyph glyph-name="uni041E" unicode="&#x41e;" horiz-adv-x="830" 
d="M415 60c82 0 150.833 28.333 206.5 85s83.5 126.667 83.5 210c0 82.667 -27.833 152.5 -83.5 209.5s-124.5 85.5 -206.5 85.5s-150.833 -28.5 -206.5 -85.5s-83.5 -126.833 -83.5 -209.5c0 -83.333 27.833 -153.333 83.5 -210s124.5 -85 206.5 -85zM415 -12
c-102.667 0 -189.5 35.333 -260.5 106s-106.5 157.667 -106.5 261s35.5 190.333 106.5 261s157.833 106 260.5 106s189.5 -35.333 260.5 -106s106.5 -157.667 106.5 -261s-35.5 -190.333 -106.5 -261s-157.833 -106 -260.5 -106z" />
    <glyph glyph-name="uni041F" unicode="&#x41f;" horiz-adv-x="746" 
d="M573 0v638h-401v-638h-73v710h548v-710h-74z" />
    <glyph glyph-name="uni0420" unicode="&#x420;" horiz-adv-x="584" 
d="M552 488c0 -64 -22.167 -116.833 -66.5 -158.5s-102.833 -62.5 -175.5 -62.5h-135v-267h-76v710h211c72.667 0 131.167 -21 175.5 -63s66.5 -95 66.5 -159zM475 488c0 44 -14.5 80.167 -43.5 108.5s-69.5 42.5 -121.5 42.5h-135v-301h135c52 0 92.5 14 121.5 42
s43.5 64 43.5 108z" />
    <glyph glyph-name="uni0421" unicode="&#x421;" horiz-adv-x="756" 
d="M415 -12c-102.667 0 -189.5 35.333 -260.5 106s-106.5 157.667 -106.5 261s35.5 190.333 106.5 261s157.833 106 260.5 106c64.667 0 124 -14.833 178 -44.5s97.667 -70.167 131 -121.5l-63 -40c-26 41.333 -60.333 74 -103 98s-90.334 36 -143.001 36
c-82 0 -150.833 -28.5 -206.5 -85.5s-83.5 -126.833 -83.5 -209.5c0 -83.333 27.833 -153.333 83.5 -210s124.5 -85 206.5 -85c52.667 0 100.334 12 143.001 36s77 56.667 103 98l63 -40c-33.333 -51.333 -77 -91.833 -131 -121.5s-113.333 -44.5 -178 -44.5z" />
    <glyph glyph-name="uni0422" unicode="&#x422;" horiz-adv-x="567" 
d="M246 0v638h-230v72h535v-72h-230v-638h-75z" />
    <glyph glyph-name="uni0423" unicode="&#x423;" horiz-adv-x="689" 
d="M128 -4l14 67.999c18.667 -3.33301 37.334 -5 56.001 -5c42 0 76.333 25.667 103 77l17 32l-278 542h86l235 -461l248 461h81l-307 -575c-27.333 -51.333 -54.5 -88.666 -81.5 -111.999s-59.167 -35 -96.5 -35c-28.667 0 -54.334 2.66699 -77.001 8z" />
    <glyph glyph-name="uni0424" unicode="&#x424;" horiz-adv-x="859" 
d="M392 135v446h-8c-85.333 0 -150.5 -19.5 -195.5 -58.5s-67.5 -93.5 -67.5 -163.5c0 -71.333 22.167 -126.5 66.5 -165.5s109.833 -58.5 196.5 -58.5h8zM467 -30h-75v95h-7c-105.333 0 -188.5 26.333 -249.5 79s-91.5 124.334 -91.5 215.001c0 90 30.333 161.167 91 213.5
s144 78.5 250 78.5h7v89h75v-89h7c106 0 189.333 -26.167 250 -78.5s91 -123.5 91 -213.5c0 -90.667 -30.5 -162.334 -91.5 -215.001s-144.167 -79 -249.5 -79h-7v-95zM467 135h8c86.667 0 152.167 19.5 196.5 58.5s66.5 94.167 66.5 165.5c0 70 -22.5 124.5 -67.5 163.5
s-110.167 58.5 -195.5 58.5h-8v-446z" />
    <glyph glyph-name="uni0425" unicode="&#x425;" horiz-adv-x="662" 
d="M103 0h-96l276 359l-266 351h93l221 -289l221 289h93l-267 -351l277 -359h-96l-228 296z" />
    <glyph glyph-name="uni0426" unicode="&#x426;" horiz-adv-x="758" 
d="M633 72h88v-220h-74v148h-548v710h76v-638h382v638h76v-638z" />
    <glyph glyph-name="uni0427" unicode="&#x427;" horiz-adv-x="687" 
d="M588 0h-76v313c-70.667 -25.333 -145 -38 -223 -38c-76 0 -135.333 18.667 -178 56s-64 92 -64 164v215h76v-208c0 -104 58.667 -156 176 -156c78 0 149 12.667 213 38v326h76v-710z" />
    <glyph glyph-name="uni0428" unicode="&#x428;" horiz-adv-x="990" 
d="M99 0v710h76v-638h282v638h76v-638h282v638h76v-710h-792z" />
    <glyph glyph-name="uni0429" unicode="&#x429;" horiz-adv-x="1016" 
d="M905 -148v148h-806v710h76v-638h282v638h76v-638h282v638h76v-638h88v-220h-74z" />
    <glyph glyph-name="uni042A" unicode="&#x42a;" horiz-adv-x="701" 
d="M288 416h137c74.667 0 133.667 -18.833 177 -56.5s65 -88.167 65 -151.5s-21.667 -113.833 -65 -151.5s-102.333 -56.5 -177 -56.5h-213v638h-196v72h272v-294zM288 71h134c54.667 0 96.334 11.833 125.001 35.5s43 57.5 43 101.5s-14.333 77.833 -43 101.5
s-70.334 35.5 -125.001 35.5h-134v-274z" />
    <glyph glyph-name="uni042B" unicode="&#x42b;" horiz-adv-x="833" 
d="M175 416h137c74.667 0 133.667 -18.833 177 -56.5s65 -88.167 65 -151.5s-21.667 -113.833 -65 -151.5s-102.333 -56.5 -177 -56.5h-213v710h76v-294zM175 71h134c54.667 0 96.334 11.833 125.001 35.5s43 57.5 43 101.5s-14.333 77.833 -43 101.5
s-70.334 35.5 -125.001 35.5h-134v-274zM658 0v710h76v-710h-76z" />
    <glyph glyph-name="uni042C" unicode="&#x42c;" horiz-adv-x="588" 
d="M175 416h137c74.667 0 133.667 -18.833 177 -56.5s65 -88.167 65 -151.5s-21.667 -113.833 -65 -151.5s-102.333 -56.5 -177 -56.5h-213v710h76v-294zM175 71h134c54.667 0 96.334 11.833 125.001 35.5s43 57.5 43 101.5s-14.333 77.833 -43 101.5
s-70.334 35.5 -125.001 35.5h-134v-274z" />
    <glyph glyph-name="uni042D" unicode="&#x42d;" horiz-adv-x="755" 
d="M340 -12c-64.667 0 -124 14.833 -178 44.5s-97.667 70.167 -131 121.5l63 40c26 -41.333 60.333 -74 103 -98s90.334 -36 143.001 -36c77.333 0 142.833 25 196.5 75s84.5 113 92.5 189h-385v72h384c-9.33301 72.667 -41 133.167 -95 181.5s-118.333 72.5 -193 72.5
c-52.667 0 -100.334 -12 -143.001 -36s-77 -56.667 -103 -98l-63 40c33.333 51.333 77 91.833 131 121.5s113.333 44.5 178 44.5c102.667 0 189.5 -35.333 260.5 -106s106.5 -157.667 106.5 -261s-35.5 -190.333 -106.5 -261s-157.833 -106 -260.5 -106z" />
    <glyph glyph-name="uni042E" unicode="&#x42e;" horiz-adv-x="1065" 
d="M99 0l0.000976562 710h76v-310h132c10.667 92 49.334 168.667 116.001 230s146 92 238 92c100 0 184.333 -35.5 253 -106.5s103 -157.833 103 -260.5s-34.333 -189.5 -103 -260.5s-153 -106.5 -253 -106.5c-94.667 0 -175.834 32.5 -243.501 97.5
s-104.834 145.833 -111.501 242.5h-131v-328h-76zM940.001 355c0 82.667 -26.833 152.5 -80.5 209.5s-119.834 85.5 -198.501 85.5s-144.834 -28.5 -198.501 -85.5s-80.5 -126.833 -80.5 -209.5c0 -83.333 26.833 -153.333 80.5 -210s119.834 -85 198.501 -85
s144.834 28.333 198.501 85s80.5 126.667 80.5 210z" />
    <glyph glyph-name="uni042F" unicode="&#x42f;" horiz-adv-x="624" 
d="M449 0v303h-100l-257 -303h-97l267 312c-56 8 -99.833 30.167 -131.5 66.5s-47.5 79.5 -47.5 129.5c0 59.333 21.5 107.833 64.5 145.5s101.167 56.5 174.5 56.5h203v-710h-76zM160 508c0 -42 14.1689 -74.833 42.502 -98.5s69.166 -35.5 122.499 -35.5h124v265h-124
c-52.667 0 -93.334 -11.667 -122.001 -35s-43 -55.333 -43 -96z" />
    <glyph glyph-name="uni0430" unicode="&#x430;" horiz-adv-x="627" 
d="M297 -10c-73.333 0 -133.833 25.167 -181.5 75.5s-71.5 111.833 -71.5 184.5s23.833 134.167 71.5 184.5s108.167 75.5 181.5 75.5c72.667 0 130.667 -23.667 174 -71v61h70v-500h-70v61c-43.333 -47.333 -101.333 -71 -174 -71zM300 55
c38.667 0 72.667 8.33496 102 25.002s52.333 38.667 69 66v208c-16.667 27.333 -39.667 49.333 -69 66s-63.333 25 -102 25c-54 0 -98.167 -18.833 -132.5 -56.5s-51.5 -83.834 -51.5 -138.501s17.167 -100.834 51.5 -138.501s78.5 -56.5 132.5 -56.5z" />
    <glyph glyph-name="uni0431" unicode="&#x431;" horiz-adv-x="631" 
d="M325 -10c-76.667 0 -139 25.8311 -187 77.498s-72 117.834 -72 198.501v58c0 121.333 21.167 212.833 63.5 274.5s113.166 101.834 212.499 120.501l178 33l12 -65l-175 -32c-75.333 -14 -128.666 -40 -159.999 -78s-52 -95.667 -62 -173c46 66.667 112 100 198 100
c75.333 0 136.5 -24.333 183.5 -73s70.5 -108 70.5 -178c0 -74 -24.5 -136.333 -73.5 -187s-111.833 -76 -188.5 -76zM325 54.998c55.333 0 100.832 18.8311 136.499 56.498s53.5 84.834 53.5 141.501c0 54.667 -17.667 99.334 -53 134.001s-80.333 52 -135 52
c-55.333 0 -100.666 -17.667 -135.999 -53s-53 -79.333 -53 -132c0 -58 17.333 -105.667 52 -143s79.667 -56 135 -56z" />
    <glyph glyph-name="uni0432" unicode="&#x432;" horiz-adv-x="541" 
d="M86 0v500h211c53.333 0 94.333 -11.5 123 -34.5s43 -55.5 43 -97.5c0 -43.333 -18 -77.333 -54 -102c58 -24 87 -65 87 -123c0 -42.667 -15 -77.167 -45 -103.5s-74.667 -39.5 -134 -39.5h-231zM156 64h170c30.667 0 54.667 7.16699 72 21.5s26 34.5 26 60.5
s-8.66699 46.167 -26 60.5s-41.333 21.5 -72 21.5h-170v-164zM156 290l151 0.000976562c24.667 0 45 6 61 18s24 30.667 24 56s-8 43.666 -24 54.999s-36.333 17 -61 17h-151v-146z" />
    <glyph glyph-name="uni0433" unicode="&#x433;" horiz-adv-x="405" 
d="M86 0v500h303v-66h-233v-434h-70z" />
    <glyph glyph-name="uni0434" unicode="&#x434;" horiz-adv-x="617" 
d="M34 66h12c22 0 39.5 12.167 52.5 36.5s19.5 69.833 19.5 136.5v261h387v-434h74v-193h-68v127h-409v-127h-68v193zM188 434v-211.001c0 -71.333 -11 -123.666 -33 -156.999h280v368h-247z" />
    <glyph glyph-name="uni0435" unicode="&#x435;" horiz-adv-x="582" 
d="M302 -10c-76.667 0 -138.668 24.833 -186.001 74.5s-71 111.5 -71 185.5c0 73.333 24.333 135 73 185s110.667 75 186 75c67.333 0 123.333 -22.667 168 -68s67 -107 67 -185v-19h-422c0 -52 17.333 -95.5 52 -130.5s79 -52.5 133 -52.5c40 0 72.833 7.83301 98.5 23.5
s47.834 39.167 66.501 70.5l57 -37c-47.333 -81.333 -121.333 -122 -222 -122zM122.999 300h343c-6.66699 44.667 -25 80 -55 106s-66.667 39 -110 39s-81.833 -13.167 -115.5 -39.5s-54.5 -61.5 -62.5 -105.5z" />
    <glyph glyph-name="uni0436" unicode="&#x436;" horiz-adv-x="764" 
d="M669 0l-252 229v-229h-70v229l-252 -229h-97l280 255l-244 245h90l223 -227v227h70v-227l223 227h90l-244 -245l280 -255h-97z" />
    <glyph glyph-name="uni0437" unicode="&#x437;" horiz-adv-x="473" 
d="M230 -10c-85.333 0 -151.997 33.665 -199.997 100.998l56 37c34.667 -50.667 82.667 -76 144 -76c42 0 73 8.33301 93 25s30 38.334 30 65.001c0 58.667 -39.667 88 -119 88h-76v62h77c66.667 0 100 26 100 78c0 26 -9.33301 45.667 -28 59s-44.334 20 -77.001 20
c-54.667 0 -97.334 -21.333 -128.001 -64l-55 34c42 60.667 103.667 91 185 91c53.333 0 95.166 -12.333 125.499 -37s45.5 -57.667 45.5 -99c0 -50.667 -21.333 -87.667 -64 -111c26 -10.667 46.667 -27 62 -49s23 -47.667 23 -77
c0 -43.333 -17.167 -78.666 -51.5 -105.999s-81.833 -41 -142.5 -41z" />
    <glyph glyph-name="uni0438" unicode="&#x438;" horiz-adv-x="604" 
d="M148 0h-62v500h70v-389l300 389h62v-500h-70v389z" />
    <glyph glyph-name="uni0439" unicode="&#x439;" horiz-adv-x="604" 
d="M148 0h-62v500h70v-389l300 389h62v-500h-70v389zM309 565c-44 0 -80.6689 14 -110.002 42s-44 65.333 -44 112v11h58v-11c0 -30.667 8.83301 -55.334 26.5 -74.001s40.834 -28 69.501 -28s51.834 9.33301 69.501 28s26.5 43.334 26.5 74.001v11h58v-11
c0 -46.667 -14.667 -84 -44 -112s-66 -42 -110 -42z" />
    <glyph glyph-name="uni043A" unicode="&#x43a;" horiz-adv-x="515" 
d="M423 0l-267 230v-230h-70v500h70v-228l238 228h92l-258 -245l296 -255h-101z" />
    <glyph glyph-name="uni043B" unicode="&#x43b;" horiz-adv-x="572" 
d="M59 -6c-15.333 0 -30.333 1.66699 -45 5l11 62c7.33301 -2 16.666 -3 27.999 -3c39.333 0 59 34.333 59 103v339h374v-500h-70v434h-234v-292c0 -48 -11.167 -84.667 -33.5 -110s-52.166 -38 -89.499 -38z" />
    <glyph glyph-name="uni043C" unicode="&#x43c;" horiz-adv-x="690" 
d="M86 500h66l193 -296l193 296h66v-500h-70v378l-161 -247h-56l-161 247v-378h-70v500z" />
    <glyph glyph-name="uni043D" unicode="&#x43d;" horiz-adv-x="605" 
d="M86 0v500h70v-211h293v211h70v-500h-70v223h-293v-223h-70z" />
    <glyph glyph-name="uni043E" unicode="&#x43e;" horiz-adv-x="610" 
d="M305 -10c-75.333 0 -137.666 25.167 -186.999 75.5s-74 111.833 -74 184.5s24.667 134.167 74 184.5s111.666 75.5 186.999 75.5s137.666 -25.167 186.999 -75.5s74 -111.833 74 -184.5s-24.667 -134.167 -74 -184.5s-111.666 -75.5 -186.999 -75.5zM305 55
c56 0 101.5 18.833 136.5 56.5s52.5 83.834 52.5 138.501s-17.5 100.834 -52.5 138.501s-80.5 56.5 -136.5 56.5s-101.5 -18.833 -136.5 -56.5s-52.5 -83.834 -52.5 -138.501s17.5 -100.834 52.5 -138.501s80.5 -56.5 136.5 -56.5z" />
    <glyph glyph-name="uni043F" unicode="&#x43f;" horiz-adv-x="594" 
d="M86 0v500h422v-500h-70v434h-282v-434h-70z" />
    <glyph glyph-name="uni0440" unicode="&#x440;" horiz-adv-x="628" 
d="M86 -194v694h70v-61c43.333 47.333 101.333 71 174 71c73.333 0 133.833 -25.167 181.5 -75.5s71.5 -111.833 71.5 -184.5s-23.833 -134.167 -71.5 -184.5s-108.167 -75.5 -181.5 -75.5c-72.667 0 -130.667 23.667 -174 71v-255h-70zM327 55
c54 0 98.167 18.8311 132.5 56.498s51.5 83.834 51.5 138.501s-17.167 100.834 -51.5 138.501s-78.5 56.5 -132.5 56.5c-38.667 0 -72.667 -8.33301 -102 -25s-52.333 -38.667 -69 -66v-208c16.667 -27.333 39.667 -49.333 69 -66s63.333 -25 102 -25z" />
    <glyph glyph-name="uni0441" unicode="&#x441;" horiz-adv-x="567" 
d="M305 -10c-75.333 0 -137.666 25.1689 -186.999 75.502s-74 111.833 -74 184.5s24.667 134.167 74 184.5s111.666 75.5 186.999 75.5c50.667 0 95.834 -11.667 135.501 -35s70.834 -55.333 93.501 -96l-61 -35c-16 31.333 -38.5 56 -67.5 74s-62.5 27 -100.5 27
c-56 0 -101.5 -18.833 -136.5 -56.5s-52.5 -83.834 -52.5 -138.501s17.5 -100.834 52.5 -138.501s80.5 -56.5 136.5 -56.5c38 0 71.5 9 100.5 27s51.5 42.667 67.5 74l61 -35c-22.667 -40.667 -53.834 -72.667 -93.501 -96s-84.834 -35 -135.501 -35z" />
    <glyph glyph-name="uni0442" unicode="&#x442;" horiz-adv-x="441" 
d="M182 0v434h-165v66h407v-66h-172v-434h-70z" />
    <glyph glyph-name="uni0443" unicode="&#x443;" horiz-adv-x="541" 
d="M533 500l-267.999 -576.999c-20 -44 -41.333 -75.333 -64 -94s-51.334 -28 -86.001 -28c-25.333 0 -46.666 2.66699 -63.999 8l12 62c16.667 -3.33301 32.667 -5 48 -5c18 0 33.667 5.66699 47 17s26.666 31.666 39.999 60.999l36 78l-224 478h78l183 -396l183 396h79z
" />
    <glyph glyph-name="uni0444" unicode="&#x444;" horiz-adv-x="722" 
d="M396 -194h-70v184h-4c-85.333 0 -153 25 -203 75s-75 111.667 -75 185s25 135 75 185s117.667 75 203 75h4v220h70v-220h4c85.333 0 153 -25 203 -75s75 -111.667 75 -185s-25 -135 -75 -185s-117.667 -75 -203 -75h-4v-184zM400 445l-4 -0.000976562v-390h4
c64.667 0 115.167 18.333 151.5 55s54.5 83.334 54.5 140.001c0 56 -18.667 102.5 -56 139.5s-87.333 55.5 -150 55.5zM326 54.999v390.001h-4c-62.667 0 -112.667 -18.5 -150 -55.5s-56 -83.5 -56 -139.5c0 -56.667 18.167 -103.334 54.5 -140.001s86.833 -55 151.5 -55h4z
" />
    <glyph glyph-name="uni0445" unicode="&#x445;" horiz-adv-x="518" 
d="M422 0l-163 201l-163 -201h-89l208 256l-187 244h85l145 -189l146 189h86l-188 -245l208 -255h-88z" />
    <glyph glyph-name="uni0446" unicode="&#x446;" horiz-adv-x="615" 
d="M578 66v-193h-68v127h-424v500h70v-434h277v434h70v-434h75z" />
    <glyph glyph-name="uni0447" unicode="&#x447;" horiz-adv-x="536" 
d="M450 0h-70.002v210c-47.333 -22.667 -97.666 -34 -150.999 -34c-58 0 -103.833 15.833 -137.5 47.5s-50.5 75.5 -50.5 131.5v145h70v-139c0 -80 43 -120 129 -120c50.667 0 97.334 12.333 140.001 37v222h70v-500z" />
    <glyph glyph-name="uni0448" unicode="&#x448;" horiz-adv-x="814" 
d="M86 0v500h70v-434h216v434h70v-434h216v434h70v-500h-642z" />
    <glyph glyph-name="uni0449" unicode="&#x449;" horiz-adv-x="840" 
d="M803 66v-193h-68v127h-649v500h70v-434h216v434h70v-434h216v434h70v-434h75z" />
    <glyph glyph-name="uni044A" unicode="&#x44a;" horiz-adv-x="569" 
d="M162 0v436h-144v64h214v-190h122c60 0 105.5 -14.833 136.5 -44.5s46.5 -66.167 46.5 -109.5c0 -44 -15.667 -81 -47 -111s-77 -45 -137 -45h-191zM232 244l0.000976562 -178h122c35.333 0 62.666 8 81.999 24s29 38 29 66s-9.5 49.667 -28.5 65s-46.167 23 -81.5 23
h-123z" />
    <glyph glyph-name="uni044B" unicode="&#x44b;" horiz-adv-x="698" 
d="M542 0v500h70v-500h-70zM86 0v500h70v-190h122c60 0 105.5 -14.833 136.5 -44.5s46.5 -66.167 46.5 -109.5c0 -44 -15.667 -81 -47 -111s-77 -45 -137 -45h-191zM156 244l0.000976562 -178h122c35.333 0 62.666 8 81.999 24s29 38 29 66s-9.5 49.667 -28.5 65
s-46.167 23 -81.5 23h-123z" />
    <glyph glyph-name="uni044C" unicode="&#x44c;" horiz-adv-x="493" 
d="M86 0v500h70v-190h122c60 0 105.5 -14.833 136.5 -44.5s46.5 -66.167 46.5 -109.5c0 -44 -15.667 -81 -47 -111s-77 -45 -137 -45h-191zM156 244l0.000976562 -178h122c35.333 0 62.666 8 81.999 24s29 38 29 66s-9.5 49.667 -28.5 65s-46.167 23 -81.5 23h-123z" />
    <glyph glyph-name="uni044D" unicode="&#x44d;" horiz-adv-x="566" 
d="M261 -10c-50.667 0 -95.834 11.667 -135.501 35s-70.834 55.333 -93.501 96l61 35c16 -31.333 38.5 -56 67.5 -74s62.5 -27 100.5 -27c50.667 0 93.167 15.667 127.5 47s54.166 71 59.499 119h-251v66h250c-8 46 -28.667 83.833 -62 113.5s-74.666 44.5 -123.999 44.5
c-38 0 -71.5 -9 -100.5 -27s-51.5 -42.667 -67.5 -74l-61 35c22.667 40.667 53.834 72.667 93.501 96s84.834 35 135.501 35c75.333 0 137.666 -25.167 186.999 -75.5s74 -111.833 74 -184.5s-24.667 -134.167 -74 -184.5s-111.666 -75.5 -186.999 -75.5z" />
    <glyph glyph-name="uni044E" unicode="&#x44e;" horiz-adv-x="799" 
d="M505 -10c-68 0 -125 22 -171 66s-71.667 100 -77 168h-101v-224h-70v500h70v-212h102c8 64 35 117 81 159s101.333 63 166 63c72 0 131.5 -24.833 178.5 -74.5s70.5 -111.5 70.5 -185.5s-23.5 -135.833 -70.5 -185.5s-106.5 -74.5 -178.5 -74.5zM505 56
c52 0 94.5 18.5 127.5 55.5s49.5 83.167 49.5 138.5s-16.5 101.5 -49.5 138.5s-75.5 55.5 -127.5 55.5s-94.5 -18.5 -127.5 -55.5s-49.5 -83.167 -49.5 -138.5s16.5 -101.5 49.5 -138.5s75.5 -55.5 127.5 -55.5z" />
    <glyph glyph-name="uni044F" unicode="&#x44f;" horiz-adv-x="518" 
d="M-2 0l213 199.999c-42 6.66699 -74.833 23.167 -98.5 49.5s-35.5 57.833 -35.5 94.5c0 44.667 15.833 81.834 47.5 111.501s76.167 44.5 133.5 44.5h174v-500h-70v190h-69l-202 -190h-93zM262 255.999h100v178h-100c-75.333 0 -113 -30 -113 -90
c0 -58.667 37.667 -88 113 -88z" />
    <glyph glyph-name="uni0451" unicode="&#x451;" horiz-adv-x="582" 
d="M302 -10c-76.667 0 -138.668 24.833 -186.001 74.5s-71 111.5 -71 185.5c0 73.333 24.333 135 73 185s110.667 75 186 75c67.333 0 123.333 -22.667 168 -68s67 -107 67 -185v-19h-422c0 -52 17.333 -95.5 52 -130.5s79 -52.5 133 -52.5c40 0 72.833 7.83301 98.5 23.5
s47.834 39.167 66.501 70.5l57 -37c-47.333 -81.333 -121.333 -122 -222 -122zM122.999 300h343c-6.66699 44.667 -25 80 -55 106s-66.667 39 -110 39s-81.833 -13.167 -115.5 -39.5s-54.5 -61.5 -62.5 -105.5zM192.999 602c-15.333 0 -28.166 5.16699 -38.499 15.5
s-15.5 22.833 -15.5 37.5s5.16699 27.167 15.5 37.5s23.166 15.5 38.499 15.5c14.667 0 27 -5.16699 37 -15.5s15 -22.833 15 -37.5s-5 -27.167 -15 -37.5s-22.333 -15.5 -37 -15.5zM414.999 602c-15.333 0 -28.166 5.16699 -38.499 15.5s-15.5 22.833 -15.5 37.5
s5.16699 27.167 15.5 37.5s23.166 15.5 38.499 15.5c14.667 0 27 -5.16699 37 -15.5s15 -22.833 15 -37.5s-5 -27.167 -15 -37.5s-22.333 -15.5 -37 -15.5z" />
    <glyph glyph-name="uni0452" unicode="&#x452;" horiz-adv-x="586" 
d="M303 -188l14.999 60.999c23.333 -4.66699 41.666 -7 54.999 -7c43.333 0 65 28.333 65 85v351c0 44.667 -11.667 79.667 -35 105s-56.666 38 -99.999 38c-37.333 0 -68.666 -10.167 -93.999 -30.5s-43 -47.833 -53 -82.5v-332h-70v579h-74v63h74v88h70v-88h176v-63h-176
v-148c38 52.667 91.667 79 161 79c58.667 0 105.167 -18 139.5 -54s51.5 -85.667 51.5 -149v-362c0 -47.333 -12.333 -83.166 -37 -107.499s-56 -36.5 -94 -36.5c-25.333 0 -50 3.66699 -74 11z" />
    <glyph glyph-name="uni0453" unicode="&#x453;" horiz-adv-x="405" 
d="M86 0v500h303v-66h-233v-434h-70zM205 578l90 152h93l-121 -152h-62z" />
    <glyph glyph-name="uni0454" unicode="&#x454;" horiz-adv-x="566" 
d="M305 -10c-75.333 0 -137.666 25.167 -186.999 75.5s-74 111.833 -74 184.5s24.667 134.167 74 184.5s111.666 75.5 186.999 75.5c50.667 0 95.834 -11.667 135.501 -35s70.834 -55.333 93.501 -96l-61 -35c-16 31.333 -38.5 56 -67.5 74s-62.5 27 -100.5 27
c-49.333 0 -90.666 -14.833 -123.999 -44.5s-54 -67.5 -62 -113.5h250v-66h-251c5.33301 -48 25.166 -87.667 59.499 -119s76.833 -47 127.5 -47c38 0 71.5 9 100.5 27s51.5 42.667 67.5 74l61 -35c-22.667 -40.667 -53.834 -72.667 -93.501 -96s-84.834 -35 -135.501 -35z
" />
    <glyph glyph-name="uni0455" unicode="&#x455;" horiz-adv-x="447" 
d="M232 -10c-47.333 0 -88.166 10.5 -122.499 31.5s-58.166 51.5 -71.499 91.5l63 26c8 -26.667 24.5 -47.667 49.5 -63s52.5 -23 82.5 -23c28 0 51.167 6.83301 69.5 20.5s27.5 32.5 27.5 56.5c0 20 -7.16699 36.833 -21.5 50.5s-38.5 26.167 -72.5 37.5l-54 17
c-80 24.667 -120 72 -120 142c0 40.667 15.833 73 47.5 97s71.5 36 119.5 36c75.333 0 129.333 -29.333 162 -88l-56 -35c-26.667 40.667 -63.334 61 -110.001 61c-24.667 0 -46.334 -6.5 -65.001 -19.5s-28 -29.167 -28 -48.5c0 -37.333 26 -64.333 78 -81l57 -18
c88.667 -28 133 -76.333 133 -145c0 -46 -15.5 -81.833 -46.5 -107.5s-71.5 -38.5 -121.5 -38.5z" />
    <glyph glyph-name="uni0456" unicode="&#x456;" horiz-adv-x="242" 
d="M122 630c-15.333 0 -28.166 5.16699 -38.499 15.5s-15.5 22.833 -15.5 37.5s5.16699 27.167 15.5 37.5s23.166 15.5 38.499 15.5c14.667 0 27 -5.16699 37 -15.5s15 -22.833 15 -37.5s-5 -27.167 -15 -37.5s-22.333 -15.5 -37 -15.5zM86 0v500h70v-500h-70z" />
    <glyph glyph-name="uni0457" unicode="&#x457;" horiz-adv-x="242" 
d="M86 0v500h70v-500h-70zM22 602c-15.333 0 -28.5 5.5 -39.5 16.5s-16.5 24.167 -16.5 39.5s5.5 28.333 16.5 39s24.167 16 39.5 16s28.5 -5.33301 39.5 -16s16.5 -23.667 16.5 -39s-5.5 -28.5 -16.5 -39.5s-24.167 -16.5 -39.5 -16.5zM220 602
c-15.333 0 -28.5 5.5 -39.5 16.5s-16.5 24.167 -16.5 39.5s5.5 28.333 16.5 39s24.167 16 39.5 16s28.5 -5.33301 39.5 -16s16.5 -23.667 16.5 -39s-5.5 -28.5 -16.5 -39.5s-24.167 -16.5 -39.5 -16.5z" />
    <glyph glyph-name="uni0458" unicode="&#x458;" horiz-adv-x="250" 
d="M33 -199c-26.667 0 -48 3.66602 -64 10.999l15 61c12.667 -4.66699 27.667 -7 45 -7c43.333 0 65 28.333 65 85v549h70v-555c0 -47.333 -12.333 -83.166 -37 -107.499s-56 -36.5 -94 -36.5zM130 629.999c-15.333 0 -28.166 5.16699 -38.499 15.5s-15.5 22.833 -15.5 37.5
s5.16699 27.167 15.5 37.5s23.166 15.5 38.499 15.5c14.667 0 27 -5.16699 37 -15.5s15 -22.833 15 -37.5s-5 -27.167 -15 -37.5s-22.333 -15.5 -37 -15.5z" />
    <glyph glyph-name="uni0459" unicode="&#x459;" horiz-adv-x="805" 
d="M479 223v-157.001h122c32 0 56.833 6.83301 74.5 20.5s26.5 32.834 26.5 57.501s-8.83301 44 -26.5 58s-42.5 21 -74.5 21h-122zM112 499.999l367 -0.000976562v-211h122c55.333 0 98 -14.333 128 -43s45 -62.667 45 -102s-15 -73.166 -45 -101.499
s-72.667 -42.5 -128 -42.5h-192v434h-227v-292c0 -48 -11.167 -84.667 -33.5 -110s-52.166 -38 -89.499 -38c-15.333 0 -30.333 1.66699 -45 5l11 62c7.33301 -2 16.666 -3 27.999 -3c39.333 0 59 34.333 59 103v339z" />
    <glyph glyph-name="uni045A" unicode="&#x45a;" horiz-adv-x="835" 
d="M732 144c0 24.667 -8.83301 43.999 -26.5 57.999s-42.5 21 -74.5 21h-122v-157h122c32 0 56.833 6.83301 74.5 20.5s26.5 32.834 26.5 57.501zM804 143.999c0 -39.333 -15 -73.167 -45 -101.5s-72.667 -42.5 -128 -42.5h-192v223h-283v-223h-70v500h70v-211h283v211h70
v-211h122c55.333 0 98 -14.333 128 -43s45 -62.667 45 -102z" />
    <glyph glyph-name="uni045B" unicode="&#x45b;" horiz-adv-x="586" 
d="M438 0v303c0 45.333 -11.833 80.333 -35.5 105s-56.5 37 -98.5 37c-38 0 -69.5 -10.167 -94.5 -30.5s-42.833 -47.5 -53.5 -81.5v-333h-70v579h-74v63h74v88h70v-88h176v-63h-176v-149c34 53.333 88.667 80 164 80c55.333 0 100.5 -17.667 135.5 -53
s52.5 -83.333 52.5 -144v-313h-70z" />
    <glyph glyph-name="uni045C" unicode="&#x45c;" horiz-adv-x="515" 
d="M423 0l-267 230v-230h-70v500h70v-228l238 228h92l-258 -245l296 -255h-101zM246 578l90 152h93l-121 -152h-62z" />
    <glyph glyph-name="uni045E" unicode="&#x45e;" horiz-adv-x="541" 
d="M533 500l-267.999 -576.999c-20 -44 -41.333 -75.333 -64 -94s-51.334 -28 -86.001 -28c-25.333 0 -46.666 2.66699 -63.999 8l12 62c16.667 -3.33301 32.667 -5 48 -5c18 0 33.667 5.66699 47 17s26.666 31.666 39.999 60.999l36 78l-224 478h78l183 -396l183 396h79z
M271.001 565.001c-44 0 -80.6689 14 -110.002 42s-44 65.333 -44 112v11h58v-11c0 -30.667 8.83301 -55.334 26.5 -74.001s40.834 -28 69.501 -28s51.834 9.33301 69.501 28s26.5 43.334 26.5 74.001v11h58v-11c0 -46.667 -14.667 -84 -44 -112s-66 -42 -110 -42z" />
    <glyph glyph-name="uni045F" unicode="&#x45f;" horiz-adv-x="601" 
d="M515 0h-180v-127h-68v127h-181v500h70v-434h289v434h70v-500z" />
    <glyph glyph-name="uni0462" unicode="&#x462;" horiz-adv-x="700" 
d="M286 416h137c74.667 0 133.667 -18.833 177 -56.5s65 -88.167 65 -151.5s-21.667 -113.833 -65 -151.5s-102.333 -56.5 -177 -56.5h-213v539h-182v63h182v108h76v-108h228v-63h-228v-123zM286 71h134c54.667 0 96.334 11.833 125.001 35.5s43 57.5 43 101.5
s-14.333 77.833 -43 101.5s-70.334 35.5 -125.001 35.5h-134v-274z" />
    <glyph glyph-name="uni0463" unicode="&#x463;" horiz-adv-x="546" 
d="M19 437v63h118v230h70v-230h210v-63h-210v-127h122c60 0 105.5 -14.833 136.5 -44.5s46.5 -66.167 46.5 -109.5c0 -44 -15.667 -81 -47 -111s-77 -45 -137 -45h-191v437h-118zM330 244h-122.999v-178h122c35.333 0 62.666 8 81.999 24s29 38 29 66s-9.5 49.667 -28.5 65
s-46.167 23 -81.5 23z" />
    <glyph glyph-name="uni0472" unicode="&#x472;" horiz-adv-x="830" 
d="M415 60c82 0 150.833 28.333 206.5 85s83.5 126.667 83.5 210c0 82.667 -27.833 152.5 -83.5 209.5s-124.5 85.5 -206.5 85.5s-150.833 -28.5 -206.5 -85.5s-83.5 -126.833 -83.5 -209.5c0 -83.333 27.833 -153.333 83.5 -210s124.5 -85 206.5 -85zM415 -12
c-102.667 0 -189.5 35.333 -260.5 106s-106.5 157.667 -106.5 261s35.5 190.333 106.5 261s157.833 106 260.5 106s189.5 -35.333 260.5 -106s106.5 -157.667 106.5 -261s-35.5 -190.333 -106.5 -261s-157.833 -106 -260.5 -106zM549 366
c61.333 0 115.666 16.667 162.999 50v-71c-47.333 -33.333 -101.666 -50 -162.999 -50c-32.667 0 -78 8.33301 -136 25s-101.667 25 -131 25c-61.333 0 -115.666 -16.667 -162.999 -50v71c47.333 33.333 101.666 50 162.999 50c36.667 0 82.5 -8.33301 137.5 -25
s98.167 -25 129.5 -25z" />
    <glyph glyph-name="uni0473" unicode="&#x473;" horiz-adv-x="610" 
d="M305 -10c-75.333 0 -137.666 25.167 -186.999 75.5s-74 111.833 -74 184.5s24.667 134.167 74 184.5s111.666 75.5 186.999 75.5s137.666 -25.167 186.999 -75.5s74 -111.833 74 -184.5s-24.667 -134.167 -74 -184.5s-111.666 -75.5 -186.999 -75.5zM305 55
c56 0 101.5 18.833 136.5 56.5s52.5 83.834 52.5 138.501s-17.5 100.834 -52.5 138.501s-80.5 56.5 -136.5 56.5s-101.5 -18.833 -136.5 -56.5s-52.5 -83.834 -52.5 -138.501s17.5 -100.834 52.5 -138.501s80.5 -56.5 136.5 -56.5zM101 281v-62h409v62h-409z" />
    <glyph glyph-name="uni0474" unicode="&#x474;" horiz-adv-x="767" 
d="M96 710l252.001 -585.999l200 464c22.667 52 44.667 87.333 66 106s49.666 28 84.999 28c18 0 38.333 -3 61 -9l-17 -68c-33.333 6 -57.5 4.16699 -72.5 -5.5s-31.167 -34.834 -48.5 -75.501l-243 -564h-62l-306 710h85z" />
    <glyph glyph-name="uni0475" unicode="&#x475;" horiz-adv-x="591" 
d="M8 500h78l183 -396l136 293c18.667 40.667 37.334 69.667 56.001 87s42 26 70 26c22 0 41 -3.66699 57 -11l-20 -60c-22.667 6 -40.334 5 -53.001 -3s-25 -25 -37 -51l-181 -385h-55z" />
    <glyph glyph-name="uni0490" unicode="&#x490;" horiz-adv-x="511" 
d="M494 710v-72h-319v-638h-76v710h395zM494 710h-74v148h74v-148z" />
    <glyph glyph-name="uni0491" unicode="&#x491;" horiz-adv-x="405" 
d="M86 0v500h303v-66h-233v-434h-70zM389 500h-68v127h68v-127z" />
    <glyph glyph-name="uni0492" unicode="&#x492;" horiz-adv-x="526" 
d="M506 710v-72h-319v-638h-76v710h395zM19 323v72h353v-72h-353z" />
    <glyph glyph-name="uni0493" unicode="&#x493;" horiz-adv-x="419" 
d="M99 0v500h303v-66h-233v-434h-70zM306 235h-288v64h288v-64z" />
    <glyph glyph-name="uni0496" unicode="&#x496;" horiz-adv-x="972" 
d="M852 0l-339 320v-320h-76v320l-339 -320h-105l372 351l-343 359h96l319 -335v335h76v-335l319 335h96l-343 -359l372 -351h-105zM895 -148v148h-28v72h102v-220h-74z" />
    <glyph glyph-name="uni0497" unicode="&#x497;" horiz-adv-x="784" 
d="M669 0l-252 229v-229h-70v229l-252 -229h-97l280 255l-244 245h90l223 -227v227h70v-227l223 227h90l-244 -245l280 -255h-97zM708 -127v127h-30v66h98v-193h-68z" />
    <glyph glyph-name="uni049A" unicode="&#x49a;" horiz-adv-x="685" 
d="M573 0l-399 343v-343h-75v710h75v-311l327 311h103l-353 -337l435 -373h-113zM617 -148v148h-28v72h102v-220h-74z" />
    <glyph glyph-name="uni049B" unicode="&#x49b;" horiz-adv-x="534" 
d="M423 0l-267 230v-230h-70v500h70v-228l238 228h92l-258 -245l296 -255h-101zM463 -127v127h-30v66h98v-193h-68z" />
    <glyph glyph-name="uni04A2" unicode="&#x4a2;" horiz-adv-x="791" 
d="M99 0v710h76v-309h415v309h76v-710h-76v329h-415v-329h-76zM680 -148v148h-28v72h102v-220h-74z" />
    <glyph glyph-name="uni04A3" unicode="&#x4a3;" horiz-adv-x="631" 
d="M86 0v500h70v-211h293v211h70v-500h-70v223h-293v-223h-70zM526 -127v127h-30v66h98v-193h-68z" />
    <glyph glyph-name="uni04AE" unicode="&#x4ae;" horiz-adv-x="669" 
d="M297 0v301l-280 409h92l226 -331l226 331h92l-281 -410v-300h-75z" />
    <glyph glyph-name="uni04AF" unicode="&#x4af;" horiz-adv-x="541" 
d="M236 -194v194l-227 500h78l183 -410l183 410h79l-226 -499v-195h-70z" />
    <glyph glyph-name="uni04B0" unicode="&#x4b0;" horiz-adv-x="668" 
d="M297 0v301l-280 409h92l226 -331l226 331h92l-281 -410v-300h-75zM529 302v-72h-392v72h392z" />
    <glyph glyph-name="uni04B1" unicode="&#x4b1;" horiz-adv-x="541" 
d="M236 -194v194l-227 500h78l183 -410l183 410h79l-226 -499v-195h-70zM97 -64v64h349v-64h-349z" />
    <glyph glyph-name="uni04B2" unicode="&#x4b2;" horiz-adv-x="693" 
d="M103 0h-96l276 359l-266 351h93l221 -289l221 289h93l-267 -351l277 -359h-96l-228 296zM613 -148v148h-28v72h102v-220h-74z" />
    <glyph glyph-name="uni04B3" unicode="&#x4b3;" horiz-adv-x="544" 
d="M422 0l-163 201l-163 -201h-89l208 256l-187 244h85l145 -189l146 189h86l-188 -245l208 -255h-88zM465 -127v127h-30v66h98v-193h-68z" />
    <glyph glyph-name="uni04B6" unicode="&#x4b6;" horiz-adv-x="713" 
d="M588 0h-76v313c-70.667 -25.333 -145 -38 -223 -38c-76 0 -135.333 18.667 -178 56s-64 92 -64 164v215h76v-208c0 -104 58.667 -156 176 -156c78 0 149 12.667 213 38v326h76v-710zM602 -148v148h-28v72h102v-220h-74z" />
    <glyph glyph-name="uni04B7" unicode="&#x4b7;" horiz-adv-x="562" 
d="M450 0h-70.002v210c-47.333 -22.667 -97.666 -34 -150.999 -34c-58 0 -103.833 15.833 -137.5 47.5s-50.5 75.5 -50.5 131.5v145h70v-139c0 -80 43 -120 129 -120c50.667 0 97.334 12.333 140.001 37v222h70v-500zM456.998 -127v127h-30v66h98v-193h-68z" />
    <glyph glyph-name="uni04BA" unicode="&#x4ba;" horiz-adv-x="687" 
d="M99 710h76v-313c70.667 25.333 145 38 223 38c76 0 135.333 -18.667 178 -56s64 -92 64 -164v-215h-76v208c0 104 -58.667 156 -176 156c-78 0 -149 -12.667 -213 -38v-326h-76v710z" />
    <glyph glyph-name="uni04BB" unicode="&#x4bb;" horiz-adv-x="586" 
d="M156 0h-70v730h70v-300c34 53.333 88.667 80 164 80c55.333 0 100.5 -17.667 135.5 -53s52.5 -83.333 52.5 -144v-313h-70v303c0 45.333 -11.833 80.333 -35.5 105s-56.5 37 -98.5 37c-38 0 -69.5 -10.167 -94.5 -30.5s-42.833 -47.5 -53.5 -81.5v-333z" />
    <glyph glyph-name="uni04C0" unicode="&#x4c0;" horiz-adv-x="274" 
d="M99 0v710h76v-710h-76z" />
    <glyph glyph-name="uni04CF" unicode="&#x4cf;" horiz-adv-x="242" 
d="M86 0v730h70v-730h-70z" />
    <glyph glyph-name="uni04D8" unicode="&#x4d8;" horiz-adv-x="817" 
d="M35 355l-0.000976562 43h654c-10 76 -42.667 137 -98 183s-118.333 69 -189 69c-40.667 0 -80.167 -7.33301 -118.5 -22s-70.166 -35 -95.499 -61l-53 53c33.333 32 73.5 57 120.5 75s95.833 27 146.5 27c102.667 0 189.5 -35.333 260.5 -106s106.5 -157.667 106.5 -261
s-35.5 -190.333 -106.5 -261s-157.833 -106 -260.5 -106s-189.5 35.333 -260.5 106s-106.5 157.667 -106.5 261zM401.999 60c75.333 0 140.667 25 196 75s86.333 114.667 93 194h-578c5.33301 -76.667 35.5 -140.667 90.5 -192s121.167 -77 198.5 -77z" />
    <glyph glyph-name="uni04D9" unicode="&#x4d9;" horiz-adv-x="582" 
d="M280 510c76.667 0 138.668 -24.833 186.001 -74.5s71 -111.5 71 -185.5c0 -73.333 -24.333 -135 -73 -185s-110.667 -75 -186 -75c-67.333 0 -123.333 22.667 -168 68s-67 107 -67 185v19h422c0 52 -17.333 95.5 -52 130.5s-79 52.5 -133 52.5
c-40 0 -72.833 -7.83301 -98.5 -23.5s-47.834 -39.167 -66.501 -70.5l-57 37c47.333 81.333 121.333 122 222 122zM281.001 55c43.333 0 81.833 13.167 115.5 39.5s54.5 61.5 62.5 105.5h-343c5.33301 -44.667 23.333 -80 54 -106s67.667 -39 111 -39z" />
    <glyph glyph-name="uni04E2" unicode="&#x4e2;" horiz-adv-x="794" 
d="M166 0h-67v710h76v-581l453 581h67v-710h-76v581zM248 809v61h316v-61h-316z" />
    <glyph glyph-name="uni04E3" unicode="&#x4e3;" horiz-adv-x="604" 
d="M148 0h-62v500h70v-389l300 389h62v-500h-70v389zM151 649v61h316v-61h-316z" />
    <glyph glyph-name="uni04E8" unicode="&#x4e8;" horiz-adv-x="830" 
d="M415 60c82 0 150.833 28.333 206.5 85s83.5 126.667 83.5 210c0 82.667 -27.833 152.5 -83.5 209.5s-124.5 85.5 -206.5 85.5s-150.833 -28.5 -206.5 -85.5s-83.5 -126.833 -83.5 -209.5c0 -83.333 27.833 -153.333 83.5 -210s124.5 -85 206.5 -85zM415 -12
c-102.667 0 -189.5 35.333 -260.5 106s-106.5 157.667 -106.5 261s35.5 190.333 106.5 261s157.833 106 260.5 106s189.5 -35.333 260.5 -106s106.5 -157.667 106.5 -261s-35.5 -190.333 -106.5 -261s-157.833 -106 -260.5 -106zM88 392v-72h654v72h-654z" />
    <glyph glyph-name="uni04E9" unicode="&#x4e9;" horiz-adv-x="610" 
d="M305 -10c-75.333 0 -137.666 25.167 -186.999 75.5s-74 111.833 -74 184.5s24.667 134.167 74 184.5s111.666 75.5 186.999 75.5s137.666 -25.167 186.999 -75.5s74 -111.833 74 -184.5s-24.667 -134.167 -74 -184.5s-111.666 -75.5 -186.999 -75.5zM305 55
c56 0 101.5 18.833 136.5 56.5s52.5 83.834 52.5 138.501s-17.5 100.834 -52.5 138.501s-80.5 56.5 -136.5 56.5s-101.5 -18.833 -136.5 -56.5s-52.5 -83.834 -52.5 -138.501s17.5 -100.834 52.5 -138.501s80.5 -56.5 136.5 -56.5zM101 281v-62h409v62h-409z" />
    <glyph glyph-name="uni04EE" unicode="&#x4ee;" horiz-adv-x="689" 
d="M128 -4l14 67.999c18.667 -3.33301 37.334 -5 56.001 -5c42 0 76.333 25.667 103 77l17 32l-278 542h86l235 -461l248 461h81l-307 -575c-27.333 -51.333 -54.5 -88.666 -81.5 -111.999s-59.167 -35 -96.5 -35c-28.667 0 -54.334 2.66699 -77.001 8zM209 808.999v61h316
v-61h-316z" />
    <glyph glyph-name="uni04EF" unicode="&#x4ef;" horiz-adv-x="541" 
d="M533 500l-267.999 -576.999c-20 -44 -41.333 -75.333 -64 -94s-51.334 -28 -86.001 -28c-25.333 0 -46.666 2.66699 -63.999 8l12 62c16.667 -3.33301 32.667 -5 48 -5c18 0 33.667 5.66699 47 17s26.666 31.666 39.999 60.999l36 78l-224 478h78l183 -396l183 396h79z
M113.001 649.001v61h316v-61h-316z" />
    <glyph glyph-name="Wgrave" unicode="&#x1e80;" horiz-adv-x="993" 
d="M241 0l-222 710h80l178 -570l186 570h66l185 -570l179 570h81l-222 -710h-66l-190 580l-189 -580h-66zM525 768h-63l-112 137h95z" />
    <glyph glyph-name="wgrave" unicode="&#x1e81;" horiz-adv-x="751" 
d="M508 0l-133 381l-132 -381h-58l-171 500h72l129 -380l133 380h54l132 -380l130 380h73l-171 -500h-58zM406 578h-62l-121 152h93z" />
    <glyph glyph-name="Wacute" unicode="&#x1e82;" horiz-adv-x="993" 
d="M241 0l-222 710h80l178 -570l186 570h66l185 -570l179 570h81l-222 -710h-66l-190 580l-189 -580h-66zM468 768l80 137h95l-112 -137h-63z" />
    <glyph glyph-name="wacute" unicode="&#x1e83;" horiz-adv-x="751" 
d="M508 0l-133 381l-132 -381h-58l-171 500h72l129 -380l133 380h54l132 -380l130 380h73l-171 -500h-58zM344 578l90 152h93l-121 -152h-62z" />
    <glyph glyph-name="Wdieresis" unicode="&#x1e84;" horiz-adv-x="993" 
d="M241 0l-222 710h80l178 -570l186 570h66l185 -570l179 570h81l-222 -710h-66l-190 580l-189 -580h-66zM387 789c-15.333 0 -28.166 5.16699 -38.499 15.5s-15.5 22.833 -15.5 37.5s5.16699 27.167 15.5 37.5s23.166 15.5 38.499 15.5c14.667 0 27 -5.16699 37 -15.5
s15 -22.833 15 -37.5s-5 -27.167 -15 -37.5s-22.333 -15.5 -37 -15.5zM609 789c-15.333 0 -28.166 5.16699 -38.499 15.5s-15.5 22.833 -15.5 37.5s5.16699 27.167 15.5 37.5s23.166 15.5 38.499 15.5c14.667 0 27 -5.16699 37 -15.5s15 -22.833 15 -37.5
s-5 -27.167 -15 -37.5s-22.333 -15.5 -37 -15.5z" />
    <glyph glyph-name="wdieresis" unicode="&#x1e85;" horiz-adv-x="751" 
d="M508 0l-133 381l-132 -381h-58l-171 500h72l129 -380l133 380h54l132 -380l130 380h73l-171 -500h-58zM265 602c-15.333 0 -28.166 5.16699 -38.499 15.5s-15.5 22.833 -15.5 37.5s5.16699 27.167 15.5 37.5s23.166 15.5 38.499 15.5c14.667 0 27 -5.16699 37 -15.5
s15 -22.833 15 -37.5s-5 -27.167 -15 -37.5s-22.333 -15.5 -37 -15.5zM487 602c-15.333 0 -28.166 5.16699 -38.499 15.5s-15.5 22.833 -15.5 37.5s5.16699 27.167 15.5 37.5s23.166 15.5 38.499 15.5c14.667 0 27 -5.16699 37 -15.5s15 -22.833 15 -37.5
s-5 -27.167 -15 -37.5s-22.333 -15.5 -37 -15.5z" />
    <glyph glyph-name="uni1E9E" unicode="&#x1e9e;" horiz-adv-x="629" 
d="M99 0v710h427v-50l-144 -220c133.333 -16.667 200 -89 200 -217c0 -72 -23.167 -127.167 -69.5 -165.5s-107.833 -57.5 -184.5 -57.5h-34v72h44c51.333 0 92.333 13 123 39s46 63.333 46 112s-15.333 86 -46 112s-71.667 39 -123 39h-44v60l136 207h-255v-641h-76z" />
    <glyph glyph-name="uni1ECA" unicode="&#x1eca;" horiz-adv-x="274" 
d="M99 0v710h76v-710h-76zM137 -181c-15.333 0 -28.166 5.16699 -38.499 15.5s-15.5 22.833 -15.5 37.5s5.16699 27.167 15.5 37.5s23.166 15.5 38.499 15.5c14.667 0 27 -5.16699 37 -15.5s15 -22.833 15 -37.5s-5 -27.167 -15 -37.5s-22.333 -15.5 -37 -15.5z" />
    <glyph glyph-name="uni1ECB" unicode="&#x1ecb;" horiz-adv-x="242" 
d="M123 630c-15.333 0 -28.166 5.16699 -38.499 15.5s-15.5 22.833 -15.5 37.5s5.16699 27.167 15.5 37.5s23.166 15.5 38.499 15.5c14.667 0 27 -5.16699 37 -15.5s15 -22.833 15 -37.5s-5 -27.167 -15 -37.5s-22.333 -15.5 -37 -15.5zM86 0v500h70v-500h-70zM122 -181
c-15.333 0 -28.166 5.16699 -38.499 15.5s-15.5 22.833 -15.5 37.5s5.16699 27.167 15.5 37.5s23.166 15.5 38.499 15.5c14.667 0 27 -5.16699 37 -15.5s15 -22.833 15 -37.5s-5 -27.167 -15 -37.5s-22.333 -15.5 -37 -15.5z" />
    <glyph glyph-name="uni1ECC" unicode="&#x1ecc;" horiz-adv-x="830" 
d="M415 60c82 0 150.833 28.333 206.5 85s83.5 126.667 83.5 210c0 82.667 -27.833 152.5 -83.5 209.5s-124.5 85.5 -206.5 85.5s-150.833 -28.5 -206.5 -85.5s-83.5 -126.833 -83.5 -209.5c0 -83.333 27.833 -153.333 83.5 -210s124.5 -85 206.5 -85zM415 -12
c-102.667 0 -189.5 35.333 -260.5 106s-106.5 157.667 -106.5 261s35.5 190.333 106.5 261s157.833 106 260.5 106s189.5 -35.333 260.5 -106s106.5 -157.667 106.5 -261s-35.5 -190.333 -106.5 -261s-157.833 -106 -260.5 -106zM415 -181
c-15.333 0 -28.166 5.16699 -38.499 15.5s-15.5 22.833 -15.5 37.5s5.16699 27.167 15.5 37.5s23.166 15.5 38.499 15.5c14.667 0 27 -5.16699 37 -15.5s15 -22.833 15 -37.5s-5 -27.167 -15 -37.5s-22.333 -15.5 -37 -15.5z" />
    <glyph glyph-name="uni1ECD" unicode="&#x1ecd;" horiz-adv-x="610" 
d="M305 -10c-75.333 0 -137.666 25.167 -186.999 75.5s-74 111.833 -74 184.5s24.667 134.167 74 184.5s111.666 75.5 186.999 75.5s137.666 -25.167 186.999 -75.5s74 -111.833 74 -184.5s-24.667 -134.167 -74 -184.5s-111.666 -75.5 -186.999 -75.5zM305 55
c56 0 101.5 18.833 136.5 56.5s52.5 83.834 52.5 138.501s-17.5 100.834 -52.5 138.501s-80.5 56.5 -136.5 56.5s-101.5 -18.833 -136.5 -56.5s-52.5 -83.834 -52.5 -138.501s17.5 -100.834 52.5 -138.501s80.5 -56.5 136.5 -56.5zM305 -181
c-15.333 0 -28.166 5.16699 -38.499 15.5s-15.5 22.833 -15.5 37.5s5.16699 27.167 15.5 37.5s23.166 15.5 38.499 15.5c14.667 0 27 -5.16699 37 -15.5s15 -22.833 15 -37.5s-5 -27.167 -15 -37.5s-22.333 -15.5 -37 -15.5z" />
    <glyph glyph-name="uni1EE4" unicode="&#x1ee4;" horiz-adv-x="728" 
d="M364 -12c-82 0 -148.169 25.833 -198.502 77.5s-75.5 121.5 -75.5 209.5v435h76v-437c0 -67.333 17.833 -119.666 53.5 -156.999s83.834 -56 144.501 -56s108.834 18.667 144.501 56s53.5 89.666 53.5 156.999v437h76v-435c0 -88 -25.167 -157.833 -75.5 -209.5
s-116.5 -77.5 -198.5 -77.5zM363.998 -181c-15.333 0 -28.166 5.16699 -38.499 15.5s-15.5 22.833 -15.5 37.5s5.16699 27.167 15.5 37.5s23.166 15.5 38.499 15.5c14.667 0 27 -5.16699 37 -15.5s15 -22.833 15 -37.5s-5 -27.167 -15 -37.5s-22.333 -15.5 -37 -15.5z" />
    <glyph glyph-name="uni1EE5" unicode="&#x1ee5;" horiz-adv-x="576" 
d="M490 500l-0.00195312 -500h-70v70c-17.333 -26.667 -40.166 -46.667 -68.499 -60s-58.5 -20 -90.5 -20c-53.333 0 -97.166 17.833 -131.499 53.5s-51.5 83.5 -51.5 143.5v313h70v-303c0 -45.333 11.667 -80.333 35 -105s54.666 -37 93.999 -37
c35.333 0 65.333 10.167 90 30.5s42.334 47.5 53.001 81.5v333h70zM282.998 -181c-15.333 0 -28.166 5.16699 -38.499 15.5s-15.5 22.833 -15.5 37.5s5.16699 27.167 15.5 37.5s23.166 15.5 38.499 15.5c14.667 0 27 -5.16699 37 -15.5s15 -22.833 15 -37.5
s-5 -27.167 -15 -37.5s-22.333 -15.5 -37 -15.5z" />
    <glyph glyph-name="Ygrave" unicode="&#x1ef2;" horiz-adv-x="669" 
d="M297 0v301l-280 409h92l226 -331l226 331h92l-281 -410v-300h-75zM362 768h-63l-112 137h95z" />
    <glyph glyph-name="ygrave" unicode="&#x1ef3;" horiz-adv-x="540" 
d="M208 -194h-79l103 219l-222 475h78l183 -397l183 397h79zM302 578h-62l-121 152h93z" />
    <glyph glyph-name="uni2007" unicode="&#x2007;" horiz-adv-x="590" 
 />
    <glyph glyph-name="uni2008" unicode="&#x2008;" horiz-adv-x="244" 
 />
    <glyph glyph-name="uni2009" unicode="&#x2009;" horiz-adv-x="125" 
 />
    <glyph glyph-name="uni200B" unicode="&#x200b;" 
 />
    <glyph glyph-name="endash" unicode="&#x2013;" horiz-adv-x="558" 
d="M68 244v72h422v-72h-422z" />
    <glyph glyph-name="emdash" unicode="&#x2014;" horiz-adv-x="558" 
d="M68 244v72h422v-72h-422z" />
    <glyph glyph-name="quoteleft" unicode="&#x2018;" horiz-adv-x="239" 
d="M168 710l-47 -150h51v-110h-110v111l59 149h47z" />
    <glyph glyph-name="quoteright" unicode="&#x2019;" horiz-adv-x="228" 
d="M70 450l47 150h-51v110h110v-111l-59 -149h-47z" />
    <glyph glyph-name="quotesinglbase" unicode="&#x201a;" horiz-adv-x="249" 
d="M73 -150l47 150h-51v110h110v-111l-59 -149h-47z" />
    <glyph glyph-name="quotedblleft" unicode="&#x201c;" horiz-adv-x="411" 
d="M168 710l-47 -150h51v-110h-110v111l59 149h47zM340 710l-47 -150h51v-110h-110v111l59 149h47z" />
    <glyph glyph-name="quotedblright" unicode="&#x201d;" horiz-adv-x="400" 
d="M70 450l47 150h-51v110h110v-111l-59 -149h-47zM242 450l47 150h-51v110h110v-111l-59 -149h-47z" />
    <glyph glyph-name="quotedblbase" unicode="&#x201e;" horiz-adv-x="421" 
d="M73 -150l47 150h-51v110h110v-111l-59 -149h-47zM245 -150l47 150h-51v110h110v-111l-59 -149h-47z" />
    <glyph glyph-name="dagger" unicode="&#x2020;" horiz-adv-x="503" 
d="M218 -98v533h-188v65h188v210h67v-210h188v-65h-188v-533h-67z" />
    <glyph glyph-name="daggerdbl" unicode="&#x2021;" horiz-adv-x="537" 
d="M490 112h-188v-210h-67v210h-188v65h188v258h-188v65h188v210h67v-210h188v-65h-188v-258h188v-65z" />
    <glyph glyph-name="bullet" unicode="&#x2022;" horiz-adv-x="425" 
d="M212 166c-37.333 0 -69.333 13.167 -96 39.5s-40 58.5 -40 96.5s13.333 70.167 40 96.5s58.667 39.5 96 39.5c38 0 70.333 -13.167 97 -39.5s40 -58.5 40 -96.5s-13.333 -70.167 -40 -96.5s-59 -39.5 -97 -39.5z" />
    <glyph glyph-name="ellipsis" unicode="&#x2026;" horiz-adv-x="704" 
d="M170 0h-110v110h110v-110zM400 0h-110v110h110v-110zM630 0h-110v110h110v-110z" />
    <glyph glyph-name="perthousand" unicode="&#x2030;" horiz-adv-x="1418" 
d="M1188 -8c-54.667 0 -101.167 19.333 -139.5 58s-57.5 85 -57.5 139c0 54.667 19.167 101.167 57.5 139.5s84.833 57.5 139.5 57.5c54 0 100.333 -19.167 139 -57.5s58 -84.833 58 -139.5c0 -54 -19.333 -100.333 -58 -139s-85 -58 -139 -58zM1188 58
c36 0 66.667 12.833 92 38.5s38 56.5 38 92.5s-12.667 66.833 -38 92.5s-56 38.5 -92 38.5s-66.667 -12.833 -92 -38.5s-38 -56.5 -38 -92.5s12.667 -66.833 38 -92.5s56 -38.5 92 -38.5zM311 0h-78l450 710h78zM764 -8c-54.667 0 -101.167 19.333 -139.5 58
s-57.5 85 -57.5 139c0 54.667 19.167 101.167 57.5 139.5s84.833 57.5 139.5 57.5c54 0 100.333 -19.167 139 -57.5s58 -84.833 58 -139.5c0 -54 -19.333 -100.333 -58 -139s-85 -58 -139 -58zM764 58c36 0 66.667 12.833 92 38.5s38 56.5 38 92.5s-12.667 66.833 -38 92.5
s-56 38.5 -92 38.5s-66.667 -12.833 -92 -38.5s-38 -56.5 -38 -92.5s12.667 -66.833 38 -92.5s56 -38.5 92 -38.5zM230 324c-54.667 0 -101.167 19.333 -139.5 58s-57.5 85 -57.5 139c0 54.667 19.167 101.167 57.5 139.5s84.833 57.5 139.5 57.5
c54 0 100.333 -19.167 139 -57.5s58 -84.833 58 -139.5c0 -54 -19.333 -100.333 -58 -139s-85 -58 -139 -58zM230 390c36 0 66.667 12.833 92 38.5s38 56.5 38 92.5s-12.667 66.833 -38 92.5s-56 38.5 -92 38.5s-66.667 -12.833 -92 -38.5s-38 -56.5 -38 -92.5
s12.667 -66.833 38 -92.5s56 -38.5 92 -38.5z" />
    <glyph glyph-name="guilsinglleft" unicode="&#x2039;" horiz-adv-x="301" 
d="M127 250l119 -202l-49 -32l-152 234l152 234l49 -32z" />
    <glyph glyph-name="guilsinglright" unicode="&#x203a;" horiz-adv-x="301" 
d="M55 48l119 202l-119 202l49 32l152 -234l-152 -234z" />
    <glyph glyph-name="fraction" unicode="&#x2044;" horiz-adv-x="180" 
d="M-125 0h-69l500 710h69z" />
    <glyph glyph-name="uni2060" unicode="&#x2060;" horiz-adv-x="258" 
 />
    <glyph glyph-name="uni2070" unicode="&#x2070;" horiz-adv-x="390" 
d="M196 404c-45.333 0 -82.666 15.333 -111.999 46s-44 70 -44 118v116c0 48.667 14.667 88.334 44 119.001s66.666 46 111.999 46s82.5 -15.333 111.5 -46s43.5 -70.334 43.5 -119.001v-116c0 -48 -14.5 -87.333 -43.5 -118s-66.167 -46 -111.5 -46zM196 463
c28 0 50.667 9.5 68 28.5s26 44.5 26 76.5v116c0 32.667 -8.66699 58.334 -26 77.001s-40 28 -68 28c-28.667 0 -51.667 -9.33301 -69 -28s-26 -44.334 -26 -77.001v-116c0 -32 8.66699 -57.5 26 -76.5s40.333 -28.5 69 -28.5z" />
    <glyph glyph-name="uni2074" unicode="&#x2074;" horiz-adv-x="389" 
d="M245 410v112h-225v49l232 271h54v-263h59v-57h-59v-112h-61zM97 579h148v171z" />
    <glyph glyph-name="uni2075" unicode="&#x2075;" horiz-adv-x="357" 
d="M184 404c-35.333 0 -67.833 9.83105 -97.5 29.498s-48.5 45.5 -56.5 77.5l61 22c6 -20.667 17.167 -37.5 33.5 -50.5s36.166 -19.5 59.499 -19.5c24 0 43.833 8.33301 59.5 25s23.5 37 23.5 61s-8 44.167 -24 60.5s-36 24.5 -60 24.5c-32.667 0 -56.667 -12 -72 -36h-61
v244h250v-60h-189v-116c19.333 17.333 46 26 80 26c40.667 0 73.834 -14.167 99.501 -42.5s38.5 -64.166 38.5 -107.499c0 -39.333 -13.667 -72.166 -41 -98.499s-62 -39.5 -104 -39.5z" />
    <glyph glyph-name="uni2076" unicode="&#x2076;" horiz-adv-x="344" 
d="M170 404c-42.667 0 -78 13.832 -106 41.499s-42 61.834 -42 102.501c0 33.333 16.333 70.333 49 111l149 183h77l-126 -155c2 0.666992 5.66699 1 11 1c36 0 67.5 -13.667 94.5 -41s40.5 -60 40.5 -98c0 -40.667 -14 -75 -42 -103s-63 -42 -105 -42zM170 462.999
c24 0 44.167 8.16699 60.5 24.5s24.5 36.5 24.5 60.5s-8.16699 44.333 -24.5 61s-36.5 25 -60.5 25c-24.667 0 -45.167 -8.33301 -61.5 -25s-24.5 -37 -24.5 -61s8.33301 -44.167 25 -60.5s37 -24.5 61 -24.5z" />
    <glyph glyph-name="uni2077" unicode="&#x2077;" horiz-adv-x="330" 
d="M111 410h-68l200 372h-216v60h288v-52z" />
    <glyph glyph-name="uni2078" unicode="&#x2078;" horiz-adv-x="360" 
d="M180 404c-42.667 0 -77.833 12.667 -105.5 38s-41.5 58 -41.5 98c0 51.333 21.333 88.333 64 111c-28 20 -42 48.333 -42 85c0 32.667 11.833 59.667 35.5 81s53.5 32 89.5 32c37.333 0 67.5 -10.5 90.5 -31.5s34.5 -48.167 34.5 -81.5c0 -36.667 -14 -65 -42 -85
c42.667 -22 64 -59 64 -111c0 -40 -13.5 -72.667 -40.5 -98s-62.5 -38 -106.5 -38zM180.001 461c26.667 0 47.5 7.66699 62.5 23s22.5 34.333 22.5 57s-7.5 41.667 -22.5 57s-35.5 23 -61.5 23s-46.833 -7.66699 -62.5 -23s-23.5 -34.333 -23.5 -57
s7.83301 -41.667 23.5 -57s36.167 -23 61.5 -23zM180.001 673c20 0 36 5.83301 48 17.5s18 25.834 18 42.501c0 17.333 -6 31.666 -18 42.999s-28 17 -48 17c-19.333 0 -35 -5.66699 -47 -17s-18 -25.666 -18 -42.999c0 -16.667 6 -30.834 18 -42.501s27.667 -17.5 47 -17.5
z" />
    <glyph glyph-name="uni2079" unicode="&#x2079;" horiz-adv-x="344" 
d="M46 410l126 154.999h-10c-36 0 -67.5 13.5 -94.5 40.5s-40.5 59.833 -40.5 98.5c0 40.667 14 75 42 103s63 42 105 42c42.667 0 78 -14 106 -42s42 -62 42 -102c0 -35.333 -16.333 -72.666 -49 -111.999l-150 -183h-77zM174 617.999c24 0 44.333 8.33301 61 25
s25 37 25 61s-8.16699 44.333 -24.5 61s-36.833 25 -61.5 25c-24 0 -44.167 -8.33301 -60.5 -25s-24.5 -37 -24.5 -61s8.16699 -44.333 24.5 -61s36.5 -25 60.5 -25z" />
    <glyph glyph-name="uni2080" unicode="&#x2080;" horiz-adv-x="390" 
d="M196 -120c-45.333 0 -82.666 15.333 -111.999 46s-44 70 -44 118v116c0 48.667 14.667 88.334 44 119.001s66.666 46 111.999 46s82.5 -15.333 111.5 -46s43.5 -70.334 43.5 -119.001v-116c0 -48 -14.5 -87.333 -43.5 -118s-66.167 -46 -111.5 -46zM196 -61
c28 0 50.667 9.5 68 28.5s26 44.5 26 76.5v116c0 32.667 -8.66699 58.334 -26 77.001s-40 28 -68 28c-28.667 0 -51.667 -9.33301 -69 -28s-26 -44.334 -26 -77.001v-116c0 -32 8.66699 -57.5 26 -76.5s40.333 -28.5 69 -28.5z" />
    <glyph glyph-name="uni2081" unicode="&#x2081;" horiz-adv-x="205" 
d="M82 -114v375h-62v57h120v-432h-58z" />
    <glyph glyph-name="uni2082" unicode="&#x2082;" horiz-adv-x="350" 
d="M31 -114v52l167 162c34 31.333 51 62 51 92c0 20.667 -7 38 -21 52s-31.667 21 -53 21c-20.667 0 -38.5 -6.66699 -53.5 -20s-24.167 -30.333 -27.5 -51l-60 13c6 35.333 22.167 63.833 48.5 85.5s57.833 32.5 94.5 32.5c38.667 0 70.667 -11.833 96 -35.5
s38 -55.167 38 -94.5c0 -45.333 -24.667 -92 -74 -140l-113 -110h192v-59h-285z" />
    <glyph glyph-name="uni2083" unicode="&#x2083;" horiz-adv-x="355" 
d="M175 -121c-35.333 0 -67.667 10.001 -97 30.001s-48 45.667 -56 77l60 22c5.33301 -20.667 16.5 -37.334 33.5 -50.001s37.167 -19 60.5 -19c24.667 0 45.167 7.33301 61.5 22s24.5 33.667 24.5 57c0 24.667 -8.16699 44.167 -24.5 58.5s-37.833 21.5 -64.5 21.5h-52v50
l101 110h-174v60h255v-50l-106 -115c38.667 -2.66699 69.5 -16.667 92.5 -42s34.5 -56.333 34.5 -93c0 -40 -13.833 -73.167 -41.5 -99.5s-63.5 -39.5 -107.5 -39.5z" />
    <glyph glyph-name="uni2084" unicode="&#x2084;" horiz-adv-x="389" 
d="M245 -114v112h-225v49l232 271h54v-263h59v-57h-59v-112h-61zM97 55h148v171z" />
    <glyph glyph-name="uni2085" unicode="&#x2085;" horiz-adv-x="357" 
d="M184 -120c-35.333 0 -67.833 9.83105 -97.5 29.498s-48.5 45.5 -56.5 77.5l61 22c6 -20.667 17.167 -37.5 33.5 -50.5s36.166 -19.5 59.499 -19.5c24 0 43.833 8.33301 59.5 25s23.5 37 23.5 61s-8 44.167 -24 60.5s-36 24.5 -60 24.5c-32.667 0 -56.667 -12 -72 -36h-61
v244h250v-60h-189v-116c19.333 17.333 46 26 80 26c40.667 0 73.834 -14.167 99.501 -42.5s38.5 -64.166 38.5 -107.499c0 -39.333 -13.667 -72.166 -41 -98.499s-62 -39.5 -104 -39.5z" />
    <glyph glyph-name="uni2086" unicode="&#x2086;" horiz-adv-x="344" 
d="M170 -120c-42.667 0 -78 13.832 -106 41.499s-42 61.834 -42 102.501c0 33.333 16.333 70.333 49 111l149 183h77l-126 -155c2 0.666992 5.66699 1 11 1c36 0 67.5 -13.667 94.5 -41s40.5 -60 40.5 -98c0 -40.667 -14 -75 -42 -103s-63 -42 -105 -42zM170 -61.001
c24 0 44.167 8.16699 60.5 24.5s24.5 36.5 24.5 60.5s-8.16699 44.333 -24.5 61s-36.5 25 -60.5 25c-24.667 0 -45.167 -8.33301 -61.5 -25s-24.5 -37 -24.5 -61s8.33301 -44.167 25 -60.5s37 -24.5 61 -24.5z" />
    <glyph glyph-name="uni2087" unicode="&#x2087;" horiz-adv-x="330" 
d="M111 -114h-68l200 372h-216v60h288v-52z" />
    <glyph glyph-name="uni2088" unicode="&#x2088;" horiz-adv-x="360" 
d="M180 -120c-42.667 0 -77.833 12.667 -105.5 38s-41.5 58 -41.5 98c0 51.333 21.333 88.333 64 111c-28 20 -42 48.333 -42 85c0 32.667 11.833 59.667 35.5 81s53.5 32 89.5 32c37.333 0 67.5 -10.5 90.5 -31.5s34.5 -48.167 34.5 -81.5c0 -36.667 -14 -65 -42 -85
c42.667 -22 64 -59 64 -111c0 -40 -13.5 -72.667 -40.5 -98s-62.5 -38 -106.5 -38zM180.001 -63c26.667 0 47.5 7.66699 62.5 23s22.5 34.333 22.5 57s-7.5 41.667 -22.5 57s-35.5 23 -61.5 23s-46.833 -7.66699 -62.5 -23s-23.5 -34.333 -23.5 -57
s7.83301 -41.667 23.5 -57s36.167 -23 61.5 -23zM180.001 149c20 0 36 5.83301 48 17.5s18 25.834 18 42.501c0 17.333 -6 31.666 -18 42.999s-28 17 -48 17c-19.333 0 -35 -5.66699 -47 -17s-18 -25.666 -18 -42.999c0 -16.667 6 -30.834 18 -42.501s27.667 -17.5 47 -17.5
z" />
    <glyph glyph-name="uni2089" unicode="&#x2089;" horiz-adv-x="344" 
d="M46 -114l126 154.999h-10c-36 0 -67.5 13.5 -94.5 40.5s-40.5 59.833 -40.5 98.5c0 40.667 14 75 42 103s63 42 105 42c42.667 0 78 -14 106 -42s42 -62 42 -102c0 -35.333 -16.333 -72.666 -49 -111.999l-150 -183h-77zM174 93.999c24 0 44.333 8.33301 61 25
s25 37 25 61s-8.16699 44.333 -24.5 61s-36.833 25 -61.5 25c-24 0 -44.167 -8.33301 -60.5 -25s-24.5 -37 -24.5 -61s8.16699 -44.333 24.5 -61s36.5 -25 60.5 -25z" />
    <glyph glyph-name="Euro" unicode="&#x20ac;" horiz-adv-x="786" 
d="M159 408l-123.998 -0.000976562l27 54h108c20.667 76.667 63 139.167 127 187.5s136 72.5 216 72.5c86.667 0 164.334 -27.333 233.001 -82l-45 -53c-48 44.667 -110.667 67 -188 67c-62 0 -117.5 -17.5 -166.5 -52.5s-83.5 -81.5 -103.5 -139.5h381l-27 -54h-367
c-2.66699 -15.333 -4 -33 -4 -53c0 -17.333 1 -34 3 -50h316l-25 -54h-278c20 -59.333 54.333 -106.666 103 -141.999s104.667 -53 168 -53c77.333 0 140 22.333 188 67l45 -53c-64.667 -54.667 -142.334 -82 -233.001 -82c-80.667 0 -152.834 24.333 -216.501 73
s-105.834 112 -126.501 190h-135l27 54h97c-2 16 -3 32.667 -3 50c0 18 1 35.667 3 53z" />
    </font>
</defs>
</svg>
