<svg width="58" height="54" viewBox="0 0 58 54" fill="none" xmlns="http://www.w3.org/2000/svg">
<g clip-path="url(#clip0_130_401)">
<path d="M0.940257 23.2762H6.12926C6.43634 24.3772 6.87877 25.437 7.44646 26.4304L3.77365 30.0854C3.5989 30.2593 3.49991 30.4956 3.49991 30.744C3.49991 30.9913 3.5989 31.2276 3.77365 31.4025L7.74242 35.3531C8.10708 35.7161 8.69901 35.7161 9.06467 35.3531L12.7375 31.6962C13.7355 32.2622 14.7991 32.7026 15.9052 33.0073V38.1725C15.9052 38.6873 16.3244 39.1036 16.8406 39.1036H22.4528C22.97 39.1036 23.3882 38.6873 23.3882 38.1725V33.0073C24.4953 32.7026 25.559 32.2622 26.556 31.6962L30.2298 35.3531C30.6005 35.702 31.1813 35.702 31.552 35.3531L35.5208 31.4025C35.6956 31.2276 35.7945 30.9913 35.7945 30.744C35.7945 30.4956 35.6956 30.2593 35.5208 30.0854L31.847 26.4304C32.4157 25.437 32.8581 24.3772 33.1652 23.2762H38.3542C38.8704 23.2762 39.2886 22.8589 39.2886 22.3451V16.7585C39.2886 16.2447 38.8704 15.8275 38.3542 15.8275H33.1652C32.8581 14.7264 32.4157 13.6667 31.847 12.6732L35.5198 9.01927C35.6956 8.84432 35.7935 8.60802 35.7935 8.36067C35.7935 8.11332 35.6956 7.87603 35.5198 7.70208L31.552 3.75049C31.1864 3.38751 30.5944 3.38751 30.2298 3.75049L26.556 7.40747C25.559 6.84238 24.4943 6.40197 23.3882 6.0963V0.931086C23.3882 0.41728 22.97 0 22.4528 0H16.8406C16.3244 0 15.9052 0.41728 15.9052 0.931086V6.0963C14.7991 6.40197 13.7355 6.84238 12.7375 7.40747L9.06467 3.75049C8.69295 3.40158 8.11314 3.40158 7.74242 3.75049L3.77365 7.70208C3.59789 7.87603 3.49991 8.11332 3.49991 8.36067C3.49991 8.60802 3.59789 8.84432 3.77365 9.01927L7.44646 12.6732C6.87877 13.6667 6.43634 14.7264 6.12926 15.8275H0.940257C0.424084 15.8275 0.00488281 16.2447 0.00488281 16.7585V22.3451C0.00488281 22.8589 0.424084 23.2762 0.940257 23.2762ZM1.87563 17.6896H6.8616C7.29999 17.6896 7.68081 17.385 7.77475 16.9576C8.08182 15.564 8.63739 14.2348 9.41317 13.0342C9.65055 12.6662 9.59802 12.1836 9.2869 11.8739L5.75753 8.35967L8.40304 5.72628L11.9324 9.23947C12.2435 9.54917 12.7294 9.60145 13.0991 9.36617C14.3062 8.59294 15.6406 8.03992 17.0416 7.73425C17.4699 7.64074 17.776 7.26167 17.776 6.82428V1.86217H21.5175V6.82428C21.5175 7.26167 21.8235 7.64074 22.2528 7.73425C23.6539 8.03992 24.9882 8.59294 26.1943 9.36617C26.5651 9.60145 27.0509 9.54917 27.362 9.23947L30.8904 5.72628L33.5359 8.35967L30.0065 11.8729C29.6954 12.1826 29.6429 12.6662 29.8803 13.0342C30.6571 14.2358 31.2116 15.564 31.5177 16.9586C31.6126 17.386 31.9924 17.6906 32.4318 17.6906H37.4178V21.415H32.4318C31.9924 21.415 31.6126 21.7197 31.5177 22.147C31.2116 23.5406 30.6571 24.8699 29.8803 26.0694C29.6439 26.4374 29.6954 26.9211 30.0065 27.2308L33.5369 30.7429L30.8904 33.3783L27.362 29.8641C27.0509 29.5545 26.5651 29.5022 26.1943 29.7385C24.9893 30.5117 23.6549 31.0637 22.2538 31.3694C21.8235 31.4629 21.5175 31.8419 21.5175 32.2793V37.2414H17.776V32.2793C17.776 31.8419 17.4699 31.4629 17.0406 31.3694C15.6396 31.0637 14.3052 30.5117 13.0991 29.7385C12.7294 29.5022 12.2435 29.5545 11.9324 29.8641L8.40304 33.3783L5.75753 30.744L9.2869 27.2308C9.59903 26.9211 9.65055 26.4374 9.41317 26.0694C8.63739 24.8689 8.08182 23.5396 7.77475 22.145C7.68081 21.7176 7.29999 21.414 6.8616 21.414H1.87563V17.6896Z" fill="#DAB860"/>
<path d="M19.647 27.0004C23.7804 27.0004 27.13 23.6662 27.13 19.5517C27.13 15.4382 23.7804 12.103 19.647 12.103C15.5146 12.103 12.165 15.4382 12.165 19.5517C12.1691 23.6632 15.5166 26.9954 19.647 27.0004ZM19.647 13.9652C22.7461 13.9652 25.2593 16.4669 25.2593 19.5517C25.2593 22.6366 22.7461 25.1382 19.647 25.1382C16.548 25.1382 14.0348 22.6366 14.0348 19.5517C14.0388 16.4679 16.549 13.9682 19.647 13.9652Z" fill="#DAB860"/>
<path d="M19.6465 29.7929C25.3284 29.7929 29.9356 25.2089 29.9356 19.552C29.9356 13.8961 25.3284 9.31104 19.6465 9.31104C13.9646 9.31104 9.3584 13.8961 9.3584 19.552C9.36547 25.2059 13.9666 29.7869 19.6465 29.7929ZM19.6465 11.1722C24.2961 11.1722 28.0649 14.9237 28.0649 19.552C28.0649 24.1803 24.2961 27.9318 19.6465 27.9318C14.9979 27.9318 11.2291 24.1803 11.2291 19.552C11.2342 14.9267 14.9999 11.1772 19.6465 11.1722Z" fill="#DAB860"/>
<path d="M53.3192 42.8279V35.3792C53.3192 34.8654 52.9 34.4481 52.3838 34.4481H50.513V27.0004C50.513 26.4866 50.0938 26.0693 49.5777 26.0693H41.1593C40.6431 26.0693 40.2239 26.4866 40.2239 27.0004V34.4481H35.5471C35.0309 34.4481 34.6127 34.8654 34.6127 35.3792V42.8279H4.68175C2.09988 42.8309 0.00791318 44.9133 0.00488281 47.4833V49.3445C0.00791318 51.9155 2.09988 53.9969 4.68175 53.9999H53.3192C55.9 53.9969 57.992 51.9155 57.995 49.3445V47.4833C57.992 44.9133 55.9 42.8309 53.3192 42.8279ZM51.4484 42.8279H44.9008V36.3103H51.4484V42.8279ZM42.0947 27.9315H48.6423V34.4481H42.0947V27.9315ZM36.4824 36.3103H43.0301V42.8279H36.4824V36.3103ZM56.1253 49.3445C56.1253 50.8879 54.8687 52.1378 53.3192 52.1378H4.68175C3.13222 52.1378 1.87563 50.8879 1.87563 49.3445V47.4833C1.87563 45.9409 3.13222 44.6901 4.68175 44.6901H53.3192C54.8687 44.6901 56.1253 45.9409 56.1253 47.4833V49.3445Z" fill="#DAB860"/>
<path d="M29.0005 45.6211C27.4509 45.6211 26.1943 46.8719 26.1943 48.4144C26.1943 49.9568 27.4509 51.2076 29.0005 51.2076C30.55 51.2076 31.8066 49.9568 31.8066 48.4144C31.8066 46.8719 30.55 45.6211 29.0005 45.6211ZM29.0005 49.3444C28.4833 49.3444 28.0651 48.9282 28.0651 48.4144C28.0651 47.8995 28.4833 47.4833 29.0005 47.4833C29.5166 47.4833 29.9358 47.8995 29.9358 48.4144C29.9358 48.9282 29.5166 49.3444 29.0005 49.3444Z" fill="#DAB860"/>
<path d="M19.6469 45.6211C18.0974 45.6211 16.8408 46.8719 16.8408 48.4144C16.8408 49.9568 18.0974 51.2076 19.6469 51.2076C21.1965 51.2076 22.4531 49.9568 22.4531 48.4144C22.4531 46.8719 21.1965 45.6211 19.6469 45.6211ZM19.6469 49.3444C19.1308 49.3444 18.7116 48.9282 18.7116 48.4144C18.7116 47.8995 19.1308 47.4833 19.6469 47.4833C20.1641 47.4833 20.5823 47.8995 20.5823 48.4144C20.5823 48.9282 20.1641 49.3444 19.6469 49.3444Z" fill="#DAB860"/>
<path d="M38.354 45.6211C36.8045 45.6211 35.5469 46.8719 35.5469 48.4144C35.5469 49.9568 36.8045 51.2076 38.354 51.2076C39.9025 51.2076 41.1591 49.9568 41.1591 48.4144C41.1591 46.8719 39.9025 45.6211 38.354 45.6211ZM38.354 49.3444C37.8368 49.3444 37.4176 48.9282 37.4176 48.4144C37.4176 47.8995 37.8368 47.4833 38.354 47.4833C38.8702 47.4833 39.2884 47.8995 39.2884 48.4144C39.2884 48.9282 38.8702 49.3444 38.354 49.3444Z" fill="#DAB860"/>
<path d="M10.2944 45.6211C8.74487 45.6211 7.48828 46.8719 7.48828 48.4144C7.48828 49.9568 8.74487 51.2076 10.2944 51.2076C11.8439 51.2076 13.0995 49.9568 13.0995 48.4144C13.0995 46.8719 11.8439 45.6211 10.2944 45.6211ZM10.2944 49.3444C9.77722 49.3444 9.35903 48.9282 9.35903 48.4144C9.35903 47.8995 9.77722 47.4833 10.2944 47.4833C10.8106 47.4833 11.2298 47.8995 11.2298 48.4144C11.2298 48.9282 10.8106 49.3444 10.2944 49.3444Z" fill="#DAB860"/>
<path d="M47.7065 45.6211C46.157 45.6211 44.9004 46.8719 44.9004 48.4144C44.9004 49.9568 46.157 51.2076 47.7065 51.2076C49.256 51.2076 50.5126 49.9568 50.5126 48.4144C50.5126 46.8719 49.256 45.6211 47.7065 45.6211ZM47.7065 49.3444C47.1893 49.3444 46.7711 48.9282 46.7711 48.4144C46.7711 47.8995 47.1893 47.4833 47.7065 47.4833C48.2227 47.4833 48.6419 47.8995 48.6419 48.4144C48.6419 48.9282 48.2227 49.3444 47.7065 49.3444Z" fill="#DAB860"/>
</g>
<defs>
<clipPath id="clip0_130_401">
<rect width="58" height="54" fill="white"/>
</clipPath>
</defs>
</svg>
