<svg width="77" height="49" viewBox="0 0 77 49" fill="none" xmlns="http://www.w3.org/2000/svg">
<g clip-path="url(#clip0_130_413)">
<path d="M54.003 38.7858C54.003 38.5487 54.003 38.3575 54.003 38.1663C54.0031 35.4068 54.0006 32.6472 54.0046 29.8877C54.006 28.9757 54.4904 28.4449 55.2777 28.4689C55.8513 28.4863 56.3141 28.8979 56.3923 29.4751C56.4181 29.666 56.4176 29.8613 56.4177 30.0546C56.4192 32.7496 56.414 35.4445 56.4273 38.1395C56.4284 38.3618 56.4917 38.7179 56.6291 38.7793C57.0027 38.9462 57.0806 38.5806 57.1967 38.3158C59.446 33.1827 65.9268 32.0027 69.7672 36.0664C70.404 36.7401 70.8258 37.6274 71.2976 38.4447C71.4485 38.7061 71.5745 38.8243 71.8747 38.8185C72.7553 38.8015 73.6365 38.8125 74.5581 38.8125C74.5581 37.0233 74.5581 35.2787 74.5581 33.5114C73.9204 33.479 73.2953 33.4829 72.6794 33.4091C70.9522 33.2021 69.5576 31.6995 69.4761 29.9445C69.4328 29.0105 69.4505 28.0728 69.4634 27.1372C69.4742 26.344 69.9447 25.8748 70.7338 25.8667C71.9211 25.8547 73.1086 25.8636 74.355 25.8636C74.3186 25.7137 74.3102 25.5913 74.2609 25.4889C73.5482 24.0085 72.3884 23.149 70.737 23.1393C66.0948 23.112 61.4525 23.1286 56.8102 23.1294C56.7005 23.1294 56.5908 23.1468 56.4184 23.1615C56.4184 23.5409 56.4214 23.9079 56.4178 24.2748C56.4091 25.1907 55.9735 25.6958 55.204 25.6873C54.4494 25.6789 54.0046 25.1525 54.0043 24.2447C54.0024 17.1926 54.0032 10.1404 54.0031 3.08829C54.0031 2.88399 54.0031 2.6796 54.0031 2.41457C53.7683 2.41457 53.5965 2.41457 53.4248 2.41457C38.3253 2.41457 23.226 2.41729 8.1265 2.40283C7.62546 2.40235 7.5166 2.54679 7.51766 3.02718C7.53262 10.1277 7.52847 17.2283 7.52683 24.3288C7.52664 25.1942 7.06796 25.6993 6.31119 25.6854C5.7287 25.6748 5.26404 25.292 5.15181 24.7177C5.12421 24.5765 5.12199 24.4289 5.12199 24.2841C5.12073 17.0706 5.12102 9.85712 5.12122 2.64361C5.12122 1.56585 5.54959 0.7179 6.53382 0.254396C6.90931 0.0775506 7.36818 0.0104211 7.78913 0.00993602C18.0857 -0.00296604 28.3822 -0.00024982 38.6787 -0.00024982C43.7387 -0.00024982 48.7986 -0.000637852 53.8585 0.000138212C55.2876 0.000332228 56.3062 0.922781 56.4033 2.3521C56.4524 3.0751 56.4241 3.80353 56.4301 4.52944C56.4316 4.71977 56.4303 4.9101 56.4303 5.15495C56.6749 5.15495 56.8635 5.15495 57.0521 5.15495C59.8149 5.15495 62.5778 5.15214 65.3407 5.15582C68.374 5.1599 70.5641 7.35703 70.575 10.4006C70.5762 10.7394 70.5669 11.0785 70.5768 11.4172C70.5931 11.9694 70.3767 12.3731 69.8934 12.6554C69.7876 12.7172 69.6846 12.9385 69.7126 13.0541C70.311 15.528 70.9227 17.9988 71.5554 20.464C71.5938 20.6131 71.8124 20.7857 71.9748 20.8219C74.9415 21.484 77.0013 24.0415 77.0002 27.0839C76.9988 31.3281 77 35.5723 76.9997 39.8165C76.9996 40.7806 76.5507 41.2354 75.5876 41.2382C74.369 41.2418 73.1504 41.2391 71.884 41.2391C71.8116 43.8179 70.8166 45.9158 68.7827 47.4698C67.2758 48.6212 65.5526 49.1109 63.6765 48.9783C59.8999 48.7114 56.6413 45.6064 56.5524 41.2784C47.5222 41.2784 38.4912 41.2784 29.425 41.2784C29.3552 43.7249 28.4372 45.7618 26.5387 47.307C25.2386 48.365 23.7418 48.9218 22.0658 48.9865C20.6696 49.0404 19.3557 48.7378 18.1305 48.0651C16.8908 47.3843 15.9128 46.4281 15.1905 45.2067C14.4779 44.0018 14.1537 42.6869 14.123 41.2393C13.9106 41.2393 13.7396 41.2393 13.5686 41.2393C11.657 41.2393 9.74552 41.242 7.834 41.2384C6.16151 41.2352 5.13434 40.2054 5.1217 38.5209C5.11572 37.7187 5.12064 36.9164 5.12064 36.0477C4.50427 36.0477 3.94649 36.0478 3.38871 36.0477C2.69794 36.0476 2.00727 36.0523 1.3166 36.0461C0.494495 36.0389 -0.00326497 35.577 1.6121e-05 34.8366C0.00329721 34.0986 0.502409 33.6315 1.32644 33.628C3.09341 33.6203 4.86037 33.6253 6.62733 33.6254C8.63526 33.6255 10.6432 33.6176 12.651 33.6293C13.6377 33.6351 14.2402 34.485 13.8647 35.3244C13.6374 35.8327 13.224 36.0533 12.6678 36.0503C11.1258 36.0419 9.58359 36.0589 8.04167 36.0401C7.65113 36.0353 7.49827 36.1386 7.5195 36.5525C7.55173 37.1802 7.53619 37.8109 7.5249 38.44C7.52008 38.7086 7.61986 38.8152 7.88959 38.8145C10.0099 38.8092 12.1303 38.805 14.2506 38.8187C14.591 38.8209 14.6253 38.5859 14.7196 38.372C15.8505 35.8072 17.7834 34.2224 20.5307 33.7378C24.0312 33.1202 27.4612 35.0684 28.8186 38.3849C28.9485 38.7024 29.1006 38.8204 29.4473 38.82C37.4628 38.8102 45.4782 38.8126 53.4937 38.8115C53.6358 38.8117 53.7779 38.7976 54.003 38.7858ZM56.4559 20.6542C60.6773 20.6542 64.8563 20.6542 69.069 20.6542C69.0551 20.5378 69.054 20.4597 69.0358 20.3859C68.4356 17.9644 67.8268 15.545 67.2401 13.1202C67.1558 12.7714 66.9581 12.7641 66.6822 12.7645C63.4229 12.7701 60.1635 12.7678 56.9041 12.769C56.7628 12.7691 56.6215 12.7821 56.456 12.7904C56.4559 15.412 56.4559 18.0045 56.4559 20.6542ZM69.4501 41.3137C69.4511 38.4163 67.0904 36.0457 64.2143 36.056C61.3546 36.0663 59.002 38.4295 59.0033 41.2906C59.0045 44.2101 61.3269 46.562 64.214 46.5676C67.0999 46.5731 69.4492 44.2159 69.4501 41.3137ZM27.0003 41.3111C26.9992 38.4213 24.6239 36.0411 21.7558 36.056C18.8635 36.071 16.5475 38.4251 16.557 41.3406C16.5664 44.23 18.8868 46.56 21.7628 46.5678C24.6435 46.5754 27.0013 44.209 27.0003 41.3111ZM56.4656 10.3185C60.3713 10.3185 64.2436 10.3185 68.1665 10.3185C68.142 10.0783 68.1453 9.86847 68.0964 9.67184C67.7699 8.36077 66.7671 7.57996 65.3432 7.57278C62.5042 7.55852 59.6652 7.56802 56.826 7.56967C56.7171 7.56977 56.6082 7.59033 56.4656 7.60469C56.4656 8.51298 56.4656 9.40448 56.4656 10.3185ZM74.5665 30.9683C74.5665 30.0968 74.5665 29.2221 74.5665 28.3303C73.6626 28.3303 72.7913 28.3303 71.9246 28.3303C71.6387 30.7116 72.2904 31.2731 74.5665 30.9683Z" fill="#DAB860"/>
<path d="M29.5703 22.817C29.8987 22.4463 30.2001 22.0711 30.537 21.7313C33.7327 18.5083 36.9357 15.2924 40.1334 12.0713C40.5051 11.6969 40.9247 11.5262 41.4411 11.6964C41.9138 11.8522 42.1825 12.1993 42.262 12.6801C42.3439 13.1749 42.0922 13.5382 41.7589 13.8728C39.1012 16.5405 36.4483 19.2132 33.794 21.8844C32.6823 23.0032 31.5739 24.1254 30.458 25.24C29.8456 25.8517 29.1523 25.8665 28.5502 25.2635C26.4574 23.1682 24.3745 21.0628 22.2849 18.9641C21.8969 18.5744 21.7468 18.1243 21.9359 17.5993C22.1038 17.1329 22.4566 16.8722 22.9471 16.8206C23.3786 16.7752 23.7138 16.9617 24.0149 17.2658C25.7475 19.0157 27.4878 20.7578 29.2262 22.5019C29.3034 22.5794 29.3875 22.6502 29.5703 22.817Z" fill="#DAB860"/>
<path d="M41.0624 36.0542C38.156 36.0541 35.2497 36.0649 32.3435 36.0404C31.9833 36.0374 31.5818 35.9169 31.2765 35.7262C30.9006 35.4915 30.7847 35.0554 30.8828 34.6104C30.9833 34.1548 31.2527 33.8194 31.7149 33.6964C31.9282 33.6397 32.1586 33.6286 32.3812 33.6285C38.1778 33.6251 43.9745 33.6252 49.7711 33.6281C49.978 33.6282 50.1913 33.6371 50.3905 33.6864C50.9642 33.8286 51.3307 34.3702 51.2755 34.9583C51.2228 35.5195 50.7781 35.9786 50.2144 36.0388C50.0235 36.0592 49.8296 36.0536 49.6369 36.0536C46.7787 36.0545 43.9205 36.0543 41.0624 36.0542Z" fill="#DAB860"/>
<path d="M11.4896 28.4665C13.9948 28.4664 16.5002 28.4871 19.005 28.4562C19.9904 28.4441 20.3865 29.0911 20.4057 29.6541C20.4305 30.3798 19.8415 30.883 18.9854 30.8832C13.959 30.8842 8.93257 30.8843 3.90614 30.8827C3.27462 30.8825 2.81344 30.596 2.63558 30.1101C2.45744 29.6235 2.57228 29.0313 2.99236 28.7596C3.25658 28.5886 3.61094 28.4816 3.92602 28.4788C6.44705 28.4569 8.96838 28.4666 11.4896 28.4665Z" fill="#DAB860"/>
<path d="M64.2496 38.8145C65.635 38.8241 66.733 39.9588 66.7155 41.3628C66.6985 42.7292 65.568 43.8348 64.2031 43.8196C62.8384 43.8046 61.7306 42.682 61.7314 41.3152C61.7325 39.9236 62.8589 38.8049 64.2496 38.8145Z" fill="#DAB860"/>
<path d="M19.2891 41.3047C19.2929 39.9023 20.4068 38.7999 21.8057 38.8141C23.167 38.8279 24.273 39.9558 24.2677 41.3252C24.2624 42.6873 23.1452 43.8101 21.785 43.8203C20.3983 43.8306 19.2852 42.7088 19.2891 41.3047Z" fill="#DAB860"/>
</g>
<defs>
<clipPath id="clip0_130_413">
<rect width="77" height="49" fill="white"/>
</clipPath>
</defs>
</svg>
