<svg width="47" height="47" viewBox="0 0 47 47" fill="none" xmlns="http://www.w3.org/2000/svg">
<path d="M46.9946 38.9972C46.924 37.2653 46.1265 35.6291 44.8066 34.5064L29.7307 21.2607L38.9567 12.0347L42.361 10.6581C42.5719 10.5728 42.7433 10.4125 42.8426 10.2085L45.4685 4.80824C45.6396 4.45611 45.5689 4.03442 45.2921 3.75759L42.6002 1.06572C42.3191 0.78459 41.8892 0.716459 41.5349 0.896826L36.2153 3.6034C36.0177 3.70381 35.8635 3.87198 35.7803 4.07709L34.4045 7.47967L24.8827 17.0015L20.5471 13.1922C21.7171 9.7997 20.8698 6.05467 18.3027 3.48722C15.7016 0.886069 11.7952 0.0390978 8.35026 1.32999C8.05802 1.43936 7.84143 1.69001 7.7751 1.99516C7.70912 2.29996 7.80235 2.61802 8.02324 2.83855L12.1408 6.95615L11.3728 9.856L8.47361 10.6234L4.35602 6.50577C4.13549 6.28488 3.81743 6.19129 3.51263 6.25763C3.20748 6.32361 2.95683 6.54055 2.84746 6.83279C1.55693 10.2773 2.40354 14.1837 5.00469 16.7849C7.5725 19.3527 11.3179 20.1997 14.7101 19.0292L17.0685 21.7139C15.9479 21.7545 14.8399 22.2002 13.9875 23.0525L10.4559 26.5842C10.0983 26.9417 10.0976 27.5212 10.4533 27.8798C10.789 28.2197 11.3351 28.2466 11.7034 27.931C11.7342 27.9049 11.7629 27.8765 11.7894 27.8475L15.286 24.351C16.3588 23.2781 18.1066 23.2756 19.1823 24.3452L19.9909 25.1495L6.34758 38.7925C5.98936 39.1511 5.98936 39.7323 6.34758 40.0909C6.52687 40.2702 6.76174 40.3599 6.99662 40.3599C7.23149 40.3599 7.46672 40.2702 7.64601 40.0909L21.256 26.4806L22.6781 28.0992C22.8248 28.4388 22.903 28.8081 22.9033 29.1893C22.9044 29.928 22.6175 30.6218 22.0954 31.1443L9.51745 43.7219C8.56147 44.6786 7.11746 44.864 6.03203 44.2329C6.15144 43.2518 5.8262 42.2725 5.11621 41.5615C4.38793 40.8332 3.37637 40.509 2.36912 40.6546C1.55513 39.5563 1.67884 37.9577 2.71622 36.9203L5.90796 33.7282C6.26654 33.37 6.26654 32.7888 5.90796 32.4302C5.54974 32.0716 4.96848 32.0716 4.60989 32.4302L1.41816 35.6219C0.524928 36.5155 0.021479 37.6938 0.000681221 38.9402C-0.0204751 40.1985 0.451777 41.3746 1.32959 42.2525L1.39843 42.3217C1.64657 42.5698 2.01412 42.6548 2.34581 42.5408C2.87579 42.359 3.43984 42.4812 3.81779 42.8592C4.1943 43.2368 4.31693 43.7979 4.13764 44.3236C4.01716 44.6754 4.12115 45.0648 4.40048 45.3101C5.25893 46.0638 6.33431 46.4357 7.41723 46.4357C8.64287 46.4357 9.87746 45.9591 10.8159 45.02L23.3935 32.4424C23.9956 31.8403 24.4097 31.1005 24.6069 30.2945L36.0235 43.2891C37.1465 44.6091 38.7828 45.4065 40.5147 45.4772C40.599 45.4808 40.6829 45.4826 40.7671 45.4826C42.413 45.4826 44.0073 44.8253 45.1752 43.6577C46.4026 42.43 47.0656 40.7313 46.9946 38.9972ZM41.7733 2.83532L43.5315 4.59345L41.3455 9.08827L38.6601 10.1744L36.2641 7.77837L37.3538 5.08399L41.7733 2.83532ZM35.1847 9.29553L37.1415 11.2534L28.3484 20.0465L26.2647 18.2156L35.1847 9.29553ZM43.8768 42.3593C42.9986 43.2378 41.83 43.6943 40.5896 43.6427C39.3482 43.5921 38.2219 43.042 37.4184 42.095C37.4148 42.0911 37.4115 42.0871 37.408 42.0832L24.2247 27.078C24.0085 26.6613 23.727 26.2758 23.3845 25.9348L22.0883 24.6461L15.6671 17.3378C15.4889 17.1349 15.2361 17.0255 14.9772 17.0255C14.8564 17.0255 14.7345 17.0495 14.6183 17.099C11.7615 18.3139 8.49728 17.6813 6.30276 15.4868C4.5683 13.7524 3.80308 11.2968 4.18246 8.92871L7.54883 12.2954C7.78012 12.5264 8.11647 12.6174 8.43309 12.5335L12.3585 11.4944C12.6776 11.4097 12.9265 11.1609 13.0111 10.8421L14.051 6.91563C14.1345 6.59971 14.0438 6.26265 13.8125 6.03172L10.4458 2.66499C12.8142 2.28561 15.2698 3.05083 17.0043 4.78529C19.1984 6.97981 19.8313 10.2436 18.6161 13.1008C18.4612 13.4651 18.5573 13.8883 18.8549 14.1497L24.309 18.9414C24.3118 18.9439 24.3143 18.9468 24.3168 18.9489L27.7833 21.994C27.784 21.9947 27.785 21.9954 27.7861 21.9962L43.6007 35.8905C43.6046 35.8937 43.6086 35.8973 43.6125 35.9005C44.5599 36.7045 45.1096 37.8308 45.1605 39.0722C45.2111 40.3136 44.7553 41.4808 43.8768 42.3593Z" fill="#DAB860"/>
<path d="M41.7792 39.0633C41.6289 38.7026 41.2567 38.4706 40.8658 38.4989C40.4858 38.5265 40.1544 38.7958 40.0494 39.1623C39.9436 39.5302 40.0852 39.9386 40.3975 40.1609C40.7066 40.3808 41.1251 40.3868 41.4414 40.1778C41.8017 39.9397 41.9448 39.461 41.7792 39.0633Z" fill="#DAB860"/>
<path d="M26.1884 23.3331C25.8291 22.9756 25.2479 22.977 24.8904 23.3363C24.5325 23.6956 24.5343 24.2769 24.8936 24.6348L36.8476 36.5275C37.0269 36.7057 37.2611 36.795 37.4952 36.795C37.7308 36.795 37.9668 36.7046 38.1461 36.5243C38.5036 36.165 38.5021 35.5837 38.1428 35.2262L26.1884 23.3331Z" fill="#DAB860"/>
<path d="M7.47811 30.6059C7.69219 30.9239 8.09236 31.0799 8.46493 30.986C8.83283 30.8927 9.10823 30.5775 9.15341 30.201C9.19931 29.8209 8.98953 29.4415 8.64709 29.2727C8.29675 29.1002 7.86932 29.173 7.59286 29.4473C7.28627 29.7521 7.23858 30.2469 7.47811 30.6059Z" fill="#DAB860"/>
</svg>
