<svg width="45" height="45" viewBox="0 0 45 45" fill="none" xmlns="http://www.w3.org/2000/svg">
<g clip-path="url(#clip0_130_398)">
<path d="M44.9999 37.35C44.7998 38.1004 44.3115 38.6487 43.773 39.1797C42.136 40.7939 40.5189 42.4281 38.8926 44.0532C37.6272 45.3179 36.2492 45.3156 34.9788 44.0461C33.1868 42.2554 31.3965 40.4629 29.6057 38.6712C29.5643 38.6298 29.5223 38.5889 29.4816 38.5467C29.0138 38.0618 28.9609 37.5309 29.3424 37.1541C29.7282 36.7733 30.2443 36.8248 30.7316 37.3107C32.5671 39.1409 34.398 40.9754 36.2316 42.8073C36.8072 43.3824 37.0815 43.3812 37.6595 42.8032C39.3785 41.0845 41.097 39.3653 42.8149 37.6455C43.3868 37.0731 43.3848 36.7971 42.806 36.217C42.4647 35.8749 42.1209 35.5355 41.7769 35.1962C41.7577 35.1772 41.7265 35.1704 41.666 35.1409C41.0457 35.7641 40.4182 36.3977 39.7863 37.0269C39.6521 37.1605 39.5136 37.2963 39.3562 37.399C39.009 37.6255 38.553 37.5568 38.2739 37.2575C38.0104 36.9747 37.9425 36.5146 38.1908 36.2087C38.512 35.8125 38.8834 35.4563 39.2416 35.0912C39.631 34.6944 40.0301 34.3072 40.3852 33.955C39.7767 33.3444 39.1841 32.7496 38.5258 32.0889C38.3872 32.2505 38.2162 32.491 38.0048 32.688C37.5875 33.0769 37.0539 33.0746 36.7131 32.7113C36.3784 32.3544 36.3943 31.8615 36.7787 31.4516C36.9678 31.25 37.1929 31.0823 37.368 30.9288C36.7176 30.2857 36.1219 29.6965 35.4979 29.0795C34.8643 29.7167 34.1757 30.4116 33.4842 31.1035C33.2028 31.3849 32.8403 31.5403 32.4926 31.3428C32.256 31.2085 31.986 30.9069 31.9716 30.6657C31.9545 30.3783 32.13 30.0166 32.3357 29.7903C32.964 29.0991 33.647 28.4574 34.2719 27.8332C33.6652 27.2273 33.0809 26.6436 32.3984 25.9618C32.2798 26.1112 32.1291 26.3487 31.9326 26.5389C31.4883 26.969 30.9734 26.9833 30.6091 26.6057C30.2622 26.2461 30.2847 25.7386 30.686 25.3116C30.8657 25.1203 31.0759 24.9577 31.2354 24.8152C30.5977 24.1847 30.0026 23.5963 29.3782 22.9791C28.8181 23.5408 28.1903 24.1729 27.5589 24.8013C27.4351 24.9247 27.3079 25.05 27.1637 25.1466C26.8022 25.389 26.3739 25.3455 26.0772 25.0545C25.7816 24.7643 25.7224 24.2739 25.9955 23.9335C26.2598 23.6039 26.5723 23.3124 26.871 23.0114C27.3143 22.5647 27.7639 22.1246 28.1813 21.7111C27.5683 21.0995 26.9723 20.5051 26.3057 19.8401C26.1427 20.0313 25.9647 20.2889 25.739 20.4938C25.3498 20.8468 24.848 20.8363 24.5139 20.5072C24.1783 20.1767 24.1584 19.674 24.5055 19.281C24.7073 19.0526 24.9641 18.8728 25.16 18.7026C24.503 18.0455 23.9087 17.451 23.2944 16.8366C22.6888 17.4442 22.0429 18.1004 21.386 18.7453C21.2321 18.8965 21.0585 19.0601 20.8627 19.1294C20.4888 19.2618 20.1349 19.1759 19.887 18.8378C19.6432 18.5055 19.6209 18.1435 19.8828 17.823C20.1503 17.4956 20.4579 17.1999 20.7592 16.9016C21.2054 16.4598 21.6616 16.0279 22.0843 15.62C21.4545 14.9937 20.8685 14.4111 20.1822 13.7286C20.0891 13.8503 19.9664 14.0507 19.8056 14.2136C19.2958 14.7303 18.783 14.7829 18.3891 14.3791C17.9939 13.974 18.0576 13.4843 18.582 12.9599C18.7353 12.8066 18.9046 12.6694 19.041 12.5477C18.4015 11.9099 17.8164 11.3261 17.1659 10.6773C16.7726 11.0933 16.3608 11.5468 15.93 11.9814C14.7629 13.1587 14.361 13.3185 13.8581 12.8303C13.3517 12.3388 13.5248 11.9054 14.7049 10.7259C15.1293 10.3019 15.5587 9.88284 16.0953 9.35355C15.7524 9.05924 15.4212 8.79673 15.1158 8.50683C14.8193 8.22539 14.5493 7.916 14.2271 7.57613C13.9875 7.81188 13.7894 8.01792 13.5796 8.2113C13.1479 8.60896 12.6436 8.62966 12.2856 8.27327C11.9338 7.92305 11.9484 7.39947 12.3416 6.9787C12.5308 6.77629 12.7503 6.60217 12.9256 6.44302C12.2907 5.80795 11.6954 5.2124 11.0787 4.59538C10.4411 5.23716 9.76966 5.91075 9.10113 6.5872C8.80151 6.89043 8.45833 7.05916 8.03453 6.89791C7.41935 6.66392 7.29418 5.94344 7.79277 5.41635C8.34603 4.83147 8.92481 4.27058 9.49798 3.70475C9.62238 3.58191 9.77043 3.48297 9.88592 3.39029C9.38502 2.8599 8.9588 2.36164 8.48077 1.91962C8.17279 1.63489 7.84788 1.71281 7.47797 2.08075C6.34582 3.2066 5.21961 4.33761 4.0912 5.46654C3.4494 6.10865 2.80606 6.74933 2.16612 7.39331C1.65411 7.90863 1.65301 8.2123 2.1681 8.72827C4.31999 10.8839 6.47397 13.0374 8.62728 15.1915C14.352 20.9189 20.077 26.6461 25.801 32.3743C25.9352 32.5085 26.0741 32.6422 26.1858 32.7944C26.4677 33.1788 26.4304 33.6446 26.1093 33.9517C25.8019 34.2458 25.3449 34.2845 24.987 34.0034C24.7122 33.7877 24.4714 33.5278 24.2218 33.2812C23.5864 32.6535 22.9549 32.022 22.3203 31.3936C22.3021 31.3754 22.2676 31.3736 22.1393 31.2632C22.0418 31.4091 21.9655 31.5761 21.8439 31.6979C18.069 35.4819 14.2851 39.2567 10.5138 43.0442C9.19264 44.371 7.62195 45.0967 5.74714 44.9708C3.28276 44.8055 1.47053 43.5667 0.514699 41.2918C-0.440143 39.0192 -0.048131 36.8783 1.53829 34.9761C1.70668 34.7741 1.89488 34.588 2.0811 34.4016C5.81742 30.662 9.55452 26.9231 13.2929 23.1855C13.4168 23.0617 13.5558 22.9531 13.7264 22.8034C13.5709 22.6402 13.4565 22.515 13.3368 22.3951C9.20694 18.2619 5.07926 14.1267 0.944219 9.99885C0.21827 9.27419 -0.181662 8.44398 0.134346 7.42732C0.263587 7.01139 0.513819 6.59051 0.818387 6.2787C2.61896 4.43502 4.43592 2.60642 6.28687 0.813591C6.65974 0.452472 7.20222 0.266684 7.66639 0C7.95919 0 8.25199 0 8.54479 0C9.32771 0.238728 9.88614 0.784754 10.4463 1.34685C14.4252 5.33908 18.4132 9.32218 22.3989 13.3076C22.5198 13.4285 22.646 13.5442 22.8498 13.7388C22.9783 13.5659 23.0673 13.4094 23.1899 13.2865C25.8676 10.6017 28.5441 7.91578 31.2368 5.2463C31.5081 4.97741 31.8572 4.75002 32.212 4.60837C34.7765 3.58412 37.3534 2.59079 39.923 1.57941C41.2382 1.06178 42.5466 0.526985 43.858 0C44.2387 0 44.6193 0 44.9999 0C44.9999 0.380821 44.9999 0.761641 44.9999 1.14246C44.9374 1.27069 44.8655 1.39539 44.8137 1.52779C43.348 5.2704 41.8911 9.01664 40.4096 12.753C40.2585 13.1342 40.0127 13.5082 39.7242 13.7998C37.0571 16.4949 34.3708 19.1711 31.6908 21.8535C31.5711 21.9732 31.4576 22.0991 31.2764 22.2907C31.4517 22.427 31.6035 22.5214 31.7269 22.6445C35.7031 26.6187 39.6737 30.5986 43.6539 34.5688C44.2157 35.1293 44.7615 35.6879 45 36.4712C44.9999 36.7641 44.9999 37.0571 44.9999 37.35ZM32.1754 6.924C29.4902 9.61022 26.8051 12.2961 24.1904 14.9118C26.154 16.8768 28.1525 18.8769 30.1008 20.8268C32.7391 18.1873 35.4239 15.5013 38.0863 12.8377C36.1246 10.8751 34.1311 8.88071 32.1754 6.924ZM14.9519 24.1316C12.3602 26.7277 9.73798 29.3542 7.1359 31.9607C9.09959 33.9258 11.0957 35.9235 13.0436 37.8728C15.6538 35.2616 18.2783 32.6361 20.8657 30.0478C18.9086 28.0899 16.9154 26.0959 14.9519 24.1316ZM11.7021 39.2028C9.7591 37.259 7.7568 35.2558 5.73328 33.2314C4.93924 34.0272 4.11199 34.8534 3.2887 35.6835C3.11381 35.8599 2.94762 36.0455 2.78692 36.235C2.24268 36.8765 1.93206 37.6158 1.8323 38.4541C1.63585 40.1043 2.46321 41.8359 3.83151 42.5998C5.47711 43.5188 7.40142 43.4567 8.7111 42.2838C9.78594 41.3214 10.7309 40.2137 11.7021 39.2028ZM39.1374 11.2055C39.6799 9.81956 40.2332 8.42318 40.7628 7.01777C40.8009 6.91663 40.6995 6.71774 40.6054 6.61945C40.0795 6.07012 39.4784 5.58298 39.0133 4.9882C38.4454 4.262 37.8946 4.14863 37.0576 4.56049C36.0028 5.07966 34.8723 5.44507 33.8005 5.86651C35.5806 7.64723 37.3445 9.41177 39.1374 11.2055ZM42.5664 2.43362C41.6523 2.79166 40.8257 3.11546 40.079 3.40801C40.588 3.92025 41.0916 4.42698 41.593 4.93152C41.8932 4.16096 42.2126 3.34131 42.5664 2.43362Z" fill="#DAB860"/>
<path d="M28.7694 35.7098C28.7777 36.1921 28.4062 36.5807 27.9282 36.5896C27.4508 36.5984 27.0597 36.2225 27.05 35.7455C27.0403 35.2656 27.4136 34.8761 27.8922 34.8669C28.3733 34.8577 28.761 35.2303 28.7694 35.7098Z" fill="#DAB860"/>
</g>
<defs>
<clipPath id="clip0_130_398">
<rect width="45" height="45" fill="white"/>
</clipPath>
</defs>
</svg>
