<svg width="61" height="49" viewBox="0 0 61 49" fill="none" xmlns="http://www.w3.org/2000/svg">
<g clip-path="url(#clip0_130_388)">
<path d="M0 6.02391C0.296841 5.36173 0.810146 5.11741 1.52798 5.1419C2.55904 5.17705 3.59313 5.12504 4.62404 5.16147C5.14928 5.18008 5.36017 5.05696 5.3328 4.48179C5.28377 3.45248 5.31067 2.4192 5.32181 1.38767C5.33343 0.302695 5.91359 -0.172111 6.97219 0.0550327C14.6458 1.70198 22.3174 3.358 29.9924 4.99843C30.3098 5.06619 30.667 5.06571 30.9845 4.99795C38.6599 3.35911 46.3319 1.70453 54.006 0.0594865C55.1009 -0.175133 55.6685 0.29681 55.678 1.42585C55.6869 2.47726 55.699 3.52915 55.6712 4.57993C55.6596 5.01529 55.7773 5.1734 56.2348 5.16051C57.3257 5.12965 58.418 5.14635 59.5099 5.15208C60.59 5.15765 60.9989 5.55881 60.999 6.61611C61.0003 20.245 61.0003 33.874 60.999 47.5029C60.9989 48.5549 60.5682 48.9904 59.5199 48.9904C40.1654 48.992 20.8109 48.9897 1.45635 48.9997C0.781496 49 0.335677 48.7121 0 48.1732C0 34.1234 0 20.0736 0 6.02391ZM53.291 2.69311C53.1191 2.70774 53.0197 2.70552 52.9253 2.72572C46.064 4.20183 39.2048 5.68701 32.3395 7.14372C31.8037 7.25745 31.6598 7.44738 31.6608 7.98931C31.684 20.5302 31.6858 33.0712 31.6913 45.6119C31.6915 45.8252 31.6913 46.0384 31.6913 46.2712C31.8702 46.2565 31.9906 46.26 32.1047 46.2353C38.9839 44.7503 45.8614 43.257 52.7443 41.789C53.2037 41.691 53.3004 41.5051 53.2988 41.0813C53.285 37.45 53.2898 33.8188 53.2934 30.1873C53.2937 29.9309 53.2977 29.6678 53.3534 29.4197C53.4844 28.8362 53.9887 28.4825 54.5822 28.5211C55.1415 28.5576 55.577 28.9632 55.6561 29.5329C55.6779 29.6895 55.6796 29.8495 55.6798 30.0079C55.6809 34.1154 55.6826 38.2231 55.6791 42.3306C55.6783 43.2979 55.3958 43.6523 54.4526 43.857C51.8177 44.4287 49.1805 44.9894 46.5447 45.5571C45.079 45.8728 43.6143 46.1938 42.1492 46.5126C42.1537 46.5339 42.1583 46.5552 42.1628 46.5765C47.6269 46.5765 53.091 46.5765 58.5767 46.5765C58.5767 33.5581 58.5767 20.5735 58.5767 7.56985C57.612 7.56985 56.6852 7.56985 55.6809 7.56985C55.6809 7.82961 55.6809 8.062 55.6809 8.29439C55.6809 11.6875 55.6814 15.0809 55.6798 18.474C55.6796 18.7118 55.6839 18.9525 55.6503 19.1866C55.5703 19.7449 55.1111 20.1505 54.5534 20.1816C54.0324 20.2107 53.5142 19.8715 53.3786 19.3576C53.3041 19.0753 53.2947 18.7697 53.2944 18.4746C53.2896 13.4543 53.291 8.43389 53.291 3.41367C53.291 3.1808 53.291 2.94809 53.291 2.69311ZM29.2795 46.3008C29.29 46.0783 29.3056 45.9048 29.3055 45.7314C29.3002 33.1109 29.2916 20.4903 29.2964 7.86985C29.2966 7.43211 29.1785 7.26731 28.7317 7.17219C22.5273 5.85085 16.3283 4.50453 10.1278 3.16553C9.34469 2.99644 8.56017 2.83388 7.73204 2.65891C7.72137 2.88399 7.70912 3.0203 7.70912 3.15662C7.70816 15.8168 7.70944 28.4771 7.70243 41.1371C7.70227 41.5086 7.78011 41.6819 8.19425 41.7699C13.6821 42.9354 19.1645 44.1264 24.6485 45.3096C26.1771 45.6395 27.7067 45.9644 29.2795 46.3008ZM2.41675 7.56811C2.41675 20.6088 2.41675 33.5773 2.41675 46.5781C7.91205 46.5781 13.376 46.5781 19.0133 46.5781C18.7063 46.4871 18.562 46.4338 18.4132 46.4017C14.5576 45.5687 10.7024 44.7341 6.84517 43.9088C5.49642 43.6203 5.31927 43.418 5.31927 42.039C5.31911 30.8085 5.31911 19.5778 5.31911 8.3472C5.31911 8.09588 5.31911 7.84472 5.31911 7.56811C4.30953 7.56811 3.38319 7.56811 2.41675 7.56811Z" fill="#DAB860"/>
<path d="M34.7484 31.7088C34.748 29.8254 34.7448 27.942 34.7492 26.0586C34.7516 25.0772 35.0135 24.7451 35.9678 24.5377C40.2256 23.6121 44.4844 22.6898 48.7441 21.7731C49.8385 21.5377 50.4398 22.0133 50.4422 23.1298C50.4503 26.9559 50.449 30.7822 50.4422 34.6083C50.4406 35.4942 50.1374 35.8438 49.2515 36.0353C44.9537 36.9641 40.6557 37.8914 36.357 38.8153C35.3921 39.0227 34.761 38.5315 34.7534 37.5372C34.7381 35.5945 34.7488 33.6517 34.7484 31.7088ZM48.0218 24.38C44.4544 25.1455 40.9683 25.8973 37.4794 26.6365C37.0743 26.7224 37.1375 27.002 37.1373 27.2726C37.1365 30.0499 37.1362 32.8273 37.1383 35.6046C37.1385 35.7784 37.1582 35.9523 37.1704 36.1511C37.3441 36.1384 37.4819 36.1444 37.6126 36.1164C40.9262 35.4051 44.2378 34.6831 47.5542 33.9843C47.978 33.8949 48.067 33.6974 48.0646 33.2972C48.0477 30.5199 48.0563 27.7427 48.0544 24.9652C48.0541 24.7904 48.0353 24.6156 48.0218 24.38Z" fill="#DAB860"/>
<path d="M35.9949 15.0147C35.3735 15.0175 34.8675 14.6033 34.7768 14.0467C34.673 13.4102 34.9996 12.8457 35.6484 12.6909C37.0539 12.3557 38.4691 12.0599 39.8818 11.7546C42.7649 11.1316 45.6498 10.5165 48.5324 9.89088C49.5903 9.66119 50.2426 9.92778 50.404 10.6813C50.5768 11.4885 50.1358 11.9856 49.0279 12.2255C44.8679 13.1262 40.7079 14.0261 36.5473 14.9243C36.3538 14.9663 36.1561 14.9887 35.9949 15.0147Z" fill="#DAB860"/>
<path d="M50.4334 16.9333C50.4275 17.5681 50.0488 17.9741 49.2693 18.1446C47.2386 18.5889 45.2063 19.0257 43.1741 19.4629C41.0258 19.9252 38.8771 20.3845 36.7284 20.8444C36.5541 20.8818 36.3798 20.9201 36.2038 20.9481C35.5221 21.0566 34.9246 20.6891 34.7872 20.0814C34.6365 19.4138 34.9905 18.8077 35.694 18.642C37.0811 18.3154 38.4759 18.0215 39.8689 17.7204C42.7906 17.0886 45.7135 16.4614 48.6356 15.831C49.7097 15.5994 50.4415 16.0467 50.4334 16.9333Z" fill="#DAB860"/>
<path d="M54.4925 23.1504C55.1556 23.1499 55.6619 23.6487 55.6684 24.309C55.6751 24.9882 55.1314 25.5325 54.4651 25.5134C53.8294 25.4953 53.2997 24.9456 53.3067 24.3112C53.3139 23.6661 53.8401 23.1509 54.4925 23.1504Z" fill="#DAB860"/>
<path d="M26.3715 16.7949C26.3716 17.6675 26.3743 18.5403 26.3708 19.4129C26.3659 20.6893 25.809 21.1537 24.5731 20.8882C20.8533 20.0891 17.1353 19.2809 13.4168 18.4762C12.836 18.3505 12.2517 18.2387 11.6757 18.0943C11.0054 17.9262 10.6879 17.5552 10.6823 16.8706C10.6664 14.927 10.6597 12.9829 10.6835 11.0396C10.6956 10.0526 11.3399 9.62285 12.4141 9.85254C15.611 10.536 18.8051 11.2321 22.0007 11.922C23.0469 12.1478 24.0946 12.3658 25.14 12.595C26.0807 12.8013 26.3643 13.1533 26.37 14.1174C26.3756 15.0099 26.3715 15.9024 26.3715 16.7949ZM23.9824 18.314C23.9824 17.2449 23.9675 16.2755 23.9899 15.3072C23.9988 14.9253 23.8935 14.7544 23.4908 14.676C22.1299 14.4107 20.7789 14.0957 19.4232 13.8037C17.3329 13.3534 15.2419 12.9064 13.0704 12.4407C13.0704 13.5716 13.0607 14.6564 13.0865 15.7405C13.0889 15.8411 13.3039 15.9916 13.4429 16.0252C14.2516 16.2205 15.0668 16.3888 15.8802 16.5644C18.5513 17.1417 21.2224 17.7181 23.9824 18.314Z" fill="#DAB860"/>
<path d="M12.0092 21.709C12.7334 21.8604 13.6057 22.0382 14.4759 22.2253C18.0377 22.9912 21.5985 23.7612 25.1604 24.526C25.647 24.6305 26.1428 24.7985 26.251 25.3134C26.3281 25.6792 26.2665 26.1467 26.0909 26.4752C25.8638 26.9004 25.3896 27.0208 24.8938 26.914C22.5323 26.4055 20.1705 25.899 17.8086 25.3915C15.8151 24.963 13.8211 24.536 11.8282 24.1045C10.9256 23.909 10.4626 23.2166 10.7537 22.4696C10.9432 21.9842 11.3186 21.7184 12.0092 21.709Z" fill="#DAB860"/>
<path d="M12.0939 27.6851C13.3817 27.9598 14.7954 28.2595 16.2081 28.5633C19.1119 29.1878 22.0148 29.8165 24.9189 30.439C26.0453 30.6804 26.5223 31.2088 26.3288 32.0228C26.1553 32.7527 25.4987 33.0206 24.4374 32.7915C20.2372 31.8845 16.0372 30.9766 11.8372 30.0693C11.0075 29.89 10.6033 29.3953 10.6995 28.6743C10.7822 28.0533 11.2933 27.6514 12.0939 27.6851Z" fill="#DAB860"/>
<path d="M11.797 33.5874C13.1707 33.8801 14.4294 34.1462 15.6871 34.4168C18.7456 35.0746 21.8038 35.7346 24.8621 36.3941C25.0364 36.4316 25.2116 36.4663 25.3835 36.5127C26.1139 36.7103 26.4924 37.3044 26.3286 37.9893C26.1797 38.6119 25.5448 38.9865 24.8433 38.8373C22.9063 38.4252 20.9723 37.9998 19.0364 37.5825C16.6169 37.0609 14.197 36.5414 11.7769 36.0222C11.2801 35.9156 10.8097 35.6839 10.7565 35.1645C10.7169 34.7777 10.8631 34.3196 11.0686 33.9784C11.2017 33.7573 11.5904 33.69 11.797 33.5874Z" fill="#DAB860"/>
</g>
<defs>
<clipPath id="clip0_130_388">
<rect width="61" height="49" fill="white"/>
</clipPath>
</defs>
</svg>
