<?xml version="1.0" standalone="no"?>
<!DOCTYPE svg PUBLIC "-//W3C//DTD SVG 1.1//EN" "http://www.w3.org/Graphics/SVG/1.1/DTD/svg11.dtd" >
<svg>
<metadata>
Created by FontForge 20090914 at Sat Jun 11 08:41:02 2022
 By www-data
Copyright (c) 2018 by Swiss Typefaces. All rights reserved. |DCNT
</metadata>
<defs>
<font id="EuclidSquare-Bold" horiz-adv-x="0" >
  <font-face 
    font-family="Euclid Square"
    font-weight="700"
    font-stretch="normal"
    units-per-em="1000"
    panose-1="2 11 8 4 0 0 0 0 0 0"
    ascent="732"
    descent="-268"
    x-height="500"
    cap-height="710"
    bbox="-374 -335.002 1368 993.002"
    underline-thickness="100"
    underline-position="-284"
    unicode-range="U+0020-U+FEFF"
  />
<missing-glyph horiz-adv-x="634" 
d="M67 0v710h500v-710h-500zM306 355l-220 327v-654zM327 355l221 -327v654zM533 691h-432l216 -321zM317 339l-216 -320h432z" />
    <glyph glyph-name="_368" unicode="ff" horiz-adv-x="863" 
d="M138 0v368.999h-122v131h122v28c0 58.667 17.5 108 52.5 148s85.167 60 150.5 60c48 0 92.667 -10 134 -30l-55 -123c-21.333 11.333 -41 17 -59 17c-22 0 -39.5 -6.66699 -52.5 -20s-19.5 -30.666 -19.5 -51.999v-28h126v-131h-126v-369h-151zM531 -0.000976562v368.999
h-69v131h69v28c0 58.667 17.5 108 52.5 148s85.167 60 150.5 60c48 0 92.667 -10 134 -30l-55 -123c-21.333 11.333 -41 17 -59 17c-22 0 -39.5 -6.66699 -52.5 -20s-19.5 -30.666 -19.5 -51.999v-28h167v-131h-167v-369h-151z" />
    <glyph glyph-name="f_i" unicode="fi" horiz-adv-x="743" 
d="M605 548c-25.333 0 -47.333 9.16699 -66 27.5s-28 40.5 -28 66.5s9.33301 48.167 28 66.5s40.667 27.5 66 27.5c26.667 0 49.167 -9.16699 67.5 -27.5s27.5 -40.5 27.5 -66.5s-9.16699 -48.167 -27.5 -66.5s-40.833 -27.5 -67.5 -27.5zM530 0v500h151v-500h-151zM136 0
v368.999h-120v131h120v28c0 58.667 17.5 108 52.5 148s85.167 60 150.5 60c48 0 92.667 -10 134 -30l-55 -123c-21.333 11.333 -41 17 -59 17c-22 0 -39.5 -6.66699 -52.5 -20s-19.5 -30.666 -19.5 -51.999v-28h167v-131h-167v-369h-151z" />
    <glyph glyph-name="_372" unicode="ffi" horiz-adv-x="1138" 
d="M1000 548c-25.333 0 -47.333 9.16699 -66 27.5s-28 40.5 -28 66.5s9.33301 48.167 28 66.5s40.667 27.5 66 27.5c26.667 0 49.167 -9.16699 67.5 -27.5s27.5 -40.5 27.5 -66.5s-9.16699 -48.167 -27.5 -66.5s-40.833 -27.5 -67.5 -27.5zM925 0v500h151v-500h-151zM138 0
v368.999h-122v131h122v28c0 58.667 17.5 108 52.5 148s85.167 60 150.5 60c48 0 92.667 -10 134 -30l-55 -123c-21.333 11.333 -41 17 -59 17c-22 0 -39.5 -6.66699 -52.5 -20s-19.5 -30.666 -19.5 -51.999v-28h126v-131h-126v-369h-151zM531 -0.000976562v368.999h-69v131
h69v28c0 58.667 17.5 108 52.5 148s85.167 60 150.5 60c48 0 92.667 -10 134 -30l-55 -123c-21.333 11.333 -41 17 -59 17c-22 0 -39.5 -6.66699 -52.5 -20s-19.5 -30.666 -19.5 -51.999v-28h167v-131h-167v-369h-151z" />
    <glyph glyph-name="f_l" unicode="fl" horiz-adv-x="743" 
d="M136 0v368.999h-120v131h120v28c0 58.667 17.5 108 52.5 148s85.167 60 150.5 60c48 0 92.667 -10 134 -30l-55 -123c-21.333 11.333 -41 17 -59 17c-22 0 -39.5 -6.66699 -52.5 -20s-19.5 -30.666 -19.5 -51.999v-28h167v-131h-167v-369h-151zM530 -0.000976562v730h151
v-730h-151z" />
    <glyph glyph-name="_376" unicode="ffl" horiz-adv-x="1138" 
d="M925 0v730h151v-730h-151zM138 0v368.999h-122v131h122v28c0 58.667 17.5 108 52.5 148s85.167 60 150.5 60c48 0 92.667 -10 134 -30l-55 -123c-21.333 11.333 -41 17 -59 17c-22 0 -39.5 -6.66699 -52.5 -20s-19.5 -30.666 -19.5 -51.999v-28h126v-131h-126v-369h-151z
M531 -0.000976562v368.999h-69v131h69v28c0 58.667 17.5 108 52.5 148s85.167 60 150.5 60c48 0 92.667 -10 134 -30l-55 -123c-21.333 11.333 -41 17 -59 17c-22 0 -39.5 -6.66699 -52.5 -20s-19.5 -30.666 -19.5 -51.999v-28h167v-131h-167v-369h-151z" />
    <glyph glyph-name="f_t" unicode="ft" horiz-adv-x="883" 
d="M136 0v368.999h-120v131h120v28c0 58.667 17.5 108 52.5 148s85.167 60 150.5 60c48 0 92.667 -10 134 -30l-55 -123c-21.333 11.333 -41 17 -59 17c-22 0 -39.5 -6.66699 -52.5 -20s-19.5 -30.666 -19.5 -51.999v-28h123v-131h-123v-369h-151zM743 -6.00098
c-62 0 -111.499 15.999 -148.499 47.999s-55.5 79 -55.5 141v186h-82v131h82v152h151v-152h150v-131h-150v-155c0 -29.333 6 -50.5 18 -63.5s31 -19.5 57 -19.5c25.333 0 48 5.33301 68 16l45 -123c-12.667 -7.33301 -32.334 -14.166 -59.001 -20.499s-52 -9.5 -76 -9.5z
" />
    <glyph glyph-name="t_t" unicode="tt" horiz-adv-x="901" 
d="M338 -6c-62 0 -111.499 15.999 -148.499 47.999s-55.5 79 -55.5 141v186h-120v131h120v152h151v-152h123v-131h-123v-155c0 -29.333 6 -50.5 18 -63.5s31 -19.5 57 -19.5c25.333 0 48 5.33301 68 16l45 -123c-12.667 -7.33301 -32.334 -14.166 -59.001 -20.499
s-52 -9.5 -76 -9.5zM761.001 -6.00098c-62 0 -111.499 15.999 -148.499 47.999s-55.5 79 -55.5 141v186h-102v131h102v152h151v-152h150v-131h-150v-155c0 -29.333 6 -50.5 18 -63.5s31 -19.5 57 -19.5c25.333 0 48 5.33301 68 16l45 -123
c-12.667 -7.33301 -32.334 -14.166 -59.001 -20.499s-52 -9.5 -76 -9.5z" />
    <glyph glyph-name="uni0407_uni0407" unicode="&#x407;&#x407;" horiz-adv-x="618" 
d="M75 0v710h159v-710h-159zM384 0v710h159v-710h-159zM28 768c-22 0 -41.001 8 -57.001 24s-24 34.667 -24 56c0 22.667 7.83301 41.834 23.5 57.501s34.834 23.5 57.501 23.5c22 0 40.833 -7.83301 56.5 -23.5s23.5 -34.834 23.5 -57.501
c0 -21.333 -7.83301 -40 -23.5 -56s-34.5 -24 -56.5 -24zM300.999 768c-22 0 -41.001 8 -57.001 24s-24 34.667 -24 56c0 22.667 7.83301 41.834 23.5 57.501s34.834 23.5 57.501 23.5c22 0 40.833 -7.83301 56.5 -23.5s23.5 -34.834 23.5 -57.501
c0 -21.333 -7.83301 -40 -23.5 -56s-34.5 -24 -56.5 -24zM574.998 768c-22 0 -41.001 8 -57.001 24s-24 34.667 -24 56c0 22.667 7.83301 41.834 23.5 57.501s34.834 23.5 57.501 23.5c22 0 40.833 -7.83301 56.5 -23.5s23.5 -34.834 23.5 -57.501
c0 -21.333 -7.83301 -40 -23.5 -56s-34.5 -24 -56.5 -24z" />
    <glyph glyph-name="uni0457_uni0458" unicode="&#x457;&#x458;" horiz-adv-x="550" 
d="M213 0h-151v500h151v-500zM44 572c-22 0 -40.833 7.83301 -56.5 23.5s-23.5 34.167 -23.5 55.5c0 22 7.83301 40.833 23.5 56.5s34.5 23.5 56.5 23.5c21.333 0 39.833 -7.83301 55.5 -23.5s23.5 -34.5 23.5 -56.5c0 -21.333 -7.83301 -39.833 -23.5 -55.5
s-34.167 -23.5 -55.5 -23.5zM274 572c-21.333 0 -39.833 7.83301 -55.5 23.5s-23.5 34.167 -23.5 55.5c0 22 7.83301 40.833 23.5 56.5s34.167 23.5 55.5 23.5c22 0 40.833 -7.83301 56.5 -23.5s23.5 -34.5 23.5 -56.5c0 -21.333 -7.83301 -39.833 -23.5 -55.5
s-34.5 -23.5 -56.5 -23.5zM507 572c-22 0 -40.833 7.83301 -56.5 23.5s-23.5 34.167 -23.5 55.5c0 22 7.83301 40.833 23.5 56.5s34.5 23.5 56.5 23.5c21.333 0 39.833 -7.83301 55.5 -23.5s23.5 -34.5 23.5 -56.5c0 -21.333 -7.83301 -39.833 -23.5 -55.5
s-34.167 -23.5 -55.5 -23.5zM293 -199c-48 0 -89.334 7.99902 -124.001 23.999l35 123c22 -11.333 44.667 -17 68 -17c43.333 0 65 28 65 84v485h151v-510c0 -61.333 -18.167 -108.166 -54.5 -140.499s-83.166 -48.5 -140.499 -48.5z" />
    <glyph glyph-name="uni0457_uni0457" unicode="&#x457;&#x457;" horiz-adv-x="550" 
d="M213 0h-151v500h151v-500zM488 0h-151v500h151v-500zM44 572c-22 0 -40.833 7.83301 -56.5 23.5s-23.5 34.167 -23.5 55.5c0 22 7.83301 40.833 23.5 56.5s34.5 23.5 56.5 23.5c21.333 0 39.833 -7.83301 55.5 -23.5s23.5 -34.5 23.5 -56.5
c0 -21.333 -7.83301 -39.833 -23.5 -55.5s-34.167 -23.5 -55.5 -23.5zM274 572c-21.333 0 -39.833 7.83301 -55.5 23.5s-23.5 34.167 -23.5 55.5c0 22 7.83301 40.833 23.5 56.5s34.167 23.5 55.5 23.5c22 0 40.833 -7.83301 56.5 -23.5s23.5 -34.5 23.5 -56.5
c0 -21.333 -7.83301 -39.833 -23.5 -55.5s-34.5 -23.5 -56.5 -23.5zM507 572c-22 0 -40.833 7.83301 -56.5 23.5s-23.5 34.167 -23.5 55.5c0 22 7.83301 40.833 23.5 56.5s34.5 23.5 56.5 23.5c21.333 0 39.833 -7.83301 55.5 -23.5s23.5 -34.5 23.5 -56.5
c0 -21.333 -7.83301 -39.833 -23.5 -55.5s-34.167 -23.5 -55.5 -23.5z" />
    <glyph glyph-name=".notdef" horiz-adv-x="634" 
d="M67 0v710h500v-710h-500zM306 355l-220 327v-654zM327 355l221 -327v654zM533 691h-432l216 -321zM317 339l-216 -320h432z" />
    <glyph glyph-name="space" unicode=" " horiz-adv-x="225" 
 />
    <glyph glyph-name="exclam" unicode="!" horiz-adv-x="296" 
d="M101 265l-29 184v261h152v-261l-30 -184h-93zM238 0h-179v179h179v-179z" />
    <glyph glyph-name="quotedbl" unicode="&#x22;" horiz-adv-x="440" 
d="M56 412v298h126v-298h-126zM258 412v298h126v-298h-126z" />
    <glyph glyph-name="numbersign" unicode="#" horiz-adv-x="723" 
d="M317 0l57 181h-132l-57 -181h-127l56 181h-83v114h120l36 120h-83v114h119l56 181h129l-57 -181h131l56 181h129l-57 -181h82v-114h-118l-37 -120h83v-114h-119l-57 -181h-127zM315 415l-37 -120h132l36 120h-131z" />
    <glyph glyph-name="dollar" unicode="$" horiz-adv-x="562" 
d="M262 -88l-0.000976562 77.9961c-48.667 2.66699 -94 13.667 -136 33s-74.333 44 -97 74l98 106c33.333 -42 78.333 -65.333 135 -70v155l-37 13c-50.667 17.333 -91.667 43.833 -123 79.5s-47 79.834 -47 132.501c0 57.333 19 104.833 57 142.5s88 59.167 150 64.5v78h54
v-77c42 -4 80.667 -15.833 116 -35.5s61 -43.167 77 -70.5l-105 -95c-25.333 31.333 -54.666 50 -87.999 56v-143l47 -17c54 -19.333 94.333 -46.166 121 -80.499s40 -80.166 40 -137.499c0 -60 -18.5 -108.167 -55.5 -144.5s-87.833 -57.166 -152.5 -62.499v-79h-54z
M372.999 197.996c0 27.333 -19 50.667 -57 70v-133c38 8.66699 57 29.667 57 63zM205.999 518.997c0 -28.667 18.667 -50.667 56 -66v123c-37.333 -8.66699 -56 -27.667 -56 -57z" />
    <glyph glyph-name="percent" unicode="%" horiz-adv-x="977" 
d="M341 0h-155l450 710h155zM753 -8c-54.667 0 -101.167 19.333 -139.5 58s-57.5 85 -57.5 139c0 54.667 19.167 101.167 57.5 139.5s84.833 57.5 139.5 57.5c54 0 100.333 -19.167 139 -57.5s58 -84.833 58 -139.5c0 -54 -19.333 -100.333 -58 -139s-85 -58 -139 -58z
M753 118c19.333 0 35.666 7 48.999 21s20 30.667 20 50s-6.66699 36 -20 50s-29.666 21 -48.999 21s-35.833 -7 -49.5 -21s-20.5 -30.667 -20.5 -50s6.83301 -36 20.5 -50s30.167 -21 49.5 -21zM224 324c-54.667 0 -101.167 19.333 -139.5 58s-57.5 85 -57.5 139
c0 54.667 19.167 101.167 57.5 139.5s84.833 57.5 139.5 57.5c54 0 100.333 -19.167 139 -57.5s58 -84.833 58 -139.5c0 -54 -19.333 -100.333 -58 -139s-85 -58 -139 -58zM224 450c19.333 0 35.666 7 48.999 21s20 30.667 20 50s-6.66699 36 -20 50s-29.666 21 -48.999 21
c-20 0 -36.667 -6.83301 -50 -20.5s-20 -30.5 -20 -50.5s6.66699 -36.833 20 -50.5s30 -20.5 50 -20.5z" />
    <glyph glyph-name="ampersand" unicode="&#x26;" horiz-adv-x="767" 
d="M302 -11c-78 0 -137.664 20.333 -178.997 61s-62 92 -62 154c0 42 10.167 77.667 30.5 107s49.166 56.666 86.499 81.999c-48.667 48.667 -73 97.334 -73 146.001c0 49.333 19.5 92.166 58.5 128.499s88.167 54.5 147.5 54.5s108.166 -18.167 146.499 -54.5
s57.5 -78.166 57.5 -125.499c0 -40 -9.83301 -72.667 -29.5 -98s-48.834 -49.333 -87.501 -72l107 -103l104 123l105 -90l-110 -128l181 -174h-198l-78 74c-34 -30 -67 -51.667 -99 -65s-68 -20 -108 -20zM300.003 121c38.667 0 76 15.667 112 47l-135 130
c-46 -30.667 -69 -63.667 -69 -99c0 -26 9.33301 -45.5 28 -58.5s40 -19.5 64 -19.5zM249.003 539c0 -10 3.16992 -20.001 9.50293 -30.001s12.166 -17.667 17.499 -23s15.666 -14.666 30.999 -27.999l1 1c22.667 12 38.167 23.167 46.5 33.5s12.5 24.833 12.5 43.5
c0 18 -5.66699 32.333 -17 43s-25 16 -41 16c-16.667 0 -30.834 -5.16699 -42.501 -15.5s-17.5 -23.833 -17.5 -40.5z" />
    <glyph glyph-name="quotesingle" unicode="'" horiz-adv-x="238" 
d="M56 412v298h126v-298h-126z" />
    <glyph glyph-name="parenleft" unicode="(" horiz-adv-x="288" 
d="M163 320c0 -146.667 33 -290.667 99 -432l-97 -48c-85.333 155.333 -128 315.333 -128 480s42.667 324.667 128 480l97 -48c-66 -141.333 -99 -285.333 -99 -432z" />
    <glyph glyph-name="parenright" unicode=")" horiz-adv-x="288" 
d="M125 320c0 146.667 -33 290.667 -99 432l97 48c85.333 -155.333 128 -315.333 128 -480s-42.667 -324.667 -128 -480l-97 48c66 141.333 99 285.333 99 432z" />
    <glyph glyph-name="asterisk" unicode="*" horiz-adv-x="506" 
d="M165 284l-83 60l88 119l-141 46l31 98l143 -45v148h102v-148l141 46l32 -98l-142 -47l89 -119l-83 -60l-87 118z" />
    <glyph glyph-name="plus" unicode="+" horiz-adv-x="490" 
d="M35 224v131h145v145h130v-145h145v-131h-145v-145h-130v145h-145z" />
    <glyph glyph-name="comma" unicode="," horiz-adv-x="289" 
d="M79 -170l48 170h-72v179h179v-179l-71 -170h-84z" />
    <glyph glyph-name="hyphen" unicode="-" horiz-adv-x="404" 
d="M55 208v144h294v-144h-294z" />
    <glyph glyph-name="period" unicode="." horiz-adv-x="289" 
d="M234 0h-179v179h179v-179z" />
    <glyph glyph-name="slash" unicode="/" horiz-adv-x="556" 
d="M17 -110l386 820h136l-386 -820h-136z" />
    <glyph glyph-name="zero" unicode="0" horiz-adv-x="633" 
d="M317 -11c-79.333 0 -144 26.667 -194 80s-75 121.333 -75 204v165c0 82.667 25 150.667 75 204s114.667 80 194 80c78.667 0 143 -26.667 193 -80s75 -121.333 75 -204v-165c0 -82.667 -25 -150.667 -75 -204s-114.333 -80 -193 -80zM317 138
c35.333 0 63.666 12 84.999 36s32 57 32 99v165c0 42 -10.667 75 -32 99s-49.666 36 -84.999 36c-36 0 -64.667 -12 -86 -36s-32 -57 -32 -99v-165c0 -42 10.667 -75 32 -99s50 -36 86 -36z" />
    <glyph glyph-name="one" unicode="1" horiz-adv-x="376" 
d="M150 0v561h-131v149h282v-710h-151z" />
    <glyph glyph-name="two" unicode="2" horiz-adv-x="577" 
d="M41 0l-0.000976562 133.001l277 268c18 18 31.5 34.333 40.5 49s13.5 31 13.5 49c0 20.667 -7.33301 38.167 -22 52.5s-34.667 21.5 -60 21.5s-47.5 -8.83301 -66.5 -26.5s-32.833 -40.167 -41.5 -67.5l-146 36c16 65.333 47 116.166 93 152.499s102 54.5 168 54.5
c64.667 0 118.334 -18.5 161.001 -55.5s64 -90.167 64 -159.5c0 -47.333 -9.5 -87.5 -28.5 -120.5s-47.833 -68.167 -86.5 -105.5l-137 -132h259v-149h-488z" />
    <glyph glyph-name="three" unicode="3" horiz-adv-x="569" 
d="M277 -12c-58.667 0 -113.334 16.832 -164.001 50.499s-83 77.5 -97 131.5l145 57c10 -27.333 25.333 -49.166 46 -65.499s45.334 -24.5 74.001 -24.5c32.667 0 57 8 73 24s24 36.667 24 62c0 28 -10.167 50.667 -30.5 68s-46.5 26 -78.5 26h-94v124l120 123h-226v146h427
v-118l-146 -150c58 -8 102.333 -32 133 -72s46 -89 46 -147c0 -72 -23 -129.167 -69 -171.5s-107 -63.5 -183 -63.5z" />
    <glyph glyph-name="four" unicode="4" horiz-adv-x="643" 
d="M365 0v154h-347v122l362 434h136v-418h91v-138h-91v-154h-151zM202 292h163v195z" />
    <glyph glyph-name="five" unicode="5" horiz-adv-x="588" 
d="M298 -11c-60 0 -115.332 17 -165.999 51s-83 78 -97 132l144 56c22 -60 61.667 -90 119 -90c32.667 0 57.667 9 75 27s26 41.667 26 71c0 26.667 -9.33301 49.667 -28 69s-42 29 -70 29c-20.667 0 -39.167 -4.83301 -55.5 -14.5s-27.833 -22.5 -34.5 -38.5h-142v429h432
v-146h-281v-122c26.667 18.667 61.667 28 105 28c70 0 125 -22.5 165 -67.5s60 -104.167 60 -177.5s-22.833 -131 -68.5 -173s-106.834 -63 -183.501 -63z" />
    <glyph glyph-name="six" unicode="6" horiz-adv-x="572" 
d="M284 -11c-76 0 -136.667 23.332 -182 69.999s-68 106 -68 178c0 22.667 3.66699 44.5 11 65.5s15.5 38.667 24.5 53s25.167 38.5 48.5 72.5l198 282h186l-174 -248c54 -4.66699 101.833 -27.167 143.5 -67.5s62.5 -93.166 62.5 -158.499
c0 -71.333 -22.667 -130.333 -68 -177s-106 -70 -182 -70zM284 133.999c28 0 51.333 9.66699 70 29s28 43 28 71s-9.33301 51.667 -28 71s-42 29 -70 29c-29.333 0 -53 -9.5 -71 -28.5s-27 -42.833 -27 -71.5s9 -52.5 27 -71.5s41.667 -28.5 71 -28.5z" />
    <glyph glyph-name="seven" unicode="7" horiz-adv-x="552" 
d="M212 0h-171l318 564h-324v146h503v-131z" />
    <glyph glyph-name="eight" unicode="8" horiz-adv-x="592" 
d="M296 -11c-73.333 0 -134.335 21.668 -183.002 65.001s-73 98.333 -73 165c0 75.333 28.333 131 85 167c-38 36 -57 83 -57 141c0 56.667 20.833 103.334 62.5 140.001s96.834 55 165.501 55s123.834 -18.333 165.501 -55s62.5 -83.334 62.5 -140.001
c0 -57.333 -19.333 -104.333 -58 -141c57.333 -36.667 86 -92.334 86 -167.001c0 -66.667 -24.5 -121.667 -73.5 -165s-109.833 -65 -182.5 -65zM295.998 128.001c30 0 54.167 9.5 72.5 28.5s27.5 41.167 27.5 66.5s-9.16699 47.5 -27.5 66.5s-42.5 28.5 -72.5 28.5
c-30.667 0 -55 -9.5 -73 -28.5s-27 -41.167 -27 -66.5s9 -47.5 27 -66.5s42.333 -28.5 73 -28.5zM295.998 437.001c23.333 0 42.833 7.16699 58.5 21.5s23.5 32.5 23.5 54.5s-7.83301 40.167 -23.5 54.5s-35.167 21.5 -58.5 21.5s-42.833 -7.16699 -58.5 -21.5
s-23.5 -32.5 -23.5 -54.5s7.83301 -40.167 23.5 -54.5s35.167 -21.5 58.5 -21.5z" />
    <glyph glyph-name="nine" unicode="9" horiz-adv-x="572" 
d="M69 0l174 248c-54 4.66699 -101.667 27.167 -143 67.5s-62 93.5 -62 159.5c0 71.333 22.667 130.333 68 177s106 70 182 70s136.667 -23.333 182 -70s68 -106 68 -178c0 -32 -6 -60.333 -18 -85s-34 -60 -66 -106l-199 -283h-186zM288 377c29.333 0 53 9.5 71 28.5
s27 42.833 27 71.5s-9 52.5 -27 71.5s-41.667 28.5 -71 28.5c-28 0 -51.333 -9.66699 -70 -29s-28 -43 -28 -71s9.33301 -51.667 28 -71s42 -29 70 -29z" />
    <glyph glyph-name="colon" unicode=":" horiz-adv-x="289" 
d="M234 311h-179v179h179v-179zM234 0h-179v179h179v-179z" />
    <glyph glyph-name="semicolon" unicode=";" horiz-adv-x="289" 
d="M234 311h-179v179h179v-179zM79 -170l48 170h-72v179h179v-179l-71 -170h-84z" />
    <glyph glyph-name="less" unicode="&#x3c;" horiz-adv-x="469" 
d="M419 -11l-379 234v145l379 234v-152l-251 -155l251 -153v-153z" />
    <glyph glyph-name="equal" unicode="=" horiz-adv-x="536" 
d="M58 120v130h420v-130h-420zM58 328v131h420v-131h-420z" />
    <glyph glyph-name="greater" unicode="&#x3e;" horiz-adv-x="469" 
d="M429 223l-379 -234v153l251 153l-251 155v152l379 -234v-145z" />
    <glyph glyph-name="question" unicode="?" horiz-adv-x="546" 
d="M176 263l-0.000976562 19.001c0 28.667 6.83301 53.167 20.5 73.5s35.167 40.833 64.5 61.5c5.33301 4 15.5 10.667 30.5 20s25.333 16.166 31 20.499s11.5 11.333 17.5 21s9 20.167 9 31.5c0 19.333 -7.33301 34.666 -22 45.999s-32.667 17 -54 17
c-23.333 0 -46.833 -6 -70.5 -18s-43.834 -30.333 -60.501 -55l-119 82c22.667 38.667 56.334 71.667 101.001 99s95.334 41 152.001 41c64 0 117.333 -20.167 160 -60.5s64 -87.833 64 -142.5c0 -37.333 -6 -69.5 -18 -96.5s-34.667 -52.5 -68 -76.5l-28.5 -21l-25.5 -19
c-5.33301 -4 -11 -8.66699 -17 -14s-10.167 -10.166 -12.5 -14.499s-3.5 -8.83301 -3.5 -13.5v-1h-151zM340.999 0.000976562h-179v179h179v-179z" />
    <glyph glyph-name="at" unicode="@" horiz-adv-x="800" 
d="M383 -11c-106.667 0 -190.999 33.002 -252.999 99.002s-93 149 -93 249c0 111.333 38 203.333 114 276s167 109 273 109c100 0 182.333 -28.667 247 -86s97 -134 97 -230c0 -82.667 -17.167 -144.834 -51.5 -186.501s-78.833 -62.5 -133.5 -62.5
c-22.667 0 -43.667 4.5 -63 13.5s-34 20.5 -44 34.5c-30.667 -30.667 -71.334 -46 -122.001 -46c-48 0 -86.167 16.667 -114.5 50s-42.5 74 -42.5 122c0 60 19.167 111.5 57.5 154.5s85.5 64.5 141.5 64.5c24 0 45.167 -5.5 63.5 -16.5s31.5 -24.167 39.5 -39.5l9 46h105
l-46 -216c-10.667 -52.667 1 -79 35 -79c54.667 0 82 54.333 82 163c0 74 -25.167 131.333 -75.5 172s-112.166 61 -185.499 61c-82 0 -152.167 -27.333 -210.5 -82s-87.5 -128.667 -87.5 -222c0 -80.667 22.667 -145.334 68 -194.001s108.666 -73 189.999 -73
c66.667 0 126.667 14 180 42l32 -79c-59.333 -29.333 -130 -44 -212 -44zM377.001 257.002c33.333 0 59.333 13.667 78 41l24 109c-4.66699 11.333 -13.667 21.666 -27 30.999s-29.333 14 -48 14c-23.333 0 -43.333 -8 -60 -24s-27.667 -37 -33 -63
c-6.66699 -29.333 -3.5 -54.666 9.5 -75.999s31.833 -32 56.5 -32z" />
    <glyph glyph-name="A" unicode="A" horiz-adv-x="750" 
d="M-1 0l304 710h144l304 -710h-166l-63 150h-294l-63 -150h-166zM375 501l-90 -213h179z" />
    <glyph glyph-name="B" unicode="B" horiz-adv-x="635" 
d="M75 0l-0.000976562 709.999h267c58 0 107.667 -20.5 149 -61.5s62 -90.833 62 -149.5c0 -47.333 -17 -88 -51 -122c30.667 -16 55.167 -38.667 73.5 -68s27.5 -62.666 27.5 -99.999c0 -58.667 -20.667 -108.167 -62 -148.5s-92.666 -60.5 -153.999 -60.5h-312z
M233.999 145.999h139.999c21.333 0 39 6.83301 53 20.5s21 30.5 21 50.5s-7.16699 36.833 -21.5 50.5s-32.166 20.5 -53.499 20.5h-139v-142zM233.998 422.999h90c21.333 0 39 6.66699 53 20s21 30 21 50s-7 37 -21 51s-31.667 21 -53 21h-90v-142z" />
    <glyph glyph-name="C" unicode="C" horiz-adv-x="752" 
d="M402 -12c-101.333 0 -187.833 35.833 -259.5 107.5s-107.5 158.167 -107.5 259.5s35.833 187.833 107.5 259.5s158.167 107.5 259.5 107.5c72.667 0 138.334 -17.667 197.001 -53s103.667 -82.333 135 -141l-140 -76c-42.667 77.333 -106.667 116 -192 116
c-57.333 0 -106.166 -21 -146.499 -63s-60.5 -92 -60.5 -150s20.167 -108 60.5 -150s89.166 -63 146.499 -63c85.333 0 149.333 38.667 192 116l140 -76c-31.333 -58.667 -76.333 -105.667 -135 -141s-124.334 -53 -197.001 -53z" />
    <glyph glyph-name="D" unicode="D" horiz-adv-x="715" 
d="M75 0v710h242c100 0 185.333 -34.667 256 -104s106 -153 106 -251s-35.333 -181.667 -106 -251s-156 -104 -256 -104h-242zM234 146h83c58.667 0 106.834 20.167 144.501 60.5s56.5 89.833 56.5 148.5s-18.833 108.167 -56.5 148.5s-85.834 60.5 -144.501 60.5h-83v-418z
" />
    <glyph glyph-name="E" unicode="E" horiz-adv-x="571" 
d="M75 0v710h450v-152h-291v-127h231v-152h-231v-127h291v-152h-450z" />
    <glyph glyph-name="F" unicode="F" horiz-adv-x="545" 
d="M75 0v710h437v-152h-278v-128h217v-152h-217v-278h-159z" />
    <glyph glyph-name="G" unicode="G" horiz-adv-x="763" 
d="M422 -12c-110 0 -201.833 35.168 -275.5 105.501s-110.5 157.5 -110.5 261.5c0 102.667 35.167 189.5 105.5 260.5s159.833 106.5 268.5 106.5c122 0 219 -40.333 291 -121l-112 -109c-47.333 50.667 -107 76 -179 76c-62.667 0 -114 -20.833 -154 -62.5
s-60 -91.834 -60 -150.501c0 -61.333 20.333 -112.166 61 -152.499s95 -60.5 163 -60.5c62.667 0 108.667 11.333 138 34v105h-139v149h294v-337c-30.667 -34.667 -71.667 -60.834 -123 -78.501s-107.333 -26.5 -168 -26.5z" />
    <glyph glyph-name="H" unicode="H" horiz-adv-x="754" 
d="M75 0v710h159v-278h286v278h159v-710h-159v281h-286v-281h-159z" />
    <glyph glyph-name="I" unicode="I" horiz-adv-x="309" 
d="M75 0v710h159v-710h-159z" />
    <glyph glyph-name="J" unicode="J" horiz-adv-x="471" 
d="M177 -12c-70 0 -129.334 22 -178.001 66l88 118c26 -24 53.667 -36 83 -36c20.667 0 37.834 5.66699 51.501 17s20.5 28.333 20.5 51v506h159v-516c0 -67.333 -21.833 -118.5 -65.5 -153.5s-96.5 -52.5 -158.5 -52.5z" />
    <glyph glyph-name="K" unicode="K" horiz-adv-x="700" 
d="M522 0l-289 318v-318h-158v710h158v-297l241 297h195l-280 -341l337 -369h-204z" />
    <glyph glyph-name="L" unicode="L" horiz-adv-x="552" 
d="M75 0v710h159v-558h294v-152h-453z" />
    <glyph glyph-name="M" unicode="M" horiz-adv-x="883" 
d="M75 0v710h145l221 -362l222 362h145v-710h-160v406l-154 -254h-104l-156 256v-408h-159z" />
    <glyph glyph-name="N" unicode="N" horiz-adv-x="792" 
d="M717 0h-137l-346 439v-439h-159v710h137l345 -439v439h160v-710z" />
    <glyph glyph-name="O" unicode="O" horiz-adv-x="804" 
d="M402 142c57.333 0 106 21 146 63s60 92 60 150s-20 108 -60 150s-88.667 63 -146 63s-106.166 -21 -146.499 -63s-60.5 -92 -60.5 -150s20.167 -108 60.5 -150s89.166 -63 146.499 -63zM402 -12c-101.333 0 -187.833 35.833 -259.5 107.5s-107.5 158.167 -107.5 259.5
s35.833 187.833 107.5 259.5s158.167 107.5 259.5 107.5s187.833 -36 259.5 -108s107.5 -158.333 107.5 -259s-35.833 -187 -107.5 -259s-158.167 -108 -259.5 -108z" />
    <glyph glyph-name="P" unicode="P" horiz-adv-x="593" 
d="M566 467c0 -68.667 -23.833 -126.166 -71.5 -172.499s-107.167 -69.5 -178.5 -69.5h-82v-225h-159v710h241c71.333 0 130.833 -23.333 178.5 -70s71.5 -104.334 71.5 -173.001zM412 467.001c0 26.667 -9.16699 48.833 -27.5 66.5s-41.833 26.5 -70.5 26.5h-80v-186h80
c28 0 51.333 9 70 27s28 40 28 66z" />
    <glyph glyph-name="Q" unicode="Q" horiz-adv-x="814" 
d="M402 -12c-101.333 0 -187.833 35.834 -259.5 107.501s-107.5 158.167 -107.5 259.5s35.833 187.833 107.5 259.5s158.167 107.5 259.5 107.5s187.833 -36 259.5 -108s107.5 -158.333 107.5 -259c0 -66.667 -17.333 -129.334 -52 -188.001l79 -64l-90 -111l-85 69
c-63.333 -48.667 -136.333 -73 -219 -73zM402 142.001c32 0 62.667 7.66797 92 23.001l-101 82l90 110l107 -87c12 29.333 18 57.666 18 84.999c0 58 -20 108 -60 150s-88.667 63 -146 63s-106.166 -21 -146.499 -63s-60.5 -92 -60.5 -150s20.167 -108 60.5 -150
s89.166 -63 146.499 -63z" />
    <glyph glyph-name="R" unicode="R" horiz-adv-x="662" 
d="M75 0v710h280c65.333 0 118.333 -20.667 159 -62s61 -92 61 -152c0 -89.333 -46.333 -150.333 -139 -183l251 -313h-191l-237 293h-25v-293h-159zM234 428h102c24 0 43.5 6.33301 58.5 19s22.5 29 22.5 49c0 21.333 -7.5 38 -22.5 50s-34.5 18 -58.5 18h-102v-136z" />
    <glyph glyph-name="S" unicode="S" horiz-adv-x="574" 
d="M286 -12c-56 0 -106.833 11.1699 -152.5 33.5029s-82.5 53.5 -110.5 93.5l122 103c17.333 -24.667 39.5 -44.334 66.5 -59.001s53.833 -22 80.5 -22c26 0 46.833 5.5 62.5 16.5s23.5 25.167 23.5 42.5c0 18 -7.66699 33.667 -23 47s-40.666 26 -75.999 38l-50 17
c-119.333 40 -179 108.333 -179 205c0 67.333 22.833 120.666 68.5 159.999s104.5 59 176.5 59c92 0 168.333 -32.667 229 -98l-104 -110c-32.667 39.333 -73.667 59 -123 59c-23.333 0 -43.5 -4.66699 -60.5 -14s-25.5 -22.666 -25.5 -39.999c0 -18 8 -32.5 24 -43.5
s44.667 -23.833 86 -38.5l50 -18c113.333 -40.667 169.666 -111.334 168.999 -212.001c0 -64.667 -23.833 -117.334 -71.5 -158.001s-108.5 -61 -182.5 -61z" />
    <glyph glyph-name="T" unicode="T" horiz-adv-x="568" 
d="M203 0v558h-181v152h524v-152h-183v-558h-160z" />
    <glyph glyph-name="U" unicode="U" horiz-adv-x="718" 
d="M359 -12c-86 0 -156.167 26.833 -210.5 80.5s-81.5 124.5 -81.5 212.5v429h159v-431c0 -42 12.167 -75.333 36.5 -100s56.5 -37 96.5 -37s72.167 12.333 96.5 37s36.5 58 36.5 100v431h159v-429c0 -88 -27.167 -158.833 -81.5 -212.5s-124.5 -80.5 -210.5 -80.5z" />
    <glyph glyph-name="V" unicode="V" horiz-adv-x="727" 
d="M292 0l-291 710h173l189 -473l188 473h175l-291 -710h-143z" />
    <glyph glyph-name="W" unicode="W" horiz-adv-x="1026" 
d="M228 0l-221 710h168l129 -452l138 452h140l138 -453l129 453h170l-221 -710h-144l-142 467l-141 -467h-143z" />
    <glyph glyph-name="X" unicode="X" horiz-adv-x="704" 
d="M177 0h-186l266 359l-250 351h184l161 -228l161 228h184l-249 -351l265 -359h-185l-176 235z" />
    <glyph glyph-name="Y" unicode="Y" horiz-adv-x="694" 
d="M267 0v299l-259 411h185l153 -256l155 256h185l-259 -412v-298h-160z" />
    <glyph glyph-name="Z" unicode="Z" horiz-adv-x="626" 
d="M39 0v109l326 449h-321v152h537v-109l-327 -449h333v-152h-548z" />
    <glyph glyph-name="bracketleft" unicode="[" horiz-adv-x="331" 
d="M72 -160v960h230v-108h-104v-744h104v-108h-230z" />
    <glyph glyph-name="backslash" unicode="\" horiz-adv-x="556" 
d="M153 710l386 -820h-136l-386 820h136z" />
    <glyph glyph-name="bracketright" unicode="]" horiz-adv-x="331" 
d="M259 800v-960h-230v108h104v744h-104v108h230z" />
    <glyph glyph-name="asciicircum" unicode="^" horiz-adv-x="331" 
d="M120 500h-82l102 210h52l101 -210h-82l-46 94z" />
    <glyph glyph-name="underscore" unicode="_" horiz-adv-x="511" 
d="M38 -114v114h435v-114h-435z" />
    <glyph glyph-name="grave" unicode="`" 
d="M126 556h-110l-143 174h173z" />
    <glyph glyph-name="a" unicode="a" horiz-adv-x="609" 
d="M278 -11c-72 0 -130.999 25.5 -176.999 76.5s-69 112.5 -69 184.5s23 133.5 69 184.5s105 76.5 177 76.5c47.333 0 86.666 -14 117.999 -42v31h151v-500h-151v32c-30.667 -28.667 -70 -43 -118 -43zM301.001 126c39.333 0 71.001 16 95.001 48v153
c-24.667 31.333 -56.334 47 -95.001 47c-33.333 0 -60.5 -12 -81.5 -36s-31.5 -53.333 -31.5 -88s10.5 -64 31.5 -88s48.167 -36 81.5 -36z" />
    <glyph glyph-name="b" unicode="b" horiz-adv-x="610" 
d="M331 -11c-48 0 -87.332 14.333 -117.999 43v-32h-151v730h151v-261c31.333 28 70.666 42 117.999 42c72 0 131 -25.5 177 -76.5s69 -112.5 69 -184.5s-23 -133.5 -69 -184.5s-105 -76.5 -177 -76.5zM308.001 126c33.333 0 60.501 12 81.501 36s31.5 53.333 31.5 88
s-10.5 64 -31.5 88s-48.167 36 -81.5 36c-38.667 0 -70.334 -15.667 -95.001 -47v-153c24 -32 55.667 -48 95 -48z" />
    <glyph glyph-name="c" unicode="c" horiz-adv-x="556" 
d="M298 -11c-74.667 0 -137.667 24.6709 -189 74.0039s-77 111.666 -77 186.999s25.667 137.666 77 186.999s114.333 74 189 74c51.333 0 98.666 -13.333 141.999 -40s75.666 -62 96.999 -106l-132 -70c-22 50 -57.667 75 -107 75c-32 0 -59 -11.333 -81 -34
s-33 -51.334 -33 -86.001s11 -63.334 33 -86.001s49 -34 81 -34c49.333 0 85 25 107 75l132 -70c-21.333 -44 -53.666 -79.333 -96.999 -106s-90.666 -40 -141.999 -40z" />
    <glyph glyph-name="d" unicode="d" horiz-adv-x="609" 
d="M278 -11c-72 0 -130.999 25.5 -176.999 76.5s-69 112.5 -69 184.5s23 133.5 69 184.5s105 76.5 177 76.5c47.333 0 86.666 -14 117.999 -42v261h151v-730h-151v32c-30.667 -28.667 -70 -43 -118 -43zM301.001 126c39.333 0 71.001 16 95.001 48v153
c-24.667 31.333 -56.334 47 -95.001 47c-33.333 0 -60.5 -12 -81.5 -36s-31.5 -53.333 -31.5 -88s10.5 -64 31.5 -88s48.167 -36 81.5 -36z" />
    <glyph glyph-name="e" unicode="e" horiz-adv-x="577" 
d="M298 -11c-75.333 0 -138.499 23.8311 -189.499 71.498s-76.5 110.834 -76.5 189.501c0 74.667 25 136.834 75 186.501s112.667 74.5 188 74.5c70 0 129 -21.333 177 -64s72 -102.667 72 -180c0 -19.333 -1 -37 -3 -53h-363c4 -28.667 17.667 -50.5 41 -65.5
s50.333 -22.5 81 -22.5c27.333 0 51.666 5.5 72.999 16.5s37.333 24.5 48 40.5l112 -84c-24 -34 -56.333 -60.833 -97 -80.5s-86.667 -29.5 -138 -29.5zM182.001 312.998l212 -0.00195312c-6 24.667 -18.667 43.334 -38 56.001s-41 19 -65 19
c-25.333 0 -48.333 -6.16699 -69 -18.5s-34 -31.166 -40 -56.499z" />
    <glyph glyph-name="f" unicode="f" horiz-adv-x="468" 
d="M136 0v368.999h-120v131h120v28c0 58.667 17.5 108 52.5 148s85.167 60 150.5 60c48 0 92.667 -10 134 -30l-55 -123c-21.333 11.333 -41 17 -59 17c-22 0 -39.5 -6.66699 -52.5 -20s-19.5 -30.666 -19.5 -51.999v-28h167v-131h-167v-369h-151z" />
    <glyph glyph-name="g" unicode="g" horiz-adv-x="614" 
d="M286 -204c-91.333 0 -164.331 21.332 -218.998 63.999l79 113c39.333 -30 85.333 -45 138 -45c31.333 0 58.666 8.33301 81.999 25s35 40.667 35 72v29c-30.667 -28.667 -70.667 -43 -120 -43c-71.333 0 -130.666 24 -177.999 72s-71 107.333 -71 178s23.667 130 71 178
s106.666 72 177.999 72c48.667 0 88.667 -14 120 -42v31h151v-473c0 -35.333 -5.33301 -66.666 -16 -93.999s-24.5 -49.333 -41.5 -66s-37.5 -30.5 -61.5 -41.5s-47.833 -18.667 -71.5 -23s-48.834 -6.5 -75.501 -6.5zM306.002 147.999c39.333 0 71.001 16 95.001 48v131
c-24.667 31.333 -56.334 47 -95.001 47c-34.667 0 -63 -10.5 -85 -31.5s-33 -48.167 -33 -81.5s11 -60.5 33 -81.5s50.333 -31.5 85 -31.5z" />
    <glyph glyph-name="h" unicode="h" horiz-adv-x="602" 
d="M213 0h-150.999v730h151v-266c33.333 31.333 76.666 47 129.999 47c64 0 113.833 -20.5 149.5 -61.5s53.5 -95.833 53.5 -164.5v-285h-151v259c0 35.333 -7 63.333 -21 84s-35.333 31 -64 31c-40.667 0 -73 -15.333 -97 -46v-328z" />
    <glyph glyph-name="i" unicode="i" horiz-adv-x="275" 
d="M137 548c-25.333 0 -47.333 9.16699 -66 27.5s-28 40.5 -28 66.5s9.33301 48.167 28 66.5s40.667 27.5 66 27.5c26.667 0 49.167 -9.16699 67.5 -27.5s27.5 -40.5 27.5 -66.5s-9.16699 -48.167 -27.5 -66.5s-40.833 -27.5 -67.5 -27.5zM62 0v500h151v-500h-151z" />
    <glyph glyph-name="j" unicode="j" horiz-adv-x="283" 
d="M26 -199c-48 0 -89.334 7.99902 -124.001 23.999l35 123c22 -11.333 44.667 -17 68 -17c43.333 0 65 28 65 84v485h151v-510c0 -61.333 -18.167 -108.166 -54.5 -140.499s-83.166 -48.5 -140.499 -48.5zM144.999 547.999c-25.333 0 -47.333 9.16699 -66 27.5
s-28 40.5 -28 66.5s9.33301 48.167 28 66.5s40.667 27.5 66 27.5c26.667 0 49.167 -9.16699 67.5 -27.5s27.5 -40.5 27.5 -66.5s-9.16699 -48.167 -27.5 -66.5s-40.833 -27.5 -67.5 -27.5z" />
    <glyph glyph-name="k" unicode="k" horiz-adv-x="560" 
d="M399 0l-186 223v-223h-151v730h151v-409l146 179h179l-184 -226l228 -274h-183z" />
    <glyph glyph-name="l" unicode="l" horiz-adv-x="275" 
d="M62 0v730h151v-730h-151z" />
    <glyph glyph-name="m" unicode="m" horiz-adv-x="895" 
d="M688 0l-0.000976562 256.001c0 77.333 -26.333 116 -79 116c-38.667 0 -67.667 -16 -87 -48c2.66699 -11.333 4 -25 4 -41v-283h-151v256c0 77.333 -26.333 116 -79 116c-16.667 0 -32.667 -4 -48 -12s-27 -18.333 -35 -31v-329h-151v500h151v-35
c12 13.333 28.833 24.333 50.5 33s43.5 13 65.5 13c56.667 0 103.334 -20.333 140.001 -61c38 40.667 91.667 61 161 61c70 0 122.333 -21.333 157 -64s52 -97.334 52 -164.001v-283h-151z" />
    <glyph glyph-name="n" unicode="n" horiz-adv-x="602" 
d="M62 0l0.000976562 500h151v-36c33.333 31.333 76.666 47 129.999 47c64 0 113.833 -20.5 149.5 -61.5s53.5 -95.833 53.5 -164.5v-285h-151v259c0 35.333 -7 63.333 -21 84s-35.333 31 -64 31c-40.667 0 -73 -15.333 -97 -46v-328h-151z" />
    <glyph glyph-name="o" unicode="o" horiz-adv-x="588" 
d="M294 -11c-72.667 0 -134.667 25.167 -186 75.5s-77 112.166 -77 185.499s25.667 135.166 77 185.499s113.333 75.5 186 75.5s134.667 -25.167 186 -75.5s77 -112.166 77 -185.499s-25.667 -135.166 -77 -185.499s-113.333 -75.5 -186 -75.5zM294 130
c32 0 58.5 11 79.5 33s31.5 51 31.5 87s-10.5 65 -31.5 87s-47.5 33 -79.5 33s-58.5 -11 -79.5 -33s-31.5 -51 -31.5 -87s10.5 -65 31.5 -87s47.5 -33 79.5 -33z" />
    <glyph glyph-name="p" unicode="p" horiz-adv-x="610" 
d="M62 -194l0.000976562 694h151v-31c31.333 28 70.666 42 117.999 42c72 0 131 -25.5 177 -76.5s69 -112.5 69 -184.5s-23 -133.5 -69 -184.5s-105 -76.5 -177 -76.5c-48 0 -87.333 14.333 -118 43v-226h-151zM308.001 126c33.333 0 60.501 12 81.501 36
s31.5 53.333 31.5 88s-10.5 64 -31.5 88s-48.167 36 -81.5 36c-38.667 0 -70.334 -15.667 -95.001 -47v-153c24 -32 55.667 -48 95 -48z" />
    <glyph glyph-name="q" unicode="q" horiz-adv-x="609" 
d="M396 -194l0.000976562 226c-30.667 -28.667 -70 -43 -118 -43c-72 0 -131 25.5 -177 76.5s-69 112.5 -69 184.5s23 133.5 69 184.5s105 76.5 177 76.5c47.333 0 86.666 -14 117.999 -42v31h151v-694h-151zM301.001 126c39.333 0 71.001 16 95.001 48v153
c-24.667 31.333 -56.334 47 -95.001 47c-33.333 0 -60.5 -12 -81.5 -36s-31.5 -53.333 -31.5 -88s10.5 -64 31.5 -88s48.167 -36 81.5 -36z" />
    <glyph glyph-name="r" unicode="r" horiz-adv-x="394" 
d="M62 0l-0.000976562 500h151v-56c8 18 22.333 32.833 43 44.5s43.334 17.5 68.001 17.5c22.667 0 43 -3.33301 61 -10l-23 -141c-5.33301 4 -19.333 6 -42 6c-50 0 -85.667 -15 -107 -45v-316h-151z" />
    <glyph glyph-name="s" unicode="s" horiz-adv-x="461" 
d="M234 -11c-92.667 0 -162.001 29.998 -208.001 89.998l100 91c24 -34.667 60 -52 108 -52c30.667 0 46 9.33301 46 28c0 8.66699 -4 15.834 -12 21.501s-24.333 11.5 -49 17.5l-33 8c-47.333 11.333 -83.166 31.333 -107.499 60s-35.833 63.334 -34.5 104.001
c1.33301 46 19.833 83.167 55.5 111.5s81.167 42.5 136.5 42.5c77.333 0 136 -27.667 176 -83l-98 -81c-21.333 26.667 -47.666 40 -78.999 40c-27.333 0 -41 -8.66699 -41 -26c0 -16 14 -28 42 -36l46 -12c48 -12.667 84.5 -31.5 109.5 -56.5s37.5 -58.833 37.5 -101.5
c0 -47.333 -18.833 -86.833 -56.5 -118.5s-83.834 -47.5 -138.501 -47.5z" />
    <glyph glyph-name="t" unicode="t" horiz-adv-x="478" 
d="M338 -6c-62 0 -111.499 15.999 -148.499 47.999s-55.5 79 -55.5 141v186h-120v131h120v152h151v-152h150v-131h-150v-155c0 -29.333 6 -50.5 18 -63.5s31 -19.5 57 -19.5c25.333 0 48 5.33301 68 16l45 -123c-12.667 -7.33301 -32.334 -14.166 -59.001 -20.499
s-52 -9.5 -76 -9.5z" />
    <glyph glyph-name="u" unicode="u" horiz-adv-x="591" 
d="M529 500v-500h-151v34c-32 -30 -70.667 -45 -116 -45c-65.333 0 -116 20.5 -152 61.5s-54 95.833 -54 164.5v285h151v-259c0 -76.667 29 -115 87 -115c32 0 60 15.333 84 46v328h151z" />
    <glyph glyph-name="v" unicode="v" horiz-adv-x="576" 
d="M218 0l-219 500h167l121 -304l122 304h168l-219 -500h-140z" />
    <glyph glyph-name="w" unicode="w" horiz-adv-x="810" 
d="M491 0l-86 264l-85 -264h-152l-165 500h162l87 -307l95 307h116l95 -307l87 307h162l-164 -500h-152z" />
    <glyph glyph-name="x" unicode="x" horiz-adv-x="577" 
d="M395 0l-106 136l-106 -136h-181l192 242l-190 258h178l106 -146l106 146h180l-190 -258l191 -242h-180z" />
    <glyph glyph-name="y" unicode="y" horiz-adv-x="576" 
d="M274 -194h-163l97 223l-208 471h165l124 -309l123 309h166z" />
    <glyph glyph-name="z" unicode="z" horiz-adv-x="502" 
d="M41 0v118l219 246h-216v136h412v-119l-219 -245h227v-136h-423z" />
    <glyph glyph-name="braceleft" unicode="{" horiz-adv-x="347" 
d="M319 -160h-88c-44 0 -78.833 12.833 -104.5 38.5s-38.5 60.167 -38.5 103.5v229c0 36.667 -17.667 55 -53 55h-8v108h8c35.333 0 53 17.667 53 53v231c0 43.333 12.833 77.833 38.5 103.5s60.5 38.5 104.5 38.5h88v-108h-48c-20.667 0 -35.167 -4.16699 -43.5 -12.5
s-12.5 -23.166 -12.5 -44.499v-217c0 -54.667 -21 -87.334 -63 -98.001c42 -10.667 63 -44.334 63 -101.001v-214c0 -21.333 4.16699 -36.166 12.5 -44.499s22.833 -12.5 43.5 -12.5h48v-108z" />
    <glyph glyph-name="bar" unicode="|" horiz-adv-x="268" 
d="M71 -110v820h126v-820h-126z" />
    <glyph glyph-name="braceright" unicode="}" horiz-adv-x="347" 
d="M116 -160h-88v108h48c20.667 0 35.167 4.16699 43.5 12.5s12.5 23.166 12.5 44.499v214c0 56.667 21 90.334 63 101.001c-42 10.667 -63 43.334 -63 98.001v217c0 21.333 -4.16699 36.166 -12.5 44.499s-22.833 12.5 -43.5 12.5h-48v108h88
c44 0 78.833 -12.833 104.5 -38.5s38.5 -60.167 38.5 -103.5v-231c0 -35.333 17.667 -53 53 -53h8v-108h-8c-35.333 0 -53 -18.333 -53 -55v-229c0 -43.333 -12.833 -77.833 -38.5 -103.5s-60.5 -38.5 -104.5 -38.5z" />
    <glyph glyph-name="asciitilde" unicode="~" horiz-adv-x="328" 
d="M56 230l55 119h46l28 -40l18 40h73l-55 -119h-46l-29 40l-18 -40h-72z" />
    <glyph glyph-name="uni00A0" unicode="&#xa0;" horiz-adv-x="225" 
 />
    <glyph glyph-name="exclamdown" unicode="&#xa1;" horiz-adv-x="282" 
d="M187 255l30 -186v-263h-152v263l29 186h93zM231 321h-179v179h179v-179z" />
    <glyph glyph-name="cent" unicode="&#xa2;" horiz-adv-x="571" 
d="M271 -88v78.998c-68 6.66699 -124.333 33.834 -169 81.501s-67 106.834 -67 177.501c0 70 22.5 129 67.5 177s101.167 75.333 168.5 82v79h54v-78c46.667 -4 89.167 -19 127.5 -45s67.5 -59.333 87.5 -100l-132 -70c-16.667 40 -44.334 64 -83.001 72v-235
c38.667 8.66699 66.334 33 83.001 73l132 -70c-20 -40.667 -49 -74 -87 -100s-80.667 -41 -128 -45v-78h-54zM187 249.998c0 -29.333 7.66699 -54.499 23 -75.499s35.666 -34.833 60.999 -41.5v233c-25.333 -6.66699 -45.666 -20.334 -60.999 -41.001s-23 -45.667 -23 -75z
" />
    <glyph glyph-name="sterling" unicode="&#xa3;" horiz-adv-x="588" 
d="M44 328v57.002h74c-16.667 50 -25 90.333 -25 121c0 65.333 21.5 117.666 64.5 156.999s98.833 59 167.5 59c102 0 176.667 -41.333 224 -124l-118 -86c-24.667 40.667 -58.667 61 -102 61c-24.667 0 -45 -6.5 -61 -19.5s-24 -32.833 -24 -59.5
c0 -22.667 9.66699 -59 29 -109h166v-57h-146c9.33301 -32.667 14 -63.334 14 -92.001c0 -30 -8 -59 -24 -87h271v-149h-510v149h95c12.667 26 19 53.667 19 83c0 27.333 -6.33301 59.333 -19 96h-95z" />
    <glyph glyph-name="yen" unicode="&#xa5;" horiz-adv-x="735" 
d="M75 298v57h180l-231 355h184l159 -260l159 260h184l-230 -355h180v-57h-217v-76h217v-57h-217v-165h-151v165h-217v57h217v76h-217z" />
    <glyph glyph-name="brokenbar" unicode="&#xa6;" horiz-adv-x="268" 
d="M71 -110v343h126v-343h-126zM71 367v343h126v-343h-126z" />
    <glyph glyph-name="section" unicode="&#xa7;" horiz-adv-x="453" 
d="M235 -219c-49.333 0 -91.6641 14.332 -126.997 42.999s-55 72.667 -59 132h126c6.66699 -44.667 26.667 -67 60 -67c11.333 0 21.833 4.16699 31.5 12.5s14.5 20.5 14.5 36.5c0 12.667 -1 23 -3 31s-8.83301 18.833 -20.5 32.5s-28.834 27.167 -51.501 40.5l-55 35
c-68.667 44.667 -103 99.334 -103 164.001c0 25.333 4.5 49.666 13.5 72.999s16.667 39.333 23 48s18.166 23.667 35.499 45c-48.667 40.667 -73 92.334 -73 155.001c0 48.667 15.833 87.5 47.5 116.5s71.5 43.5 119.5 43.5s89.5 -14.333 124.5 -43s54.5 -72.667 58.5 -132
h-126c-6 44.667 -23.667 67 -53 67c-30 0 -45 -17 -45 -51c0 -11.333 1.16699 -20.666 3.5 -27.999s9 -16.833 20 -28.5s27.5 -24.167 49.5 -37.5l55 -35c70 -44 105 -98.667 105 -164c0 -8 -0.5 -16 -1.5 -24s-2 -15.167 -3 -21.5s-2.83301 -13 -5.5 -20l-6.5 -17.5
c-1.66699 -4.66699 -4.5 -10.334 -8.5 -17.001s-6.83301 -11.5 -8.5 -14.5s-5 -7.83301 -10 -14.5s-8.16699 -11 -9.5 -13s-4.83301 -6.33301 -10.5 -13s-8.83398 -10.667 -9.50098 -12c49.333 -45.333 74 -100 74 -164c0 -48 -16.5 -86.333 -49.5 -115
s-73.833 -43 -122.5 -43zM173.002 258.999c0 -22 4.66797 -39.168 14.001 -51.501s24.666 -25.166 45.999 -38.499l5 -3c28.667 28.667 43 57.334 43 86.001c0 21.333 -5.16699 38.666 -15.5 51.999s-25.5 26 -45.5 38l-5 2c-28 -26 -42 -54.333 -42 -85z" />
    <glyph glyph-name="dieresis" unicode="&#xa8;" 
d="M-118 562c-22 0 -41.001 7.83203 -57.001 23.499s-24 34.167 -24 55.5c0 22.667 7.83301 41.834 23.5 57.501s34.834 23.5 57.501 23.5c21.333 0 39.833 -8 55.5 -24s23.5 -35 23.5 -57c0 -21.333 -7.83301 -39.833 -23.5 -55.5s-34.167 -23.5 -55.5 -23.5z
M118.999 561.999c-22 0 -40.833 7.83301 -56.5 23.5s-23.5 34.167 -23.5 55.5c0 22.667 7.83301 41.834 23.5 57.501s34.5 23.5 56.5 23.5s40.833 -7.83301 56.5 -23.5s23.5 -34.834 23.5 -57.501c0 -21.333 -7.83301 -39.833 -23.5 -55.5s-34.5 -23.5 -56.5 -23.5z" />
    <glyph glyph-name="copyright" unicode="&#xa9;" horiz-adv-x="803" 
d="M401 76c76.667 0 142.334 27.333 197.001 82s82 120.334 82 197.001s-27.333 142.334 -82 197.001s-120.334 82 -197.001 82s-142.167 -27.333 -196.5 -82s-81.5 -120.334 -81.5 -197.001s27.167 -142.334 81.5 -197.001s119.833 -82 196.5 -82zM401 -12
c-100.667 0 -186.834 36 -258.501 108s-107.5 158.333 -107.5 259s35.833 187 107.5 259s157.834 108 258.501 108s187 -36 259 -108s108 -158.333 108 -259s-36 -187 -108 -259s-158.333 -108 -259 -108zM402 163c-53.333 0 -98.667 18.667 -136 56s-56 82.666 -56 135.999
c0 52.667 18.667 97.834 56 135.501s82.666 56.5 135.999 56.5c39.333 0 74.333 -9.16699 105 -27.5s54 -43.5 70 -75.5l-78 -42c-21.333 40 -53.666 60 -96.999 60c-29.333 0 -54 -10.667 -74 -32s-30 -46.333 -30 -75c0 -30 10 -55.333 30 -76s44.667 -31 74 -31
c42.667 0 75 19.667 97 59l78 -41c-16 -32 -39.333 -57.167 -70 -75.5s-65.667 -27.5 -105 -27.5z" />
    <glyph glyph-name="ordfeminine" unicode="&#xaa;" horiz-adv-x="399" 
d="M177 403c-42.667 0 -77.668 15.5 -105.001 46.5s-41 67.833 -41 110.5s13.667 79.5 41 110.5s62.333 46.5 105 46.5c26 0 46.333 -6.66699 61 -20v13h105v-300h-105v14c-15.333 -14 -35.666 -21 -60.999 -21zM194.999 498c16 0 30.333 7 43 21v82
c-12.667 14 -27 21 -43 21s-29.167 -6 -39.5 -18s-15.5 -26.667 -15.5 -44s5.16699 -32 15.5 -44s23.5 -18 39.5 -18z" />
    <glyph glyph-name="guillemotleft" unicode="&#xab;" horiz-adv-x="524" 
d="M396 250l90 -173l-95 -61l-152 234l152 234l95 -61zM185 250l90 -173l-95 -61l-152 234l152 234l95 -61z" />
    <glyph glyph-name="uni00AD" unicode="&#xad;" horiz-adv-x="404" 
d="M55 208v144h294v-144h-294z" />
    <glyph glyph-name="registered" unicode="&#xae;" horiz-adv-x="803" 
d="M401 -12c-100.667 0 -186.834 36 -258.501 108s-107.5 158.333 -107.5 259s35.833 187 107.5 259s157.834 108 258.501 108s187 -36 259 -108s108 -158.333 108 -259s-36 -187 -108 -259s-158.333 -108 -259 -108zM401 76c76.667 0 142.334 27.333 197.001 82
s82 120.334 82 197.001s-27.333 142.334 -82 197.001s-120.334 82 -197.001 82s-142.167 -27.333 -196.5 -82s-81.5 -120.334 -81.5 -197.001s27.167 -142.334 81.5 -197.001s119.833 -82 196.5 -82zM275 169v371h149c35.333 0 63.5 -10.667 84.5 -32s31.5 -48.333 31.5 -81
c0 -44 -23.667 -75.667 -71 -95l130 -163h-104l-121 151h-11v-151h-88zM363 394l51.001 0.000976562c11.333 0 20.666 3.16699 27.999 9.5s11 14.166 11 23.499c0 10 -3.5 18 -10.5 24s-16.5 9 -28.5 9h-51v-66z" />
    <glyph glyph-name="macron" unicode="&#xaf;" 
d="M-174 606v104h348v-104h-348z" />
    <glyph glyph-name="degree" unicode="&#xb0;" horiz-adv-x="382" 
d="M192 493c16.667 0 30.834 5.83301 42.501 17.5s17.5 25.834 17.5 42.501s-5.83301 31 -17.5 43s-25.834 18 -42.501 18c-18 0 -32.833 -6 -44.5 -18s-17.5 -26.333 -17.5 -43s5.83301 -30.834 17.5 -42.501s26.5 -17.5 44.5 -17.5zM192 393
c-44.667 0 -82.667 15.667 -114 47s-47 69 -47 113c0 44.667 15.667 82.667 47 114s69.333 47 114 47c44 0 81.667 -15.667 113 -47s47 -69.333 47 -114c0 -44 -15.667 -81.667 -47 -113s-69 -47 -113 -47z" />
    <glyph glyph-name="twosuperior" unicode="&#xb2;" horiz-adv-x="356" 
d="M27 410v93.001l169 164c16.667 15.333 25 30.333 25 45c0 9.33301 -3.16699 17.166 -9.5 23.499s-15.5 9.5 -27.5 9.5c-26.667 0 -47 -17 -61 -51l-101 26c10.667 41.333 30.5 73.166 59.5 95.499s64.167 33.5 105.5 33.5c39.333 0 72.166 -11 98.499 -33
s39.5 -54.667 39.5 -98c0 -20.667 -3.33301 -39.5 -10 -56.5s-14.167 -30.667 -22.5 -41s-20.166 -23.166 -35.499 -38.499l-71 -69h143v-103h-302z" />
    <glyph glyph-name="threesuperior" unicode="&#xb3;" horiz-adv-x="352" 
d="M174 402c-36.667 0 -70.334 10.333 -101.001 31s-50.667 48 -60 82l100 40c12.667 -32.667 34 -49 64 -49c14 0 25.333 3.83301 34 11.5s13 18.167 13 31.5c0 14 -5.16699 25.333 -15.5 34s-24.166 13 -41.499 13h-59v87l63 57h-134v102h266v-90l-81 -73
c34.667 -7.33301 61.167 -22.833 79.5 -46.5s27.5 -52.167 27.5 -85.5c0 -44 -14.333 -79.167 -43 -105.5s-66 -39.5 -112 -39.5z" />
    <glyph glyph-name="acute" unicode="&#xb4;" 
d="M-127 556l80 174h173l-143 -174h-110z" />
    <glyph glyph-name="paragraph" unicode="&#xb6;" horiz-adv-x="675" 
d="M250 -184v444c-62 0 -115 22 -159 66s-66 97 -66 159s22 115 66 159s97 66 159 66h339v-894h-127v763h-85v-763h-127z" />
    <glyph glyph-name="periodcentered" unicode="&#xb7;" horiz-adv-x="289" 
d="M234 183h-179v179h179v-179z" />
    <glyph glyph-name="cedilla" unicode="&#xb8;" 
d="M-120 -188l13.999 64c20.667 -11.333 43.334 -17 68.001 -17c32.667 0 49 9 49 27c0 16 -11 24 -33 24c-15.333 0 -29.333 -4 -42 -12l-36 19l52 86h64l-28 -47c10 8 25.333 12 46 12c23.333 0 43 -7.16699 59 -21.5s24 -32.5 24 -54.5c0 -28 -13.667 -51 -41 -69
s-59.333 -27 -96 -27c-40.667 0 -74 5.33301 -100 16z" />
    <glyph glyph-name="onesuperior" unicode="&#xb9;" horiz-adv-x="249" 
d="M101 410v329h-87v103h192v-432h-105z" />
    <glyph glyph-name="ordmasculine" unicode="&#xba;" horiz-adv-x="376" 
d="M188 403c-43.333 0 -80.5 15.167 -111.5 45.5s-46.5 67.5 -46.5 111.5s15.5 81.167 46.5 111.5s68.167 45.5 111.5 45.5s80.5 -15.167 111.5 -45.5s46.5 -67.5 46.5 -111.5s-15.5 -81.167 -46.5 -111.5s-68.167 -45.5 -111.5 -45.5zM188 501
c14.667 0 27.167 5.5 37.5 16.5s15.5 25.167 15.5 42.5s-5.16699 31.5 -15.5 42.5s-22.833 16.5 -37.5 16.5s-27.167 -5.5 -37.5 -16.5s-15.5 -25.167 -15.5 -42.5s5.16699 -31.5 15.5 -42.5s22.833 -16.5 37.5 -16.5z" />
    <glyph glyph-name="guillemotright" unicode="&#xbb;" horiz-adv-x="524" 
d="M249 77l90 173l-90 173l95 61l152 -234l-152 -234zM38 77l90 173l-90 173l95 61l152 -234l-152 -234z" />
    <glyph glyph-name="onequarter" unicode="&#xbc;" horiz-adv-x="837" 
d="M101 278v329h-87v103h192v-432h-105zM197 0h-128l500 710h128zM660 1v86h-205v85l215 261h95v-251h54v-95h-54v-86h-105zM581 182h79v96z" />
    <glyph glyph-name="onehalf" unicode="&#xbd;" horiz-adv-x="827" 
d="M101 278v329h-87v103h192v-432h-105zM197 0h-128l500 710h128zM497 1v93.001l169 164c16.667 15.333 25 30.333 25 45c0 9.33301 -3.16699 17.166 -9.5 23.499s-15.5 9.5 -27.5 9.5c-26.667 0 -47 -17 -61 -51l-101 26c10.667 41.333 30.5 73.166 59.5 95.499
s64.167 33.5 105.5 33.5c39.333 0 72.166 -11 98.499 -33s39.5 -54.667 39.5 -98c0 -20.667 -3.33301 -39.5 -10 -56.5s-14.167 -30.667 -22.5 -41s-20.166 -23.166 -35.499 -38.499l-71 -69h143v-103h-302z" />
    <glyph glyph-name="threequarters" unicode="&#xbe;" horiz-adv-x="898" 
d="M174 270c-36.667 0 -70.334 10.333 -101.001 31s-50.667 48 -60 82l100 40c12.667 -32.667 34 -49 64 -49c14 0 25.333 3.83301 34 11.5s13 18.167 13 31.5c0 14 -5.16699 25.333 -15.5 34s-24.166 13 -41.499 13h-59v87l63 57h-134v102h266v-90l-81 -73
c34.667 -7.33301 61.167 -22.833 79.5 -46.5s27.5 -52.167 27.5 -85.5c0 -44 -14.333 -79.167 -43 -105.5s-66 -39.5 -112 -39.5zM258 0h-128l500 710h128zM721 1v86h-205v85l215 261h95v-251h54v-95h-54v-86h-105zM642 182h79v96z" />
    <glyph glyph-name="questiondown" unicode="&#xbf;" horiz-adv-x="540" 
d="M267 -204c-64 0 -117.332 20.167 -159.999 60.5s-64 87.833 -64 142.5c0 38 6 69.833 18 95.5s34.667 51.5 68 77.5l28.5 21l25.5 19c5.33301 4 11 8.66699 17 14s10.167 10.166 12.5 14.499s3.5 8.83301 3.5 13.5v1h151v-19c0 -28.667 -6.83301 -53.167 -20.5 -73.5
s-35.167 -40.833 -64.5 -61.5c-4.66699 -3.33301 -13 -8.66602 -25 -15.999s-20.5 -12.833 -25.5 -16.5s-11.167 -8.83398 -18.5 -15.501s-12.333 -13.5 -15 -20.5s-4 -15.167 -4 -24.5c0 -19.333 7.33301 -34.666 22 -45.999s32.667 -17 54 -17c23.333 0 46.833 6 70.5 18
s43.834 30.333 60.501 55l119 -82c-22.667 -38.667 -56.334 -71.667 -101.001 -99s-95.334 -41 -152.001 -41zM381.001 321h-179v179h179v-179z" />
    <glyph glyph-name="Agrave" unicode="&#xc0;" horiz-adv-x="750" 
d="M-1 0l304 710h144l304 -710h-166l-63 150h-294l-63 -150h-166zM375 501l-90 -213h179zM429 768h-110l-125 137h165z" />
    <glyph glyph-name="Aacute" unicode="&#xc1;" horiz-adv-x="750" 
d="M-1 0l304 710h144l304 -710h-166l-63 150h-294l-63 -150h-166zM375 501l-90 -213h179zM323 768l70 137h165l-125 -137h-110z" />
    <glyph glyph-name="Acircumflex" unicode="&#xc2;" horiz-adv-x="750" 
d="M-1 0l304 710h144l304 -710h-166l-63 150h-294l-63 -150h-166zM375 501l-90 -213h179zM193 768l114 137h138l114 -137h-134l-49 48l-50 -48h-133z" />
    <glyph glyph-name="Atilde" unicode="&#xc3;" horiz-adv-x="750" 
d="M-1 0l304 710h144l304 -710h-166l-63 150h-294l-63 -150h-166zM375 501l-90 -213h179zM183 776l3.99805 27.998c5.33301 36.667 19.5 65.334 42.5 86.001s49.167 31 78.5 31c23.333 0 49.333 -7.83301 78 -23.5s47 -23.5 55 -23.5c12.667 0 22 3.83301 28 11.5
s11.333 19.834 16 36.501h83l-4 -28c-5.33301 -36.667 -19.666 -65.334 -42.999 -86.001s-49.666 -31 -78.999 -31c-23.333 0 -49.333 7.83301 -78 23.5s-46.667 23.5 -54 23.5c-12.667 0 -22.167 -3.66699 -28.5 -11s-11.833 -19.666 -16.5 -36.999h-82z" />
    <glyph glyph-name="Adieresis" unicode="&#xc4;" horiz-adv-x="750" 
d="M-1 0l304 710h144l304 -710h-166l-63 150h-294l-63 -150h-166zM375 501l-90 -213h179zM258 768c-22 0 -41.001 7.99902 -57.001 23.999s-24 34.667 -24 56c0 22.667 7.83301 41.834 23.5 57.501s34.834 23.5 57.501 23.5c21.333 0 39.833 -8 55.5 -24s23.5 -35 23.5 -57
c0 -21.333 -7.83301 -40 -23.5 -56s-34.167 -24 -55.5 -24zM494.999 767.999c-22 0 -40.833 8 -56.5 24s-23.5 34.667 -23.5 56c0 22.667 7.83301 41.834 23.5 57.501s34.5 23.5 56.5 23.5s40.833 -7.83301 56.5 -23.5s23.5 -34.834 23.5 -57.501
c0 -21.333 -7.83301 -40 -23.5 -56s-34.5 -24 -56.5 -24z" />
    <glyph glyph-name="Aring" unicode="&#xc5;" horiz-adv-x="750" 
d="M-1 0l304 710h144l304 -710h-166l-63 150h-294l-63 -150h-166zM375 501l-90 -213h179zM377 753c-33.333 0 -62 11.833 -86 35.5s-36 51.834 -36 84.501s12 60.834 36 84.501s52.667 35.5 86 35.5s62 -11.833 86 -35.5s36 -51.834 36 -84.501s-12 -60.834 -36 -84.501
s-52.667 -35.5 -86 -35.5zM377 818c15.333 0 28.5 5.33301 39.5 16s16.5 23.667 16.5 39s-5.5 28.333 -16.5 39s-24.167 16 -39.5 16s-28.5 -5.33301 -39.5 -16s-16.5 -23.667 -16.5 -39s5.5 -28.333 16.5 -39s24.167 -16 39.5 -16z" />
    <glyph glyph-name="AE" unicode="&#xc6;" horiz-adv-x="948" 
d="M452 0v150h-225l-82 -150h-173l394 710h536v-152h-291v-127h231v-152h-231v-127h291v-152h-450zM450 558l-148 -270h150v270h-2z" />
    <glyph glyph-name="Ccedilla" unicode="&#xc7;" horiz-adv-x="752" 
d="M402 -12c-101.333 0 -187.833 35.833 -259.5 107.5s-107.5 158.167 -107.5 259.5s35.833 187.833 107.5 259.5s158.167 107.5 259.5 107.5c72.667 0 138.334 -17.667 197.001 -53s103.667 -82.333 135 -141l-140 -76c-42.667 77.333 -106.667 116 -192 116
c-57.333 0 -106.166 -21 -146.499 -63s-60.5 -92 -60.5 -150s20.167 -108 60.5 -150s89.166 -63 146.499 -63c85.333 0 149.333 38.667 192 116l140 -76c-31.333 -58.667 -76.333 -105.667 -135 -141s-124.334 -53 -197.001 -53zM283 -188l13.999 64
c20.667 -11.333 43.334 -17 68.001 -17c32.667 0 49 9 49 27c0 16 -10.667 24 -32 24c-16 0 -30.333 -4 -43 -12l-36 19l52 86h64l-28 -47c10 8 25.667 12 47 12c22.667 0 42 -7.16699 58 -21.5s24 -32.5 24 -54.5c0 -28 -13.667 -51 -41 -69s-59.333 -27 -96 -27
c-40.667 0 -74 5.33301 -100 16z" />
    <glyph glyph-name="Egrave" unicode="&#xc8;" horiz-adv-x="571" 
d="M75 0v710h450v-152h-291v-127h231v-152h-231v-127h291v-152h-450zM352 768h-110l-125 137h165z" />
    <glyph glyph-name="Eacute" unicode="&#xc9;" horiz-adv-x="571" 
d="M75 0v710h450v-152h-291v-127h231v-152h-231v-127h291v-152h-450zM246 768l70 137h165l-125 -137h-110z" />
    <glyph glyph-name="Ecircumflex" unicode="&#xca;" horiz-adv-x="571" 
d="M75 0v710h450v-152h-291v-127h231v-152h-231v-127h291v-152h-450zM116 768l114 137h138l114 -137h-134l-49 48l-50 -48h-133z" />
    <glyph glyph-name="Edieresis" unicode="&#xcb;" horiz-adv-x="571" 
d="M75 0v710h450v-152h-291v-127h231v-152h-231v-127h291v-152h-450zM181 768c-22 0 -41.001 7.99902 -57.001 23.999s-24 34.667 -24 56c0 22.667 7.83301 41.834 23.5 57.501s34.834 23.5 57.501 23.5c21.333 0 39.833 -8 55.5 -24s23.5 -35 23.5 -57
c0 -21.333 -7.83301 -40 -23.5 -56s-34.167 -24 -55.5 -24zM417.999 767.999c-22 0 -40.833 8 -56.5 24s-23.5 34.667 -23.5 56c0 22.667 7.83301 41.834 23.5 57.501s34.5 23.5 56.5 23.5s40.833 -7.83301 56.5 -23.5s23.5 -34.834 23.5 -57.501
c0 -21.333 -7.83301 -40 -23.5 -56s-34.5 -24 -56.5 -24z" />
    <glyph glyph-name="Igrave" unicode="&#xcc;" horiz-adv-x="309" 
d="M75 0v710h159v-710h-159zM208 768h-110l-125 137h165z" />
    <glyph glyph-name="Iacute" unicode="&#xcd;" horiz-adv-x="309" 
d="M75 0v710h159v-710h-159zM102 768l70 137h165l-125 -137h-110z" />
    <glyph glyph-name="Icircumflex" unicode="&#xce;" horiz-adv-x="309" 
d="M75 0v710h159v-710h-159zM-28 768l114 137h138l114 -137h-134l-49 48l-50 -48h-133z" />
    <glyph glyph-name="Idieresis" unicode="&#xcf;" horiz-adv-x="309" 
d="M75 0v710h159v-710h-159zM37 768c-22 0 -41.001 7.99902 -57.001 23.999s-24 34.667 -24 56c0 22.667 7.83301 41.834 23.5 57.501s34.834 23.5 57.501 23.5c21.333 0 39.833 -8 55.5 -24s23.5 -35 23.5 -57c0 -21.333 -7.83301 -40 -23.5 -56s-34.167 -24 -55.5 -24z
M273.999 767.999c-22 0 -40.833 8 -56.5 24s-23.5 34.667 -23.5 56c0 22.667 7.83301 41.834 23.5 57.501s34.5 23.5 56.5 23.5s40.833 -7.83301 56.5 -23.5s23.5 -34.834 23.5 -57.501c0 -21.333 -7.83301 -40 -23.5 -56s-34.5 -24 -56.5 -24z" />
    <glyph glyph-name="Eth" unicode="&#xd0;" horiz-adv-x="732" 
d="M92 0v710h242c100 0 185.333 -34.667 256 -104s106 -153 106 -251s-35.333 -181.667 -106 -251s-156 -104 -256 -104h-242zM251 146h83c58.667 0 106.834 20.167 144.501 60.5s56.5 89.833 56.5 148.5s-18.833 108.167 -56.5 148.5s-85.834 60.5 -144.501 60.5h-83v-418z
M20 289v138h351v-138h-351z" />
    <glyph glyph-name="Ntilde" unicode="&#xd1;" horiz-adv-x="792" 
d="M717 0h-137l-346 439v-439h-159v710h137l345 -439v439h160v-710zM203 776l3.99805 27.998c5.33301 36.667 19.5 65.334 42.5 86.001s49.167 31 78.5 31c23.333 0 49.333 -7.83301 78 -23.5s47 -23.5 55 -23.5c12.667 0 22 3.83301 28 11.5s11.333 19.834 16 36.501h83
l-4 -28c-5.33301 -36.667 -19.666 -65.334 -42.999 -86.001s-49.666 -31 -78.999 -31c-23.333 0 -49.333 7.83301 -78 23.5s-46.667 23.5 -54 23.5c-12.667 0 -22.167 -3.66699 -28.5 -11s-11.833 -19.666 -16.5 -36.999h-82z" />
    <glyph glyph-name="Ograve" unicode="&#xd2;" horiz-adv-x="804" 
d="M402 142c57.333 0 106 21 146 63s60 92 60 150s-20 108 -60 150s-88.667 63 -146 63s-106.166 -21 -146.499 -63s-60.5 -92 -60.5 -150s20.167 -108 60.5 -150s89.166 -63 146.499 -63zM402 -12c-101.333 0 -187.833 35.833 -259.5 107.5s-107.5 158.167 -107.5 259.5
s35.833 187.833 107.5 259.5s158.167 107.5 259.5 107.5s187.833 -36 259.5 -108s107.5 -158.333 107.5 -259s-35.833 -187 -107.5 -259s-158.167 -108 -259.5 -108zM455 768h-110l-125 137h165z" />
    <glyph glyph-name="Oacute" unicode="&#xd3;" horiz-adv-x="804" 
d="M402 142c57.333 0 106 21 146 63s60 92 60 150s-20 108 -60 150s-88.667 63 -146 63s-106.166 -21 -146.499 -63s-60.5 -92 -60.5 -150s20.167 -108 60.5 -150s89.166 -63 146.499 -63zM402 -12c-101.333 0 -187.833 35.833 -259.5 107.5s-107.5 158.167 -107.5 259.5
s35.833 187.833 107.5 259.5s158.167 107.5 259.5 107.5s187.833 -36 259.5 -108s107.5 -158.333 107.5 -259s-35.833 -187 -107.5 -259s-158.167 -108 -259.5 -108zM349 768l70 137h165l-125 -137h-110z" />
    <glyph glyph-name="Ocircumflex" unicode="&#xd4;" horiz-adv-x="804" 
d="M402 142c57.333 0 106 21 146 63s60 92 60 150s-20 108 -60 150s-88.667 63 -146 63s-106.166 -21 -146.499 -63s-60.5 -92 -60.5 -150s20.167 -108 60.5 -150s89.166 -63 146.499 -63zM402 -12c-101.333 0 -187.833 35.833 -259.5 107.5s-107.5 158.167 -107.5 259.5
s35.833 187.833 107.5 259.5s158.167 107.5 259.5 107.5s187.833 -36 259.5 -108s107.5 -158.333 107.5 -259s-35.833 -187 -107.5 -259s-158.167 -108 -259.5 -108zM219 768l114 137h138l114 -137h-134l-49 48l-50 -48h-133z" />
    <glyph glyph-name="Otilde" unicode="&#xd5;" horiz-adv-x="804" 
d="M402 142c57.333 0 106 21 146 63s60 92 60 150s-20 108 -60 150s-88.667 63 -146 63s-106.166 -21 -146.499 -63s-60.5 -92 -60.5 -150s20.167 -108 60.5 -150s89.166 -63 146.499 -63zM402 -12c-101.333 0 -187.833 35.833 -259.5 107.5s-107.5 158.167 -107.5 259.5
s35.833 187.833 107.5 259.5s158.167 107.5 259.5 107.5s187.833 -36 259.5 -108s107.5 -158.333 107.5 -259s-35.833 -187 -107.5 -259s-158.167 -108 -259.5 -108zM209 776l3.99805 27.998c5.33301 36.667 19.5 65.334 42.5 86.001s49.167 31 78.5 31
c23.333 0 49.333 -7.83301 78 -23.5s47 -23.5 55 -23.5c12.667 0 22 3.83301 28 11.5s11.333 19.834 16 36.501h83l-4 -28c-5.33301 -36.667 -19.666 -65.334 -42.999 -86.001s-49.666 -31 -78.999 -31c-23.333 0 -49.333 7.83301 -78 23.5s-46.667 23.5 -54 23.5
c-12.667 0 -22.167 -3.66699 -28.5 -11s-11.833 -19.666 -16.5 -36.999h-82z" />
    <glyph glyph-name="Odieresis" unicode="&#xd6;" horiz-adv-x="804" 
d="M402 142c57.333 0 106 21 146 63s60 92 60 150s-20 108 -60 150s-88.667 63 -146 63s-106.166 -21 -146.499 -63s-60.5 -92 -60.5 -150s20.167 -108 60.5 -150s89.166 -63 146.499 -63zM402 -12c-101.333 0 -187.833 35.833 -259.5 107.5s-107.5 158.167 -107.5 259.5
s35.833 187.833 107.5 259.5s158.167 107.5 259.5 107.5s187.833 -36 259.5 -108s107.5 -158.333 107.5 -259s-35.833 -187 -107.5 -259s-158.167 -108 -259.5 -108zM284 768c-22 0 -41.001 7.99902 -57.001 23.999s-24 34.667 -24 56c0 22.667 7.83301 41.834 23.5 57.501
s34.834 23.5 57.501 23.5c21.333 0 39.833 -8 55.5 -24s23.5 -35 23.5 -57c0 -21.333 -7.83301 -40 -23.5 -56s-34.167 -24 -55.5 -24zM520.999 767.999c-22 0 -40.833 8 -56.5 24s-23.5 34.667 -23.5 56c0 22.667 7.83301 41.834 23.5 57.501s34.5 23.5 56.5 23.5
s40.833 -7.83301 56.5 -23.5s23.5 -34.834 23.5 -57.501c0 -21.333 -7.83301 -40 -23.5 -56s-34.5 -24 -56.5 -24z" />
    <glyph glyph-name="multiply" unicode="&#xd7;" horiz-adv-x="507" 
d="M131 74l-92 92l123 123l-123 123l92 92l123 -122l123 122l91 -92l-122 -123l122 -123l-91 -92l-123 122z" />
    <glyph glyph-name="Oslash" unicode="&#xd8;" horiz-adv-x="811" 
d="M406 142c57.333 0 106 21 146 63s60 92 60 150s-20 108 -60 150s-88.667 63 -146 63s-106.166 -21 -146.499 -63s-60.5 -92 -60.5 -150s20.167 -108 60.5 -150s89.166 -63 146.499 -63zM406 -12c-101.333 0 -187.833 35.833 -259.5 107.5s-107.5 158.167 -107.5 259.5
s35.833 187.833 107.5 259.5s158.167 107.5 259.5 107.5s187.833 -36 259.5 -108s107.5 -158.333 107.5 -259s-35.833 -187 -107.5 -259s-158.167 -108 -259.5 -108zM778 638l-657 -656l-89 90l657 656z" />
    <glyph glyph-name="Ugrave" unicode="&#xd9;" horiz-adv-x="718" 
d="M359 -12c-86 0 -156.167 26.833 -210.5 80.5s-81.5 124.5 -81.5 212.5v429h159v-431c0 -42 12.167 -75.333 36.5 -100s56.5 -37 96.5 -37s72.167 12.333 96.5 37s36.5 58 36.5 100v431h159v-429c0 -88 -27.167 -158.833 -81.5 -212.5s-124.5 -80.5 -210.5 -80.5zM412 768
h-110l-125 137h165z" />
    <glyph glyph-name="Uacute" unicode="&#xda;" horiz-adv-x="718" 
d="M359 -12c-86 0 -156.167 26.833 -210.5 80.5s-81.5 124.5 -81.5 212.5v429h159v-431c0 -42 12.167 -75.333 36.5 -100s56.5 -37 96.5 -37s72.167 12.333 96.5 37s36.5 58 36.5 100v431h159v-429c0 -88 -27.167 -158.833 -81.5 -212.5s-124.5 -80.5 -210.5 -80.5zM306 768
l70 137h165l-125 -137h-110z" />
    <glyph glyph-name="Ucircumflex" unicode="&#xdb;" horiz-adv-x="718" 
d="M359 -12c-86 0 -156.167 26.833 -210.5 80.5s-81.5 124.5 -81.5 212.5v429h159v-431c0 -42 12.167 -75.333 36.5 -100s56.5 -37 96.5 -37s72.167 12.333 96.5 37s36.5 58 36.5 100v431h159v-429c0 -88 -27.167 -158.833 -81.5 -212.5s-124.5 -80.5 -210.5 -80.5zM176 768
l114 137h138l114 -137h-134l-49 48l-50 -48h-133z" />
    <glyph glyph-name="Udieresis" unicode="&#xdc;" horiz-adv-x="718" 
d="M359 -12c-86 0 -156.167 26.833 -210.5 80.5s-81.5 124.5 -81.5 212.5v429h159v-431c0 -42 12.167 -75.333 36.5 -100s56.5 -37 96.5 -37s72.167 12.333 96.5 37s36.5 58 36.5 100v431h159v-429c0 -88 -27.167 -158.833 -81.5 -212.5s-124.5 -80.5 -210.5 -80.5zM241 768
c-22 0 -41.001 7.99902 -57.001 23.999s-24 34.667 -24 56c0 22.667 7.83301 41.834 23.5 57.501s34.834 23.5 57.501 23.5c21.333 0 39.833 -8 55.5 -24s23.5 -35 23.5 -57c0 -21.333 -7.83301 -40 -23.5 -56s-34.167 -24 -55.5 -24zM477.999 767.999
c-22 0 -40.833 8 -56.5 24s-23.5 34.667 -23.5 56c0 22.667 7.83301 41.834 23.5 57.501s34.5 23.5 56.5 23.5s40.833 -7.83301 56.5 -23.5s23.5 -34.834 23.5 -57.501c0 -21.333 -7.83301 -40 -23.5 -56s-34.5 -24 -56.5 -24z" />
    <glyph glyph-name="Yacute" unicode="&#xdd;" horiz-adv-x="694" 
d="M267 0v299l-259 411h185l153 -256l155 256h185l-259 -412v-298h-160zM294 768l70 137h165l-125 -137h-110z" />
    <glyph glyph-name="Thorn" unicode="&#xde;" horiz-adv-x="598" 
d="M566 355c0 -68.667 -23.833 -126.332 -71.5 -172.999s-107.167 -70 -178.5 -70h-82v-112h-159v710h159v-112h82c71.333 0 130.833 -23.333 178.5 -70s71.5 -104.334 71.5 -173.001zM412 355.002c0 26 -9.33301 48 -28 66s-42 27 -70 27h-80v-186h80c28 0 51.333 9 70 27
s28 40 28 66z" />
    <glyph glyph-name="germandbls" unicode="&#xdf;" horiz-adv-x="590" 
d="M62 0l0.000976562 504.999c0 69.333 23.167 125.166 69.5 167.499s102.5 63.5 168.5 63.5c64 0 118.333 -19.167 163 -57.5s67 -87.5 67 -147.5c0 -56 -23.333 -105.333 -70 -148c30.667 -18.667 54.667 -42.834 72 -72.501s26 -59.167 26 -88.5
c0 -66 -23.333 -119.5 -70 -160.5s-103.667 -61.5 -171 -61.5h-34v136h27c28 0 51.167 8.33301 69.5 25s27.5 37.334 27.5 62.001s-9.16699 45.334 -27.5 62.001s-41.5 25 -69.5 25h-27v135h14c25.333 0 45.333 7 60 21s22 33 22 57c0 22.667 -7.33301 41.167 -22 55.5
s-34 21.5 -58 21.5c-24.667 0 -45.334 -8.66699 -62.001 -26s-25 -39.666 -25 -66.999v-507h-150z" />
    <glyph glyph-name="agrave" unicode="&#xe0;" horiz-adv-x="609" 
d="M278 -11c-72 0 -130.999 25.5 -176.999 76.5s-69 112.5 -69 184.5s23 133.5 69 184.5s105 76.5 177 76.5c47.333 0 86.666 -14 117.999 -42v31h151v-500h-151v32c-30.667 -28.667 -70 -43 -118 -43zM301.001 126c39.333 0 71.001 16 95.001 48v153
c-24.667 31.333 -56.334 47 -95.001 47c-33.333 0 -60.5 -12 -81.5 -36s-31.5 -53.333 -31.5 -88s10.5 -64 31.5 -88s48.167 -36 81.5 -36zM394.002 556h-110l-143 174h173z" />
    <glyph glyph-name="aacute" unicode="&#xe1;" horiz-adv-x="609" 
d="M278 -11c-72 0 -130.999 25.5 -176.999 76.5s-69 112.5 -69 184.5s23 133.5 69 184.5s105 76.5 177 76.5c47.333 0 86.666 -14 117.999 -42v31h151v-500h-151v32c-30.667 -28.667 -70 -43 -118 -43zM301.001 126c39.333 0 71.001 16 95.001 48v153
c-24.667 31.333 -56.334 47 -95.001 47c-33.333 0 -60.5 -12 -81.5 -36s-31.5 -53.333 -31.5 -88s10.5 -64 31.5 -88s48.167 -36 81.5 -36zM276.002 556l80 174h173l-143 -174h-110z" />
    <glyph glyph-name="acircumflex" unicode="&#xe2;" horiz-adv-x="609" 
d="M278 -11c-72 0 -130.999 25.5 -176.999 76.5s-69 112.5 -69 184.5s23 133.5 69 184.5s105 76.5 177 76.5c47.333 0 86.666 -14 117.999 -42v31h151v-500h-151v32c-30.667 -28.667 -70 -43 -118 -43zM301.001 126c39.333 0 71.001 16 95.001 48v153
c-24.667 31.333 -56.334 47 -95.001 47c-33.333 0 -60.5 -12 -81.5 -36s-31.5 -53.333 -31.5 -88s10.5 -64 31.5 -88s48.167 -36 81.5 -36zM145.002 578l127 152h126l127 -152h-129l-61 61l-61 -61h-129z" />
    <glyph glyph-name="atilde" unicode="&#xe3;" horiz-adv-x="609" 
d="M278 -11c-72 0 -130.999 25.5 -176.999 76.5s-69 112.5 -69 184.5s23 133.5 69 184.5s105 76.5 177 76.5c47.333 0 86.666 -14 117.999 -42v31h151v-500h-151v32c-30.667 -28.667 -70 -43 -118 -43zM301.001 126c39.333 0 71.001 16 95.001 48v153
c-24.667 31.333 -56.334 47 -95.001 47c-33.333 0 -60.5 -12 -81.5 -36s-31.5 -53.333 -31.5 -88s10.5 -64 31.5 -88s48.167 -36 81.5 -36zM142.002 565l3.99902 27.999c5.33301 36.667 19.5 65.334 42.5 86.001s49.167 31 78.5 31c23.333 0 49.333 -7.83301 78 -23.5
s47 -23.5 55 -23.5c12.667 0 22 3.83301 28 11.5s11.333 19.834 16 36.501h83l-4 -28c-5.33301 -36 -19.666 -64.5 -42.999 -85.5s-49.333 -31.5 -78 -31.5c-23.333 0 -49.333 7.83301 -78 23.5s-47 23.5 -55 23.5c-12.667 0 -22 -3.83301 -28 -11.5
s-11.333 -19.834 -16 -36.501h-83z" />
    <glyph glyph-name="adieresis" unicode="&#xe4;" horiz-adv-x="609" 
d="M278 -11c-72 0 -130.999 25.5 -176.999 76.5s-69 112.5 -69 184.5s23 133.5 69 184.5s105 76.5 177 76.5c47.333 0 86.666 -14 117.999 -42v31h151v-500h-151v32c-30.667 -28.667 -70 -43 -118 -43zM301.001 126c39.333 0 71.001 16 95.001 48v153
c-24.667 31.333 -56.334 47 -95.001 47c-33.333 0 -60.5 -12 -81.5 -36s-31.5 -53.333 -31.5 -88s10.5 -64 31.5 -88s48.167 -36 81.5 -36zM217.002 562c-22 0 -41.001 7.83203 -57.001 23.499s-24 34.167 -24 55.5c0 22.667 7.83301 41.834 23.5 57.501
s34.834 23.5 57.501 23.5c21.333 0 39.833 -8 55.5 -24s23.5 -35 23.5 -57c0 -21.333 -7.83301 -39.833 -23.5 -55.5s-34.167 -23.5 -55.5 -23.5zM454.001 561.999c-22 0 -40.833 7.83301 -56.5 23.5s-23.5 34.167 -23.5 55.5c0 22.667 7.83301 41.834 23.5 57.501
s34.5 23.5 56.5 23.5s40.833 -7.83301 56.5 -23.5s23.5 -34.834 23.5 -57.501c0 -21.333 -7.83301 -39.833 -23.5 -55.5s-34.5 -23.5 -56.5 -23.5z" />
    <glyph glyph-name="aring" unicode="&#xe5;" horiz-adv-x="609" 
d="M278 -11c-72 0 -130.999 25.5 -176.999 76.5s-69 112.5 -69 184.5s23 133.5 69 184.5s105 76.5 177 76.5c47.333 0 86.666 -14 117.999 -42v31h151v-500h-151v32c-30.667 -28.667 -70 -43 -118 -43zM301.001 126c39.333 0 71.001 16 95.001 48v153
c-24.667 31.333 -56.334 47 -95.001 47c-33.333 0 -60.5 -12 -81.5 -36s-31.5 -53.333 -31.5 -88s10.5 -64 31.5 -88s48.167 -36 81.5 -36zM335.002 543c-33.333 0 -62 11.833 -86 35.5s-36 51.834 -36 84.501s12 60.834 36 84.501s52.667 35.5 86 35.5s62 -11.833 86 -35.5
s36 -51.834 36 -84.501s-12 -60.834 -36 -84.501s-52.667 -35.5 -86 -35.5zM335.002 608c15.333 0 28.5 5.33301 39.5 16s16.5 23.667 16.5 39s-5.5 28.333 -16.5 39s-24.167 16 -39.5 16s-28.5 -5.33301 -39.5 -16s-16.5 -23.667 -16.5 -39s5.5 -28.333 16.5 -39
s24.167 -16 39.5 -16z" />
    <glyph glyph-name="ae" unicode="&#xe6;" horiz-adv-x="885" 
d="M229 -8c-60 0 -108.501 13.833 -145.501 41.5s-55.5 68.5 -55.5 122.5c0 47.333 18.167 84.333 54.5 111s82.5 40 138.5 40c40.667 0 79.334 -8.66699 116.001 -26v14c-4 26 -16.667 45.333 -38 58s-47.333 19 -78 19c-40.667 0 -79 -11 -115 -33l-31 141
c51.333 20.667 103.333 31 156 31c80.667 0 144.667 -25.333 192 -76c50.667 50.667 114 76 190 76c64.667 0 120.667 -21.5 168 -64.5s71 -102.833 71 -179.5c0 -19.333 -1 -37 -3 -53h-363c4 -28.667 17.667 -50.5 41 -65.5s50.333 -22.5 81 -22.5
c27.333 0 51.666 5.5 72.999 16.5s37.333 24.5 48 40.5l112 -84c-23.333 -33.333 -55 -60 -95 -80s-81.667 -30 -125 -30c-77.333 0 -141.666 24.667 -192.999 74c-54.667 -47.333 -121 -71 -199 -71zM598.999 388c-25.333 0 -48.333 -6.16895 -69 -18.502
s-34 -31.166 -40 -56.499h212c-6 24.667 -18.667 43.334 -38 56.001s-41 19 -65 19zM240.999 117.998c46.667 0 78.667 11.668 96 35.001v28c-25.333 15.333 -57 23 -95 23c-45.333 0 -68 -14.667 -68 -44c0 -14.667 6.66699 -25.334 20 -32.001s29 -10 47 -10z" />
    <glyph glyph-name="ccedilla" unicode="&#xe7;" horiz-adv-x="556" 
d="M298 -11c-74.667 0 -137.667 24.6709 -189 74.0039s-77 111.666 -77 186.999s25.667 137.666 77 186.999s114.333 74 189 74c51.333 0 98.666 -13.333 141.999 -40s75.666 -62 96.999 -106l-132 -70c-22 50 -57.667 75 -107 75c-32 0 -59 -11.333 -81 -34
s-33 -51.334 -33 -86.001s11 -63.334 33 -86.001s49 -34 81 -34c49.333 0 85 25 107 75l132 -70c-21.333 -44 -53.666 -79.333 -96.999 -106s-90.666 -40 -141.999 -40zM179 -187.996l13.999 64c20.667 -11.333 43.334 -17 68.001 -17c32.667 0 49 9 49 27
c0 16 -11 24 -33 24c-15.333 0 -29.333 -4 -42 -12l-36 19l52 86h64l-28 -47c10 8 25.333 12 46 12c23.333 0 43 -7.16699 59 -21.5s24 -32.5 24 -54.5c0 -28 -13.667 -51 -41 -69s-59.333 -27 -96 -27c-40.667 0 -74 5.33301 -100 16z" />
    <glyph glyph-name="egrave" unicode="&#xe8;" horiz-adv-x="577" 
d="M298 -11c-75.333 0 -138.499 23.8311 -189.499 71.498s-76.5 110.834 -76.5 189.501c0 74.667 25 136.834 75 186.501s112.667 74.5 188 74.5c70 0 129 -21.333 177 -64s72 -102.667 72 -180c0 -19.333 -1 -37 -3 -53h-363c4 -28.667 17.667 -50.5 41 -65.5
s50.333 -22.5 81 -22.5c27.333 0 51.666 5.5 72.999 16.5s37.333 24.5 48 40.5l112 -84c-24 -34 -56.333 -60.833 -97 -80.5s-86.667 -29.5 -138 -29.5zM182.001 312.998l212 -0.00195312c-6 24.667 -18.667 43.334 -38 56.001s-41 19 -65 19
c-25.333 0 -48.333 -6.16699 -69 -18.5s-34 -31.166 -40 -56.499zM359.001 555.996h-110l-143 174h173z" />
    <glyph glyph-name="eacute" unicode="&#xe9;" horiz-adv-x="577" 
d="M298 -11c-75.333 0 -138.499 23.8311 -189.499 71.498s-76.5 110.834 -76.5 189.501c0 74.667 25 136.834 75 186.501s112.667 74.5 188 74.5c70 0 129 -21.333 177 -64s72 -102.667 72 -180c0 -19.333 -1 -37 -3 -53h-363c4 -28.667 17.667 -50.5 41 -65.5
s50.333 -22.5 81 -22.5c27.333 0 51.666 5.5 72.999 16.5s37.333 24.5 48 40.5l112 -84c-24 -34 -56.333 -60.833 -97 -80.5s-86.667 -29.5 -138 -29.5zM182.001 312.998l212 -0.00195312c-6 24.667 -18.667 43.334 -38 56.001s-41 19 -65 19
c-25.333 0 -48.333 -6.16699 -69 -18.5s-34 -31.166 -40 -56.499zM241.001 555.996l80 174h173l-143 -174h-110z" />
    <glyph glyph-name="ecircumflex" unicode="&#xea;" horiz-adv-x="577" 
d="M298 -11c-75.333 0 -138.499 23.8311 -189.499 71.498s-76.5 110.834 -76.5 189.501c0 74.667 25 136.834 75 186.501s112.667 74.5 188 74.5c70 0 129 -21.333 177 -64s72 -102.667 72 -180c0 -19.333 -1 -37 -3 -53h-363c4 -28.667 17.667 -50.5 41 -65.5
s50.333 -22.5 81 -22.5c27.333 0 51.666 5.5 72.999 16.5s37.333 24.5 48 40.5l112 -84c-24 -34 -56.333 -60.833 -97 -80.5s-86.667 -29.5 -138 -29.5zM182.001 312.998l212 -0.00195312c-6 24.667 -18.667 43.334 -38 56.001s-41 19 -65 19
c-25.333 0 -48.333 -6.16699 -69 -18.5s-34 -31.166 -40 -56.499zM110.001 577.996l127 152h126l127 -152h-129l-61 61l-61 -61h-129z" />
    <glyph glyph-name="edieresis" unicode="&#xeb;" horiz-adv-x="577" 
d="M298 -11c-75.333 0 -138.499 23.8311 -189.499 71.498s-76.5 110.834 -76.5 189.501c0 74.667 25 136.834 75 186.501s112.667 74.5 188 74.5c70 0 129 -21.333 177 -64s72 -102.667 72 -180c0 -19.333 -1 -37 -3 -53h-363c4 -28.667 17.667 -50.5 41 -65.5
s50.333 -22.5 81 -22.5c27.333 0 51.666 5.5 72.999 16.5s37.333 24.5 48 40.5l112 -84c-24 -34 -56.333 -60.833 -97 -80.5s-86.667 -29.5 -138 -29.5zM182.001 312.998l212 -0.00195312c-6 24.667 -18.667 43.334 -38 56.001s-41 19 -65 19
c-25.333 0 -48.333 -6.16699 -69 -18.5s-34 -31.166 -40 -56.499zM182.001 561.996c-22 0 -41.001 7.83203 -57.001 23.499s-24 34.167 -24 55.5c0 22.667 7.83301 41.834 23.5 57.501s34.834 23.5 57.501 23.5c21.333 0 39.833 -8 55.5 -24s23.5 -35 23.5 -57
c0 -21.333 -7.83301 -39.833 -23.5 -55.5s-34.167 -23.5 -55.5 -23.5zM419 561.995c-22 0 -40.833 7.83301 -56.5 23.5s-23.5 34.167 -23.5 55.5c0 22.667 7.83301 41.834 23.5 57.501s34.5 23.5 56.5 23.5s40.833 -7.83301 56.5 -23.5s23.5 -34.834 23.5 -57.501
c0 -21.333 -7.83301 -39.833 -23.5 -55.5s-34.5 -23.5 -56.5 -23.5z" />
    <glyph glyph-name="igrave" unicode="&#xec;" horiz-adv-x="275" 
d="M62 0v500h151v-500h-151zM197 556h-110l-143 174h173z" />
    <glyph glyph-name="iacute" unicode="&#xed;" horiz-adv-x="275" 
d="M62 0v500h151v-500h-151zM79 556l80 174h173l-143 -174h-110z" />
    <glyph glyph-name="icircumflex" unicode="&#xee;" horiz-adv-x="275" 
d="M62 0v500h151v-500h-151zM-52 578l127 152h126l127 -152h-129l-61 61l-61 -61h-129z" />
    <glyph glyph-name="idieresis" unicode="&#xef;" horiz-adv-x="275" 
d="M62 0v500h151v-500h-151zM44 572c-22 0 -40.833 7.83301 -56.5 23.5s-23.5 34.167 -23.5 55.5c0 22 7.83301 40.833 23.5 56.5s34.5 23.5 56.5 23.5c21.333 0 39.833 -7.83301 55.5 -23.5s23.5 -34.5 23.5 -56.5c0 -21.333 -7.83301 -39.833 -23.5 -55.5
s-34.167 -23.5 -55.5 -23.5zM231 572c-21.333 0 -39.833 7.83301 -55.5 23.5s-23.5 34.167 -23.5 55.5c0 22 7.83301 40.833 23.5 56.5s34.167 23.5 55.5 23.5c22 0 40.833 -7.83301 56.5 -23.5s23.5 -34.5 23.5 -56.5c0 -21.333 -7.83301 -39.833 -23.5 -55.5
s-34.5 -23.5 -56.5 -23.5z" />
    <glyph glyph-name="eth" unicode="&#xf0;" horiz-adv-x="591" 
d="M456 560h-50l105 -160c32 -50 48 -100 48 -150c0 -72 -26 -133.5 -78 -184.5s-114 -76.5 -186 -76.5s-133.833 25.5 -185.5 76.5s-77.5 112.5 -77.5 184.5c0 39.333 7.83301 75.333 23.5 108s35.667 59.167 60 79.5s50.333 36.333 78 48s54.5 18.167 80.5 19.5l-36 55
h-134v96h72l-47 74h167l48 -74h112v-96zM295 130c32.667 0 59.5 11.1689 80.5 33.502s31.5 51.166 31.5 86.499s-10.5 64.166 -31.5 86.499s-47.833 33.5 -80.5 33.5c-32 0 -58.5 -11 -79.5 -33s-31.5 -51 -31.5 -87s10.5 -65 31.5 -87s47.5 -33 79.5 -33z" />
    <glyph glyph-name="ntilde" unicode="&#xf1;" horiz-adv-x="602" 
d="M62 0l0.000976562 500h151v-36c33.333 31.333 76.666 47 129.999 47c64 0 113.833 -20.5 149.5 -61.5s53.5 -95.833 53.5 -164.5v-285h-151v259c0 35.333 -7 63.333 -21 84s-35.333 31 -64 31c-40.667 0 -73 -15.333 -97 -46v-328h-151zM110.001 565l3.99902 27.999
c5.33301 36.667 19.5 65.334 42.5 86.001s49.167 31 78.5 31c23.333 0 49.333 -7.83301 78 -23.5s47 -23.5 55 -23.5c12.667 0 22 3.83301 28 11.5s11.333 19.834 16 36.501h83l-4 -28c-5.33301 -36 -19.666 -64.5 -42.999 -85.5s-49.333 -31.5 -78 -31.5
c-23.333 0 -49.333 7.83301 -78 23.5s-47 23.5 -55 23.5c-12.667 0 -22 -3.83301 -28 -11.5s-11.333 -19.834 -16 -36.501h-83z" />
    <glyph glyph-name="ograve" unicode="&#xf2;" horiz-adv-x="588" 
d="M294 -11c-72.667 0 -134.667 25.167 -186 75.5s-77 112.166 -77 185.499s25.667 135.166 77 185.499s113.333 75.5 186 75.5s134.667 -25.167 186 -75.5s77 -112.166 77 -185.499s-25.667 -135.166 -77 -185.499s-113.333 -75.5 -186 -75.5zM294 130
c32 0 58.5 11 79.5 33s31.5 51 31.5 87s-10.5 65 -31.5 87s-47.5 33 -79.5 33s-58.5 -11 -79.5 -33s-31.5 -51 -31.5 -87s10.5 -65 31.5 -87s47.5 -33 79.5 -33zM353 556h-110l-143 174h173z" />
    <glyph glyph-name="oacute" unicode="&#xf3;" horiz-adv-x="588" 
d="M294 -11c-72.667 0 -134.667 25.167 -186 75.5s-77 112.166 -77 185.499s25.667 135.166 77 185.499s113.333 75.5 186 75.5s134.667 -25.167 186 -75.5s77 -112.166 77 -185.499s-25.667 -135.166 -77 -185.499s-113.333 -75.5 -186 -75.5zM294 130
c32 0 58.5 11 79.5 33s31.5 51 31.5 87s-10.5 65 -31.5 87s-47.5 33 -79.5 33s-58.5 -11 -79.5 -33s-31.5 -51 -31.5 -87s10.5 -65 31.5 -87s47.5 -33 79.5 -33zM235 556l80 174h173l-143 -174h-110z" />
    <glyph glyph-name="ocircumflex" unicode="&#xf4;" horiz-adv-x="588" 
d="M294 -11c-72.667 0 -134.667 25.167 -186 75.5s-77 112.166 -77 185.499s25.667 135.166 77 185.499s113.333 75.5 186 75.5s134.667 -25.167 186 -75.5s77 -112.166 77 -185.499s-25.667 -135.166 -77 -185.499s-113.333 -75.5 -186 -75.5zM294 130
c32 0 58.5 11 79.5 33s31.5 51 31.5 87s-10.5 65 -31.5 87s-47.5 33 -79.5 33s-58.5 -11 -79.5 -33s-31.5 -51 -31.5 -87s10.5 -65 31.5 -87s47.5 -33 79.5 -33zM104 578l127 152h126l127 -152h-129l-61 61l-61 -61h-129z" />
    <glyph glyph-name="otilde" unicode="&#xf5;" horiz-adv-x="588" 
d="M294 -11c-72.667 0 -134.667 25.167 -186 75.5s-77 112.166 -77 185.499s25.667 135.166 77 185.499s113.333 75.5 186 75.5s134.667 -25.167 186 -75.5s77 -112.166 77 -185.499s-25.667 -135.166 -77 -185.499s-113.333 -75.5 -186 -75.5zM294 130
c32 0 58.5 11 79.5 33s31.5 51 31.5 87s-10.5 65 -31.5 87s-47.5 33 -79.5 33s-58.5 -11 -79.5 -33s-31.5 -51 -31.5 -87s10.5 -65 31.5 -87s47.5 -33 79.5 -33zM101 565l3.99902 27.999c5.33301 36.667 19.5 65.334 42.5 86.001s49.167 31 78.5 31
c23.333 0 49.333 -7.83301 78 -23.5s47 -23.5 55 -23.5c12.667 0 22 3.83301 28 11.5s11.333 19.834 16 36.501h83l-4 -28c-5.33301 -36 -19.666 -64.5 -42.999 -85.5s-49.333 -31.5 -78 -31.5c-23.333 0 -49.333 7.83301 -78 23.5s-47 23.5 -55 23.5
c-12.667 0 -22 -3.83301 -28 -11.5s-11.333 -19.834 -16 -36.501h-83z" />
    <glyph glyph-name="odieresis" unicode="&#xf6;" horiz-adv-x="588" 
d="M294 -11c-72.667 0 -134.667 25.167 -186 75.5s-77 112.166 -77 185.499s25.667 135.166 77 185.499s113.333 75.5 186 75.5s134.667 -25.167 186 -75.5s77 -112.166 77 -185.499s-25.667 -135.166 -77 -185.499s-113.333 -75.5 -186 -75.5zM294 130
c32 0 58.5 11 79.5 33s31.5 51 31.5 87s-10.5 65 -31.5 87s-47.5 33 -79.5 33s-58.5 -11 -79.5 -33s-31.5 -51 -31.5 -87s10.5 -65 31.5 -87s47.5 -33 79.5 -33zM176 562c-22 0 -41.001 7.83203 -57.001 23.499s-24 34.167 -24 55.5c0 22.667 7.83301 41.834 23.5 57.501
s34.834 23.5 57.501 23.5c21.333 0 39.833 -8 55.5 -24s23.5 -35 23.5 -57c0 -21.333 -7.83301 -39.833 -23.5 -55.5s-34.167 -23.5 -55.5 -23.5zM412.999 561.999c-22 0 -40.833 7.83301 -56.5 23.5s-23.5 34.167 -23.5 55.5c0 22.667 7.83301 41.834 23.5 57.501
s34.5 23.5 56.5 23.5s40.833 -7.83301 56.5 -23.5s23.5 -34.834 23.5 -57.501c0 -21.333 -7.83301 -39.833 -23.5 -55.5s-34.5 -23.5 -56.5 -23.5z" />
    <glyph glyph-name="oslash" unicode="&#xf8;" horiz-adv-x="593" 
d="M297 -11c-72.667 0 -134.667 25.167 -186 75.5s-77 112.166 -77 185.499s25.667 135.166 77 185.499s113.333 75.5 186 75.5s134.667 -25.167 186 -75.5s77 -112.166 77 -185.499s-25.667 -135.166 -77 -185.499s-113.333 -75.5 -186 -75.5zM297 130
c32 0 58.5 11 79.5 33s31.5 51 31.5 87s-10.5 65 -31.5 87s-47.5 33 -79.5 33s-58.5 -11 -79.5 -33s-31.5 -51 -31.5 -87s10.5 -65 31.5 -87s47.5 -33 79.5 -33zM558 462l-475 -473l-47 49l475 473z" />
    <glyph glyph-name="ugrave" unicode="&#xf9;" horiz-adv-x="591" 
d="M529 500v-500h-151v34c-32 -30 -70.667 -45 -116 -45c-65.333 0 -116 20.5 -152 61.5s-54 95.833 -54 164.5v285h151v-259c0 -76.667 29 -115 87 -115c32 0 60 15.333 84 46v328h151zM352 556h-110l-143 174h173z" />
    <glyph glyph-name="uacute" unicode="&#xfa;" horiz-adv-x="591" 
d="M529 500v-500h-151v34c-32 -30 -70.667 -45 -116 -45c-65.333 0 -116 20.5 -152 61.5s-54 95.833 -54 164.5v285h151v-259c0 -76.667 29 -115 87 -115c32 0 60 15.333 84 46v328h151zM234 556l80 174h173l-143 -174h-110z" />
    <glyph glyph-name="ucircumflex" unicode="&#xfb;" horiz-adv-x="591" 
d="M529 500v-500h-151v34c-32 -30 -70.667 -45 -116 -45c-65.333 0 -116 20.5 -152 61.5s-54 95.833 -54 164.5v285h151v-259c0 -76.667 29 -115 87 -115c32 0 60 15.333 84 46v328h151zM103 578l127 152h126l127 -152h-129l-61 61l-61 -61h-129z" />
    <glyph glyph-name="udieresis" unicode="&#xfc;" horiz-adv-x="591" 
d="M529 500v-500h-151v34c-32 -30 -70.667 -45 -116 -45c-65.333 0 -116 20.5 -152 61.5s-54 95.833 -54 164.5v285h151v-259c0 -76.667 29 -115 87 -115c32 0 60 15.333 84 46v328h151zM175 562c-22 0 -41.001 7.83203 -57.001 23.499s-24 34.167 -24 55.5
c0 22.667 7.83301 41.834 23.5 57.501s34.834 23.5 57.501 23.5c21.333 0 39.833 -8 55.5 -24s23.5 -35 23.5 -57c0 -21.333 -7.83301 -39.833 -23.5 -55.5s-34.167 -23.5 -55.5 -23.5zM411.999 561.999c-22 0 -40.833 7.83301 -56.5 23.5s-23.5 34.167 -23.5 55.5
c0 22.667 7.83301 41.834 23.5 57.501s34.5 23.5 56.5 23.5s40.833 -7.83301 56.5 -23.5s23.5 -34.834 23.5 -57.501c0 -21.333 -7.83301 -39.833 -23.5 -55.5s-34.5 -23.5 -56.5 -23.5z" />
    <glyph glyph-name="yacute" unicode="&#xfd;" horiz-adv-x="576" 
d="M274 -194h-163l97 223l-208 471h165l124 -309l123 309h166zM232 556l80 174h173l-143 -174h-110z" />
    <glyph glyph-name="thorn" unicode="&#xfe;" horiz-adv-x="610" 
d="M62 -194l0.000976562 924h151v-261c31.333 28 70.666 42 117.999 42c72 0 131 -25.5 177 -76.5s69 -112.5 69 -184.5s-23 -133.5 -69 -184.5s-105 -76.5 -177 -76.5c-48 0 -87.333 14.333 -118 43v-226h-151zM308.001 126c33.333 0 60.501 12 81.501 36
s31.5 53.333 31.5 88s-10.5 64 -31.5 88s-48.167 36 -81.5 36c-38.667 0 -70.334 -15.667 -95.001 -47v-153c24 -32 55.667 -48 95 -48z" />
    <glyph glyph-name="ydieresis" unicode="&#xff;" horiz-adv-x="576" 
d="M274 -194h-163l97 223l-208 471h165l124 -309l123 309h166zM173 562c-22 0 -41.001 7.83203 -57.001 23.499s-24 34.167 -24 55.5c0 22.667 7.83301 41.834 23.5 57.501s34.834 23.5 57.501 23.5c21.333 0 39.833 -8 55.5 -24s23.5 -35 23.5 -57
c0 -21.333 -7.83301 -39.833 -23.5 -55.5s-34.167 -23.5 -55.5 -23.5zM409.999 561.999c-22 0 -40.833 7.83301 -56.5 23.5s-23.5 34.167 -23.5 55.5c0 22.667 7.83301 41.834 23.5 57.501s34.5 23.5 56.5 23.5s40.833 -7.83301 56.5 -23.5s23.5 -34.834 23.5 -57.501
c0 -21.333 -7.83301 -39.833 -23.5 -55.5s-34.5 -23.5 -56.5 -23.5z" />
    <glyph glyph-name="Amacron" unicode="&#x100;" horiz-adv-x="750" 
d="M-1 0l304 710h144l304 -710h-166l-63 150h-294l-63 -150h-166zM375 501l-90 -213h179zM202 787v104h348v-104h-348z" />
    <glyph glyph-name="amacron" unicode="&#x101;" horiz-adv-x="609" 
d="M278 -11c-72 0 -130.999 25.5 -176.999 76.5s-69 112.5 -69 184.5s23 133.5 69 184.5s105 76.5 177 76.5c47.333 0 86.666 -14 117.999 -42v31h151v-500h-151v32c-30.667 -28.667 -70 -43 -118 -43zM301.001 126c39.333 0 71.001 16 95.001 48v153
c-24.667 31.333 -56.334 47 -95.001 47c-33.333 0 -60.5 -12 -81.5 -36s-31.5 -53.333 -31.5 -88s10.5 -64 31.5 -88s48.167 -36 81.5 -36zM161.002 606v104h348v-104h-348z" />
    <glyph glyph-name="Abreve" unicode="&#x102;" horiz-adv-x="750" 
d="M-1 0l304 710h144l304 -710h-166l-63 150h-294l-63 -150h-166zM375 501l-90 -213h179zM376 747c-50.667 0 -93 16.5 -127 49.5s-51 76.5 -51 130.5h86c0 -30 8.66699 -53 26 -69s39.333 -24 66 -24s48.667 8 66 24s26 39 26 69h86c0 -54 -17 -97.5 -51 -130.5
s-76.333 -49.5 -127 -49.5z" />
    <glyph glyph-name="abreve" unicode="&#x103;" horiz-adv-x="609" 
d="M278 -11c-72 0 -130.999 25.5 -176.999 76.5s-69 112.5 -69 184.5s23 133.5 69 184.5s105 76.5 177 76.5c47.333 0 86.666 -14 117.999 -42v31h151v-500h-151v32c-30.667 -28.667 -70 -43 -118 -43zM301.001 126c39.333 0 71.001 16 95.001 48v153
c-24.667 31.333 -56.334 47 -95.001 47c-33.333 0 -60.5 -12 -81.5 -36s-31.5 -53.333 -31.5 -88s10.5 -64 31.5 -88s48.167 -36 81.5 -36zM335.002 545c-50.667 0 -93 16.5 -127 49.5s-51 75.833 -51 128.5v7h86v-7c0 -29.333 8.66699 -52 26 -68s39.333 -24 66 -24
s48.667 8 66 24s26 38.667 26 68v7h86v-7c0 -52.667 -17 -95.5 -51 -128.5s-76.333 -49.5 -127 -49.5z" />
    <glyph glyph-name="Aogonek" unicode="&#x104;" horiz-adv-x="750" 
d="M-1 0l303.999 710.003h144l304 -710c-52.667 -24 -79 -49.333 -79 -76c0 -18 9 -27 27 -27c9.33301 0 18 3 26 9l40 -77c-33.333 -22 -70.666 -33 -111.999 -33c-34 0 -61 8.33301 -81 25s-30 39 -30 67c0 7.33301 0.5 14.166 1.5 20.499s2.5 12.833 4.5 19.5
s3.83301 12.167 5.5 16.5s4.16699 9.66602 7.5 15.999l7.5 14c1.66699 3 4.66699 7.66699 9 14s6.83301 10.166 7.5 11.499l-63 150h-294l-63 -150h-166zM374.999 501.003l-90 -213h179z" />
    <glyph glyph-name="aogonek" unicode="&#x105;" horiz-adv-x="609" 
d="M278 -11c-72 0 -130.999 25.5 -176.999 76.5s-69 112.5 -69 184.5s23 133.5 69 184.5s105 76.5 177 76.5c47.333 0 86.666 -14 117.999 -42v31h151v-500h-151v32c-30.667 -28.667 -70 -43 -118 -43zM301.001 126c39.333 0 71.001 16 95.001 48v153
c-24.667 31.333 -56.334 47 -95.001 47c-33.333 0 -60.5 -12 -81.5 -36s-31.5 -53.333 -31.5 -88s10.5 -64 31.5 -88s48.167 -36 81.5 -36zM450.002 -204c-34 0 -61.167 8.33301 -81.5 25s-30.5 39 -30.5 67c0 38.667 19.333 76 58 112h151c-52.667 -24 -79 -49 -79 -75
c0 -18 9.33301 -27 28 -27c7.33301 0 16 3 26 9l39 -78c-33.333 -22 -70.333 -33 -111 -33z" />
    <glyph glyph-name="Cacute" unicode="&#x106;" horiz-adv-x="752" 
d="M402 -12c-101.333 0 -187.833 35.833 -259.5 107.5s-107.5 158.167 -107.5 259.5s35.833 187.833 107.5 259.5s158.167 107.5 259.5 107.5c72.667 0 138.334 -17.667 197.001 -53s103.667 -82.333 135 -141l-140 -76c-42.667 77.333 -106.667 116 -192 116
c-57.333 0 -106.166 -21 -146.499 -63s-60.5 -92 -60.5 -150s20.167 -108 60.5 -150s89.166 -63 146.499 -63c85.333 0 149.333 38.667 192 116l140 -76c-31.333 -58.667 -76.333 -105.667 -135 -141s-124.334 -53 -197.001 -53zM349 768l70 137h165l-125 -137h-110z" />
    <glyph glyph-name="cacute" unicode="&#x107;" horiz-adv-x="556" 
d="M298 -11c-74.667 0 -137.667 24.6709 -189 74.0039s-77 111.666 -77 186.999s25.667 137.666 77 186.999s114.333 74 189 74c51.333 0 98.666 -13.333 141.999 -40s75.666 -62 96.999 -106l-132 -70c-22 50 -57.667 75 -107 75c-32 0 -59 -11.333 -81 -34
s-33 -51.334 -33 -86.001s11 -63.334 33 -86.001s49 -34 81 -34c49.333 0 85 25 107 75l132 -70c-21.333 -44 -53.666 -79.333 -96.999 -106s-90.666 -40 -141.999 -40zM239 556.004l80 174h173l-143 -174h-110z" />
    <glyph glyph-name="Ccircumflex" unicode="&#x108;" horiz-adv-x="752" 
d="M402 -12c-101.333 0 -187.833 35.833 -259.5 107.5s-107.5 158.167 -107.5 259.5s35.833 187.833 107.5 259.5s158.167 107.5 259.5 107.5c72.667 0 138.334 -17.667 197.001 -53s103.667 -82.333 135 -141l-140 -76c-42.667 77.333 -106.667 116 -192 116
c-57.333 0 -106.166 -21 -146.499 -63s-60.5 -92 -60.5 -150s20.167 -108 60.5 -150s89.166 -63 146.499 -63c85.333 0 149.333 38.667 192 116l140 -76c-31.333 -58.667 -76.333 -105.667 -135 -141s-124.334 -53 -197.001 -53zM219 768l114 137h138l114 -137h-134l-49 48
l-50 -48h-133z" />
    <glyph glyph-name="ccircumflex" unicode="&#x109;" horiz-adv-x="556" 
d="M298 -11c-74.667 0 -137.667 24.6709 -189 74.0039s-77 111.666 -77 186.999s25.667 137.666 77 186.999s114.333 74 189 74c51.333 0 98.666 -13.333 141.999 -40s75.666 -62 96.999 -106l-132 -70c-22 50 -57.667 75 -107 75c-32 0 -59 -11.333 -81 -34
s-33 -51.334 -33 -86.001s11 -63.334 33 -86.001s49 -34 81 -34c49.333 0 85 25 107 75l132 -70c-21.333 -44 -53.666 -79.333 -96.999 -106s-90.666 -40 -141.999 -40zM108 578.004l127 152h126l127 -152h-129l-61 61l-61 -61h-129z" />
    <glyph glyph-name="Cdotaccent" unicode="&#x10a;" horiz-adv-x="752" 
d="M402 -12c-101.333 0 -187.833 35.833 -259.5 107.5s-107.5 158.167 -107.5 259.5s35.833 187.833 107.5 259.5s158.167 107.5 259.5 107.5c72.667 0 138.334 -17.667 197.001 -53s103.667 -82.333 135 -141l-140 -76c-42.667 77.333 -106.667 116 -192 116
c-57.333 0 -106.166 -21 -146.499 -63s-60.5 -92 -60.5 -150s20.167 -108 60.5 -150s89.166 -63 146.499 -63c85.333 0 149.333 38.667 192 116l140 -76c-31.333 -58.667 -76.333 -105.667 -135 -141s-124.334 -53 -197.001 -53zM402 768c-22 0 -41.001 8 -57.001 24
s-24 34.667 -24 56c0 22.667 7.83301 41.834 23.5 57.501s34.834 23.5 57.501 23.5c22 0 40.833 -7.83301 56.5 -23.5s23.5 -34.834 23.5 -57.501c0 -21.333 -7.83301 -40 -23.5 -56s-34.5 -24 -56.5 -24z" />
    <glyph glyph-name="cdotaccent" unicode="&#x10b;" horiz-adv-x="556" 
d="M298 -11c-74.667 0 -137.667 24.6709 -189 74.0039s-77 111.666 -77 186.999s25.667 137.666 77 186.999s114.333 74 189 74c51.333 0 98.666 -13.333 141.999 -40s75.666 -62 96.999 -106l-132 -70c-22 50 -57.667 75 -107 75c-32 0 -59 -11.333 -81 -34
s-33 -51.334 -33 -86.001s11 -63.334 33 -86.001s49 -34 81 -34c49.333 0 85 25 107 75l132 -70c-21.333 -44 -53.666 -79.333 -96.999 -106s-90.666 -40 -141.999 -40zM298 562.004c-22 0 -41.001 7.83301 -57.001 23.5s-24 34.167 -24 55.5
c0 22.667 7.83301 41.834 23.5 57.501s34.834 23.5 57.501 23.5c22 0 40.833 -7.83301 56.5 -23.5s23.5 -34.834 23.5 -57.501c0 -21.333 -7.83301 -39.833 -23.5 -55.5s-34.5 -23.5 -56.5 -23.5z" />
    <glyph glyph-name="Ccaron" unicode="&#x10c;" horiz-adv-x="752" 
d="M402 -12c-101.333 0 -187.833 35.833 -259.5 107.5s-107.5 158.167 -107.5 259.5s35.833 187.833 107.5 259.5s158.167 107.5 259.5 107.5c72.667 0 138.334 -17.667 197.001 -53s103.667 -82.333 135 -141l-140 -76c-42.667 77.333 -106.667 116 -192 116
c-57.333 0 -106.166 -21 -146.499 -63s-60.5 -92 -60.5 -150s20.167 -108 60.5 -150s89.166 -63 146.499 -63c85.333 0 149.333 38.667 192 116l140 -76c-31.333 -58.667 -76.333 -105.667 -135 -141s-124.334 -53 -197.001 -53zM333 768l-114 137h133l50 -49l49 49h134
l-114 -137h-138z" />
    <glyph glyph-name="ccaron" unicode="&#x10d;" horiz-adv-x="556" 
d="M298 -11c-74.667 0 -137.667 24.6709 -189 74.0039s-77 111.666 -77 186.999s25.667 137.666 77 186.999s114.333 74 189 74c51.333 0 98.666 -13.333 141.999 -40s75.666 -62 96.999 -106l-132 -70c-22 50 -57.667 75 -107 75c-32 0 -59 -11.333 -81 -34
s-33 -51.334 -33 -86.001s11 -63.334 33 -86.001s49 -34 81 -34c49.333 0 85 25 107 75l132 -70c-21.333 -44 -53.666 -79.333 -96.999 -106s-90.666 -40 -141.999 -40zM108 730.004h129l61 -61l61 61h129l-127 -152h-126z" />
    <glyph glyph-name="Dcaron" unicode="&#x10e;" horiz-adv-x="715" 
d="M75 0v710h242c100 0 185.333 -34.667 256 -104s106 -153 106 -251s-35.333 -181.667 -106 -251s-156 -104 -256 -104h-242zM234 146h83c58.667 0 106.834 20.167 144.501 60.5s56.5 89.833 56.5 148.5s-18.833 108.167 -56.5 148.5s-85.834 60.5 -144.501 60.5h-83v-418z
M268 768l-114 137h133l50 -49l49 49h134l-114 -137h-138z" />
    <glyph glyph-name="dcaron" unicode="&#x10f;" horiz-adv-x="609" 
d="M278 -11c-72 0 -130.999 25.5 -176.999 76.5s-69 112.5 -69 184.5s23 133.5 69 184.5s105 76.5 177 76.5c47.333 0 86.666 -14 117.999 -42v261h151v-730h-151v32c-30.667 -28.667 -70 -43 -118 -43zM301.001 126c39.333 0 71.001 16 95.001 48v153
c-24.667 31.333 -56.334 47 -95.001 47c-33.333 0 -60.5 -12 -81.5 -36s-31.5 -53.333 -31.5 -88s10.5 -64 31.5 -88s48.167 -36 81.5 -36zM563.002 570l20 160h151l-69 -160h-102z" />
    <glyph glyph-name="Dcroat" unicode="&#x110;" horiz-adv-x="732" 
d="M92 0v710h242c100 0 185.333 -34.667 256 -104s106 -153 106 -251s-35.333 -181.667 -106 -251s-156 -104 -256 -104h-242zM251 146h83c58.667 0 106.834 20.167 144.501 60.5s56.5 89.833 56.5 148.5s-18.833 108.167 -56.5 148.5s-85.834 60.5 -144.501 60.5h-83v-418z
M20 289v138h351v-138h-351z" />
    <glyph glyph-name="dcroat" unicode="&#x111;" horiz-adv-x="609" 
d="M278 -11c-72 0 -130.999 25.5 -176.999 76.5s-69 112.5 -69 184.5s23 133.5 69 184.5s105 76.5 177 76.5c47.333 0 86.666 -14 117.999 -42v261h151v-730h-151v32c-30.667 -28.667 -70 -43 -118 -43zM301.001 126c39.333 0 71.001 16 95.001 48v153
c-24.667 31.333 -56.334 47 -95.001 47c-33.333 0 -60.5 -12 -81.5 -36s-31.5 -53.333 -31.5 -88s10.5 -64 31.5 -88s48.167 -36 81.5 -36zM609.002 564h-343v96h343v-96z" />
    <glyph glyph-name="Emacron" unicode="&#x112;" horiz-adv-x="571" 
d="M75 0v710h450v-152h-291v-127h231v-152h-231v-127h291v-152h-450zM125 787v104h348v-104h-348z" />
    <glyph glyph-name="emacron" unicode="&#x113;" horiz-adv-x="577" 
d="M298 -11c-75.333 0 -138.499 23.8311 -189.499 71.498s-76.5 110.834 -76.5 189.501c0 74.667 25 136.834 75 186.501s112.667 74.5 188 74.5c70 0 129 -21.333 177 -64s72 -102.667 72 -180c0 -19.333 -1 -37 -3 -53h-363c4 -28.667 17.667 -50.5 41 -65.5
s50.333 -22.5 81 -22.5c27.333 0 51.666 5.5 72.999 16.5s37.333 24.5 48 40.5l112 -84c-24 -34 -56.333 -60.833 -97 -80.5s-86.667 -29.5 -138 -29.5zM182.001 312.998l212 -0.00195312c-6 24.667 -18.667 43.334 -38 56.001s-41 19 -65 19
c-25.333 0 -48.333 -6.16699 -69 -18.5s-34 -31.166 -40 -56.499zM126.001 605.996v104h348v-104h-348z" />
    <glyph glyph-name="Ebreve" unicode="&#x114;" horiz-adv-x="571" 
d="M75 0v710h450v-152h-291v-127h231v-152h-231v-127h291v-152h-450zM299 747c-50.667 0 -93 16.5 -127 49.5s-51 76.5 -51 130.5h86c0 -30 8.66699 -53 26 -69s39.333 -24 66 -24s48.667 8 66 24s26 39 26 69h86c0 -54 -17 -97.5 -51 -130.5s-76.333 -49.5 -127 -49.5z" />
    <glyph glyph-name="ebreve" unicode="&#x115;" horiz-adv-x="577" 
d="M298 -11c-75.333 0 -138.499 23.8311 -189.499 71.498s-76.5 110.834 -76.5 189.501c0 74.667 25 136.834 75 186.501s112.667 74.5 188 74.5c70 0 129 -21.333 177 -64s72 -102.667 72 -180c0 -19.333 -1 -37 -3 -53h-363c4 -28.667 17.667 -50.5 41 -65.5
s50.333 -22.5 81 -22.5c27.333 0 51.666 5.5 72.999 16.5s37.333 24.5 48 40.5l112 -84c-24 -34 -56.333 -60.833 -97 -80.5s-86.667 -29.5 -138 -29.5zM182.001 312.998l212 -0.00195312c-6 24.667 -18.667 43.334 -38 56.001s-41 19 -65 19
c-25.333 0 -48.333 -6.16699 -69 -18.5s-34 -31.166 -40 -56.499zM300.001 544.996c-50.667 0 -93 16.5 -127 49.5s-51 75.833 -51 128.5v7h86v-7c0 -29.333 8.66699 -52 26 -68s39.333 -24 66 -24s48.667 8 66 24s26 38.667 26 68v7h86v-7c0 -52.667 -17 -95.5 -51 -128.5
s-76.333 -49.5 -127 -49.5z" />
    <glyph glyph-name="Edotaccent" unicode="&#x116;" horiz-adv-x="571" 
d="M75 0v710h450v-152h-291v-127h231v-152h-231v-127h291v-152h-450zM299 768c-22 0 -41.001 8 -57.001 24s-24 34.667 -24 56c0 22.667 7.83301 41.834 23.5 57.501s34.834 23.5 57.501 23.5c22 0 40.833 -7.83301 56.5 -23.5s23.5 -34.834 23.5 -57.501
c0 -21.333 -7.83301 -40 -23.5 -56s-34.5 -24 -56.5 -24z" />
    <glyph glyph-name="edotaccent" unicode="&#x117;" horiz-adv-x="577" 
d="M298 -11c-75.333 0 -138.499 23.8311 -189.499 71.498s-76.5 110.834 -76.5 189.501c0 74.667 25 136.834 75 186.501s112.667 74.5 188 74.5c70 0 129 -21.333 177 -64s72 -102.667 72 -180c0 -19.333 -1 -37 -3 -53h-363c4 -28.667 17.667 -50.5 41 -65.5
s50.333 -22.5 81 -22.5c27.333 0 51.666 5.5 72.999 16.5s37.333 24.5 48 40.5l112 -84c-24 -34 -56.333 -60.833 -97 -80.5s-86.667 -29.5 -138 -29.5zM182.001 312.998l212 -0.00195312c-6 24.667 -18.667 43.334 -38 56.001s-41 19 -65 19
c-25.333 0 -48.333 -6.16699 -69 -18.5s-34 -31.166 -40 -56.499zM300.001 561.996c-22 0 -41.001 7.83301 -57.001 23.5s-24 34.167 -24 55.5c0 22.667 7.83301 41.834 23.5 57.501s34.834 23.5 57.501 23.5c22 0 40.833 -7.83301 56.5 -23.5s23.5 -34.834 23.5 -57.501
c0 -21.333 -7.83301 -39.833 -23.5 -55.5s-34.5 -23.5 -56.5 -23.5z" />
    <glyph glyph-name="Eogonek" unicode="&#x118;" horiz-adv-x="571" 
d="M75 0v710h450v-152h-291v-127h231v-152h-231v-127h291v-152h-450zM423 -204c-32 0 -58.832 8.5 -80.499 25.5s-32.5 39.833 -32.5 68.5c0 34 18.667 70.667 56 110h159c-52.667 -24 -79 -48 -79 -72c0 -7.33301 2.66699 -13 8 -17s10.666 -6 15.999 -6
c9.33301 0 18 3 26 9l43 -85c-33.333 -22 -72 -33 -116 -33z" />
    <glyph glyph-name="eogonek" unicode="&#x119;" horiz-adv-x="577" 
d="M431 -204c-35.333 0 -63.166 9.49902 -83.499 28.499s-30.5 43.833 -30.5 74.5c0 36 21 69.333 63 100c-22.667 -6.66699 -50 -10 -82 -10c-75.333 0 -138.5 23.833 -189.5 71.5s-76.5 110.834 -76.5 189.501c0 74.667 25 136.834 75 186.501s112.667 74.5 188 74.5
c70 0 129 -21.333 177 -64s72 -102.667 72 -180c0 -19.333 -1 -37 -3 -53h-363c4 -28.667 17.667 -50.5 41 -65.5s50.333 -22.5 81 -22.5c27.333 0 51.666 5.5 72.999 16.5s37.333 24.5 48 40.5l112 -84c-58 -69.333 -87 -123.333 -87 -162
c0 -12.667 3.33301 -22.334 10 -29.001s15 -10 25 -10c7.33301 0 16 3 26 9l40 -78c-32 -22 -70.667 -33 -116 -33zM291 387.999c-25.333 0 -48.333 -6.16895 -69 -18.502s-34 -31.166 -40 -56.499h212c-6 24.667 -18.667 43.334 -38 56.001s-41 19 -65 19z" />
    <glyph glyph-name="Ecaron" unicode="&#x11a;" horiz-adv-x="571" 
d="M75 0v710h450v-152h-291v-127h231v-152h-231v-127h291v-152h-450zM230 768l-114 137h133l50 -49l49 49h134l-114 -137h-138z" />
    <glyph glyph-name="ecaron" unicode="&#x11b;" horiz-adv-x="577" 
d="M298 -11c-75.333 0 -138.499 23.8311 -189.499 71.498s-76.5 110.834 -76.5 189.501c0 74.667 25 136.834 75 186.501s112.667 74.5 188 74.5c70 0 129 -21.333 177 -64s72 -102.667 72 -180c0 -19.333 -1 -37 -3 -53h-363c4 -28.667 17.667 -50.5 41 -65.5
s50.333 -22.5 81 -22.5c27.333 0 51.666 5.5 72.999 16.5s37.333 24.5 48 40.5l112 -84c-24 -34 -56.333 -60.833 -97 -80.5s-86.667 -29.5 -138 -29.5zM182.001 312.998l212 -0.00195312c-6 24.667 -18.667 43.334 -38 56.001s-41 19 -65 19
c-25.333 0 -48.333 -6.16699 -69 -18.5s-34 -31.166 -40 -56.499zM110.001 729.996h129l61 -61l61 61h129l-127 -152h-126z" />
    <glyph glyph-name="Gcircumflex" unicode="&#x11c;" horiz-adv-x="763" 
d="M422 -12c-110 0 -201.833 35.168 -275.5 105.501s-110.5 157.5 -110.5 261.5c0 102.667 35.167 189.5 105.5 260.5s159.833 106.5 268.5 106.5c122 0 219 -40.333 291 -121l-112 -109c-47.333 50.667 -107 76 -179 76c-62.667 0 -114 -20.833 -154 -62.5
s-60 -91.834 -60 -150.501c0 -61.333 20.333 -112.166 61 -152.499s95 -60.5 163 -60.5c62.667 0 108.667 11.333 138 34v105h-139v149h294v-337c-30.667 -34.667 -71.667 -60.834 -123 -78.501s-107.333 -26.5 -168 -26.5zM230 768.001l114 137h138l114 -137h-134l-49 48
l-50 -48h-133z" />
    <glyph glyph-name="gcircumflex" unicode="&#x11d;" horiz-adv-x="614" 
d="M286 -204c-91.333 0 -164.331 21.332 -218.998 63.999l79 113c39.333 -30 85.333 -45 138 -45c31.333 0 58.666 8.33301 81.999 25s35 40.667 35 72v29c-30.667 -28.667 -70.667 -43 -120 -43c-71.333 0 -130.666 24 -177.999 72s-71 107.333 -71 178s23.667 130 71 178
s106.666 72 177.999 72c48.667 0 88.667 -14 120 -42v31h151v-473c0 -35.333 -5.33301 -66.666 -16 -93.999s-24.5 -49.333 -41.5 -66s-37.5 -30.5 -61.5 -41.5s-47.833 -18.667 -71.5 -23s-48.834 -6.5 -75.501 -6.5zM306.002 147.999c39.333 0 71.001 16 95.001 48v131
c-24.667 31.333 -56.334 47 -95.001 47c-34.667 0 -63 -10.5 -85 -31.5s-33 -48.167 -33 -81.5s11 -60.5 33 -81.5s50.333 -31.5 85 -31.5zM117.003 577.999l127 152h126l127 -152h-129l-61 61l-61 -61h-129z" />
    <glyph glyph-name="Gbreve" unicode="&#x11e;" horiz-adv-x="763" 
d="M422 -12c-110 0 -201.833 35.168 -275.5 105.501s-110.5 157.5 -110.5 261.5c0 102.667 35.167 189.5 105.5 260.5s159.833 106.5 268.5 106.5c122 0 219 -40.333 291 -121l-112 -109c-47.333 50.667 -107 76 -179 76c-62.667 0 -114 -20.833 -154 -62.5
s-60 -91.834 -60 -150.501c0 -61.333 20.333 -112.166 61 -152.499s95 -60.5 163 -60.5c62.667 0 108.667 11.333 138 34v105h-139v149h294v-337c-30.667 -34.667 -71.667 -60.834 -123 -78.501s-107.333 -26.5 -168 -26.5zM413 747.001c-50.667 0 -93 16.5 -127 49.5
s-51 76.5 -51 130.5h86c0 -30 8.66699 -53 26 -69s39.333 -24 66 -24s48.667 8 66 24s26 39 26 69h86c0 -54 -17 -97.5 -51 -130.5s-76.333 -49.5 -127 -49.5z" />
    <glyph glyph-name="gbreve" unicode="&#x11f;" horiz-adv-x="614" 
d="M286 -204c-91.333 0 -164.331 21.332 -218.998 63.999l79 113c39.333 -30 85.333 -45 138 -45c31.333 0 58.666 8.33301 81.999 25s35 40.667 35 72v29c-30.667 -28.667 -70.667 -43 -120 -43c-71.333 0 -130.666 24 -177.999 72s-71 107.333 -71 178s23.667 130 71 178
s106.666 72 177.999 72c48.667 0 88.667 -14 120 -42v31h151v-473c0 -35.333 -5.33301 -66.666 -16 -93.999s-24.5 -49.333 -41.5 -66s-37.5 -30.5 -61.5 -41.5s-47.833 -18.667 -71.5 -23s-48.834 -6.5 -75.501 -6.5zM306.002 147.999c39.333 0 71.001 16 95.001 48v131
c-24.667 31.333 -56.334 47 -95.001 47c-34.667 0 -63 -10.5 -85 -31.5s-33 -48.167 -33 -81.5s11 -60.5 33 -81.5s50.333 -31.5 85 -31.5zM307.003 544.999c-50.667 0 -93 16.5 -127 49.5s-51 75.833 -51 128.5v7h86v-7c0 -29.333 8.66699 -52 26 -68s39.333 -24 66 -24
s48.667 8 66 24s26 38.667 26 68v7h86v-7c0 -52.667 -17 -95.5 -51 -128.5s-76.333 -49.5 -127 -49.5z" />
    <glyph glyph-name="Gdotaccent" unicode="&#x120;" horiz-adv-x="763" 
d="M422 -12c-110 0 -201.833 35.168 -275.5 105.501s-110.5 157.5 -110.5 261.5c0 102.667 35.167 189.5 105.5 260.5s159.833 106.5 268.5 106.5c122 0 219 -40.333 291 -121l-112 -109c-47.333 50.667 -107 76 -179 76c-62.667 0 -114 -20.833 -154 -62.5
s-60 -91.834 -60 -150.501c0 -61.333 20.333 -112.166 61 -152.499s95 -60.5 163 -60.5c62.667 0 108.667 11.333 138 34v105h-139v149h294v-337c-30.667 -34.667 -71.667 -60.834 -123 -78.501s-107.333 -26.5 -168 -26.5zM413 768.001c-22 0 -41.001 8 -57.001 24
s-24 34.667 -24 56c0 22.667 7.83301 41.834 23.5 57.501s34.834 23.5 57.501 23.5c22 0 40.833 -7.83301 56.5 -23.5s23.5 -34.834 23.5 -57.501c0 -21.333 -7.83301 -40 -23.5 -56s-34.5 -24 -56.5 -24z" />
    <glyph glyph-name="gdotaccent" unicode="&#x121;" horiz-adv-x="614" 
d="M286 -204c-91.333 0 -164.331 21.332 -218.998 63.999l79 113c39.333 -30 85.333 -45 138 -45c31.333 0 58.666 8.33301 81.999 25s35 40.667 35 72v29c-30.667 -28.667 -70.667 -43 -120 -43c-71.333 0 -130.666 24 -177.999 72s-71 107.333 -71 178s23.667 130 71 178
s106.666 72 177.999 72c48.667 0 88.667 -14 120 -42v31h151v-473c0 -35.333 -5.33301 -66.666 -16 -93.999s-24.5 -49.333 -41.5 -66s-37.5 -30.5 -61.5 -41.5s-47.833 -18.667 -71.5 -23s-48.834 -6.5 -75.501 -6.5zM306.002 147.999c39.333 0 71.001 16 95.001 48v131
c-24.667 31.333 -56.334 47 -95.001 47c-34.667 0 -63 -10.5 -85 -31.5s-33 -48.167 -33 -81.5s11 -60.5 33 -81.5s50.333 -31.5 85 -31.5zM307.003 561.999c-22 0 -41.001 7.83301 -57.001 23.5s-24 34.167 -24 55.5c0 22.667 7.83301 41.834 23.5 57.501
s34.834 23.5 57.501 23.5c22 0 40.833 -7.83301 56.5 -23.5s23.5 -34.834 23.5 -57.501c0 -21.333 -7.83301 -39.833 -23.5 -55.5s-34.5 -23.5 -56.5 -23.5z" />
    <glyph glyph-name="uni0122" unicode="&#x122;" horiz-adv-x="763" 
d="M422 -12c-110 0 -201.833 35.168 -275.5 105.501s-110.5 157.5 -110.5 261.5c0 102.667 35.167 189.5 105.5 260.5s159.833 106.5 268.5 106.5c122 0 219 -40.333 291 -121l-112 -109c-47.333 50.667 -107 76 -179 76c-62.667 0 -114 -20.833 -154 -62.5
s-60 -91.834 -60 -150.501c0 -61.333 20.333 -112.166 61 -152.499s95 -60.5 163 -60.5c62.667 0 108.667 11.333 138 34v105h-139v149h294v-337c-30.667 -34.667 -71.667 -60.834 -123 -78.501s-107.333 -26.5 -168 -26.5zM444 -334.999h-67l34 117h-58v139h141v-139z" />
    <glyph glyph-name="uni0123" unicode="&#x123;" horiz-adv-x="614" 
d="M286 -204c-91.333 0 -164.331 21.332 -218.998 63.999l79 113c39.333 -30 85.333 -45 138 -45c31.333 0 58.666 8.33301 81.999 25s35 40.667 35 72v29c-30.667 -28.667 -70.667 -43 -120 -43c-71.333 0 -130.666 24 -177.999 72s-71 107.333 -71 178s23.667 130 71 178
s106.666 72 177.999 72c48.667 0 88.667 -14 120 -42v31h151v-473c0 -35.333 -5.33301 -66.666 -16 -93.999s-24.5 -49.333 -41.5 -66s-37.5 -30.5 -61.5 -41.5s-47.833 -18.667 -71.5 -23s-48.834 -6.5 -75.501 -6.5zM306.002 147.999c39.333 0 71.001 16 95.001 48v131
c-24.667 31.333 -56.334 47 -95.001 47c-34.667 0 -63 -10.5 -85 -31.5s-33 -48.167 -33 -81.5s11 -60.5 33 -81.5s50.333 -31.5 85 -31.5zM287.003 828.999h67l-33 -117h57v-140h-141v140z" />
    <glyph glyph-name="Hcircumflex" unicode="&#x124;" horiz-adv-x="754" 
d="M75 0v710h159v-278h286v278h159v-710h-159v281h-286v-281h-159zM194 768l114 137h138l114 -137h-134l-49 48l-50 -48h-133z" />
    <glyph glyph-name="hcircumflex" unicode="&#x125;" horiz-adv-x="602" 
d="M213 0h-150.999v730h151v-266c33.333 31.333 76.666 47 129.999 47c64 0 113.833 -20.5 149.5 -61.5s53.5 -95.833 53.5 -164.5v-285h-151v259c0 35.333 -7 63.333 -21 84s-35.333 31 -64 31c-40.667 0 -73 -15.333 -97 -46v-328zM150.001 768l114 137h138l114 -137h-134
l-49 48l-50 -48h-133z" />
    <glyph glyph-name="Hbar" unicode="&#x126;" horiz-adv-x="790" 
d="M93 0v710h159v-278h286v278h159v-710h-159v281h-286v-281h-159zM21 518v108h748v-108h-748z" />
    <glyph glyph-name="hbar" unicode="&#x127;" horiz-adv-x="602" 
d="M213 0h-150.999v730h151v-266c33.333 31.333 76.666 47 129.999 47c64 0 113.833 -20.5 149.5 -61.5s53.5 -95.833 53.5 -164.5v-285h-151v259c0 35.333 -7 63.333 -21 84s-35.333 31 -64 31c-40.667 0 -73 -15.333 -97 -46v-328zM346.001 564h-343v96h343v-96z" />
    <glyph glyph-name="Itilde" unicode="&#x128;" horiz-adv-x="309" 
d="M75 0v710h159v-710h-159zM-38 776l3.99805 27.998c5.33301 36.667 19.5 65.334 42.5 86.001s49.167 31 78.5 31c23.333 0 49.333 -7.83301 78 -23.5s47 -23.5 55 -23.5c12.667 0 22 3.83301 28 11.5s11.333 19.834 16 36.501h83l-4 -28
c-5.33301 -36.667 -19.666 -65.334 -42.999 -86.001s-49.666 -31 -78.999 -31c-23.333 0 -49.333 7.83301 -78 23.5s-46.667 23.5 -54 23.5c-12.667 0 -22.167 -3.66699 -28.5 -11s-11.833 -19.666 -16.5 -36.999h-82z" />
    <glyph glyph-name="itilde" unicode="&#x129;" horiz-adv-x="275" 
d="M62 0v500h151v-500h-151zM-55 565l3.99902 27.999c5.33301 36.667 19.5 65.334 42.5 86.001s49.167 31 78.5 31c23.333 0 49.333 -7.83301 78 -23.5s47 -23.5 55 -23.5c12.667 0 22 3.83301 28 11.5s11.333 19.834 16 36.501h83l-4 -28
c-5.33301 -36 -19.666 -64.5 -42.999 -85.5s-49.333 -31.5 -78 -31.5c-23.333 0 -49.333 7.83301 -78 23.5s-47 23.5 -55 23.5c-12.667 0 -22 -3.83301 -28 -11.5s-11.333 -19.834 -16 -36.501h-83z" />
    <glyph glyph-name="Imacron" unicode="&#x12a;" horiz-adv-x="309" 
d="M75 0v710h159v-710h-159zM-19 787v104h348v-104h-348z" />
    <glyph glyph-name="imacron" unicode="&#x12b;" horiz-adv-x="275" 
d="M62 0v500h151v-500h-151zM-36 606v104h348v-104h-348z" />
    <glyph glyph-name="Ibreve" unicode="&#x12c;" horiz-adv-x="309" 
d="M75 0v710h159v-710h-159zM155 747c-50.667 0 -93 16.5 -127 49.5s-51 76.5 -51 130.5h86c0 -30 8.66699 -53 26 -69s39.333 -24 66 -24s48.667 8 66 24s26 39 26 69h86c0 -54 -17 -97.5 -51 -130.5s-76.333 -49.5 -127 -49.5z" />
    <glyph glyph-name="ibreve" unicode="&#x12d;" horiz-adv-x="275" 
d="M62 0v500h151v-500h-151zM138 545c-50.667 0 -93 16.5 -127 49.5s-51 75.833 -51 128.5v7h86v-7c0 -29.333 8.66699 -52 26 -68s39.333 -24 66 -24s48.667 8 66 24s26 38.667 26 68v7h86v-7c0 -52.667 -17 -95.5 -51 -128.5s-76.333 -49.5 -127 -49.5z" />
    <glyph glyph-name="Iogonek" unicode="&#x12e;" horiz-adv-x="309" 
d="M75 0v710h159v-710h-159zM132 -204c-32 0 -58.832 8.5 -80.499 25.5s-32.5 39.833 -32.5 68.5c0 34 18.667 70.667 56 110h159c-52.667 -24 -79 -48 -79 -72c0 -7.33301 2.66699 -13 8 -17s10.666 -6 15.999 -6c9.33301 0 18 3 26 9l43 -85c-33.333 -22 -72 -33 -116 -33
z" />
    <glyph glyph-name="iogonek" unicode="&#x12f;" horiz-adv-x="275" 
d="M137 548c-25.333 0 -47.333 9.16699 -66 27.5s-28 40.5 -28 66.5s9.33301 48.167 28 66.5s40.667 27.5 66 27.5c26.667 0 49.167 -9.16699 67.5 -27.5s27.5 -40.5 27.5 -66.5s-9.16699 -48.167 -27.5 -66.5s-40.833 -27.5 -67.5 -27.5zM62 0v500h151v-500h-151zM116 -204
c-34 0 -61.167 8.33301 -81.5 25s-30.5 39 -30.5 67c0 38.667 19.333 76 58 112h151c-52.667 -24 -79 -49 -79 -75c0 -18 9.33301 -27 28 -27c7.33301 0 16 3 26 9l39 -78c-33.333 -22 -70.333 -33 -111 -33z" />
    <glyph glyph-name="Idotaccent" unicode="&#x130;" horiz-adv-x="309" 
d="M75 0v710h159v-710h-159zM155 768c-22 0 -41.001 8 -57.001 24s-24 34.667 -24 56c0 22.667 7.83301 41.834 23.5 57.501s34.834 23.5 57.501 23.5c22 0 40.833 -7.83301 56.5 -23.5s23.5 -34.834 23.5 -57.501c0 -21.333 -7.83301 -40 -23.5 -56s-34.5 -24 -56.5 -24z
" />
    <glyph glyph-name="dotlessi" unicode="&#x131;" horiz-adv-x="275" 
d="M62 0v500h151v-500h-151z" />
    <glyph glyph-name="Jcircumflex" unicode="&#x134;" horiz-adv-x="471" 
d="M177 -12c-70 0 -129.334 22 -178.001 66l88 118c26 -24 53.667 -36 83 -36c20.667 0 37.834 5.66699 51.501 17s20.5 28.333 20.5 51v506h159v-516c0 -67.333 -21.833 -118.5 -65.5 -153.5s-96.5 -52.5 -158.5 -52.5zM137.999 768l114 137h138l114 -137h-134l-49 48
l-50 -48h-133z" />
    <glyph glyph-name="jcircumflex" unicode="&#x135;" horiz-adv-x="283" 
d="M26 -199c-48 0 -89.334 7.99902 -124.001 23.999l35 123c22 -11.333 44.667 -17 68 -17c43.333 0 65 28 65 84v485h151v-510c0 -61.333 -18.167 -108.166 -54.5 -140.499s-83.166 -48.5 -140.499 -48.5zM-43.001 577.999l127 152h126l127 -152h-129l-61 61l-61 -61h-129z
" />
    <glyph glyph-name="uni0136" unicode="&#x136;" horiz-adv-x="700" 
d="M522 0l-289 318v-318h-158v710h158v-297l241 297h195l-280 -341l337 -369h-204zM397 -335h-67l34 117h-58v139h141v-139z" />
    <glyph glyph-name="uni0137" unicode="&#x137;" horiz-adv-x="560" 
d="M399 0l-186 223v-223h-151v730h151v-409l146 179h179l-184 -226l228 -274h-183zM327 -335h-67l34 117h-58v139h141v-139z" />
    <glyph glyph-name="Lacute" unicode="&#x139;" horiz-adv-x="552" 
d="M75 0v710h159v-558h294v-152h-453zM105 768l70 137h165l-125 -137h-110z" />
    <glyph glyph-name="lacute" unicode="&#x13a;" horiz-adv-x="275" 
d="M62 0v730h151v-730h-151zM79 786l80 174h173l-143 -174h-110z" />
    <glyph glyph-name="uni013B" unicode="&#x13b;" horiz-adv-x="552" 
d="M75 0v710h159v-558h294v-152h-453zM323 -335h-67l34 117h-58v139h141v-139z" />
    <glyph glyph-name="uni013C" unicode="&#x13c;" horiz-adv-x="275" 
d="M62 0v730h151v-730h-151zM159 -335h-67l34 117h-58v139h141v-139z" />
    <glyph glyph-name="Lcaron" unicode="&#x13d;" horiz-adv-x="554" 
d="M75 0v710h159v-558h294v-152h-453zM296 570l20 160h151l-69 -160h-102z" />
    <glyph glyph-name="lcaron" unicode="&#x13e;" horiz-adv-x="275" 
d="M62 0v730h151v-730h-151zM229 570l20 160h151l-69 -160h-102z" />
    <glyph glyph-name="Ldot" unicode="&#x13f;" horiz-adv-x="560" 
d="M75 0v710h159v-558h294v-152h-453zM425 351c-22.667 0 -41.834 7.83301 -57.501 23.5s-23.5 34.5 -23.5 56.5c0 22.667 7.83301 41.834 23.5 57.501s34.834 23.5 57.501 23.5c22 0 40.833 -7.83301 56.5 -23.5s23.5 -34.834 23.5 -57.501
c0 -22 -7.83301 -40.833 -23.5 -56.5s-34.5 -23.5 -56.5 -23.5z" />
    <glyph glyph-name="ldot" unicode="&#x140;" horiz-adv-x="410" 
d="M62 0v730h151v-730h-151zM343 293c-22.667 0 -41.834 7.83301 -57.501 23.5s-23.5 34.5 -23.5 56.5c0 22.667 7.83301 41.834 23.5 57.501s34.834 23.5 57.501 23.5c22 0 40.833 -7.83301 56.5 -23.5s23.5 -34.834 23.5 -57.501c0 -22 -7.83301 -40.833 -23.5 -56.5
s-34.5 -23.5 -56.5 -23.5z" />
    <glyph glyph-name="Lslash" unicode="&#x141;" horiz-adv-x="583" 
d="M106 0v710h159v-558h294v-152h-453zM394 418l-360 -205v124l360 206v-125z" />
    <glyph glyph-name="lslash" unicode="&#x142;" horiz-adv-x="358" 
d="M104 0v730h151v-730h-151zM328 401l-297 -170v115l297 171v-116z" />
    <glyph glyph-name="Nacute" unicode="&#x143;" horiz-adv-x="792" 
d="M717 0h-137l-346 439v-439h-159v710h137l345 -439v439h160v-710zM343 768l70 137h165l-125 -137h-110z" />
    <glyph glyph-name="nacute" unicode="&#x144;" horiz-adv-x="602" 
d="M62 0l0.000976562 500h151v-36c33.333 31.333 76.666 47 129.999 47c64 0 113.833 -20.5 149.5 -61.5s53.5 -95.833 53.5 -164.5v-285h-151v259c0 35.333 -7 63.333 -21 84s-35.333 31 -64 31c-40.667 0 -73 -15.333 -97 -46v-328h-151zM244.001 556l80 174h173
l-143 -174h-110z" />
    <glyph glyph-name="uni0145" unicode="&#x145;" horiz-adv-x="792" 
d="M717 0h-137l-346 439v-439h-159v710h137l345 -439v439h160v-710zM415 -335h-67l34 117h-58v139h141v-139z" />
    <glyph glyph-name="uni0146" unicode="&#x146;" horiz-adv-x="602" 
d="M62 0l0.000976562 500h151v-36c33.333 31.333 76.666 47 129.999 47c64 0 113.833 -20.5 149.5 -61.5s53.5 -95.833 53.5 -164.5v-285h-151v259c0 35.333 -7 63.333 -21 84s-35.333 31 -64 31c-40.667 0 -73 -15.333 -97 -46v-328h-151zM324.001 -335h-67l34 117h-58v139
h141v-139z" />
    <glyph glyph-name="Ncaron" unicode="&#x147;" horiz-adv-x="792" 
d="M717 0h-137l-346 439v-439h-159v710h137l345 -439v439h160v-710zM327 768l-114 137h133l50 -49l49 49h134l-114 -137h-138z" />
    <glyph glyph-name="ncaron" unicode="&#x148;" horiz-adv-x="602" 
d="M62 0l0.000976562 500h151v-36c33.333 31.333 76.666 47 129.999 47c64 0 113.833 -20.5 149.5 -61.5s53.5 -95.833 53.5 -164.5v-285h-151v259c0 35.333 -7 63.333 -21 84s-35.333 31 -64 31c-40.667 0 -73 -15.333 -97 -46v-328h-151zM113.001 730h129l61 -61l61 61
h129l-127 -152h-126z" />
    <glyph glyph-name="Eng" unicode="&#x14a;" horiz-adv-x="792" 
d="M717 710v-724c0 -54 -16.167 -97.5 -48.5 -130.5s-75.5 -49.5 -129.5 -49.5h-77v129h26c24 0 41.5 5.5 52.5 16.5s16.5 29.167 16.5 54.5v23l-323 410v-439h-159v710h137l345 -439v439h160z" />
    <glyph glyph-name="eng" unicode="&#x14b;" horiz-adv-x="602" 
d="M62 0v500h151v-36c33.333 31.333 76.666 47 129.999 47c64 0 113.833 -20.5 149.5 -61.5s53.5 -95.833 53.5 -164.5v-300c0 -62 -18.5 -109 -55.5 -141s-86.5 -48 -148.5 -48c-29.333 0 -55.333 3.33301 -78 10l32 130c8 -2 17.333 -3 28 -3
c44.667 0 68.334 24.667 71.001 74v252c0 35.333 -7 63.333 -21 84s-35.333 31 -64 31c-40.667 0 -73 -15.333 -97 -46v-328h-151z" />
    <glyph glyph-name="Omacron" unicode="&#x14c;" horiz-adv-x="804" 
d="M402 142c57.333 0 106 21 146 63s60 92 60 150s-20 108 -60 150s-88.667 63 -146 63s-106.166 -21 -146.499 -63s-60.5 -92 -60.5 -150s20.167 -108 60.5 -150s89.166 -63 146.499 -63zM402 -12c-101.333 0 -187.833 35.833 -259.5 107.5s-107.5 158.167 -107.5 259.5
s35.833 187.833 107.5 259.5s158.167 107.5 259.5 107.5s187.833 -36 259.5 -108s107.5 -158.333 107.5 -259s-35.833 -187 -107.5 -259s-158.167 -108 -259.5 -108zM228 787v104h348v-104h-348z" />
    <glyph glyph-name="omacron" unicode="&#x14d;" horiz-adv-x="588" 
d="M294 -11c-72.667 0 -134.667 25.167 -186 75.5s-77 112.166 -77 185.499s25.667 135.166 77 185.499s113.333 75.5 186 75.5s134.667 -25.167 186 -75.5s77 -112.166 77 -185.499s-25.667 -135.166 -77 -185.499s-113.333 -75.5 -186 -75.5zM294 130
c32 0 58.5 11 79.5 33s31.5 51 31.5 87s-10.5 65 -31.5 87s-47.5 33 -79.5 33s-58.5 -11 -79.5 -33s-31.5 -51 -31.5 -87s10.5 -65 31.5 -87s47.5 -33 79.5 -33zM120 606v104h348v-104h-348z" />
    <glyph glyph-name="Obreve" unicode="&#x14e;" horiz-adv-x="804" 
d="M402 142c57.333 0 106 21 146 63s60 92 60 150s-20 108 -60 150s-88.667 63 -146 63s-106.166 -21 -146.499 -63s-60.5 -92 -60.5 -150s20.167 -108 60.5 -150s89.166 -63 146.499 -63zM402 -12c-101.333 0 -187.833 35.833 -259.5 107.5s-107.5 158.167 -107.5 259.5
s35.833 187.833 107.5 259.5s158.167 107.5 259.5 107.5s187.833 -36 259.5 -108s107.5 -158.333 107.5 -259s-35.833 -187 -107.5 -259s-158.167 -108 -259.5 -108zM402 747c-50.667 0 -93 16.5 -127 49.5s-51 76.5 -51 130.5h86c0 -30 8.66699 -53 26 -69
s39.333 -24 66 -24s48.667 8 66 24s26 39 26 69h86c0 -54 -17 -97.5 -51 -130.5s-76.333 -49.5 -127 -49.5z" />
    <glyph glyph-name="obreve" unicode="&#x14f;" horiz-adv-x="588" 
d="M294 -11c-72.667 0 -134.667 25.167 -186 75.5s-77 112.166 -77 185.499s25.667 135.166 77 185.499s113.333 75.5 186 75.5s134.667 -25.167 186 -75.5s77 -112.166 77 -185.499s-25.667 -135.166 -77 -185.499s-113.333 -75.5 -186 -75.5zM294 130
c32 0 58.5 11 79.5 33s31.5 51 31.5 87s-10.5 65 -31.5 87s-47.5 33 -79.5 33s-58.5 -11 -79.5 -33s-31.5 -51 -31.5 -87s10.5 -65 31.5 -87s47.5 -33 79.5 -33zM294 545c-50.667 0 -93 16.5 -127 49.5s-51 75.833 -51 128.5v7h86v-7c0 -29.333 8.66699 -52 26 -68
s39.333 -24 66 -24s48.667 8 66 24s26 38.667 26 68v7h86v-7c0 -52.667 -17 -95.5 -51 -128.5s-76.333 -49.5 -127 -49.5z" />
    <glyph glyph-name="Ohungarumlaut" unicode="&#x150;" horiz-adv-x="804" 
d="M402 142c57.333 0 106 21 146 63s60 92 60 150s-20 108 -60 150s-88.667 63 -146 63s-106.166 -21 -146.499 -63s-60.5 -92 -60.5 -150s20.167 -108 60.5 -150s89.166 -63 146.499 -63zM402 -12c-101.333 0 -187.833 35.833 -259.5 107.5s-107.5 158.167 -107.5 259.5
s35.833 187.833 107.5 259.5s158.167 107.5 259.5 107.5s187.833 -36 259.5 -108s107.5 -158.333 107.5 -259s-35.833 -187 -107.5 -259s-158.167 -108 -259.5 -108zM268 768l52 137h160l-114 -137h-98zM458 768l52 137h160l-114 -137h-98z" />
    <glyph glyph-name="ohungarumlaut" unicode="&#x151;" horiz-adv-x="588" 
d="M294 -11c-72.667 0 -134.667 25.167 -186 75.5s-77 112.166 -77 185.499s25.667 135.166 77 185.499s113.333 75.5 186 75.5s134.667 -25.167 186 -75.5s77 -112.166 77 -185.499s-25.667 -135.166 -77 -185.499s-113.333 -75.5 -186 -75.5zM294 130
c32 0 58.5 11 79.5 33s31.5 51 31.5 87s-10.5 65 -31.5 87s-47.5 33 -79.5 33s-58.5 -11 -79.5 -33s-31.5 -51 -31.5 -87s10.5 -65 31.5 -87s47.5 -33 79.5 -33zM160 556l52 174h160l-114 -174h-98zM350 556l52 174h160l-114 -174h-98z" />
    <glyph glyph-name="OE" unicode="&#x152;" horiz-adv-x="1104" 
d="M402 142c57.333 0 106 21 146 63s60 92 60 150s-20 108 -60 150s-88.667 63 -146 63s-106.166 -21 -146.499 -63s-60.5 -92 -60.5 -150s20.167 -108 60.5 -150s89.166 -63 146.499 -63zM608 0v56c-48 -45.333 -116.667 -68 -206 -68
c-101.333 0 -187.833 35.833 -259.5 107.5s-107.5 158.167 -107.5 259.5s35.833 187.833 107.5 259.5s158.167 107.5 259.5 107.5c89.333 0 158 -22.667 206 -68v56h450v-152h-290v-127h230v-152h-230v-127h290v-152h-450z" />
    <glyph glyph-name="oe" unicode="&#x153;" horiz-adv-x="950" 
d="M671 -11c-78 0 -142.332 24.6689 -192.999 74.002c-50.667 -49.333 -112 -74 -184 -74c-72.667 0 -134.667 25.167 -186 75.5s-77 112.166 -77 185.499s25.667 135.166 77 185.499s113.333 75.5 186 75.5c72 0 133.667 -25 185 -75c50 50 113 75 189 75
c70 0 129 -21.333 177 -64s72 -102.667 72 -180c0 -19.333 -1 -37 -3 -53h-363c4 -28.667 17.667 -50.5 41 -65.5s50.333 -22.5 81 -22.5c27.333 0 51.666 5.5 72.999 16.5s37.333 24.5 48 40.5l112 -84c-24 -34 -56.333 -60.833 -97 -80.5s-86.667 -29.5 -138 -29.5z
M294.001 130.002c32 0 58.5 11 79.5 33s31.5 51 31.5 87s-10.5 65 -31.5 87s-47.5 33 -79.5 33s-58.5 -11 -79.5 -33s-31.5 -51 -31.5 -87s10.5 -65 31.5 -87s47.5 -33 79.5 -33zM664.001 388.002c-25.333 0 -48.333 -6.16895 -69 -18.502s-34 -31.166 -40 -56.499h212
c-6 24.667 -18.667 43.334 -38 56.001s-41 19 -65 19z" />
    <glyph glyph-name="Racute" unicode="&#x154;" horiz-adv-x="662" 
d="M75 0v710h280c65.333 0 118.333 -20.667 159 -62s61 -92 61 -152c0 -89.333 -46.333 -150.333 -139 -183l251 -313h-191l-237 293h-25v-293h-159zM234 428h102c24 0 43.5 6.33301 58.5 19s22.5 29 22.5 49c0 21.333 -7.5 38 -22.5 50s-34.5 18 -58.5 18h-102v-136z
M248 768l70 137h165l-125 -137h-110z" />
    <glyph glyph-name="racute" unicode="&#x155;" horiz-adv-x="394" 
d="M62 0l-0.000976562 500h151v-56c8 18 22.333 32.833 43 44.5s43.334 17.5 68.001 17.5c22.667 0 43 -3.33301 61 -10l-23 -141c-5.33301 4 -19.333 6 -42 6c-50 0 -85.667 -15 -107 -45v-316h-151zM161.999 556l80 174h173l-143 -174h-110z" />
    <glyph glyph-name="uni0156" unicode="&#x156;" horiz-adv-x="662" 
d="M75 0v710h280c65.333 0 118.333 -20.667 159 -62s61 -92 61 -152c0 -89.333 -46.333 -150.333 -139 -183l251 -313h-191l-237 293h-25v-293h-159zM234 428h102c24 0 43.5 6.33301 58.5 19s22.5 29 22.5 49c0 21.333 -7.5 38 -22.5 50s-34.5 18 -58.5 18h-102v-136z
M385 -335h-67l34 117h-58v139h141v-139z" />
    <glyph glyph-name="uni0157" unicode="&#x157;" horiz-adv-x="394" 
d="M62 0l-0.000976562 500h151v-56c8 18 22.333 32.833 43 44.5s43.334 17.5 68.001 17.5c22.667 0 43 -3.33301 61 -10l-23 -141c-5.33301 4 -19.333 6 -42 6c-50 0 -85.667 -15 -107 -45v-316h-151zM157.999 -335h-67l34 117h-58v139h141v-139z" />
    <glyph glyph-name="Rcaron" unicode="&#x158;" horiz-adv-x="662" 
d="M75 0v710h280c65.333 0 118.333 -20.667 159 -62s61 -92 61 -152c0 -89.333 -46.333 -150.333 -139 -183l251 -313h-191l-237 293h-25v-293h-159zM234 428h102c24 0 43.5 6.33301 58.5 19s22.5 29 22.5 49c0 21.333 -7.5 38 -22.5 50s-34.5 18 -58.5 18h-102v-136z
M232 768l-114 137h133l50 -49l49 49h134l-114 -137h-138z" />
    <glyph glyph-name="rcaron" unicode="&#x159;" horiz-adv-x="394" 
d="M62 0l-0.000976562 500h151v-56c8 18 22.333 32.833 43 44.5s43.334 17.5 68.001 17.5c22.667 0 43 -3.33301 61 -10l-23 -141c-5.33301 4 -19.333 6 -42 6c-50 0 -85.667 -15 -107 -45v-316h-151zM30.999 730h129l61 -61l61 61h129l-127 -152h-126z" />
    <glyph glyph-name="Sacute" unicode="&#x15a;" horiz-adv-x="574" 
d="M286 -12c-56 0 -106.833 11.1699 -152.5 33.5029s-82.5 53.5 -110.5 93.5l122 103c17.333 -24.667 39.5 -44.334 66.5 -59.001s53.833 -22 80.5 -22c26 0 46.833 5.5 62.5 16.5s23.5 25.167 23.5 42.5c0 18 -7.66699 33.667 -23 47s-40.666 26 -75.999 38l-50 17
c-119.333 40 -179 108.333 -179 205c0 67.333 22.833 120.666 68.5 159.999s104.5 59 176.5 59c92 0 168.333 -32.667 229 -98l-104 -110c-32.667 39.333 -73.667 59 -123 59c-23.333 0 -43.5 -4.66699 -60.5 -14s-25.5 -22.666 -25.5 -39.999c0 -18 8 -32.5 24 -43.5
s44.667 -23.833 86 -38.5l50 -18c113.333 -40.667 169.666 -111.334 168.999 -212.001c0 -64.667 -23.833 -117.334 -71.5 -158.001s-108.5 -61 -182.5 -61zM244 768.003l70 137h165l-125 -137h-110z" />
    <glyph glyph-name="sacute" unicode="&#x15b;" horiz-adv-x="461" 
d="M234 -11c-92.667 0 -162.001 29.998 -208.001 89.998l100 91c24 -34.667 60 -52 108 -52c30.667 0 46 9.33301 46 28c0 8.66699 -4 15.834 -12 21.501s-24.333 11.5 -49 17.5l-33 8c-47.333 11.333 -83.166 31.333 -107.499 60s-35.833 63.334 -34.5 104.001
c1.33301 46 19.833 83.167 55.5 111.5s81.167 42.5 136.5 42.5c77.333 0 136 -27.667 176 -83l-98 -81c-21.333 26.667 -47.666 40 -78.999 40c-27.333 0 -41 -8.66699 -41 -26c0 -16 14 -28 42 -36l46 -12c48 -12.667 84.5 -31.5 109.5 -56.5s37.5 -58.833 37.5 -101.5
c0 -47.333 -18.833 -86.833 -56.5 -118.5s-83.834 -47.5 -138.501 -47.5zM171.999 555.998l80 174h173l-143 -174h-110z" />
    <glyph glyph-name="Scircumflex" unicode="&#x15c;" horiz-adv-x="574" 
d="M286 -12c-56 0 -106.833 11.1699 -152.5 33.5029s-82.5 53.5 -110.5 93.5l122 103c17.333 -24.667 39.5 -44.334 66.5 -59.001s53.833 -22 80.5 -22c26 0 46.833 5.5 62.5 16.5s23.5 25.167 23.5 42.5c0 18 -7.66699 33.667 -23 47s-40.666 26 -75.999 38l-50 17
c-119.333 40 -179 108.333 -179 205c0 67.333 22.833 120.666 68.5 159.999s104.5 59 176.5 59c92 0 168.333 -32.667 229 -98l-104 -110c-32.667 39.333 -73.667 59 -123 59c-23.333 0 -43.5 -4.66699 -60.5 -14s-25.5 -22.666 -25.5 -39.999c0 -18 8 -32.5 24 -43.5
s44.667 -23.833 86 -38.5l50 -18c113.333 -40.667 169.666 -111.334 168.999 -212.001c0 -64.667 -23.833 -117.334 -71.5 -158.001s-108.5 -61 -182.5 -61zM114 768.003l114 137h138l114 -137h-134l-49 48l-50 -48h-133z" />
    <glyph glyph-name="scircumflex" unicode="&#x15d;" horiz-adv-x="461" 
d="M234 -11c-92.667 0 -162.001 29.998 -208.001 89.998l100 91c24 -34.667 60 -52 108 -52c30.667 0 46 9.33301 46 28c0 8.66699 -4 15.834 -12 21.501s-24.333 11.5 -49 17.5l-33 8c-47.333 11.333 -83.166 31.333 -107.499 60s-35.833 63.334 -34.5 104.001
c1.33301 46 19.833 83.167 55.5 111.5s81.167 42.5 136.5 42.5c77.333 0 136 -27.667 176 -83l-98 -81c-21.333 26.667 -47.666 40 -78.999 40c-27.333 0 -41 -8.66699 -41 -26c0 -16 14 -28 42 -36l46 -12c48 -12.667 84.5 -31.5 109.5 -56.5s37.5 -58.833 37.5 -101.5
c0 -47.333 -18.833 -86.833 -56.5 -118.5s-83.834 -47.5 -138.501 -47.5zM40.999 577.998l127 152h126l127 -152h-129l-61 61l-61 -61h-129z" />
    <glyph glyph-name="Scedilla" unicode="&#x15e;" horiz-adv-x="574" 
d="M286 -12c-56 0 -106.833 11.1699 -152.5 33.5029s-82.5 53.5 -110.5 93.5l122 103c17.333 -24.667 39.5 -44.334 66.5 -59.001s53.833 -22 80.5 -22c26 0 46.833 5.5 62.5 16.5s23.5 25.167 23.5 42.5c0 18 -7.66699 33.667 -23 47s-40.666 26 -75.999 38l-50 17
c-119.333 40 -179 108.333 -179 205c0 67.333 22.833 120.666 68.5 159.999s104.5 59 176.5 59c92 0 168.333 -32.667 229 -98l-104 -110c-32.667 39.333 -73.667 59 -123 59c-23.333 0 -43.5 -4.66699 -60.5 -14s-25.5 -22.666 -25.5 -39.999c0 -18 8 -32.5 24 -43.5
s44.667 -23.833 86 -38.5l50 -18c113.333 -40.667 169.666 -111.334 168.999 -212.001c0 -64.667 -23.833 -117.334 -71.5 -158.001s-108.5 -61 -182.5 -61zM167 -187.997l13.999 64c20.667 -11.333 43.334 -17 68.001 -17c32.667 0 49 9 49 27c0 16 -10.667 24 -32 24
c-16 0 -30.333 -4 -43 -12l-36 19l52 86h64l-28 -47c10 8 25.667 12 47 12c22.667 0 42 -7.16699 58 -21.5s24 -32.5 24 -54.5c0 -28 -13.667 -51 -41 -69s-59.333 -27 -96 -27c-40.667 0 -74 5.33301 -100 16z" />
    <glyph glyph-name="scedilla" unicode="&#x15f;" horiz-adv-x="461" 
d="M234 -11c-92.667 0 -162.001 29.998 -208.001 89.998l100 91c24 -34.667 60 -52 108 -52c30.667 0 46 9.33301 46 28c0 8.66699 -4 15.834 -12 21.501s-24.333 11.5 -49 17.5l-33 8c-47.333 11.333 -83.166 31.333 -107.499 60s-35.833 63.334 -34.5 104.001
c1.33301 46 19.833 83.167 55.5 111.5s81.167 42.5 136.5 42.5c77.333 0 136 -27.667 176 -83l-98 -81c-21.333 26.667 -47.666 40 -78.999 40c-27.333 0 -41 -8.66699 -41 -26c0 -16 14 -28 42 -36l46 -12c48 -12.667 84.5 -31.5 109.5 -56.5s37.5 -58.833 37.5 -101.5
c0 -47.333 -18.833 -86.833 -56.5 -118.5s-83.834 -47.5 -138.501 -47.5zM106.999 -188.002l13.999 64c20.667 -11.333 43.334 -17 68.001 -17c32.667 0 49 9 49 27c0 16 -11 24 -33 24c-15.333 0 -29.333 -4 -42 -12l-36 19l52 86h64l-28 -47c10 8 25.333 12 46 12
c23.333 0 43 -7.16699 59 -21.5s24 -32.5 24 -54.5c0 -28 -13.667 -51 -41 -69s-59.333 -27 -96 -27c-40.667 0 -74 5.33301 -100 16z" />
    <glyph glyph-name="Scaron" unicode="&#x160;" horiz-adv-x="574" 
d="M286 -12c-56 0 -106.833 11.1699 -152.5 33.5029s-82.5 53.5 -110.5 93.5l122 103c17.333 -24.667 39.5 -44.334 66.5 -59.001s53.833 -22 80.5 -22c26 0 46.833 5.5 62.5 16.5s23.5 25.167 23.5 42.5c0 18 -7.66699 33.667 -23 47s-40.666 26 -75.999 38l-50 17
c-119.333 40 -179 108.333 -179 205c0 67.333 22.833 120.666 68.5 159.999s104.5 59 176.5 59c92 0 168.333 -32.667 229 -98l-104 -110c-32.667 39.333 -73.667 59 -123 59c-23.333 0 -43.5 -4.66699 -60.5 -14s-25.5 -22.666 -25.5 -39.999c0 -18 8 -32.5 24 -43.5
s44.667 -23.833 86 -38.5l50 -18c113.333 -40.667 169.666 -111.334 168.999 -212.001c0 -64.667 -23.833 -117.334 -71.5 -158.001s-108.5 -61 -182.5 -61zM228 768.003l-114 137h133l50 -49l49 49h134l-114 -137h-138z" />
    <glyph glyph-name="scaron" unicode="&#x161;" horiz-adv-x="461" 
d="M234 -11c-92.667 0 -162.001 29.998 -208.001 89.998l100 91c24 -34.667 60 -52 108 -52c30.667 0 46 9.33301 46 28c0 8.66699 -4 15.834 -12 21.501s-24.333 11.5 -49 17.5l-33 8c-47.333 11.333 -83.166 31.333 -107.499 60s-35.833 63.334 -34.5 104.001
c1.33301 46 19.833 83.167 55.5 111.5s81.167 42.5 136.5 42.5c77.333 0 136 -27.667 176 -83l-98 -81c-21.333 26.667 -47.666 40 -78.999 40c-27.333 0 -41 -8.66699 -41 -26c0 -16 14 -28 42 -36l46 -12c48 -12.667 84.5 -31.5 109.5 -56.5s37.5 -58.833 37.5 -101.5
c0 -47.333 -18.833 -86.833 -56.5 -118.5s-83.834 -47.5 -138.501 -47.5zM40.999 729.998h129l61 -61l61 61h129l-127 -152h-126z" />
    <glyph glyph-name="uni0162" unicode="&#x162;" horiz-adv-x="568" 
d="M203 0v558h-181v152h524v-152h-183v-558h-160zM305 -335h-67l34 117h-58v139h141v-139z" />
    <glyph glyph-name="uni0163" unicode="&#x163;" horiz-adv-x="478" 
d="M338 -6c-62 0 -111.499 15.999 -148.499 47.999s-55.5 79 -55.5 141v186h-120v131h120v152h151v-152h150v-131h-150v-155c0 -29.333 6 -50.5 18 -63.5s31 -19.5 57 -19.5c25.333 0 48 5.33301 68 16l45 -123c-12.667 -7.33301 -32.334 -14.166 -59.001 -20.499
s-52 -9.5 -76 -9.5zM329.001 -335.001h-67l34 117h-58v139h141v-139z" />
    <glyph glyph-name="Tcaron" unicode="&#x164;" horiz-adv-x="568" 
d="M203 0v558h-181v152h524v-152h-183v-558h-160zM215 768l-114 137h133l50 -49l49 49h134l-114 -137h-138z" />
    <glyph glyph-name="tcaron" unicode="&#x165;" horiz-adv-x="478" 
d="M338 -6c-62 0 -111.499 15.999 -148.499 47.999s-55.5 79 -55.5 141v186h-120v131h120v152h151v-152h150v-131h-150v-155c0 -29.333 6 -50.5 18 -63.5s31 -19.5 57 -19.5c25.333 0 48 5.33301 68 16l45 -123c-12.667 -7.33301 -32.334 -14.166 -59.001 -20.499
s-52 -9.5 -76 -9.5zM301.001 549.999l20 160h151l-69 -160h-102z" />
    <glyph glyph-name="Tbar" unicode="&#x166;" horiz-adv-x="592" 
d="M215 0v558h-181v152h524v-152h-183v-558h-160zM80 287v138h431v-138h-431z" />
    <glyph glyph-name="tbar" unicode="&#x167;" horiz-adv-x="490" 
d="M347 -6c-62 0 -111.499 15.999 -148.499 47.999s-55.5 79 -55.5 141v186h-120v131h120v152h151v-152h150v-131h-150v-155c0 -29.333 6 -50.5 18 -63.5s31 -19.5 57 -19.5c25.333 0 48 5.33301 68 16l45 -123c-12.667 -7.33301 -32.334 -14.166 -59.001 -20.499
s-52 -9.5 -76 -9.5zM23.001 206.999v96h421v-96h-421z" />
    <glyph glyph-name="Utilde" unicode="&#x168;" horiz-adv-x="718" 
d="M359 -12c-86 0 -156.167 26.833 -210.5 80.5s-81.5 124.5 -81.5 212.5v429h159v-431c0 -42 12.167 -75.333 36.5 -100s56.5 -37 96.5 -37s72.167 12.333 96.5 37s36.5 58 36.5 100v431h159v-429c0 -88 -27.167 -158.833 -81.5 -212.5s-124.5 -80.5 -210.5 -80.5zM166 776
l3.99805 27.998c5.33301 36.667 19.5 65.334 42.5 86.001s49.167 31 78.5 31c23.333 0 49.333 -7.83301 78 -23.5s47 -23.5 55 -23.5c12.667 0 22 3.83301 28 11.5s11.333 19.834 16 36.501h83l-4 -28c-5.33301 -36.667 -19.666 -65.334 -42.999 -86.001
s-49.666 -31 -78.999 -31c-23.333 0 -49.333 7.83301 -78 23.5s-46.667 23.5 -54 23.5c-12.667 0 -22.167 -3.66699 -28.5 -11s-11.833 -19.666 -16.5 -36.999h-82z" />
    <glyph glyph-name="utilde" unicode="&#x169;" horiz-adv-x="591" 
d="M529 500v-500h-151v34c-32 -30 -70.667 -45 -116 -45c-65.333 0 -116 20.5 -152 61.5s-54 95.833 -54 164.5v285h151v-259c0 -76.667 29 -115 87 -115c32 0 60 15.333 84 46v328h151zM100 565l3.99902 27.999c5.33301 36.667 19.5 65.334 42.5 86.001s49.167 31 78.5 31
c23.333 0 49.333 -7.83301 78 -23.5s47 -23.5 55 -23.5c12.667 0 22 3.83301 28 11.5s11.333 19.834 16 36.501h83l-4 -28c-5.33301 -36 -19.666 -64.5 -42.999 -85.5s-49.333 -31.5 -78 -31.5c-23.333 0 -49.333 7.83301 -78 23.5s-47 23.5 -55 23.5
c-12.667 0 -22 -3.83301 -28 -11.5s-11.333 -19.834 -16 -36.501h-83z" />
    <glyph glyph-name="Umacron" unicode="&#x16a;" horiz-adv-x="718" 
d="M359 -12c-86 0 -156.167 26.833 -210.5 80.5s-81.5 124.5 -81.5 212.5v429h159v-431c0 -42 12.167 -75.333 36.5 -100s56.5 -37 96.5 -37s72.167 12.333 96.5 37s36.5 58 36.5 100v431h159v-429c0 -88 -27.167 -158.833 -81.5 -212.5s-124.5 -80.5 -210.5 -80.5zM185 787
v104h348v-104h-348z" />
    <glyph glyph-name="umacron" unicode="&#x16b;" horiz-adv-x="591" 
d="M529 500v-500h-151v34c-32 -30 -70.667 -45 -116 -45c-65.333 0 -116 20.5 -152 61.5s-54 95.833 -54 164.5v285h151v-259c0 -76.667 29 -115 87 -115c32 0 60 15.333 84 46v328h151zM119 606v104h348v-104h-348z" />
    <glyph glyph-name="Ubreve" unicode="&#x16c;" horiz-adv-x="718" 
d="M359 -12c-86 0 -156.167 26.833 -210.5 80.5s-81.5 124.5 -81.5 212.5v429h159v-431c0 -42 12.167 -75.333 36.5 -100s56.5 -37 96.5 -37s72.167 12.333 96.5 37s36.5 58 36.5 100v431h159v-429c0 -88 -27.167 -158.833 -81.5 -212.5s-124.5 -80.5 -210.5 -80.5zM359 747
c-50.667 0 -93 16.5 -127 49.5s-51 76.5 -51 130.5h86c0 -30 8.66699 -53 26 -69s39.333 -24 66 -24s48.667 8 66 24s26 39 26 69h86c0 -54 -17 -97.5 -51 -130.5s-76.333 -49.5 -127 -49.5z" />
    <glyph glyph-name="ubreve" unicode="&#x16d;" horiz-adv-x="591" 
d="M529 500v-500h-151v34c-32 -30 -70.667 -45 -116 -45c-65.333 0 -116 20.5 -152 61.5s-54 95.833 -54 164.5v285h151v-259c0 -76.667 29 -115 87 -115c32 0 60 15.333 84 46v328h151zM293 545c-50.667 0 -93 16.5 -127 49.5s-51 75.833 -51 128.5v7h86v-7
c0 -29.333 8.66699 -52 26 -68s39.333 -24 66 -24s48.667 8 66 24s26 38.667 26 68v7h86v-7c0 -52.667 -17 -95.5 -51 -128.5s-76.333 -49.5 -127 -49.5z" />
    <glyph glyph-name="Uring" unicode="&#x16e;" horiz-adv-x="718" 
d="M359 -12c-86 0 -156.167 26.833 -210.5 80.5s-81.5 124.5 -81.5 212.5v429h159v-431c0 -42 12.167 -75.333 36.5 -100s56.5 -37 96.5 -37s72.167 12.333 96.5 37s36.5 58 36.5 100v431h159v-429c0 -88 -27.167 -158.833 -81.5 -212.5s-124.5 -80.5 -210.5 -80.5zM360 753
c-33.333 0 -62 11.833 -86 35.5s-36 51.834 -36 84.501s12 60.834 36 84.501s52.667 35.5 86 35.5s62 -11.833 86 -35.5s36 -51.834 36 -84.501s-12 -60.834 -36 -84.501s-52.667 -35.5 -86 -35.5zM360 818c15.333 0 28.5 5.33301 39.5 16s16.5 23.667 16.5 39
s-5.5 28.333 -16.5 39s-24.167 16 -39.5 16s-28.5 -5.33301 -39.5 -16s-16.5 -23.667 -16.5 -39s5.5 -28.333 16.5 -39s24.167 -16 39.5 -16z" />
    <glyph glyph-name="uring" unicode="&#x16f;" horiz-adv-x="591" 
d="M529 500v-500h-151v34c-32 -30 -70.667 -45 -116 -45c-65.333 0 -116 20.5 -152 61.5s-54 95.833 -54 164.5v285h151v-259c0 -76.667 29 -115 87 -115c32 0 60 15.333 84 46v328h151zM293 543c-33.333 0 -62 11.833 -86 35.5s-36 51.834 -36 84.501s12 60.834 36 84.501
s52.667 35.5 86 35.5s62 -11.833 86 -35.5s36 -51.834 36 -84.501s-12 -60.834 -36 -84.501s-52.667 -35.5 -86 -35.5zM293 608c15.333 0 28.5 5.33301 39.5 16s16.5 23.667 16.5 39s-5.5 28.333 -16.5 39s-24.167 16 -39.5 16s-28.5 -5.33301 -39.5 -16
s-16.5 -23.667 -16.5 -39s5.5 -28.333 16.5 -39s24.167 -16 39.5 -16z" />
    <glyph glyph-name="Uhungarumlaut" unicode="&#x170;" horiz-adv-x="718" 
d="M359 -12c-86 0 -156.167 26.833 -210.5 80.5s-81.5 124.5 -81.5 212.5v429h159v-431c0 -42 12.167 -75.333 36.5 -100s56.5 -37 96.5 -37s72.167 12.333 96.5 37s36.5 58 36.5 100v431h159v-429c0 -88 -27.167 -158.833 -81.5 -212.5s-124.5 -80.5 -210.5 -80.5zM225 768
l52 137h160l-114 -137h-98zM415 768l52 137h160l-114 -137h-98z" />
    <glyph glyph-name="uhungarumlaut" unicode="&#x171;" horiz-adv-x="591" 
d="M529 500v-500h-151v34c-32 -30 -70.667 -45 -116 -45c-65.333 0 -116 20.5 -152 61.5s-54 95.833 -54 164.5v285h151v-259c0 -76.667 29 -115 87 -115c32 0 60 15.333 84 46v328h151zM159 556l52 174h160l-114 -174h-98zM349 556l52 174h160l-114 -174h-98z" />
    <glyph glyph-name="Uogonek" unicode="&#x172;" horiz-adv-x="718" 
d="M410 -204c-30.667 0 -57.167 8.33496 -79.5 25.002s-33.5 38.667 -33.5 66c0 38 15 72 45 102c-86 5.33301 -153.333 34.666 -202 87.999s-73 121.333 -73 204v429h159v-431c0 -42 12.167 -75.333 36.5 -100s56.5 -37 96.5 -37s72.167 12.333 96.5 37s36.5 58 36.5 100
v431h159v-429c0 -95.333 -34.333 -173 -103 -233c-60 -50.667 -94.333 -82.334 -103 -95.001c-7.33301 -9.33301 -11 -18.333 -11 -27c0 -14 7.66699 -21 23 -21c9.33301 0 18 3 26 9l43 -85c-33.333 -22 -72 -33 -116 -33z" />
    <glyph glyph-name="uogonek" unicode="&#x173;" horiz-adv-x="591" 
d="M529 500v-500h-151v34c-32 -30 -70.667 -45 -116 -45c-65.333 0 -116 20.5 -152 61.5s-54 95.833 -54 164.5v285h151v-259c0 -76.667 29 -115 87 -115c32 0 60 15.333 84 46v328h151zM432 -204c-34 0 -61.167 8.33301 -81.5 25s-30.5 39 -30.5 67
c0 38.667 19.333 76 58 112h151c-52.667 -24 -79 -49 -79 -75c0 -18 9.33301 -27 28 -27c7.33301 0 16 3 26 9l39 -78c-33.333 -22 -70.333 -33 -111 -33z" />
    <glyph glyph-name="Wcircumflex" unicode="&#x174;" horiz-adv-x="1026" 
d="M228 0l-221 710h168l129 -452l138 452h140l138 -453l129 453h170l-221 -710h-144l-142 467l-141 -467h-143zM331 768l114 137h138l114 -137h-134l-49 48l-50 -48h-133z" />
    <glyph glyph-name="wcircumflex" unicode="&#x175;" horiz-adv-x="810" 
d="M491 0l-86 264l-85 -264h-152l-165 500h162l87 -307l95 307h116l95 -307l87 307h162l-164 -500h-152zM217 578l127 152h126l127 -152h-129l-61 61l-61 -61h-129z" />
    <glyph glyph-name="Ycircumflex" unicode="&#x176;" horiz-adv-x="694" 
d="M267 0v299l-259 411h185l153 -256l155 256h185l-259 -412v-298h-160zM164 768l114 137h138l114 -137h-134l-49 48l-50 -48h-133z" />
    <glyph glyph-name="ycircumflex" unicode="&#x177;" horiz-adv-x="576" 
d="M274 -194h-163l97 223l-208 471h165l124 -309l123 309h166zM101 578l127 152h126l127 -152h-129l-61 61l-61 -61h-129z" />
    <glyph glyph-name="Ydieresis" unicode="&#x178;" horiz-adv-x="694" 
d="M267 0v299l-259 411h185l153 -256l155 256h185l-259 -412v-298h-160zM229 768c-22 0 -41.001 7.99902 -57.001 23.999s-24 34.667 -24 56c0 22.667 7.83301 41.834 23.5 57.501s34.834 23.5 57.501 23.5c21.333 0 39.833 -8 55.5 -24s23.5 -35 23.5 -57
c0 -21.333 -7.83301 -40 -23.5 -56s-34.167 -24 -55.5 -24zM465.999 767.999c-22 0 -40.833 8 -56.5 24s-23.5 34.667 -23.5 56c0 22.667 7.83301 41.834 23.5 57.501s34.5 23.5 56.5 23.5s40.833 -7.83301 56.5 -23.5s23.5 -34.834 23.5 -57.501
c0 -21.333 -7.83301 -40 -23.5 -56s-34.5 -24 -56.5 -24z" />
    <glyph glyph-name="Zacute" unicode="&#x179;" horiz-adv-x="626" 
d="M39 0v109l326 449h-321v152h537v-109l-327 -449h333v-152h-548zM260 768l70 137h165l-125 -137h-110z" />
    <glyph glyph-name="zacute" unicode="&#x17a;" horiz-adv-x="502" 
d="M41 0v118l219 246h-216v136h412v-119l-219 -245h227v-136h-423zM191 556l80 174h173l-143 -174h-110z" />
    <glyph glyph-name="Zdotaccent" unicode="&#x17b;" horiz-adv-x="626" 
d="M39 0v109l326 449h-321v152h537v-109l-327 -449h333v-152h-548zM313 768c-22 0 -41.001 8 -57.001 24s-24 34.667 -24 56c0 22.667 7.83301 41.834 23.5 57.501s34.834 23.5 57.501 23.5c22 0 40.833 -7.83301 56.5 -23.5s23.5 -34.834 23.5 -57.501
c0 -21.333 -7.83301 -40 -23.5 -56s-34.5 -24 -56.5 -24z" />
    <glyph glyph-name="zdotaccent" unicode="&#x17c;" horiz-adv-x="502" 
d="M41 0v118l219 246h-216v136h412v-119l-219 -245h227v-136h-423zM250 562c-22 0 -41.001 7.83301 -57.001 23.5s-24 34.167 -24 55.5c0 22.667 7.83301 41.834 23.5 57.501s34.834 23.5 57.501 23.5c22 0 40.833 -7.83301 56.5 -23.5s23.5 -34.834 23.5 -57.501
c0 -21.333 -7.83301 -39.833 -23.5 -55.5s-34.5 -23.5 -56.5 -23.5z" />
    <glyph glyph-name="Zcaron" unicode="&#x17d;" horiz-adv-x="626" 
d="M39 0v109l326 449h-321v152h537v-109l-327 -449h333v-152h-548zM244 768l-114 137h133l50 -49l49 49h134l-114 -137h-138z" />
    <glyph glyph-name="zcaron" unicode="&#x17e;" horiz-adv-x="502" 
d="M41 0v118l219 246h-216v136h412v-119l-219 -245h227v-136h-423zM60 730h129l61 -61l61 61h129l-127 -152h-126z" />
    <glyph glyph-name="uni018F" unicode="&#x18f;" horiz-adv-x="801" 
d="M399 -12c-103.333 0 -190.333 35.666 -261 106.999s-106 158 -106 260v66h564c-13.333 44 -38.333 79.5 -75 106.5s-79 40.5 -127 40.5c-73.333 0 -133 -26.667 -179 -80l-107 108c35.333 38.667 78 69.334 128 92.001s104.333 34 163 34
c100 0 186.167 -35.5 258.5 -106.5s108.5 -157.833 108.5 -260.5c0 -102 -35.333 -188.667 -106 -260s-157.667 -107 -261 -107zM399 141.999c46.667 0 87.333 12.833 122 38.5s59.334 59.167 74.001 100.5h-392c10.667 -40.667 34.167 -74 70.5 -100
s78.166 -39 125.499 -39z" />
    <glyph glyph-name="uni0218" unicode="&#x218;" horiz-adv-x="574" 
d="M286 -12c-56 0 -106.833 11.1699 -152.5 33.5029s-82.5 53.5 -110.5 93.5l122 103c17.333 -24.667 39.5 -44.334 66.5 -59.001s53.833 -22 80.5 -22c26 0 46.833 5.5 62.5 16.5s23.5 25.167 23.5 42.5c0 18 -7.66699 33.667 -23 47s-40.666 26 -75.999 38l-50 17
c-119.333 40 -179 108.333 -179 205c0 67.333 22.833 120.666 68.5 159.999s104.5 59 176.5 59c92 0 168.333 -32.667 229 -98l-104 -110c-32.667 39.333 -73.667 59 -123 59c-23.333 0 -43.5 -4.66699 -60.5 -14s-25.5 -22.666 -25.5 -39.999c0 -18 8 -32.5 24 -43.5
s44.667 -23.833 86 -38.5l50 -18c113.333 -40.667 169.666 -111.334 168.999 -212.001c0 -64.667 -23.833 -117.334 -71.5 -158.001s-108.5 -61 -182.5 -61zM307 -334.997h-67l34 117h-58v139h141v-139z" />
    <glyph glyph-name="uni0219" unicode="&#x219;" horiz-adv-x="461" 
d="M234 -11c-92.667 0 -162.001 29.998 -208.001 89.998l100 91c24 -34.667 60 -52 108 -52c30.667 0 46 9.33301 46 28c0 8.66699 -4 15.834 -12 21.501s-24.333 11.5 -49 17.5l-33 8c-47.333 11.333 -83.166 31.333 -107.499 60s-35.833 63.334 -34.5 104.001
c1.33301 46 19.833 83.167 55.5 111.5s81.167 42.5 136.5 42.5c77.333 0 136 -27.667 176 -83l-98 -81c-21.333 26.667 -47.666 40 -78.999 40c-27.333 0 -41 -8.66699 -41 -26c0 -16 14 -28 42 -36l46 -12c48 -12.667 84.5 -31.5 109.5 -56.5s37.5 -58.833 37.5 -101.5
c0 -47.333 -18.833 -86.833 -56.5 -118.5s-83.834 -47.5 -138.501 -47.5zM242.999 -335.002h-67l34 117h-58v139h141v-139z" />
    <glyph glyph-name="uni021A" unicode="&#x21a;" horiz-adv-x="568" 
d="M203 0v558h-181v152h524v-152h-183v-558h-160zM305 -335h-67l34 117h-58v139h141v-139z" />
    <glyph glyph-name="uni021B" unicode="&#x21b;" horiz-adv-x="478" 
d="M338 -6c-62 0 -111.499 15.999 -148.499 47.999s-55.5 79 -55.5 141v186h-120v131h120v152h151v-152h150v-131h-150v-155c0 -29.333 6 -50.5 18 -63.5s31 -19.5 57 -19.5c25.333 0 48 5.33301 68 16l45 -123c-12.667 -7.33301 -32.334 -14.166 -59.001 -20.499
s-52 -9.5 -76 -9.5zM329.001 -335.001h-67l34 117h-58v139h141v-139z" />
    <glyph glyph-name="uni0232" unicode="&#x232;" horiz-adv-x="694" 
d="M267 0v299l-259 411h185l153 -256l155 256h185l-259 -412v-298h-160zM173 787v104h348v-104h-348z" />
    <glyph glyph-name="uni0233" unicode="&#x233;" horiz-adv-x="576" 
d="M274 -194h-163l97 223l-208 471h165l124 -309l123 309h166zM117 606v104h348v-104h-348z" />
    <glyph glyph-name="uni0237" unicode="&#x237;" horiz-adv-x="283" 
d="M26 -199c-48 0 -89.334 7.99902 -124.001 23.999l35 123c22 -11.333 44.667 -17 68 -17c43.333 0 65 28 65 84v485h151v-510c0 -61.333 -18.167 -108.166 -54.5 -140.499s-83.166 -48.5 -140.499 -48.5z" />
    <glyph glyph-name="uni0259" unicode="&#x259;" horiz-adv-x="575" 
d="M289 -11c-73.333 0 -134.833 22.165 -184.5 66.498s-74.5 103.5 -74.5 177.5c0 19.333 1 37 3 53h363c-4 28 -17 49.667 -39 65s-46.333 23 -73 23c-46.667 0 -83 -19 -109 -57l-112 84c54.667 73.333 128.334 110 221.001 110c75.333 0 137.166 -23.667 185.499 -71
s72.5 -110.666 72.5 -189.999c0 -75.333 -23.333 -137.666 -70 -186.999s-107.667 -74 -183 -74zM288 111.998c22.667 0 44.166 6.16699 64.499 18.5s33.5 31.166 39.5 56.499h-212c6 -25.333 18.833 -44.166 38.5 -56.499s42.834 -18.5 69.501 -18.5z" />
    <glyph glyph-name="uni02BB" unicode="&#x2bb;" horiz-adv-x="276" 
d="M203 710l-48 -170h72v-179h-179v179l71 170h84z" />
    <glyph glyph-name="uni02BC" unicode="&#x2bc;" horiz-adv-x="264" 
d="M69 361l48 170h-72v179h179v-179l-71 -170h-84z" />
    <glyph glyph-name="circumflex" unicode="&#x2c6;" 
d="M-190 578l127 152h126l127 -152h-129l-61 61l-61 -61h-129z" />
    <glyph glyph-name="caron" unicode="&#x2c7;" 
d="M-190 730h129l61 -61l61 61h129l-127 -152h-126z" />
    <glyph glyph-name="breve" unicode="&#x2d8;" 
d="M0 545c-50.667 0 -93 16.5 -127 49.5s-51 75.833 -51 128.5v7h86v-7c0 -29.333 8.66699 -52 26 -68s39.333 -24 66 -24s48.667 8 66 24s26 38.667 26 68v7h86v-7c0 -52.667 -17 -95.5 -51 -128.5s-76.333 -49.5 -127 -49.5z" />
    <glyph glyph-name="dotaccent" unicode="&#x2d9;" 
d="M0 562c-22 0 -41.001 7.83301 -57.001 23.5s-24 34.167 -24 55.5c0 22.667 7.83301 41.834 23.5 57.501s34.834 23.5 57.501 23.5c22 0 40.833 -7.83301 56.5 -23.5s23.5 -34.834 23.5 -57.501c0 -21.333 -7.83301 -39.833 -23.5 -55.5s-34.5 -23.5 -56.5 -23.5z" />
    <glyph glyph-name="ring" unicode="&#x2da;" 
d="M0 543c-33.333 0 -62 11.833 -86 35.5s-36 51.834 -36 84.501s12 60.834 36 84.501s52.667 35.5 86 35.5s62 -11.833 86 -35.5s36 -51.834 36 -84.501s-12 -60.834 -36 -84.501s-52.667 -35.5 -86 -35.5zM0 608c15.333 0 28.5 5.33301 39.5 16s16.5 23.667 16.5 39
s-5.5 28.333 -16.5 39s-24.167 16 -39.5 16s-28.5 -5.33301 -39.5 -16s-16.5 -23.667 -16.5 -39s5.5 -28.333 16.5 -39s24.167 -16 39.5 -16z" />
    <glyph glyph-name="ogonek" unicode="&#x2db;" 
d="M0 -204c-34 0 -61.167 8.33301 -81.5 25s-30.5 39 -30.5 67c0 38.667 19.333 76 58 112h151c-52.667 -24 -79 -49 -79 -75c0 -18 9.33301 -27 28 -27c7.33301 0 16 3 26 9l39 -78c-33.333 -22 -70.333 -33 -111 -33z" />
    <glyph glyph-name="tilde" unicode="&#x2dc;" 
d="M-193 565l3.99902 27.999c5.33301 36.667 19.5 65.334 42.5 86.001s49.167 31 78.5 31c23.333 0 49.333 -7.83301 78 -23.5s47 -23.5 55 -23.5c12.667 0 22 3.83301 28 11.5s11.333 19.834 16 36.501h83l-4 -28c-5.33301 -36 -19.666 -64.5 -42.999 -85.5
s-49.333 -31.5 -78 -31.5c-23.333 0 -49.333 7.83301 -78 23.5s-47 23.5 -55 23.5c-12.667 0 -22 -3.83301 -28 -11.5s-11.333 -19.834 -16 -36.501h-83z" />
    <glyph glyph-name="hungarumlaut" unicode="&#x2dd;" 
d="M-201 556l52 174h160l-114 -174h-98zM-11 556l52 174h160l-114 -174h-98z" />
    <glyph glyph-name="uni0401" unicode="&#x401;" horiz-adv-x="571" 
d="M75 0v710h450v-152h-291v-127h231v-152h-231v-127h291v-152h-450zM181 768c-22 0 -41.001 7.99902 -57.001 23.999s-24 34.667 -24 56c0 22.667 7.83301 41.834 23.5 57.501s34.834 23.5 57.501 23.5c21.333 0 39.833 -8 55.5 -24s23.5 -35 23.5 -57
c0 -21.333 -7.83301 -40 -23.5 -56s-34.167 -24 -55.5 -24zM417.999 767.999c-22 0 -40.833 8 -56.5 24s-23.5 34.667 -23.5 56c0 22.667 7.83301 41.834 23.5 57.501s34.5 23.5 56.5 23.5s40.833 -7.83301 56.5 -23.5s23.5 -34.834 23.5 -57.501
c0 -21.333 -7.83301 -40 -23.5 -56s-34.5 -24 -56.5 -24z" />
    <glyph glyph-name="uni0402" unicode="&#x402;" horiz-adv-x="777" 
d="M504 449c75.333 0 134.832 -21.168 178.499 -63.501s65.5 -100.166 65.5 -173.499s-22.833 -129 -68.5 -167s-99.5 -57 -161.5 -57c-34.667 0 -65 3.66699 -91 11l25 142c26.667 -4.66699 45.334 -7 56.001 -7c23.333 0 43 6.66699 59 20s24 32 24 56
c0 58 -39.333 87 -118 87c-42 0 -80.667 -6.66699 -116 -20v-277h-160v558h-175v152h546v-152h-211v-130c42 14 91 21 147 21z" />
    <glyph glyph-name="uni0403" unicode="&#x403;" horiz-adv-x="523" 
d="M500 710v-152h-265v-558h-160v710h425zM235 768l70 137h165l-125 -137h-110z" />
    <glyph glyph-name="uni0404" unicode="&#x404;" horiz-adv-x="757" 
d="M402 -14c-101.333 0 -187.832 35.833 -259.499 107.5s-107.5 158.167 -107.5 259.5s35.833 187.833 107.5 259.5s158.167 107.5 259.5 107.5c72.667 0 138.334 -17.667 197.001 -53s103.667 -82.333 135 -141l-140 -76c-42.667 77.333 -106.667 116 -192 116
c-44.667 0 -84.834 -13.5 -120.501 -40.5s-60.5 -60.833 -74.5 -101.5h284v-140h-285c14 -42 38.833 -76.5 74.5 -103.5s76.167 -40.5 121.5 -40.5c85.333 0 149.333 38.667 192 116l140 -76c-31.333 -58.667 -76.333 -105.667 -135 -141s-124.334 -53 -197.001 -53z" />
    <glyph glyph-name="uni0405" unicode="&#x405;" horiz-adv-x="576" 
d="M287 -12c-56 0 -106.833 11.1699 -152.5 33.5029s-82.5 53.5 -110.5 93.5l122 103c17.333 -24.667 39.5 -44.334 66.5 -59.001s53.833 -22 80.5 -22c26 0 46.833 5.5 62.5 16.5s23.5 25.167 23.5 42.5c0 18 -7.66699 33.667 -23 47s-40.666 26 -75.999 38l-50 17
c-119.333 40 -179 108.333 -179 205c0 67.333 22.833 120.666 68.5 159.999s104.5 59 176.5 59c92 0 168.333 -32.667 229 -98l-104 -110c-32.667 39.333 -73.667 59 -123 59c-23.333 0 -43.5 -4.66699 -60.5 -14s-25.5 -22.666 -25.5 -39.999c0 -18 8 -32.5 24 -43.5
s44.667 -23.833 86 -38.5l50 -18c113.333 -40.667 169.666 -111.334 168.999 -212.001c0 -64.667 -23.833 -117.334 -71.5 -158.001s-108.5 -61 -182.5 -61z" />
    <glyph glyph-name="uni0406" unicode="&#x406;" horiz-adv-x="309" 
d="M75 0v710h159v-710h-159z" />
    <glyph glyph-name="uni0407" unicode="&#x407;" horiz-adv-x="309" 
d="M75 0v710h159v-710h-159zM59 782c-22 0 -40.833 7.83301 -56.5 23.5s-23.5 34.167 -23.5 55.5c0 22 7.83301 40.833 23.5 56.5s34.5 23.5 56.5 23.5c21.333 0 39.833 -7.83301 55.5 -23.5s23.5 -34.5 23.5 -56.5c0 -21.333 -7.83301 -39.833 -23.5 -55.5
s-34.167 -23.5 -55.5 -23.5zM246 782c-21.333 0 -39.833 7.83301 -55.5 23.5s-23.5 34.167 -23.5 55.5c0 22 7.83301 40.833 23.5 56.5s34.167 23.5 55.5 23.5c22 0 40.833 -7.83301 56.5 -23.5s23.5 -34.5 23.5 -56.5c0 -21.333 -7.83301 -39.833 -23.5 -55.5
s-34.5 -23.5 -56.5 -23.5z" />
    <glyph glyph-name="uni0408" unicode="&#x408;" horiz-adv-x="471" 
d="M177 -12c-70 0 -129.334 22 -178.001 66l88 118c26 -24 53.667 -36 83 -36c20.667 0 37.834 5.66699 51.501 17s20.5 28.333 20.5 51v506h159v-516c0 -67.333 -21.833 -118.5 -65.5 -153.5s-96.5 -52.5 -158.5 -52.5z" />
    <glyph glyph-name="uni0409" unicode="&#x409;" horiz-adv-x="1050" 
d="M866 217c0 42.667 -30 64 -90 64h-112v-131h112c60 0 90 22.333 90 67zM147 710l517 -0.000976562v-278h114c74 0 133 -19.5 177 -58.5s66 -89.833 66 -152.5c0 -62 -23.167 -114.333 -69.5 -157s-104.166 -64 -173.499 -64h-274v558h-197v-315
c0 -81.333 -18.333 -144.166 -55 -188.499s-87.334 -66.5 -152.001 -66.5c-36.667 0 -68 4 -94 12l26 140c13.333 -3.33301 27 -5 41 -5c25.333 0 44 9 56 27s18 51 18 99v449z" />
    <glyph glyph-name="uni040A" unicode="&#x40a;" horiz-adv-x="1045" 
d="M75 0l-0.000976562 710h160v-278h275v278h160v-278h104c74 0 133 -19.5 177 -58.5s66 -89.833 66 -152.5c0 -62 -23.167 -114.333 -69.5 -157s-104.166 -64 -173.499 -64h-264v281h-275v-281h-160zM771.999 281h-102v-131h102c60 0 90 22.333 90 67
c0 42.667 -30 64 -90 64z" />
    <glyph glyph-name="uni040B" unicode="&#x40b;" horiz-adv-x="787" 
d="M197 558h-175.003v152h546v-152h-211v-129c42.667 13.333 91.334 20 146.001 20c70.667 0 128.834 -21.5 174.501 -64.5s68.5 -98.167 68.5 -165.5v-219h-160v177c0 78.667 -37 118 -111 118c-41.333 0 -80.666 -6.66699 -117.999 -20v-275h-160v558z" />
    <glyph glyph-name="uni040C" unicode="&#x40c;" horiz-adv-x="700" 
d="M522 0l-289 318v-318h-158v710h158v-297l241 297h195l-280 -341l337 -369h-204zM299 768l70 137h165l-125 -137h-110z" />
    <glyph glyph-name="uni040E" unicode="&#x40e;" horiz-adv-x="731" 
d="M115 -1l31.001 148c25.333 -5.33301 45.666 -8 60.999 -8c37.333 0 65.333 12.667 84 38l-275 533h182l184 -356l175 356h182l-264 -529c-34.667 -68.667 -71.667 -118 -111 -148s-87.333 -45 -144 -45c-33.333 0 -68.333 3.66699 -105 11zM379.001 747
c-50.667 0 -93 16.5 -127 49.5s-51 76.5 -51 130.5h96c0 -28 7.33301 -50.5 22 -67.5s34.667 -25.5 60 -25.5s45.333 8.5 60 25.5s22 39.5 22 67.5h96c0 -54 -17 -97.5 -51 -130.5s-76.333 -49.5 -127 -49.5z" />
    <glyph glyph-name="uni040F" unicode="&#x40f;" horiz-adv-x="724" 
d="M434 0v-148h-143v148h-216v710h160v-558h254v558h160v-710h-215z" />
    <glyph glyph-name="uni0410" unicode="&#x410;" horiz-adv-x="750" 
d="M-1 0l304 710h144l304 -710h-166l-63 150h-294l-63 -150h-166zM375 501l-90 -213h179z" />
    <glyph glyph-name="uni0411" unicode="&#x411;" horiz-adv-x="640" 
d="M235 452h135c70 0 128 -21.333 174 -64s69 -96.667 69 -162s-23 -119.333 -69 -162s-104 -64 -174 -64h-295v710h478v-152h-318v-106zM458 226c0 24.667 -8.33301 44.167 -25 58.5s-38.334 21.5 -65.001 21.5h-133v-159h133c26.667 0 48.334 7 65.001 21s25 33.333 25 58
z" />
    <glyph glyph-name="uni0412" unicode="&#x412;" horiz-adv-x="635" 
d="M75 0l-0.000976562 709.999h267c58 0 107.667 -20.5 149 -61.5s62 -90.833 62 -149.5c0 -47.333 -17 -88 -51 -122c30.667 -16 55.167 -38.667 73.5 -68s27.5 -62.666 27.5 -99.999c0 -58.667 -20.667 -108.167 -62 -148.5s-92.666 -60.5 -153.999 -60.5h-312z
M233.999 145.999h139.999c21.333 0 39 6.83301 53 20.5s21 30.5 21 50.5s-7.16699 36.833 -21.5 50.5s-32.166 20.5 -53.499 20.5h-139v-142zM233.998 422.999h90c21.333 0 39 6.66699 53 20s21 30 21 50s-7 37 -21 51s-31.667 21 -53 21h-90v-142z" />
    <glyph glyph-name="uni0413" unicode="&#x413;" horiz-adv-x="523" 
d="M500 710v-152h-265v-558h-160v710h425z" />
    <glyph glyph-name="uni0414" unicode="&#x414;" horiz-adv-x="779" 
d="M606 -148v148h-435v-148h-143v300h12c60 0 90 63.333 90 190v368h527v-558h92v-300h-143zM290 558v-229c0 -72.667 -12 -131.667 -36 -177h243v406h-207z" />
    <glyph glyph-name="uni0415" unicode="&#x415;" horiz-adv-x="571" 
d="M75 0v710h450v-152h-291v-127h231v-152h-231v-127h291v-152h-450z" />
    <glyph glyph-name="uni0416" unicode="&#x416;" horiz-adv-x="1035" 
d="M858 0l-261 307v-307h-160v306l-260 -306h-196l304 361l-273 349h187l238 -307v307h160v-308l239 308h187l-274 -349l305 -361h-196z" />
    <glyph glyph-name="uni0417" unicode="&#x417;" horiz-adv-x="578" 
d="M116 522l-85.001 112.001c68 58.667 152.333 88 253 88c66.667 0 122.167 -17 166.5 -51s66.5 -81.667 66.5 -143c0 -66 -22 -116.333 -66 -151c60 -38.667 90 -94 90 -166c0 -68 -24.5 -122 -73.5 -162s-109.833 -60 -182.5 -60c-114.667 0 -204.667 42.333 -270 127
l114 97c40.667 -50 92 -75 154 -75c34 0 59.667 7.83301 77 23.5s26 36.167 26 61.5c0 23.333 -8.66699 41.666 -26 54.999s-42.666 20 -75.999 20h-109v134h99c28.667 0 50.667 6.5 66 19.5s23 30.167 23 51.5c0 22 -7.83301 39.667 -23.5 53s-39.167 20 -70.5 20
c-57.333 0 -108.333 -18 -153 -54z" />
    <glyph glyph-name="uni0418" unicode="&#x418;" horiz-adv-x="792" 
d="M212 0h-137v710h160v-439l345 439h137v-710h-159v439z" />
    <glyph glyph-name="uni0419" unicode="&#x419;" horiz-adv-x="792" 
d="M212 0h-137v710h160v-439l345 439h137v-710h-159v439zM406 747c-50.667 0 -93 16.5 -127 49.5s-51 76.5 -51 130.5h96c0 -28 7.33301 -50.5 22 -67.5s34.667 -25.5 60 -25.5s45.333 8.5 60 25.5s22 39.5 22 67.5h96c0 -54 -17 -97.5 -51 -130.5s-76.333 -49.5 -127 -49.5
z" />
    <glyph glyph-name="uni041A" unicode="&#x41a;" horiz-adv-x="700" 
d="M522 0l-289 318v-318h-158v710h158v-297l241 297h195l-280 -341l337 -369h-204z" />
    <glyph glyph-name="uni041B" unicode="&#x41b;" horiz-adv-x="749" 
d="M147 261l0.000976562 448.999h527v-710h-160v558h-207v-315c0 -81.333 -18.333 -144.166 -55 -188.499s-87.334 -66.5 -152.001 -66.5c-36.667 0 -68 4 -94 12l26 140c13.333 -3.33301 27 -5 41 -5c25.333 0 44 9 56 27s18 51 18 99z" />
    <glyph glyph-name="uni041C" unicode="&#x41c;" horiz-adv-x="883" 
d="M75 0v710h145l221 -362l222 362h145v-710h-160v406l-154 -254h-104l-156 256v-408h-159z" />
    <glyph glyph-name="uni041D" unicode="&#x41d;" horiz-adv-x="754" 
d="M75 0v710h159v-278h286v278h159v-710h-159v281h-286v-281h-159z" />
    <glyph glyph-name="uni041E" unicode="&#x41e;" horiz-adv-x="804" 
d="M402 142c57.333 0 106 21 146 63s60 92 60 150s-20 108 -60 150s-88.667 63 -146 63s-106.166 -21 -146.499 -63s-60.5 -92 -60.5 -150s20.167 -108 60.5 -150s89.166 -63 146.499 -63zM402 -12c-101.333 0 -187.833 35.833 -259.5 107.5s-107.5 158.167 -107.5 259.5
s35.833 187.833 107.5 259.5s158.167 107.5 259.5 107.5s187.833 -36 259.5 -108s107.5 -158.333 107.5 -259s-35.833 -187 -107.5 -259s-158.167 -108 -259.5 -108z" />
    <glyph glyph-name="uni041F" unicode="&#x41f;" horiz-adv-x="749" 
d="M514 0v558h-279v-558h-160v710h599v-710h-160z" />
    <glyph glyph-name="uni0420" unicode="&#x420;" horiz-adv-x="593" 
d="M566 467c0 -68.667 -23.833 -126.166 -71.5 -172.499s-107.167 -69.5 -178.5 -69.5h-82v-225h-159v710h241c71.333 0 130.833 -23.333 178.5 -70s71.5 -104.334 71.5 -173.001zM412 467.001c0 26.667 -9.16699 48.833 -27.5 66.5s-41.833 26.5 -70.5 26.5h-80v-186h80
c28 0 51.333 9 70 27s28 40 28 66z" />
    <glyph glyph-name="uni0421" unicode="&#x421;" horiz-adv-x="752" 
d="M402 -12c-101.333 0 -187.833 35.833 -259.5 107.5s-107.5 158.167 -107.5 259.5s35.833 187.833 107.5 259.5s158.167 107.5 259.5 107.5c72.667 0 138.334 -17.667 197.001 -53s103.667 -82.333 135 -141l-140 -76c-42.667 77.333 -106.667 116 -192 116
c-57.333 0 -106.166 -21 -146.499 -63s-60.5 -92 -60.5 -150s20.167 -108 60.5 -150s89.166 -63 146.499 -63c85.333 0 149.333 38.667 192 116l140 -76c-31.333 -58.667 -76.333 -105.667 -135 -141s-124.334 -53 -197.001 -53z" />
    <glyph glyph-name="uni0422" unicode="&#x422;" horiz-adv-x="568" 
d="M203 0v558h-181v152h524v-152h-183v-558h-160z" />
    <glyph glyph-name="uni0423" unicode="&#x423;" horiz-adv-x="731" 
d="M115 -1l31.001 148c25.333 -5.33301 45.666 -8 60.999 -8c37.333 0 65.333 12.667 84 38l-275 533h182l184 -356l175 356h182l-264 -529c-34.667 -68.667 -71.667 -118 -111 -148s-87.333 -45 -144 -45c-33.333 0 -68.333 3.66699 -105 11z" />
    <glyph glyph-name="uni0424" unicode="&#x424;" horiz-adv-x="906" 
d="M533 -30h-159.998v87c-104.667 0 -187.334 26.167 -248.001 78.5s-91 126.833 -91 223.5c0 95.333 30.5 169.333 91.5 222s143.5 79 247.5 79v80h160v-80c104 0 186.5 -26.333 247.5 -79s91.5 -126.667 91.5 -222c0 -96.667 -30.333 -171.167 -91 -223.5
s-143.334 -78.5 -248.001 -78.5v-87zM533.002 517v-316c118.667 0 178 53 178 159c0 104.667 -59.333 157 -178 157zM373.002 201v316c-118.667 0 -178 -52.333 -178 -157c0 -106 59.333 -159 178 -159z" />
    <glyph glyph-name="uni0425" unicode="&#x425;" horiz-adv-x="704" 
d="M177 0h-186l266 359l-250 351h184l161 -228l161 228h184l-249 -351l265 -359h-185l-176 235z" />
    <glyph glyph-name="uni0426" unicode="&#x426;" horiz-adv-x="772" 
d="M649 152h93v-300h-143v148h-524v710h160v-558h254v558h160v-558z" />
    <glyph glyph-name="uni0427" unicode="&#x427;" horiz-adv-x="687" 
d="M612 0h-159.999v258c-42.667 -13.333 -93.334 -20 -152.001 -20c-71.333 0 -132 21.667 -182 65s-75 98.333 -75 165v242h160v-200c0 -41.333 11.667 -71.333 35 -90s53.333 -28 90 -28c52.667 0 94 6.66699 124 20v298h160v-710z" />
    <glyph glyph-name="uni0428" unicode="&#x428;" horiz-adv-x="976" 
d="M75 0v710h160v-558h173v558h160v-558h173v558h160v-710h-826z" />
    <glyph glyph-name="uni0429" unicode="&#x429;" horiz-adv-x="1024" 
d="M851 -148v148h-776v710h160v-558h173v558h160v-558h173v558h160v-558h93v-300h-143z" />
    <glyph glyph-name="uni042A" unicode="&#x42a;" horiz-adv-x="740" 
d="M354 462h113.999c70 0 128 -21.667 174 -65s69 -98.666 69 -165.999c0 -66.667 -23.167 -121.834 -69.5 -165.501s-104.166 -65.5 -173.499 -65.5h-274v558h-172v152h332v-248zM353.999 147l112.002 0.00195312c27.333 0 49.166 7.16699 65.499 21.5
s24.5 35.166 24.5 62.499s-8.33301 48.166 -25 62.499s-38.334 21.5 -65.001 21.5h-112v-168z" />
    <glyph glyph-name="uni042B" unicode="&#x42b;" horiz-adv-x="913" 
d="M679 0v710h159v-710h-159zM235 462h113.999c70 0 128 -21.667 174 -65s69 -98.666 69 -165.999c0 -66.667 -23.167 -121.834 -69.5 -165.501s-104.166 -65.5 -173.499 -65.5h-274v710h160v-248zM234.999 147l112 0.00195312c27.333 0 49.166 7.16699 65.499 21.5
s24.5 35.166 24.5 62.499s-8.16699 48.166 -24.5 62.499s-38.166 21.5 -65.499 21.5h-112v-168z" />
    <glyph glyph-name="uni042C" unicode="&#x42c;" horiz-adv-x="621" 
d="M235 462h113.999c70 0 128 -21.667 174 -65s69 -98.666 69 -165.999c0 -66.667 -23.167 -121.834 -69.5 -165.501s-104.166 -65.5 -173.499 -65.5h-274v710h160v-248zM234.999 147l112 0.00195312c27.333 0 49.166 7.16699 65.499 21.5s24.5 35.166 24.5 62.499
s-8.16699 48.166 -24.5 62.499s-38.166 21.5 -65.499 21.5h-112v-168z" />
    <glyph glyph-name="uni042D" unicode="&#x42d;" horiz-adv-x="757" 
d="M355 -14c-72.667 0 -138.333 17.667 -197 53s-103.667 82.333 -135 141l140 76c42.667 -77.333 106.667 -116 192 -116c45.333 0 85.833 13.5 121.5 40.5s60.5 61.5 74.5 103.5h-285v140h284c-14 40.667 -38.833 74.5 -74.5 101.5s-75.834 40.5 -120.501 40.5
c-85.333 0 -149.333 -38.667 -192 -116l-140 76c31.333 58.667 76.333 105.667 135 141s124.334 53 197.001 53c101.333 0 187.833 -35.833 259.5 -107.5s107.5 -158.167 107.5 -259.5s-35.833 -187.833 -107.5 -259.5s-158.167 -107.5 -259.5 -107.5z" />
    <glyph glyph-name="uni042E" unicode="&#x42e;" horiz-adv-x="1080" 
d="M75 0v710h160v-281h102c16 86.667 56 157.167 120 211.5s140.667 81.5 230 81.5c102 0 186.833 -34.667 254.5 -104s101.5 -157 101.5 -263s-33.833 -193.667 -101.5 -263s-152.5 -104 -254.5 -104c-89.333 0 -166 27 -230 81s-104 124.667 -120 212h-102v-281h-160z
M882 355c0 62.667 -18.167 113.834 -54.5 153.501s-83.166 59.5 -140.499 59.5s-104.166 -19.833 -140.499 -59.5s-54.5 -90.834 -54.5 -153.501s18.167 -113.834 54.5 -153.501s83.166 -59.5 140.499 -59.5s104.166 19.833 140.499 59.5s54.5 90.834 54.5 153.501z" />
    <glyph glyph-name="uni042F" unicode="&#x42f;" horiz-adv-x="653" 
d="M418 0l0.000976562 234.001h-41l-210 -234h-191l236 268c-39.333 20 -70.5 47.667 -93.5 83s-34.5 75.666 -34.5 120.999c0 69.333 22.167 126.333 66.5 171s103.166 67 176.499 67h251v-710h-160zM238.001 472.001c0 -28 8.5 -50.5 25.5 -67.5s38.5 -25.5 64.5 -25.5h90
v186h-90c-26 0 -47.5 -8.5 -64.5 -25.5s-25.5 -39.5 -25.5 -67.5z" />
    <glyph glyph-name="uni0430" unicode="&#x430;" horiz-adv-x="610" 
d="M279 -11c-72 0 -130.999 25.5 -176.999 76.5s-69 112.5 -69 184.5s23 133.5 69 184.5s105 76.5 177 76.5c47.333 0 86.666 -14 117.999 -42v31h151v-500h-151v32c-30.667 -28.667 -70 -43 -118 -43zM302.001 126c39.333 0 71.001 16 95.001 48v153
c-24.667 31.333 -56.334 47 -95.001 47c-33.333 0 -60.5 -12 -81.5 -36s-31.5 -53.333 -31.5 -88s10.5 -64 31.5 -88s48.167 -36 81.5 -36z" />
    <glyph glyph-name="uni0431" unicode="&#x431;" horiz-adv-x="601" 
d="M306 -11c-85.333 0 -150.166 27.333 -194.499 82s-66.5 131.667 -66.5 231v23c0 126.667 25.667 220 77 280s128 99.333 230 118l147 27l25 -139l-139 -25c-54.667 -10 -97.334 -26.333 -128.001 -49s-49 -55.334 -55 -98.001c36 30.667 80.333 46 133 46
c72 0 128.833 -22.333 170.5 -67s62.5 -100.667 62.5 -168c0 -73.333 -25.333 -135.166 -76 -185.499s-112.667 -75.5 -186 -75.5zM305 130c32.667 0 59.334 10 80.001 30s31 48.667 31 86c0 29.333 -10.333 54.666 -31 75.999s-47.334 32 -80.001 32
s-59.167 -10.667 -79.5 -32s-30.5 -46.666 -30.5 -75.999c0 -37.333 10.167 -66 30.5 -86s46.833 -30 79.5 -30z" />
    <glyph glyph-name="uni0432" unicode="&#x432;" horiz-adv-x="559" 
d="M62 0v500h245c62.667 0 110 -15.5 142 -46.5s48 -66.833 48 -107.5c0 -30 -9.33301 -56.667 -28 -80c40 -30.667 60 -68 60 -112c0 -41.333 -15.167 -77.333 -45.5 -108s-76.5 -46 -138.5 -46h-283zM213 122l121 0.000976562c12.667 0 23.334 3.83301 32.001 11.5
s13 18.167 13 31.5s-4.33301 23.666 -13 30.999s-19.334 11 -32.001 11h-121v-85zM213 306.001h91c28.667 0 43 13.333 43 40s-14.333 40 -43 40h-91v-80z" />
    <glyph glyph-name="uni0433" unicode="&#x433;" horiz-adv-x="433" 
d="M62 0v500h353v-131h-202v-369h-151z" />
    <glyph glyph-name="uni0434" unicode="&#x434;" horiz-adv-x="660" 
d="M28 131h13c46.667 0 70 40 70 120v249h439v-369h82v-253h-134v122h-336v-122h-134v253zM262 369v-124c0 -48.667 -7.66699 -86.667 -23 -114h160v238h-137z" />
    <glyph glyph-name="uni0435" unicode="&#x435;" horiz-adv-x="577" 
d="M298 -11c-75.333 0 -138.499 23.8311 -189.499 71.498s-76.5 110.834 -76.5 189.501c0 74.667 25 136.834 75 186.501s112.667 74.5 188 74.5c70 0 129 -21.333 177 -64s72 -102.667 72 -180c0 -19.333 -1 -37 -3 -53h-363c4 -28.667 17.667 -50.5 41 -65.5
s50.333 -22.5 81 -22.5c27.333 0 51.666 5.5 72.999 16.5s37.333 24.5 48 40.5l112 -84c-24 -34 -56.333 -60.833 -97 -80.5s-86.667 -29.5 -138 -29.5zM182.001 312.998l212 -0.00195312c-6 24.667 -18.667 43.334 -38 56.001s-41 19 -65 19
c-25.333 0 -48.333 -6.16699 -69 -18.5s-34 -31.166 -40 -56.499z" />
    <glyph glyph-name="uni0436" unicode="&#x436;" horiz-adv-x="836" 
d="M664 0l-170 194v-194h-151v195l-171 -195h-185l224 254l-191 246h173l150 -197v197h151v-196l149 196h173l-191 -246l224 -254h-185z" />
    <glyph glyph-name="uni0437" unicode="&#x437;" horiz-adv-x="482" 
d="M233 -11c-97.333 0 -170.667 34.999 -220 104.999l100 72c26 -36 61 -54 105 -54c54 0 81 16.333 81 49c0 30 -20.667 45 -62 45h-71v100h65c38 0 57 14 57 42c0 12.667 -5.33301 23.167 -16 31.5s-26.667 12.5 -48 12.5c-42 0 -78.333 -16 -109 -48l-83 86
c56 54 123 81 201 81c36 0 67.5 -4.83301 94.5 -14.5s47.667 -22.334 62 -38.001s24.833 -31.667 31.5 -48s10 -32.833 10 -49.5c0 -41.333 -15 -73.666 -45 -96.999c43.333 -27.333 65 -65.666 65 -114.999c0 -40.667 -18.5 -77.5 -55.5 -110.5s-91.167 -49.5 -162.5 -49.5
z" />
    <glyph glyph-name="uni0438" unicode="&#x438;" horiz-adv-x="618" 
d="M197 0h-135v500h151v-276l208 276h135v-500h-150v275z" />
    <glyph glyph-name="uni0439" unicode="&#x439;" horiz-adv-x="618" 
d="M197 0h-135v500h151v-276l208 276h135v-500h-150v275zM318 545c-50.667 0 -93 16.5 -127 49.5s-51 75.833 -51 128.5v7h96v-7c0 -28 7.33301 -50.333 22 -67s34.667 -25 60 -25s45.333 8.33301 60 25s22 39 22 67v7h96v-7c0 -52.667 -17 -95.5 -51 -128.5
s-76.333 -49.5 -127 -49.5z" />
    <glyph glyph-name="uni043A" unicode="&#x43a;" horiz-adv-x="559" 
d="M387 0l-174 194v-194h-151v500h151v-197l155 197h177l-198 -247l231 -253h-191z" />
    <glyph glyph-name="uni043B" unicode="&#x43b;" horiz-adv-x="616" 
d="M88 -11c-27.333 0 -53.667 2.66699 -79 8l18 125c12 -1.33301 20.667 -2 26 -2c21.333 0 37 6 47 18s15 34 15 66v296h439v-500h-151v369h-137v-181c0 -66 -17.333 -115.667 -52 -149s-76.667 -50 -126 -50z" />
    <glyph glyph-name="uni043C" unicode="&#x43c;" horiz-adv-x="694" 
d="M62 500h127l159 -229l157 229h127v-500h-151v248l-92 -134h-84l-92 134v-248h-151v500z" />
    <glyph glyph-name="uni043D" unicode="&#x43d;" horiz-adv-x="614" 
d="M62 0v500h151v-184h188v184h151v-500h-151v185h-188v-185h-151z" />
    <glyph glyph-name="uni043E" unicode="&#x43e;" horiz-adv-x="588" 
d="M294 -11c-72.667 0 -134.667 25.167 -186 75.5s-77 112.166 -77 185.499s25.667 135.166 77 185.499s113.333 75.5 186 75.5s134.667 -25.167 186 -75.5s77 -112.166 77 -185.499s-25.667 -135.166 -77 -185.499s-113.333 -75.5 -186 -75.5zM294 130
c32 0 58.5 11 79.5 33s31.5 51 31.5 87s-10.5 65 -31.5 87s-47.5 33 -79.5 33s-58.5 -11 -79.5 -33s-31.5 -51 -31.5 -87s10.5 -65 31.5 -87s47.5 -33 79.5 -33z" />
    <glyph glyph-name="uni043F" unicode="&#x43f;" horiz-adv-x="604" 
d="M62 0v500h480v-500h-151v369h-178v-369h-151z" />
    <glyph glyph-name="uni0440" unicode="&#x440;" horiz-adv-x="609" 
d="M62 -194l0.000976562 694h151v-31c31.333 28 70.666 42 117.999 42c72 0 131 -25.5 177 -76.5s69 -112.5 69 -184.5s-23 -133.5 -69 -184.5s-105 -76.5 -177 -76.5c-48 0 -87.333 14.333 -118 43v-226h-151zM308.001 126c33.333 0 60.501 12 81.501 36
s31.5 53.333 31.5 88s-10.5 64 -31.5 88s-48.167 36 -81.5 36c-38.667 0 -70.334 -15.667 -95.001 -47v-153c24 -32 55.667 -48 95 -48z" />
    <glyph glyph-name="uni0441" unicode="&#x441;" horiz-adv-x="556" 
d="M298 -11c-74.667 0 -137.667 24.6709 -189 74.0039s-77 111.666 -77 186.999s25.667 137.666 77 186.999s114.333 74 189 74c51.333 0 98.666 -13.333 141.999 -40s75.666 -62 96.999 -106l-132 -70c-22 50 -57.667 75 -107 75c-32 0 -59 -11.333 -81 -34
s-33 -51.334 -33 -86.001s11 -63.334 33 -86.001s49 -34 81 -34c49.333 0 85 25 107 75l132 -70c-21.333 -44 -53.666 -79.333 -96.999 -106s-90.666 -40 -141.999 -40z" />
    <glyph glyph-name="uni0442" unicode="&#x442;" horiz-adv-x="463" 
d="M151 0v369h-133v131h427v-131h-143v-369h-151z" />
    <glyph glyph-name="uni0443" unicode="&#x443;" horiz-adv-x="576" 
d="M578 500l-234.998 -536c-25.333 -56.667 -54.333 -98 -87 -124s-74.334 -39 -125.001 -39c-34.667 0 -62.334 3 -83.001 9l25 127c14 -3.33301 28.333 -5 43 -5c32 0 58.333 22.667 79 68l13 29l-208 471h165l129 -295l118 295h166z" />
    <glyph glyph-name="uni0444" unicode="&#x444;" horiz-adv-x="773" 
d="M462 -193h-151v182h-12c-82.667 0 -147.834 25.333 -195.501 76s-71.5 112.334 -71.5 185.001s23.833 134.334 71.5 185.001s112.834 76 195.501 76h12v219h151v-219h12c82.667 0 147.834 -25.333 195.501 -76s71.5 -112.334 71.5 -185.001
s-23.833 -134.334 -71.5 -185.001s-112.834 -76 -195.501 -76h-12v-182zM474 373l-12 -0.00195312v-246h12c34.667 0 62.5 11.833 83.5 35.5s31.5 52.834 31.5 87.501s-10.5 63.834 -31.5 87.501s-48.833 35.5 -83.5 35.5zM311 126.998v246.002h-12
c-34.667 0 -62.5 -11.833 -83.5 -35.5s-31.5 -52.834 -31.5 -87.501s10.5 -63.834 31.5 -87.501s48.833 -35.5 83.5 -35.5h12z" />
    <glyph glyph-name="uni0445" unicode="&#x445;" horiz-adv-x="577" 
d="M395 0l-106 136l-106 -136h-181l192 242l-190 258h178l106 -146l106 146h180l-190 -258l191 -242h-180z" />
    <glyph glyph-name="uni0446" unicode="&#x446;" horiz-adv-x="652" 
d="M627 131v-253h-134v122h-431v500h151v-369h179v369h151v-369h84z" />
    <glyph glyph-name="uni0447" unicode="&#x447;" horiz-adv-x="570" 
d="M508 0l-151 0.000976562v173c-11.333 -6.66699 -30 -12.5 -56 -17.5s-50.333 -7.5 -73 -7.5c-54 0 -99.667 14.667 -137 44s-56 72.666 -56 129.999v178h151v-160c0 -40 26.667 -60 80 -60c40 0 70.333 8.33301 91 25v195h151v-500z" />
    <glyph glyph-name="uni0448" unicode="&#x448;" horiz-adv-x="837" 
d="M62 0v500h151v-369h130v369h151v-369h130v369h151v-500h-713z" />
    <glyph glyph-name="uni0449" unicode="&#x449;" horiz-adv-x="886" 
d="M859 131v-253h-134v122h-663v500h151v-369h130v369h151v-369h130v369h151v-369h84z" />
    <glyph glyph-name="uni044A" unicode="&#x44a;" horiz-adv-x="587" 
d="M140 0l0.000976562 368.999h-121v131h272v-140h88c26 0 49.667 -3.83301 71 -11.5s38.833 -17.667 52.5 -30s25.167 -26.5 34.5 -42.5s16 -31.833 20 -47.5s6 -31.167 6 -46.5c0 -19.333 -3.33301 -39.166 -10 -59.499s-16.834 -39.833 -30.501 -58.5s-33 -34 -58 -46
s-53.5 -18 -85.5 -18h-239zM291.001 231.999v-104h69c41.333 0 62 17.667 62 53c0 34 -20.667 51 -62 51h-69z" />
    <glyph glyph-name="uni044B" unicode="&#x44b;" horiz-adv-x="763" 
d="M550 0v500h151v-500h-151zM62 0l0.000976562 499.999h151v-140h88c26 0 49.667 -3.83301 71 -11.5s38.833 -17.667 52.5 -30s25.167 -26.5 34.5 -42.5s16 -31.833 20 -47.5s6 -31.167 6 -46.5c0 -19.333 -3.33301 -39.166 -10 -59.499s-16.834 -39.833 -30.501 -58.5
s-33 -34 -58 -46s-53.5 -18 -85.5 -18h-239zM213.001 231.999v-104h69c41.333 0 62 17.667 62 53c0 34 -20.667 51 -62 51h-69z" />
    <glyph glyph-name="uni044C" unicode="&#x44c;" horiz-adv-x="509" 
d="M62 0l0.000976562 499.999h151v-140h88c26 0 49.667 -3.83301 71 -11.5s38.833 -17.667 52.5 -30s25.167 -26.5 34.5 -42.5s16 -31.833 20 -47.5s6 -31.167 6 -46.5c0 -19.333 -3.33301 -39.166 -10 -59.499s-16.834 -39.833 -30.501 -58.5s-33 -34 -58 -46
s-53.5 -18 -85.5 -18h-239zM213.001 231.999v-104h69c41.333 0 62 17.667 62 53c0 34 -20.667 51 -62 51h-69z" />
    <glyph glyph-name="uni044D" unicode="&#x44d;" horiz-adv-x="559" 
d="M261 -11c-51.333 0 -98.665 13.3311 -141.998 39.998s-75.666 62 -96.999 106l132 70c22 -50 57.667 -75 107 -75c25.333 0 47.666 7 66.999 21s33 33 41 57h-153v96h148c-9.33301 20 -23.333 36 -42 48s-39 18 -61 18c-49.333 0 -85 -25 -107 -75l-132 70
c21.333 44 53.666 79.333 96.999 106s90.666 40 141.999 40c74.667 0 137.667 -24.667 189 -74s77 -111.666 77 -186.999s-25.667 -137.666 -77 -186.999s-114.333 -74 -189 -74z" />
    <glyph glyph-name="uni044E" unicode="&#x44e;" horiz-adv-x="825" 
d="M537 -11c-60.667 0 -113.666 18.334 -158.999 55.001s-75 83.334 -89 140.001h-76v-184h-151v500h151v-185h75c14 57.333 43.667 104.333 89 141s98.666 55 159.999 55c72.667 0 133.5 -25.333 182.5 -76s73.5 -112.334 73.5 -185.001s-24.5 -134.334 -73.5 -185.001
s-109.833 -76 -182.5 -76zM537.001 130.001c31.333 0 56.5 11 75.5 33s28.5 51 28.5 87s-9.5 65 -28.5 87s-44.167 33 -75.5 33c-32 0 -57.333 -10.833 -76 -32.5s-28 -50.5 -28 -86.5s9.5 -65.167 28.5 -87.5s44.167 -33.5 75.5 -33.5z" />
    <glyph glyph-name="uni044F" unicode="&#x44f;" horiz-adv-x="546" 
d="M-13 0l165 189.999c-55.333 30.667 -83 77 -83 139c0 50.667 16.333 91.834 49 123.501s77.667 47.5 135 47.5h231v-500h-151v151h-43l-135 -151h-168zM262 270.999l71 -0.000976562v109h-72c-34 0 -51 -19.333 -51 -58c0 -15.333 5.16699 -27.666 15.5 -36.999
s22.5 -14 36.5 -14z" />
    <glyph glyph-name="uni0451" unicode="&#x451;" horiz-adv-x="577" 
d="M298 -11c-75.333 0 -138.499 23.8311 -189.499 71.498s-76.5 110.834 -76.5 189.501c0 74.667 25 136.834 75 186.501s112.667 74.5 188 74.5c70 0 129 -21.333 177 -64s72 -102.667 72 -180c0 -19.333 -1 -37 -3 -53h-363c4 -28.667 17.667 -50.5 41 -65.5
s50.333 -22.5 81 -22.5c27.333 0 51.666 5.5 72.999 16.5s37.333 24.5 48 40.5l112 -84c-24 -34 -56.333 -60.833 -97 -80.5s-86.667 -29.5 -138 -29.5zM182.001 312.998l212 -0.00195312c-6 24.667 -18.667 43.334 -38 56.001s-41 19 -65 19
c-25.333 0 -48.333 -6.16699 -69 -18.5s-34 -31.166 -40 -56.499zM177.001 561.996c-22 0 -41.001 7.83203 -57.001 23.499s-24 34.167 -24 55.5c0 22.667 7.83301 41.834 23.5 57.501s34.834 23.5 57.501 23.5c21.333 0 39.833 -8 55.5 -24s23.5 -35 23.5 -57
c0 -21.333 -7.83301 -39.833 -23.5 -55.5s-34.167 -23.5 -55.5 -23.5zM414 561.995c-22 0 -40.833 7.83301 -56.5 23.5s-23.5 34.167 -23.5 55.5c0 22.667 7.83301 41.834 23.5 57.501s34.5 23.5 56.5 23.5s40.833 -7.83301 56.5 -23.5s23.5 -34.834 23.5 -57.501
c0 -21.333 -7.83301 -39.833 -23.5 -55.5s-34.5 -23.5 -56.5 -23.5z" />
    <glyph glyph-name="uni0452" unicode="&#x452;" horiz-adv-x="602" 
d="M227 -175l35 122.999c22 -11.333 44.667 -17 68 -17c43.333 0 65 28 65 84v244c0 35.333 -7 63.333 -21 84s-35.333 31 -64 31c-40.667 0 -73 -15.333 -97 -46v-328h-151v565h-91v96h91v69h151v-69h164v-96h-164v-101c33.333 31.333 76.666 47 129.999 47
c64 0 113.833 -20.5 149.5 -61.5s53.5 -95.833 53.5 -164.5v-295c0 -61.333 -18.167 -108.166 -54.5 -140.499s-83.166 -48.5 -140.499 -48.5c-48 0 -89.333 8 -124 24z" />
    <glyph glyph-name="uni0453" unicode="&#x453;" horiz-adv-x="433" 
d="M62 0v500h353v-131h-202v-369h-151zM179 556l80 174h173l-143 -174h-110z" />
    <glyph glyph-name="uni0454" unicode="&#x454;" horiz-adv-x="559" 
d="M298 -11c-74.667 0 -137.666 24.6689 -188.999 74.002s-77 111.666 -77 186.999s25.667 137.666 77 186.999s114.333 74 189 74c51.333 0 98.666 -13.333 141.999 -40s75.666 -62 96.999 -106l-132 -70c-22 50 -57.667 75 -107 75c-22 0 -42.333 -6 -61 -18
s-32.667 -28 -42 -48h148v-96h-153c8 -24 21.667 -43 41 -57s41.666 -21 66.999 -21c49.333 0 85 25 107 75l132 -70c-21.333 -44 -53.666 -79.333 -96.999 -106s-90.666 -40 -141.999 -40z" />
    <glyph glyph-name="uni0455" unicode="&#x455;" horiz-adv-x="463" 
d="M235 -11c-92.667 0 -162.001 29.998 -208.001 89.998l100 91c24 -34.667 60 -52 108 -52c30.667 0 46 9.33301 46 28c0 8.66699 -4 15.834 -12 21.501s-24.333 11.5 -49 17.5l-33 8c-47.333 11.333 -83.166 31.333 -107.499 60s-35.833 63.334 -34.5 104.001
c1.33301 46 19.833 83.167 55.5 111.5s81.167 42.5 136.5 42.5c77.333 0 136 -27.667 176 -83l-98 -81c-21.333 26.667 -47.666 40 -78.999 40c-27.333 0 -41 -8.66699 -41 -26c0 -16 14 -28 42 -36l46 -12c48 -12.667 84.5 -31.5 109.5 -56.5s37.5 -58.833 37.5 -101.5
c0 -47.333 -18.833 -86.833 -56.5 -118.5s-83.834 -47.5 -138.501 -47.5z" />
    <glyph glyph-name="uni0456" unicode="&#x456;" horiz-adv-x="275" 
d="M137 548c-25.333 0 -47.333 9.16699 -66 27.5s-28 40.5 -28 66.5s9.33301 48.167 28 66.5s40.667 27.5 66 27.5c26.667 0 49.167 -9.16699 67.5 -27.5s27.5 -40.5 27.5 -66.5s-9.16699 -48.167 -27.5 -66.5s-40.833 -27.5 -67.5 -27.5zM62 0v500h151v-500h-151z" />
    <glyph glyph-name="uni0457" unicode="&#x457;" horiz-adv-x="275" 
d="M62 0v500h151v-500h-151zM44 572c-22 0 -40.833 7.83301 -56.5 23.5s-23.5 34.167 -23.5 55.5c0 22 7.83301 40.833 23.5 56.5s34.5 23.5 56.5 23.5c21.333 0 39.833 -7.83301 55.5 -23.5s23.5 -34.5 23.5 -56.5c0 -21.333 -7.83301 -39.833 -23.5 -55.5
s-34.167 -23.5 -55.5 -23.5zM231 572c-21.333 0 -39.833 7.83301 -55.5 23.5s-23.5 34.167 -23.5 55.5c0 22 7.83301 40.833 23.5 56.5s34.167 23.5 55.5 23.5c22 0 40.833 -7.83301 56.5 -23.5s23.5 -34.5 23.5 -56.5c0 -21.333 -7.83301 -39.833 -23.5 -55.5
s-34.5 -23.5 -56.5 -23.5z" />
    <glyph glyph-name="uni0458" unicode="&#x458;" horiz-adv-x="283" 
d="M26 -199c-48 0 -89.334 7.99902 -124.001 23.999l35 123c22 -11.333 44.667 -17 68 -17c43.333 0 65 28 65 84v485h151v-510c0 -61.333 -18.167 -108.166 -54.5 -140.499s-83.166 -48.5 -140.499 -48.5zM144.999 547.999c-25.333 0 -47.333 9.16699 -66 27.5
s-28 40.5 -28 66.5s9.33301 48.167 28 66.5s40.667 27.5 66 27.5c26.667 0 49.167 -9.16699 67.5 -27.5s27.5 -40.5 27.5 -66.5s-9.16699 -48.167 -27.5 -66.5s-40.833 -27.5 -67.5 -27.5z" />
    <glyph glyph-name="uni0459" unicode="&#x459;" horiz-adv-x="837" 
d="M552 191v-66h82c25.333 0 38 10.667 38 32c0 22.667 -12.667 34 -38 34h-82zM115 500h436.999v-184h98c54.667 0 95.5 -15.667 122.5 -47s40.5 -67 40.5 -107c0 -18 -3 -36 -9 -54s-15 -35.333 -27 -52s-29 -30.167 -51 -40.5s-47.333 -15.5 -76 -15.5h-249v369h-135
v-181c0 -66 -17.333 -115.667 -52 -149s-76.667 -50 -126 -50c-27.333 0 -53.666 2.66699 -78.999 8l18 125c12 -1.33301 20.667 -2 26 -2c21.333 0 37 6 47 18s15 34 15 66v296z" />
    <glyph glyph-name="uni045A" unicode="&#x45a;" horiz-adv-x="827" 
d="M662 157c0 22.667 -12.667 34 -38 34h-82v-66h82c25.333 0 38 10.667 38 32zM803 162c0 -18 -3 -36 -9 -54s-15 -35.333 -27 -52s-29 -30.167 -51 -40.5s-47.333 -15.5 -76 -15.5h-249v185h-178v-185h-151v500h151v-184h178v184h151v-184h98
c54.667 0 95.5 -15.667 122.5 -47s40.5 -67 40.5 -107z" />
    <glyph glyph-name="uni045B" unicode="&#x45b;" horiz-adv-x="602" 
d="M395 0l0.000976562 259c0 35.333 -7 63.333 -21 84s-35.333 31 -64 31c-40.667 0 -73 -15.333 -97 -46v-328h-151v565h-91v96h91v69h151v-69h164v-96h-164v-101c33.333 31.333 76.666 47 129.999 47c64 0 113.833 -20.5 149.5 -61.5s53.5 -95.833 53.5 -164.5v-285h-151z
" />
    <glyph glyph-name="uni045C" unicode="&#x45c;" horiz-adv-x="559" 
d="M387 0l-174 194v-194h-151v500h151v-197l155 197h177l-198 -247l231 -253h-191zM242 556l80 174h173l-143 -174h-110z" />
    <glyph glyph-name="uni045E" unicode="&#x45e;" horiz-adv-x="576" 
d="M578 500l-234.998 -536c-25.333 -56.667 -54.333 -98 -87 -124s-74.334 -39 -125.001 -39c-34.667 0 -62.334 3 -83.001 9l25 127c14 -3.33301 28.333 -5 43 -5c32 0 58.333 22.667 79 68l13 29l-208 471h165l129 -295l118 295h166zM289.002 545
c-50.667 0 -93 16.5 -127 49.5s-51 75.833 -51 128.5v7h96v-7c0 -28 7.33301 -50.333 22 -67s34.667 -25 60 -25s45.333 8.33301 60 25s22 39 22 67v7h96v-7c0 -52.667 -17 -95.5 -51 -128.5s-76.333 -49.5 -127 -49.5z" />
    <glyph glyph-name="uni045F" unicode="&#x45f;" horiz-adv-x="604" 
d="M542 0h-173v-122h-134v122h-173v500h151v-368h178v368h151v-500z" />
    <glyph glyph-name="uni0462" unicode="&#x462;" horiz-adv-x="762" 
d="M369 442h114c70 0 128 -20.667 174 -62s69 -94.333 69 -159c0 -64 -23 -116.833 -69 -158.5s-104 -62.5 -174 -62.5h-274v511h-180v140h180v59h160v-59h216v-140h-216v-69zM369 147h112c27.333 0 49.166 6.16699 65.499 18.5s24.5 30.833 24.5 55.5
s-8.16699 43.167 -24.5 55.5s-38.166 18.5 -65.499 18.5h-112v-148z" />
    <glyph glyph-name="uni0463" unicode="&#x463;" horiz-adv-x="565" 
d="M16 404l0.000976562 95.999h95v230h151v-230h161v-96h-161v-44h88c26 0 49.667 -3.83301 71 -11.5s38.833 -17.667 52.5 -30s25.167 -26.5 34.5 -42.5s16 -31.833 20 -47.5s6 -31.167 6 -46.5c0 -19.333 -3.33301 -39.166 -10 -59.499s-16.834 -39.833 -30.501 -58.5
s-33 -34 -58 -46s-53.5 -18 -85.5 -18h-239v404h-95zM331.001 231.999h-69v-104h69c41.333 0 62 17.667 62 53c0 34 -20.667 51 -62 51z" />
    <glyph glyph-name="uni0472" unicode="&#x472;" horiz-adv-x="804" 
d="M402 142c57.333 0 106 21 146 63s60 92 60 150s-20 108 -60 150s-88.667 63 -146 63s-106.166 -21 -146.499 -63s-60.5 -92 -60.5 -150s20.167 -108 60.5 -150s89.166 -63 146.499 -63zM402 -12c-101.333 0 -187.833 35.833 -259.5 107.5s-107.5 158.167 -107.5 259.5
s35.833 187.833 107.5 259.5s158.167 107.5 259.5 107.5s187.833 -36 259.5 -108s107.5 -158.333 107.5 -259s-35.833 -187 -107.5 -259s-158.167 -108 -259.5 -108zM492 408c46 0 86.333 12 121 36v-138c-34.667 -24 -75 -36 -121 -36c-22.667 0 -53.834 6 -93.501 18
s-69.167 18 -88.5 18c-46 0 -86.333 -12 -121 -36v138c34.667 24 75 36 121 36c29.333 0 62.333 -6 99 -18s64.334 -18 83.001 -18z" />
    <glyph glyph-name="uni0473" unicode="&#x473;" horiz-adv-x="588" 
d="M294 -11c-72.667 0 -134.667 25.167 -186 75.5s-77 112.166 -77 185.499s25.667 135.166 77 185.499s113.333 75.5 186 75.5s134.667 -25.167 186 -75.5s77 -112.166 77 -185.499s-25.667 -135.166 -77 -185.499s-113.333 -75.5 -186 -75.5zM294 130
c32 0 58.5 11 79.5 33s31.5 51 31.5 87s-10.5 65 -31.5 87s-47.5 33 -79.5 33s-58.5 -11 -79.5 -33s-31.5 -51 -31.5 -87s10.5 -65 31.5 -87s47.5 -33 79.5 -33zM107 297v-92h374v92h-374z" />
    <glyph glyph-name="uni0474" unicode="&#x474;" horiz-adv-x="794" 
d="M174 710l189.002 -474l122 307c26 66 55.167 112.333 87.5 139s73.166 40 122.499 40c36.667 0 69 -5.33301 97 -16l-38 -143c-29.333 7.33301 -52.833 5.33301 -70.5 -6s-33.834 -35 -48.501 -71l-200 -486h-143l-291 710h173z" />
    <glyph glyph-name="uni0475" unicode="&#x475;" horiz-adv-x="610" 
d="M-1 500l167 -0.000976562l122 -304l59 152c25.333 61.333 52 103.833 80 127.5s64.333 35.5 109 35.5c26 0 51 -3 75 -9l-31 -132c-19.333 4 -35.333 2.33301 -48 -5s-24 -22.666 -34 -45.999l-140 -319h-140z" />
    <glyph glyph-name="uni0490" unicode="&#x490;" horiz-adv-x="523" 
d="M500 710v-152h-265v-558h-160v710h425zM500 710h-143v148h143v-148z" />
    <glyph glyph-name="uni0491" unicode="&#x491;" horiz-adv-x="433" 
d="M62 0v500h353v-131h-202v-369h-151zM415 500h-134v122h134v-122z" />
    <glyph glyph-name="uni0492" unicode="&#x492;" horiz-adv-x="558" 
d="M534 710v-152h-265v-558h-160v710h425zM20 285v140h407v-140h-407z" />
    <glyph glyph-name="uni0493" unicode="&#x493;" horiz-adv-x="470" 
d="M99 0v500h353v-131h-202v-369h-151zM350 189h-330v96h330v-96z" />
    <glyph glyph-name="uni0496" unicode="&#x496;" horiz-adv-x="1063" 
d="M858 0l-261 307v-307h-160v306l-260 -306h-196l304 361l-273 349h187l238 -307v307h160v-308l239 308h187l-274 -349l305 -361h-196zM913 -148v148h-23v152h166v-300h-143z" />
    <glyph glyph-name="uni0497" unicode="&#x497;" horiz-adv-x="858" 
d="M664 0l-170 194v-194h-151v195l-171 -195h-185l224 254l-191 246h173l150 -197v197h151v-196l149 196h173l-191 -246l224 -254h-185zM716 -122v122h-22v131h156v-253h-134z" />
    <glyph glyph-name="uni049A" unicode="&#x49a;" horiz-adv-x="730" 
d="M522 0l-289 318v-318h-158v710h158v-297l241 297h195l-280 -341l337 -369h-204zM584 -148v148h-23v152h166v-300h-143z" />
    <glyph glyph-name="uni049B" unicode="&#x49b;" horiz-adv-x="583" 
d="M387 0l-174 194v-194h-151v500h151v-197l155 197h177l-198 -247l231 -253h-191zM447 -122v122h-22v131h156v-253h-134z" />
    <glyph glyph-name="uni04A2" unicode="&#x4a2;" horiz-adv-x="803" 
d="M75 0v710h159v-278h286v278h159v-710h-159v281h-286v-281h-159zM630 -148v148h-23v152h166v-300h-143z" />
    <glyph glyph-name="uni04A3" unicode="&#x4a3;" horiz-adv-x="663" 
d="M62 0v500h151v-184h188v184h151v-500h-151v185h-188v-185h-151zM503 -122v122h-22v131h156v-253h-134z" />
    <glyph glyph-name="uni04AE" unicode="&#x4ae;" horiz-adv-x="694" 
d="M267 0v299l-259 411h185l153 -256l155 256h185l-259 -412v-298h-160z" />
    <glyph glyph-name="uni04AF" unicode="&#x4af;" horiz-adv-x="580" 
d="M214 -194v194l-215 500h168l123 -315l123 315h168l-216 -500v-194h-151z" />
    <glyph glyph-name="uni04B0" unicode="&#x4b0;" horiz-adv-x="685" 
d="M263 0v299l-259 411h185l153 -256l155 256h185l-259 -412v-298h-160zM566 298v-140h-448v140h448z" />
    <glyph glyph-name="uni04B1" unicode="&#x4b1;" horiz-adv-x="580" 
d="M214 -194v194l-215 500h168l123 -315l123 315h168l-216 -500v-194h-151zM88 -96v96h402v-96h-402z" />
    <glyph glyph-name="uni04B2" unicode="&#x4b2;" horiz-adv-x="750" 
d="M177 0h-186l266 359l-250 351h184l161 -228l161 228h184l-249 -351l265 -359h-185l-176 235zM600 -148v148h-23v152h166v-300h-143z" />
    <glyph glyph-name="uni04B3" unicode="&#x4b3;" horiz-adv-x="598" 
d="M395 0l-106 136l-106 -136h-181l192 242l-190 258h178l106 -146l106 146h180l-190 -258l191 -242h-180zM448 -122v122h-22v131h156v-253h-134z" />
    <glyph glyph-name="uni04B6" unicode="&#x4b6;" horiz-adv-x="736" 
d="M612 0h-159.999v258c-42.667 -13.333 -93.334 -20 -152.001 -20c-71.333 0 -132 21.667 -182 65s-75 98.333 -75 165v242h160v-200c0 -41.333 11.667 -71.333 35 -90s53.333 -28 90 -28c52.667 0 94 6.66699 124 20v298h160v-710zM563.001 -148v148h-23v152h166v-300
h-143z" />
    <glyph glyph-name="uni04B7" unicode="&#x4b7;" horiz-adv-x="619" 
d="M508 0l-151 0.000976562v173c-11.333 -6.66699 -30 -12.5 -56 -17.5s-50.333 -7.5 -73 -7.5c-54 0 -99.667 14.667 -137 44s-56 72.666 -56 129.999v178h151v-160c0 -40 26.667 -60 80 -60c40 0 70.333 8.33301 91 25v195h151v-500zM459 -121.999v122h-22v131h156v-253
h-134z" />
    <glyph glyph-name="uni04BA" unicode="&#x4ba;" horiz-adv-x="687" 
d="M75 710h159.999v-258c42.667 13.333 93.334 20 152.001 20c71.333 0 132 -21.667 182 -65s75 -98.333 75 -165v-242h-160v200c0 41.333 -11.667 71.333 -35 90s-53.333 28 -90 28c-52.667 0 -94 -6.66699 -124 -20v-298h-160v710z" />
    <glyph glyph-name="uni04BB" unicode="&#x4bb;" horiz-adv-x="602" 
d="M213 0h-150.999v730h151v-266c33.333 31.333 76.666 47 129.999 47c64 0 113.833 -20.5 149.5 -61.5s53.5 -95.833 53.5 -164.5v-285h-151v259c0 35.333 -7 63.333 -21 84s-35.333 31 -64 31c-40.667 0 -73 -15.333 -97 -46v-328z" />
    <glyph glyph-name="uni04C0" unicode="&#x4c0;" horiz-adv-x="309" 
d="M75 0v710h159v-710h-159z" />
    <glyph glyph-name="uni04CF" unicode="&#x4cf;" horiz-adv-x="275" 
d="M62 0v730h151v-730h-151z" />
    <glyph glyph-name="uni04D8" unicode="&#x4d8;" horiz-adv-x="802" 
d="M32 355l-0.000976562 65.999h563c-14 48 -40.167 84.5 -78.5 109.5s-79.166 37.5 -122.499 37.5c-73.333 0 -133 -26.667 -179 -80l-107 108c35.333 38.667 78 69.334 128 92.001s104.333 34 163 34c100 0 186.167 -35.5 258.5 -106.5s108.5 -157.833 108.5 -260.5
c0 -102 -35.333 -188.667 -106 -260s-157.667 -107 -261 -107s-190.333 35.667 -261 107s-106 158 -106 260zM398.999 141.999c42 0 81.668 12 119.001 36s63 58.333 77 103h-392c10.667 -40.667 34.167 -74 70.5 -100s78.166 -39 125.499 -39z" />
    <glyph glyph-name="uni04D9" unicode="&#x4d9;" horiz-adv-x="577" 
d="M279 511c75.333 0 138.499 -23.8311 189.499 -71.498s76.5 -110.834 76.5 -189.501c0 -74.667 -24.833 -136.834 -74.5 -186.501s-112.5 -74.5 -188.5 -74.5c-70 0 -129 21.333 -177 64s-72 102.667 -72 180c0 19.333 1 37 3 53h363c-4 28.667 -17.667 50.5 -41 65.5
s-50.333 22.5 -81 22.5c-27.333 0 -51.666 -5.5 -72.999 -16.5s-37.333 -24.5 -48 -40.5l-112 84c24 34 56.333 60.833 97 80.5s86.667 29.5 138 29.5zM285.999 112.002c25.333 0 48.333 6.16895 69 18.502s34 31.166 40 56.499h-212c6 -24.667 18.667 -43.334 38 -56.001
s41 -19 65 -19z" />
    <glyph glyph-name="uni04E2" unicode="&#x4e2;" horiz-adv-x="792" 
d="M212 0h-137v710h160v-439l345 439h137v-710h-159v439zM232 787v104h348v-104h-348z" />
    <glyph glyph-name="uni04E3" unicode="&#x4e3;" horiz-adv-x="618" 
d="M197 0h-135v500h151v-276l208 276h135v-500h-150v275zM144 606v104h348v-104h-348z" />
    <glyph glyph-name="uni04E8" unicode="&#x4e8;" horiz-adv-x="804" 
d="M402 142c57.333 0 106 21 146 63s60 92 60 150s-20 108 -60 150s-88.667 63 -146 63s-106.166 -21 -146.499 -63s-60.5 -92 -60.5 -150s20.167 -108 60.5 -150s89.166 -63 146.499 -63zM402 -12c-101.333 0 -187.833 35.833 -259.5 107.5s-107.5 158.167 -107.5 259.5
s35.833 187.833 107.5 259.5s158.167 107.5 259.5 107.5s187.833 -36 259.5 -108s107.5 -158.333 107.5 -259s-35.833 -187 -107.5 -259s-158.167 -108 -259.5 -108zM109 424v-140h584v140h-584z" />
    <glyph glyph-name="uni04E9" unicode="&#x4e9;" horiz-adv-x="588" 
d="M294 -11c-72.667 0 -134.667 25.167 -186 75.5s-77 112.166 -77 185.499s25.667 135.166 77 185.499s113.333 75.5 186 75.5s134.667 -25.167 186 -75.5s77 -112.166 77 -185.499s-25.667 -135.166 -77 -185.499s-113.333 -75.5 -186 -75.5zM294 130
c32 0 58.5 11 79.5 33s31.5 51 31.5 87s-10.5 65 -31.5 87s-47.5 33 -79.5 33s-58.5 -11 -79.5 -33s-31.5 -51 -31.5 -87s10.5 -65 31.5 -87s47.5 -33 79.5 -33zM107 297v-92h374v92h-374z" />
    <glyph glyph-name="uni04EE" unicode="&#x4ee;" horiz-adv-x="731" 
d="M115 -1l31.001 148c25.333 -5.33301 45.666 -8 60.999 -8c37.333 0 65.333 12.667 84 38l-275 533h182l184 -356l175 356h182l-264 -529c-34.667 -68.667 -71.667 -118 -111 -148s-87.333 -45 -144 -45c-33.333 0 -68.333 3.66699 -105 11zM205.001 787v104h348v-104
h-348z" />
    <glyph glyph-name="uni04EF" unicode="&#x4ef;" horiz-adv-x="576" 
d="M578 500l-234.998 -536c-25.333 -56.667 -54.333 -98 -87 -124s-74.334 -39 -125.001 -39c-34.667 0 -62.334 3 -83.001 9l25 127c14 -3.33301 28.333 -5 43 -5c32 0 58.333 22.667 79 68l13 29l-208 471h165l129 -295l118 295h166zM115.002 606v104h348v-104h-348z" />
    <glyph glyph-name="Wgrave" unicode="&#x1e80;" horiz-adv-x="1026" 
d="M228 0l-221 710h168l129 -452l138 452h140l138 -453l129 453h170l-221 -710h-144l-142 467l-141 -467h-143zM567 768h-110l-125 137h165z" />
    <glyph glyph-name="wgrave" unicode="&#x1e81;" horiz-adv-x="810" 
d="M491 0l-86 264l-85 -264h-152l-165 500h162l87 -307l95 307h116l95 -307l87 307h162l-164 -500h-152zM466 556h-110l-143 174h173z" />
    <glyph glyph-name="Wacute" unicode="&#x1e82;" horiz-adv-x="1026" 
d="M228 0l-221 710h168l129 -452l138 452h140l138 -453l129 453h170l-221 -710h-144l-142 467l-141 -467h-143zM461 768l70 137h165l-125 -137h-110z" />
    <glyph glyph-name="wacute" unicode="&#x1e83;" horiz-adv-x="810" 
d="M491 0l-86 264l-85 -264h-152l-165 500h162l87 -307l95 307h116l95 -307l87 307h162l-164 -500h-152zM348 556l80 174h173l-143 -174h-110z" />
    <glyph glyph-name="Wdieresis" unicode="&#x1e84;" horiz-adv-x="1026" 
d="M228 0l-221 710h168l129 -452l138 452h140l138 -453l129 453h170l-221 -710h-144l-142 467l-141 -467h-143zM396 768c-22 0 -41.001 7.99902 -57.001 23.999s-24 34.667 -24 56c0 22.667 7.83301 41.834 23.5 57.501s34.834 23.5 57.501 23.5
c21.333 0 39.833 -8 55.5 -24s23.5 -35 23.5 -57c0 -21.333 -7.83301 -40 -23.5 -56s-34.167 -24 -55.5 -24zM632.999 767.999c-22 0 -40.833 8 -56.5 24s-23.5 34.667 -23.5 56c0 22.667 7.83301 41.834 23.5 57.501s34.5 23.5 56.5 23.5s40.833 -7.83301 56.5 -23.5
s23.5 -34.834 23.5 -57.501c0 -21.333 -7.83301 -40 -23.5 -56s-34.5 -24 -56.5 -24z" />
    <glyph glyph-name="wdieresis" unicode="&#x1e85;" horiz-adv-x="810" 
d="M491 0l-86 264l-85 -264h-152l-165 500h162l87 -307l95 307h116l95 -307l87 307h162l-164 -500h-152zM289 562c-22 0 -41.001 7.83203 -57.001 23.499s-24 34.167 -24 55.5c0 22.667 7.83301 41.834 23.5 57.501s34.834 23.5 57.501 23.5c21.333 0 39.833 -8 55.5 -24
s23.5 -35 23.5 -57c0 -21.333 -7.83301 -39.833 -23.5 -55.5s-34.167 -23.5 -55.5 -23.5zM525.999 561.999c-22 0 -40.833 7.83301 -56.5 23.5s-23.5 34.167 -23.5 55.5c0 22.667 7.83301 41.834 23.5 57.501s34.5 23.5 56.5 23.5s40.833 -7.83301 56.5 -23.5
s23.5 -34.834 23.5 -57.501c0 -21.333 -7.83301 -39.833 -23.5 -55.5s-34.5 -23.5 -56.5 -23.5z" />
    <glyph glyph-name="uni1E9E" unicode="&#x1e9e;" horiz-adv-x="652" 
d="M75 0l-0.000976562 709.998h496v-108l-91 -143c89.333 -36.667 134 -107 134 -211c0 -76.667 -24.167 -137.167 -72.5 -181.5s-111.166 -66.5 -188.499 -66.5h-48v152h43c30 0 55 8.33301 75 25s30 40.334 30 71.001s-10 54.334 -30 71.001s-45 25 -75 25h-43v108l72 113
h-143v-565h-159z" />
    <glyph glyph-name="uni1ECA" unicode="&#x1eca;" horiz-adv-x="309" 
d="M75 0v710h159v-710h-159zM155 -227c-22.667 0 -41.834 7.83301 -57.501 23.5s-23.5 34.5 -23.5 56.5s7.83301 40.833 23.5 56.5s34.834 23.5 57.501 23.5c22 0 40.833 -7.83301 56.5 -23.5s23.5 -34.5 23.5 -56.5s-7.83301 -40.833 -23.5 -56.5s-34.5 -23.5 -56.5 -23.5z
" />
    <glyph glyph-name="uni1ECB" unicode="&#x1ecb;" horiz-adv-x="275" 
d="M137 548c-25.333 0 -47.333 9.16699 -66 27.5s-28 40.5 -28 66.5s9.33301 48.167 28 66.5s40.667 27.5 66 27.5c26.667 0 49.167 -9.16699 67.5 -27.5s27.5 -40.5 27.5 -66.5s-9.16699 -48.167 -27.5 -66.5s-40.833 -27.5 -67.5 -27.5zM62 0v500h151v-500h-151zM138 -228
c-22.667 0 -41.834 7.83301 -57.501 23.5s-23.5 34.5 -23.5 56.5s7.83301 40.833 23.5 56.5s34.834 23.5 57.501 23.5c22 0 40.833 -7.83301 56.5 -23.5s23.5 -34.5 23.5 -56.5s-7.83301 -40.833 -23.5 -56.5s-34.5 -23.5 -56.5 -23.5z" />
    <glyph glyph-name="uni1ECC" unicode="&#x1ecc;" horiz-adv-x="804" 
d="M402 142c57.333 0 106 21 146 63s60 92 60 150s-20 108 -60 150s-88.667 63 -146 63s-106.166 -21 -146.499 -63s-60.5 -92 -60.5 -150s20.167 -108 60.5 -150s89.166 -63 146.499 -63zM402 -12c-101.333 0 -187.833 35.833 -259.5 107.5s-107.5 158.167 -107.5 259.5
s35.833 187.833 107.5 259.5s158.167 107.5 259.5 107.5s187.833 -36 259.5 -108s107.5 -158.333 107.5 -259s-35.833 -187 -107.5 -259s-158.167 -108 -259.5 -108zM402 -227c-22.667 0 -41.834 7.83301 -57.501 23.5s-23.5 34.5 -23.5 56.5s7.83301 40.833 23.5 56.5
s34.834 23.5 57.501 23.5c22 0 40.833 -7.83301 56.5 -23.5s23.5 -34.5 23.5 -56.5s-7.83301 -40.833 -23.5 -56.5s-34.5 -23.5 -56.5 -23.5z" />
    <glyph glyph-name="uni1ECD" unicode="&#x1ecd;" horiz-adv-x="588" 
d="M294 -11c-72.667 0 -134.667 25.167 -186 75.5s-77 112.166 -77 185.499s25.667 135.166 77 185.499s113.333 75.5 186 75.5s134.667 -25.167 186 -75.5s77 -112.166 77 -185.499s-25.667 -135.166 -77 -185.499s-113.333 -75.5 -186 -75.5zM294 130
c32 0 58.5 11 79.5 33s31.5 51 31.5 87s-10.5 65 -31.5 87s-47.5 33 -79.5 33s-58.5 -11 -79.5 -33s-31.5 -51 -31.5 -87s10.5 -65 31.5 -87s47.5 -33 79.5 -33zM294 -228c-22.667 0 -41.834 7.83301 -57.501 23.5s-23.5 34.5 -23.5 56.5s7.83301 40.833 23.5 56.5
s34.834 23.5 57.501 23.5c22 0 40.833 -7.83301 56.5 -23.5s23.5 -34.5 23.5 -56.5s-7.83301 -40.833 -23.5 -56.5s-34.5 -23.5 -56.5 -23.5z" />
    <glyph glyph-name="uni1EE4" unicode="&#x1ee4;" horiz-adv-x="718" 
d="M359 -12c-86 0 -156.167 26.833 -210.5 80.5s-81.5 124.5 -81.5 212.5v429h159v-431c0 -42 12.167 -75.333 36.5 -100s56.5 -37 96.5 -37s72.167 12.333 96.5 37s36.5 58 36.5 100v431h159v-429c0 -88 -27.167 -158.833 -81.5 -212.5s-124.5 -80.5 -210.5 -80.5z
M359 -227c-22.667 0 -41.834 7.83301 -57.501 23.5s-23.5 34.5 -23.5 56.5s7.83301 40.833 23.5 56.5s34.834 23.5 57.501 23.5c22 0 40.833 -7.83301 56.5 -23.5s23.5 -34.5 23.5 -56.5s-7.83301 -40.833 -23.5 -56.5s-34.5 -23.5 -56.5 -23.5z" />
    <glyph glyph-name="uni1EE5" unicode="&#x1ee5;" horiz-adv-x="591" 
d="M529 500v-500h-151v34c-32 -30 -70.667 -45 -116 -45c-65.333 0 -116 20.5 -152 61.5s-54 95.833 -54 164.5v285h151v-259c0 -76.667 29 -115 87 -115c32 0 60 15.333 84 46v328h151zM300 -228c-22.667 0 -41.834 7.83301 -57.501 23.5s-23.5 34.5 -23.5 56.5
s7.83301 40.833 23.5 56.5s34.834 23.5 57.501 23.5c22 0 40.833 -7.83301 56.5 -23.5s23.5 -34.5 23.5 -56.5s-7.83301 -40.833 -23.5 -56.5s-34.5 -23.5 -56.5 -23.5z" />
    <glyph glyph-name="Ygrave" unicode="&#x1ef2;" horiz-adv-x="694" 
d="M267 0v299l-259 411h185l153 -256l155 256h185l-259 -412v-298h-160zM400 768h-110l-125 137h165z" />
    <glyph glyph-name="ygrave" unicode="&#x1ef3;" horiz-adv-x="576" 
d="M274 -194h-163l97 223l-208 471h165l124 -309l123 309h166zM350 556h-110l-143 174h173z" />
    <glyph glyph-name="uni2007" unicode="&#x2007;" horiz-adv-x="590" 
 />
    <glyph glyph-name="uni2008" unicode="&#x2008;" horiz-adv-x="289" 
 />
    <glyph glyph-name="uni2009" unicode="&#x2009;" horiz-adv-x="125" 
 />
    <glyph glyph-name="uni200B" unicode="&#x200b;" 
 />
    <glyph glyph-name="endash" unicode="&#x2013;" horiz-adv-x="593" 
d="M55 208v144h483v-144h-483z" />
    <glyph glyph-name="emdash" unicode="&#x2014;" horiz-adv-x="949" 
d="M55 208v144h839v-144h-839z" />
    <glyph glyph-name="quoteleft" unicode="&#x2018;" horiz-adv-x="276" 
d="M203 710l-48 -170h72v-179h-179v179l71 170h84z" />
    <glyph glyph-name="quoteright" unicode="&#x2019;" horiz-adv-x="264" 
d="M69 361l48 170h-72v179h179v-179l-71 -170h-84z" />
    <glyph glyph-name="quotesinglbase" unicode="&#x201a;" horiz-adv-x="289" 
d="M79 -170l48 170h-72v179h179v-179l-71 -170h-84z" />
    <glyph glyph-name="quotedblleft" unicode="&#x201c;" horiz-adv-x="518" 
d="M203 710l-48 -170h72v-179h-179v179l71 170h84zM445 710l-48 -170h72v-179h-179v179l71 170h84z" />
    <glyph glyph-name="quotedblright" unicode="&#x201d;" horiz-adv-x="506" 
d="M69 361l48 170h-72v179h179v-179l-71 -170h-84zM311 361l48 170h-72v179h179v-179l-71 -170h-84z" />
    <glyph glyph-name="quotedblbase" unicode="&#x201e;" horiz-adv-x="531" 
d="M79 -170l48 170h-72v179h179v-179l-71 -170h-84zM321 -170l48 170h-72v179h179v-179l-71 -170h-84z" />
    <glyph glyph-name="dagger" unicode="&#x2020;" horiz-adv-x="520" 
d="M197 -98v480h-171v118h171v210h126v-210h171v-118h-171v-480h-126z" />
    <glyph glyph-name="daggerdbl" unicode="&#x2021;" horiz-adv-x="544" 
d="M506 112h-171v-210h-126v210h-171v118h171v152h-171v118h171v210h126v-210h171v-118h-171v-152h171v-118z" />
    <glyph glyph-name="bullet" unicode="&#x2022;" horiz-adv-x="395" 
d="M197 166c-37.333 0 -69.333 13.167 -96 39.5s-40 58.5 -40 96.5s13.333 70.167 40 96.5s58.667 39.5 96 39.5c38 0 70.333 -13.167 97 -39.5s40 -58.5 40 -96.5s-13.333 -70.167 -40 -96.5s-59 -39.5 -97 -39.5z" />
    <glyph glyph-name="ellipsis" unicode="&#x2026;" horiz-adv-x="837" 
d="M230 0h-179v179h179v-179zM508 0h-179v179h179v-179zM787 0h-179v179h179v-179z" />
    <glyph glyph-name="perthousand" unicode="&#x2030;" horiz-adv-x="1395" 
d="M1171 -8c-54.667 0 -101.167 19.333 -139.5 58s-57.5 85 -57.5 139c0 54.667 19.167 101.167 57.5 139.5s84.833 57.5 139.5 57.5c54 0 100.333 -19.167 139 -57.5s58 -84.833 58 -139.5c0 -54 -19.333 -100.333 -58 -139s-85 -58 -139 -58zM1171 118
c19.333 0 35.666 7 48.999 21s20 30.667 20 50s-6.66699 36 -20 50s-29.666 21 -48.999 21s-35.833 -7 -49.5 -21s-20.5 -30.667 -20.5 -50s6.83301 -36 20.5 -50s30.167 -21 49.5 -21zM341 0h-155l450 710h155zM753 -8c-54.667 0 -101.167 19.333 -139.5 58
s-57.5 85 -57.5 139c0 54.667 19.167 101.167 57.5 139.5s84.833 57.5 139.5 57.5c54 0 100.333 -19.167 139 -57.5s58 -84.833 58 -139.5c0 -54 -19.333 -100.333 -58 -139s-85 -58 -139 -58zM753 118c19.333 0 35.666 7 48.999 21s20 30.667 20 50s-6.66699 36 -20 50
s-29.666 21 -48.999 21s-35.833 -7 -49.5 -21s-20.5 -30.667 -20.5 -50s6.83301 -36 20.5 -50s30.167 -21 49.5 -21zM224 324c-54.667 0 -101.167 19.333 -139.5 58s-57.5 85 -57.5 139c0 54.667 19.167 101.167 57.5 139.5s84.833 57.5 139.5 57.5
c54 0 100.333 -19.167 139 -57.5s58 -84.833 58 -139.5c0 -54 -19.333 -100.333 -58 -139s-85 -58 -139 -58zM224 450c19.333 0 35.666 7 48.999 21s20 30.667 20 50s-6.66699 36 -20 50s-29.666 21 -48.999 21c-20 0 -36.667 -6.83301 -50 -20.5s-20 -30.5 -20 -50.5
s6.66699 -36.833 20 -50.5s30 -20.5 50 -20.5z" />
    <glyph glyph-name="guilsinglleft" unicode="&#x2039;" horiz-adv-x="313" 
d="M185 250l90 -173l-95 -61l-152 234l152 234l95 -61z" />
    <glyph glyph-name="guilsinglright" unicode="&#x203a;" horiz-adv-x="313" 
d="M38 77l90 173l-90 173l95 61l152 -234l-152 -234z" />
    <glyph glyph-name="fraction" unicode="&#x2044;" horiz-adv-x="180" 
d="M-94 0h-128l500 710h128z" />
    <glyph glyph-name="uni2060" unicode="&#x2060;" horiz-adv-x="216" 
 />
    <glyph glyph-name="uni2070" unicode="&#x2070;" horiz-adv-x="389" 
d="M195 403c-49.333 0 -89.5 16.667 -120.5 50s-46.5 75.333 -46.5 126v94c0 50.667 15.5 92.667 46.5 126s71.167 50 120.5 50c48.667 0 88.5 -16.667 119.5 -50s46.5 -75.333 46.5 -126v-94c0 -50.667 -15.5 -92.667 -46.5 -126s-70.833 -50 -119.5 -50zM195 507
c18 0 32.667 6.49805 44 19.498s17 30.5 17 52.5v94c0 22.667 -5.5 40.334 -16.5 53.001s-25.833 19 -44.5 19s-33.667 -6.16699 -45 -18.5s-17 -30.166 -17 -53.499v-94c0 -22 5.66699 -39.5 17 -52.5s26.333 -19.5 45 -19.5z" />
    <glyph glyph-name="uni2074" unicode="&#x2074;" horiz-adv-x="396" 
d="M219 410v86h-205v85l215 261h95v-251h54v-95h-54v-86h-105zM140 591h79v96z" />
    <glyph glyph-name="uni2075" unicode="&#x2075;" horiz-adv-x="359" 
d="M182 403c-36.667 0 -70.6689 10.5 -102.002 31.5s-51.333 48.167 -60 81.5l99 39c12.667 -32 34.667 -48 66 -48c14.667 0 26.5 4.5 35.5 13.5s13.5 20.5 13.5 34.5c0 13.333 -4.66699 24.833 -14 34.5s-20.666 14.5 -33.999 14.5c-23.333 0 -39.333 -10.333 -48 -31h-97
v269h268v-102h-163v-57c18.667 10 39.334 15 62.001 15c40 0 71.833 -13.667 95.5 -41s35.5 -63.333 35.5 -108c0 -46.667 -13.833 -82.667 -41.5 -108s-66.167 -38 -115.5 -38z" />
    <glyph glyph-name="uni2076" unicode="&#x2076;" horiz-adv-x="338" 
d="M167 403c-46.667 0 -84 14.168 -112 42.501s-42 62.166 -42 101.499c0 16.667 2.33301 32.167 7 46.5s9.33398 25.5 14.001 33.5s15 24 31 48l108 167h128l-97 -150c31.333 -4.66699 58.666 -18.667 81.999 -42s35 -55 35 -95c0 -44 -13.833 -80.333 -41.5 -109
s-65.167 -43 -112.5 -43zM167 504.001c14 0 25.5 4.83301 34.5 14.5s13.5 21.5 13.5 35.5s-4.5 25.833 -13.5 35.5s-20.5 14.5 -34.5 14.5c-14.667 0 -26.5 -4.83301 -35.5 -14.5s-13.5 -21.5 -13.5 -35.5c0 -14.667 4.33301 -26.667 13 -36s20.667 -14 36 -14z" />
    <glyph glyph-name="uni2077" unicode="&#x2077;" horiz-adv-x="349" 
d="M144 410h-120l190 330h-188v102h313v-92z" />
    <glyph glyph-name="uni2078" unicode="&#x2078;" horiz-adv-x="364" 
d="M182 403c-44.667 0 -82.333 13.333 -113 40s-46 59.667 -46 99c0 42 17 75 51 99c-22 22.667 -33 52.334 -33 89.001c0 32 12.833 59.833 38.5 83.5s59.834 35.5 102.501 35.5c42 0 75.833 -11.833 101.5 -35.5s38.5 -51.5 38.5 -83.5c0 -36.667 -11 -66.334 -33 -89.001
c34.667 -24 52 -57 52 -99c0 -39.333 -15.333 -72.333 -46 -99s-68.334 -40 -113.001 -40zM182.001 499c15.333 0 27.5 5 36.5 15s13.5 21.333 13.5 34s-4.5 23.834 -13.5 33.501s-21.167 14.5 -36.5 14.5s-27.666 -4.83301 -36.999 -14.5s-14 -20.834 -14 -33.501
s4.66699 -24 14 -34s21.666 -15 36.999 -15zM182.001 677c12 0 22.167 3.66699 30.5 11s12.5 17 12.5 29s-4.16699 21.833 -12.5 29.5s-18.5 11.5 -30.5 11.5s-22.167 -3.83301 -30.5 -11.5s-12.5 -17.5 -12.5 -29.5s4.16699 -21.667 12.5 -29s18.5 -11 30.5 -11z" />
    <glyph glyph-name="uni2079" unicode="&#x2079;" horiz-adv-x="338" 
d="M37 410l96.999 150c-31.333 4.66699 -58.666 18.667 -81.999 42s-35 55 -35 95c0 44 13.833 80.333 41.5 109s65.167 43 112.5 43c46.667 0 84 -14.167 112 -42.5s42 -62.166 42 -101.499c0 -8.66699 -0.666992 -16.834 -2 -24.501l-3.5 -19.5
c-1 -5.33301 -3.5 -11.833 -7.5 -19.5s-7.16699 -13.5 -9.5 -17.5s-7 -11.333 -14 -22s-12.167 -19 -15.5 -25l-108 -167h-128zM170.999 648c14.667 0 26.5 4.83301 35.5 14.5s13.5 21.5 13.5 35.5c0 14.667 -4.33301 26.667 -13 36s-20.667 14 -36 14
c-14 0 -25.5 -4.83301 -34.5 -14.5s-13.5 -21.5 -13.5 -35.5s4.5 -25.833 13.5 -35.5s20.5 -14.5 34.5 -14.5z" />
    <glyph glyph-name="uni2080" unicode="&#x2080;" horiz-adv-x="389" 
d="M195 -121c-49.333 0 -89.5 16.667 -120.5 50s-46.5 75.333 -46.5 126v94c0 50.667 15.5 92.667 46.5 126s71.167 50 120.5 50c48.667 0 88.5 -16.667 119.5 -50s46.5 -75.333 46.5 -126v-94c0 -50.667 -15.5 -92.667 -46.5 -126s-70.833 -50 -119.5 -50zM195 -17
c18 0 32.667 6.49805 44 19.498s17 30.5 17 52.5v94c0 22.667 -5.5 40.334 -16.5 53.001s-25.833 19 -44.5 19s-33.667 -6.16699 -45 -18.5s-17 -30.166 -17 -53.499v-94c0 -22 5.66699 -39.5 17 -52.5s26.333 -19.5 45 -19.5z" />
    <glyph glyph-name="uni2081" unicode="&#x2081;" horiz-adv-x="249" 
d="M101 -114v329h-87v103h192v-432h-105z" />
    <glyph glyph-name="uni2082" unicode="&#x2082;" horiz-adv-x="356" 
d="M26 -114v93.001l169 164c16.667 15.333 25 30.333 25 45c0 9.33301 -3.16699 17.166 -9.5 23.499s-15.5 9.5 -27.5 9.5c-26.667 0 -47 -17 -61 -51l-101 26c10.667 41.333 30.5 73.166 59.5 95.499s64.167 33.5 105.5 33.5c39.333 0 72.166 -11 98.499 -33
s39.5 -54.667 39.5 -98c0 -20.667 -3.33301 -39.5 -10 -56.5s-14.167 -30.667 -22.5 -41s-20.166 -23.166 -35.499 -38.499l-71 -69h143v-103h-302z" />
    <glyph glyph-name="uni2083" unicode="&#x2083;" horiz-adv-x="352" 
d="M174 -122c-36.667 0 -70.334 10.333 -101.001 31s-50.667 48 -60 82l100 40c12.667 -32.667 34 -49 64 -49c14 0 25.333 3.83301 34 11.5s13 18.167 13 31.5c0 14 -5.16699 25.333 -15.5 34s-24.166 13 -41.499 13h-59v87l63 57h-134v102h266v-90l-81 -73
c34.667 -7.33301 61.167 -22.833 79.5 -46.5s27.5 -52.167 27.5 -85.5c0 -44 -14.333 -79.167 -43 -105.5s-66 -39.5 -112 -39.5z" />
    <glyph glyph-name="uni2084" unicode="&#x2084;" horiz-adv-x="396" 
d="M219 -114v86h-205v85l215 261h95v-251h54v-95h-54v-86h-105zM140 67h79v96z" />
    <glyph glyph-name="uni2085" unicode="&#x2085;" horiz-adv-x="359" 
d="M182 -121c-36.667 0 -70.6689 10.5 -102.002 31.5s-51.333 48.167 -60 81.5l99 39c12.667 -32 34.667 -48 66 -48c14.667 0 26.5 4.5 35.5 13.5s13.5 20.5 13.5 34.5c0 13.333 -4.66699 24.833 -14 34.5s-20.666 14.5 -33.999 14.5c-23.333 0 -39.333 -10.333 -48 -31
h-97v269h268v-102h-163v-57c18.667 10 39.334 15 62.001 15c40 0 71.833 -13.667 95.5 -41s35.5 -63.333 35.5 -108c0 -46.667 -13.833 -82.667 -41.5 -108s-66.167 -38 -115.5 -38z" />
    <glyph glyph-name="uni2086" unicode="&#x2086;" horiz-adv-x="338" 
d="M167 -121c-46.667 0 -84 14.168 -112 42.501s-42 62.166 -42 101.499c0 16.667 2.33301 32.167 7 46.5s9.33398 25.5 14.001 33.5s15 24 31 48l108 167h128l-97 -150c31.333 -4.66699 58.666 -18.667 81.999 -42s35 -55 35 -95c0 -44 -13.833 -80.333 -41.5 -109
s-65.167 -43 -112.5 -43zM167 -19.999c14 0 25.5 4.83301 34.5 14.5s13.5 21.5 13.5 35.5s-4.5 25.833 -13.5 35.5s-20.5 14.5 -34.5 14.5c-14.667 0 -26.5 -4.83301 -35.5 -14.5s-13.5 -21.5 -13.5 -35.5c0 -14.667 4.33301 -26.667 13 -36s20.667 -14 36 -14z" />
    <glyph glyph-name="uni2087" unicode="&#x2087;" horiz-adv-x="349" 
d="M144 -114h-120l190 330h-188v102h313v-92z" />
    <glyph glyph-name="uni2088" unicode="&#x2088;" horiz-adv-x="364" 
d="M182 -121c-44.667 0 -82.333 13.333 -113 40s-46 59.667 -46 99c0 42 17 75 51 99c-22 22.667 -33 52.334 -33 89.001c0 32 12.833 59.833 38.5 83.5s59.834 35.5 102.501 35.5c42 0 75.833 -11.833 101.5 -35.5s38.5 -51.5 38.5 -83.5
c0 -36.667 -11 -66.334 -33 -89.001c34.667 -24 52 -57 52 -99c0 -39.333 -15.333 -72.333 -46 -99s-68.334 -40 -113.001 -40zM182.001 -25c15.333 0 27.5 5 36.5 15s13.5 21.333 13.5 34s-4.5 23.834 -13.5 33.501s-21.167 14.5 -36.5 14.5
s-27.666 -4.83301 -36.999 -14.5s-14 -20.834 -14 -33.501s4.66699 -24 14 -34s21.666 -15 36.999 -15zM182.001 153c12 0 22.167 3.66699 30.5 11s12.5 17 12.5 29s-4.16699 21.833 -12.5 29.5s-18.5 11.5 -30.5 11.5s-22.167 -3.83301 -30.5 -11.5
s-12.5 -17.5 -12.5 -29.5s4.16699 -21.667 12.5 -29s18.5 -11 30.5 -11z" />
    <glyph glyph-name="uni2089" unicode="&#x2089;" horiz-adv-x="338" 
d="M37 -114l96.999 150c-31.333 4.66699 -58.666 18.667 -81.999 42s-35 55 -35 95c0 44 13.833 80.333 41.5 109s65.167 43 112.5 43c46.667 0 84 -14.167 112 -42.5s42 -62.166 42 -101.499c0 -8.66699 -0.666992 -16.834 -2 -24.501l-3.5 -19.5
c-1 -5.33301 -3.5 -11.833 -7.5 -19.5s-7.16699 -13.5 -9.5 -17.5s-7 -11.333 -14 -22s-12.167 -19 -15.5 -25l-108 -167h-128zM170.999 124c14.667 0 26.5 4.83301 35.5 14.5s13.5 21.5 13.5 35.5c0 14.667 -4.33301 26.667 -13 36s-20.667 14 -36 14
c-14 0 -25.5 -4.83301 -34.5 -14.5s-13.5 -21.5 -13.5 -35.5s4.5 -25.833 13.5 -35.5s20.5 -14.5 34.5 -14.5z" />
    <glyph glyph-name="Euro" unicode="&#x20ac;" horiz-adv-x="771" 
d="M96 389l-70 0.00195312l20 57h60c20 79.333 63.333 145.166 130 197.499s142.667 78.5 228 78.5c54.667 0 106 -10.667 154 -32s88 -51 120 -89l-101 -108c-47.333 53.333 -105 80 -173 80c-45.333 0 -85.333 -11.667 -120 -35s-60.667 -54 -78 -92h350l-18 -57h-349
c-1.33301 -14.667 -2 -26 -2 -34c0 -7.33301 0.666992 -18.333 2 -33h328l-18 -57h-293c16.667 -38.667 42.5 -69.667 77.5 -93s75.167 -35 120.5 -35c68 0 125.667 26.667 173 80l101 -108c-32 -38 -72 -67.667 -120 -89s-99.333 -32 -154 -32
c-85.333 0 -161.333 26 -228 78s-110 118.333 -130 199h-80l20 57h50c-0.666992 7.33301 -1 18.333 -1 33c0 15.333 0.333008 26.666 1 33.999z" />
    <glyph glyph-name="uni20B4" unicode="&#x20b4;" horiz-adv-x="632" 
d="M37 279v58h554v-58h-343c-21.333 -16 -32 -40 -32 -72c0 -22.667 8.5 -41.167 25.5 -55.5s41.833 -21.5 74.5 -21.5c28 0 55.5 6.83301 82.5 20.5s50.167 33.167 69.5 58.5l114 -94c-28 -40 -64.833 -71.167 -110.5 -93.5s-96.5 -33.5 -152.5 -33.5
c-74 0 -134.833 19.5 -182.5 58.5s-71.5 87.5 -71.5 145.5c0 36 10 65 30 87h-58zM37 388v58h341c18 14 27 33.333 27 58c0 23.333 -8.83301 41.833 -26.5 55.5s-40.834 20.5 -69.501 20.5c-53.333 0 -96.666 -20.333 -129.999 -61l-98 105c60.667 65.333 140 98 238 98
c68 0 124.333 -18.333 169 -55s67 -83 67 -139c0 -34 -7.33301 -61.333 -22 -82h58v-58h-554z" />
    <glyph glyph-name="uni20B8" unicode="&#x20b8;" horiz-adv-x="584" 
d="M216 0v452h-186v149h524v-149h-187v-452h-151zM30 652v58h524v-58h-524z" />
    <glyph glyph-name="uni20BD" unicode="&#x20bd;" horiz-adv-x="620" 
d="M48 248v145h85v317h216c70.667 0 128.834 -21.333 174.501 -64s68.5 -98.667 68.5 -168s-22.833 -125 -68.5 -167s-103.834 -63 -174.501 -63h-65v-66h150v-58h-150v-124h-151v124h-85v58h85v66h-85zM284 393h64c27.333 0 49.166 7.33301 65.499 22s24.5 35.667 24.5 63
c0 28.667 -8.16699 50.167 -24.5 64.5s-38.166 21.5 -65.499 21.5h-64v-171z" />
    <glyph glyph-name="uni2116" unicode="&#x2116;" horiz-adv-x="1098" 
d="M717 0h-137l-346 439v-439h-159v710h137l345 -439v439h160v-710zM908 405c-42 0 -78.167 15.333 -108.5 46s-45.5 67 -45.5 109s15.167 78.333 45.5 109s66.5 46 108.5 46s78.333 -15.333 109 -46s46 -67 46 -109s-15.333 -78.333 -46 -109s-67 -46 -109 -46zM759 263v96
h299v-96h-299zM909 501c16 0 29.667 5.83301 41 17.5s17 25.5 17 41.5s-5.66699 29.833 -17 41.5s-25 17.5 -41 17.5s-29.667 -5.83301 -41 -17.5s-17 -25.5 -17 -41.5s5.66699 -29.833 17 -41.5s25 -17.5 41 -17.5z" />
    <glyph glyph-name="uni2117" unicode="&#x2117;" horiz-adv-x="803" 
d="M401 -12c-100.667 0 -186.834 36 -258.501 108s-107.5 158.333 -107.5 259s35.833 187 107.5 259s157.834 108 258.501 108s187 -36 259 -108s108 -158.333 108 -259s-36 -187 -108 -259s-158.333 -108 -259 -108zM401 76c76.667 0 142.334 27.333 197.001 82
s82 120.334 82 197.001s-27.333 142.334 -82 197.001s-120.334 82 -197.001 82s-142.167 -27.333 -196.5 -82s-81.5 -120.334 -81.5 -197.001s27.167 -142.334 81.5 -197.001s119.833 -82 196.5 -82zM558 412c0 -36 -12.5 -66.333 -37.5 -91s-56.167 -37 -93.5 -37h-40v-115
h-88v371h128c37.333 0 68.5 -12.333 93.5 -37s37.5 -55 37.5 -91zM474 412c0 13.333 -4.66699 24.333 -14 33s-20.666 13 -33.999 13h-39v-92h39c13.333 0 24.666 4.5 33.999 13.5s14 19.833 14 32.5z" />
    <glyph glyph-name="trademark" unicode="&#x2122;" horiz-adv-x="804" 
d="M387 354v356h105l71 -142l71 142h105v-356h-109v171l-41 -70h-51l-42 71v-172h-109zM124 354v243h-93v113h301v-113h-93v-243h-115z" />
    <glyph glyph-name="uni2150" unicode="&#x2150;" horiz-adv-x="867" 
d="M101 278v329h-87v103h192v-432h-105zM197 0h-128l500 710h128zM662 1h-120l190 330h-188v102h313v-92z" />
    </font>
</defs>
</svg>
