<svg width="367" height="60" viewBox="0 0 367 60" fill="none" xmlns="http://www.w3.org/2000/svg">
<path fill-rule="evenodd" clip-rule="evenodd" d="M0 1.41064H21.971V58.2324H0V1.41064V1.41064ZM23.6757 1.41064H45.6468V37.5871H23.6757V1.41064V1.41064ZM45.6468 39.2919V58.2324H23.6757V39.2919H45.6468V39.2919ZM47.3515 1.41064H69.3225V58.2324H47.3515V1.41064V1.41064Z" fill="white"/>
<path d="M96.0303 1.41167L82.4468 23.6911H95.657V26.3033H77.8193L91.4032 4.02387H79.5732V1.41167H96.0303V1.41167ZM121.22 26.3033L118.309 19.2875H107.711L104.725 26.3033H101.666L113.122 0.217773L124.281 26.3033H121.22ZM108.793 16.6753H117.227L113.048 6.71117L108.793 16.6753ZM129.318 1.41167H132.378L139.394 20.4068L146.41 1.41167H149.471L139.394 27.7959L129.318 1.41167ZM178.224 23.0568C175.724 25.5197 172.657 26.7513 169.025 26.7513C165.393 26.7513 162.326 25.5197 159.826 23.0568C157.326 20.5935 156.076 17.5336 156.076 13.8764C156.076 10.194 157.332 7.12757 159.845 4.67727C162.358 2.22657 165.418 1.00137 169.025 1.00137C172.633 1.00137 175.693 2.22657 178.206 4.67727C180.718 7.12757 181.975 10.194 181.975 13.8764C181.975 17.5336 180.725 20.5935 178.224 23.0568ZM176.19 6.59917C174.225 4.60867 171.836 3.61357 169.025 3.61357C166.214 3.61357 163.826 4.60867 161.86 6.59917C159.894 8.58937 158.912 11.015 158.912 13.8764C158.912 16.7374 159.894 19.163 161.86 21.1535C163.826 23.1436 166.214 24.1387 169.025 24.1387C171.836 24.1387 174.225 23.1436 176.19 21.1535C178.156 19.163 179.139 16.7374 179.139 13.8764C179.139 11.015 178.156 8.58937 176.19 6.59917ZM191.491 26.3033V1.41167H196.566C200.397 1.41167 203.457 2.38197 205.746 4.32257C208.582 6.68607 210 9.87047 210 13.8764C210 17.7572 208.545 20.942 205.634 23.4297C204.44 24.4499 203.159 25.1837 201.79 25.6317C200.422 26.0793 198.668 26.3033 196.528 26.3033H191.491V26.3033ZM194.252 4.02387V23.6911H196.678C199.638 23.6911 202.014 22.9448 203.805 21.4518C206.044 19.5611 207.164 17.036 207.164 13.8764C207.164 10.8908 206.206 8.50247 204.29 6.71117C202.375 4.91957 199.837 4.02387 196.678 4.02387H194.252V4.02387ZM79.7599 33.3309H84.6114V54.043H92.2988V58.2225H79.7599V33.3309V33.3309ZM112.6 58.2225L110.398 52.998H100.36L98.1576 58.2225H92.8962L103.606 33.3309H107.413L117.825 58.2225H112.6V58.2225ZM101.89 49.0421H108.98L105.435 40.0857L101.89 49.0421V49.0421ZM135.514 35.6822L132.976 39.0034C131.906 37.5855 130.55 36.8761 128.908 36.8761C127.714 36.8761 126.843 37.1687 126.296 37.7531C125.748 38.3379 125.475 39.016 125.475 39.7871C125.475 40.4591 125.736 41.0187 126.259 41.4663C126.657 41.8397 127.652 42.3124 129.244 42.8847C131.707 43.7304 133.386 44.5639 134.282 45.3849C135.7 46.6539 136.409 48.3953 136.409 50.6094C136.409 53.0476 135.607 55.0194 134.002 56.5246C132.397 58.0298 130.314 58.7822 127.751 58.7822C124.169 58.7822 121.308 57.2149 119.168 54.0803L122.34 51.0574C122.887 52.1771 123.646 53.0102 124.617 53.5577C125.587 54.1051 126.569 54.3786 127.564 54.3786C128.684 54.3786 129.605 54.0617 130.326 53.427C131.048 52.7927 131.408 51.9656 131.408 50.9454C131.408 50.0745 131.085 49.3282 130.438 48.7061C129.841 48.1591 128.56 47.5495 126.594 46.8775C124.753 46.2558 123.372 45.5342 122.452 44.7133C121.133 43.5689 120.474 42.0263 120.474 40.0857C120.474 38.0704 121.158 36.3477 122.527 34.9172C123.895 33.4867 125.873 32.7713 128.46 32.7713C131.272 32.7713 133.623 33.7416 135.514 35.6822V35.6822ZM140.663 33.3309H147.903C149.446 33.3309 150.708 33.4616 151.691 33.7229C152.674 33.9843 153.601 34.4879 154.471 35.2342C156.163 36.7272 157.009 38.7299 157.009 41.2427C157.009 43.581 156.325 45.4348 154.956 46.8032C153.489 48.2711 151.386 49.0048 148.65 49.0048H145.515V58.2225H140.663V33.3309V33.3309ZM145.515 37.5108V44.8253H147.493C148.911 44.8253 149.968 44.5639 150.665 44.0416C151.56 43.3449 152.008 42.3745 152.008 41.1307C152.008 39.9116 151.548 38.9661 150.627 38.2944C149.881 37.7718 148.737 37.5108 147.194 37.5108H145.515V37.5108ZM177.534 58.2225L175.332 52.998H165.294L163.092 58.2225H157.83L168.54 33.3309H172.347L182.759 58.2225H177.534V58.2225ZM166.824 49.0421H173.914L170.369 40.0857L166.824 49.0421ZM190.521 58.2225H185.669V33.3309H189.028L204.179 49.9378V33.3309H209.03V58.2225H205.672L190.521 41.5783V58.2225Z" fill="white"/>
<path d="M245.897 14.096H247.427V18.516H245.591V16H236.479V3.93H238.485V14.096H243.891V3.93H245.897V14.096ZM252.916 16.17C251.624 16.17 250.559 15.7563 249.72 14.929C248.893 14.1017 248.479 13.042 248.479 11.75C248.479 10.492 248.899 9.44367 249.737 8.605C250.576 7.755 251.636 7.33 252.916 7.33C254.095 7.33 255.07 7.704 255.84 8.452C256.622 9.2 257.013 10.2313 257.013 11.546C257.013 11.7727 257.008 11.9767 256.996 12.158H250.315C250.361 12.8493 250.627 13.4103 251.114 13.841C251.602 14.2603 252.208 14.47 252.933 14.47C254.021 14.47 254.832 14.0393 255.364 13.178L256.792 14.198C255.976 15.5127 254.684 16.17 252.916 16.17ZM250.4 10.798H255.126C255.024 10.2087 254.758 9.74967 254.327 9.421C253.908 9.081 253.415 8.911 252.848 8.911C252.259 8.911 251.732 9.07533 251.267 9.404C250.814 9.73267 250.525 10.1973 250.4 10.798ZM258.936 16V7.5H260.806V10.866H264.903V7.5H266.773V16H264.903V12.532H260.806V16H258.936ZM270.876 16V9.166H268.326V7.5H275.415V9.166H272.746V16H270.876ZM276.982 19.298V7.5H278.852V8.282C279.464 7.64733 280.291 7.33 281.334 7.33C282.569 7.33 283.583 7.76067 284.377 8.622C285.181 9.48333 285.584 10.526 285.584 11.75C285.584 12.974 285.181 14.0167 284.377 14.878C283.583 15.7393 282.569 16.17 281.334 16.17C280.291 16.17 279.464 15.847 278.852 15.201V19.298H276.982ZM281.13 14.47C281.866 14.47 282.473 14.2093 282.949 13.688C283.425 13.1553 283.663 12.5093 283.663 11.75C283.663 10.9907 283.425 10.3503 282.949 9.829C282.473 9.29633 281.866 9.03 281.13 9.03C280.155 9.03 279.396 9.421 278.852 10.203V13.28C279.384 14.0733 280.144 14.47 281.13 14.47ZM241.885 36L238.128 32.379V36H236.258V27.5H238.128V31.138L241.477 27.5H243.755L239.913 31.682L244.367 36H241.885ZM251.895 34.895C251.045 35.745 249.991 36.17 248.733 36.17C247.475 36.17 246.415 35.745 245.554 34.895C244.704 34.0337 244.279 32.9853 244.279 31.75C244.279 30.5147 244.704 29.472 245.554 28.622C246.415 27.7607 247.475 27.33 248.733 27.33C249.991 27.33 251.045 27.7607 251.895 28.622C252.756 29.472 253.187 30.5147 253.187 31.75C253.187 32.9853 252.756 34.0337 251.895 34.895ZM248.733 34.436C249.469 34.436 250.076 34.181 250.552 33.671C251.039 33.1497 251.283 32.5093 251.283 31.75C251.283 30.9907 251.039 30.356 250.552 29.846C250.076 29.3247 249.469 29.064 248.733 29.064C247.985 29.064 247.367 29.3247 246.88 29.846C246.404 30.356 246.166 30.9907 246.166 31.75C246.166 32.5093 246.404 33.1497 246.88 33.671C247.367 34.181 247.985 34.436 248.733 34.436ZM255.068 27.5H256.7L259.692 31.971L262.684 27.5H264.316V36H262.446V30.662L260.287 33.909H259.097L256.938 30.662V36H255.068V27.5ZM266.838 27.5H268.47L271.462 31.971L274.454 27.5H276.086V36H274.216V30.662L272.057 33.909H270.867L268.708 30.662V36H266.838V27.5ZM282.451 36.17C281.159 36.17 280.093 35.7563 279.255 34.929C278.427 34.1017 278.014 33.042 278.014 31.75C278.014 30.492 278.433 29.4437 279.272 28.605C280.11 27.755 281.17 27.33 282.451 27.33C283.629 27.33 284.604 27.704 285.375 28.452C286.157 29.2 286.548 30.2313 286.548 31.546C286.548 31.7727 286.542 31.9767 286.531 32.158H279.85C279.895 32.8493 280.161 33.4103 280.649 33.841C281.136 34.2603 281.742 34.47 282.468 34.47C283.556 34.47 284.366 34.0393 284.899 33.178L286.327 34.198C285.511 35.5127 284.219 36.17 282.451 36.17ZM279.935 30.798H284.661C284.559 30.2087 284.292 29.7497 283.862 29.421C283.442 29.081 282.949 28.911 282.383 28.911C281.793 28.911 281.266 29.0753 280.802 29.404C280.348 29.7327 280.059 30.1973 279.935 30.798ZM288.47 39.298V27.5H290.34V28.282C290.952 27.6473 291.779 27.33 292.822 27.33C294.057 27.33 295.072 27.7607 295.865 28.622C296.67 29.4833 297.072 30.526 297.072 31.75C297.072 32.974 296.67 34.0167 295.865 34.878C295.072 35.7393 294.057 36.17 292.822 36.17C291.779 36.17 290.952 35.847 290.34 35.201V39.298H288.47ZM292.618 34.47C293.355 34.47 293.961 34.2093 294.437 33.688C294.913 33.1553 295.151 32.5093 295.151 31.75C295.151 30.9907 294.913 30.3503 294.437 29.829C293.961 29.2963 293.355 29.03 292.618 29.03C291.643 29.03 290.884 29.421 290.34 30.203V33.28C290.873 34.0733 291.632 34.47 292.618 34.47ZM305.88 36H304.01V32.736C303.353 33.076 302.56 33.246 301.63 33.246C300.678 33.246 299.896 32.9853 299.284 32.464C298.684 31.9427 298.383 31.2003 298.383 30.237V27.5H300.253V30.033C300.253 31.0643 300.848 31.58 302.038 31.58C302.764 31.58 303.421 31.4043 304.01 31.053V27.5H305.88V36ZM312.234 36.17C310.942 36.17 309.876 35.7563 309.038 34.929C308.21 34.1017 307.797 33.042 307.797 31.75C307.797 30.492 308.216 29.4437 309.055 28.605C309.893 27.755 310.953 27.33 312.234 27.33C313.412 27.33 314.387 27.704 315.158 28.452C315.94 29.2 316.331 30.2313 316.331 31.546C316.331 31.7727 316.325 31.9767 316.314 32.158H309.633C309.678 32.8493 309.944 33.4103 310.432 33.841C310.919 34.2603 311.525 34.47 312.251 34.47C313.339 34.47 314.149 34.0393 314.682 33.178L316.11 34.198C315.294 35.5127 314.002 36.17 312.234 36.17ZM309.718 30.798H314.444C314.342 30.2087 314.075 29.7497 313.645 29.421C313.225 29.081 312.732 28.911 312.166 28.911C311.576 28.911 311.049 29.0753 310.585 29.404C310.131 29.7327 309.842 30.1973 309.718 30.798ZM322.129 36.17C320.848 36.17 319.777 35.7507 318.916 34.912C318.066 34.062 317.641 33.008 317.641 31.75C317.641 30.492 318.066 29.4437 318.916 28.605C319.777 27.755 320.848 27.33 322.129 27.33C323.002 27.33 323.784 27.5397 324.475 27.959C325.178 28.3783 325.716 28.9507 326.09 29.676L324.458 30.56C324.243 30.1067 323.931 29.744 323.523 29.472C323.115 29.2 322.65 29.064 322.129 29.064C321.381 29.064 320.763 29.3247 320.276 29.846C319.789 30.356 319.545 30.9907 319.545 31.75C319.545 32.5093 319.789 33.1497 320.276 33.671C320.763 34.181 321.381 34.436 322.129 34.436C322.65 34.436 323.115 34.3 323.523 34.028C323.931 33.756 324.243 33.3933 324.458 32.94L326.09 33.824C325.716 34.5493 325.178 35.1217 324.475 35.541C323.784 35.9603 323.002 36.17 322.129 36.17ZM333.426 36L329.669 32.379V36H327.799V27.5H329.669V31.138L333.018 27.5H335.296L331.454 31.682L335.908 36H333.426ZM338.596 36H336.93V27.5H338.8V33.161L343.135 27.5H344.801V36H342.931V30.339L338.596 36ZM353.017 36L350.722 33.127L348.427 36H346.149L349.532 31.767L346.336 27.5H348.563L350.705 30.356L352.847 27.5H355.091L351.895 31.767L355.278 36H353.017ZM237.924 56H236.258V47.5H238.128V53.161L242.463 47.5H244.129V56H242.259V50.339L237.924 56ZM246.651 56V47.5H248.521V50.866H252.618V47.5H254.488V56H252.618V52.532H248.521V56H246.651ZM258.591 56V49.166H256.041V47.5H263.13V49.166H260.461V56H258.591ZM268.306 56.17C267.014 56.17 265.949 55.7563 265.11 54.929C264.283 54.1017 263.869 53.042 263.869 51.75C263.869 50.492 264.288 49.4437 265.127 48.605C265.966 47.755 267.025 47.33 268.306 47.33C269.485 47.33 270.459 47.704 271.23 48.452C272.012 49.2 272.403 50.2313 272.403 51.546C272.403 51.7727 272.397 51.9767 272.386 52.158H265.705C265.75 52.8493 266.017 53.4103 266.504 53.841C266.991 54.2603 267.598 54.47 268.323 54.47C269.411 54.47 270.221 54.0393 270.754 53.178L272.182 54.198C271.366 55.5127 270.074 56.17 268.306 56.17ZM265.79 50.798H270.516C270.414 50.2087 270.148 49.7497 269.717 49.421C269.298 49.081 268.805 48.911 268.238 48.911C267.649 48.911 267.122 49.0753 266.657 49.404C266.204 49.7327 265.915 50.1973 265.79 50.798ZM274.325 59.298V47.5H276.195V48.282C276.807 47.6473 277.635 47.33 278.677 47.33C279.913 47.33 280.927 47.7607 281.72 48.622C282.525 49.4833 282.927 50.526 282.927 51.75C282.927 52.974 282.525 54.0167 281.72 54.878C280.927 55.7393 279.913 56.17 278.677 56.17C277.635 56.17 276.807 55.847 276.195 55.201V59.298H274.325ZM278.473 54.47C279.21 54.47 279.816 54.2093 280.292 53.688C280.768 53.1553 281.006 52.5093 281.006 51.75C281.006 50.9907 280.768 50.3503 280.292 49.829C279.816 49.2963 279.21 49.03 278.473 49.03C277.499 49.03 276.739 49.421 276.195 50.203V53.28C276.728 54.0733 277.487 54.47 278.473 54.47ZM284.851 56V47.5H286.721V50.305H288.506C289.537 50.305 290.313 50.594 290.835 51.172C291.367 51.7387 291.634 52.3903 291.634 53.127C291.634 53.875 291.367 54.5437 290.835 55.133C290.313 55.711 289.537 56 288.506 56H284.851ZM286.721 51.954V54.351H288.353C288.829 54.351 289.191 54.249 289.441 54.045C289.701 53.8297 289.832 53.5293 289.832 53.144C289.832 52.3507 289.339 51.954 288.353 51.954H286.721ZM297.209 56.17C295.917 56.17 294.852 55.7563 294.013 54.929C293.186 54.1017 292.772 53.042 292.772 51.75C292.772 50.492 293.192 49.4437 294.03 48.605C294.869 47.755 295.929 47.33 297.209 47.33C298.388 47.33 299.363 47.704 300.133 48.452C300.915 49.2 301.306 50.2313 301.306 51.546C301.306 51.7727 301.301 51.9767 301.289 52.158H294.608C294.654 52.8493 294.92 53.4103 295.407 53.841C295.895 54.2603 296.501 54.47 297.226 54.47C298.314 54.47 299.125 54.0393 299.657 53.178L301.085 54.198C300.269 55.5127 298.977 56.17 297.209 56.17ZM294.693 50.798H299.419C299.317 50.2087 299.051 49.7497 298.62 49.421C298.201 49.081 297.708 48.911 297.141 48.911C296.552 48.911 296.025 49.0753 295.56 49.404C295.107 49.7327 294.818 50.1973 294.693 50.798ZM303.229 59.298V47.5H305.099V48.282C305.711 47.6473 306.538 47.33 307.581 47.33C308.816 47.33 309.83 47.7607 310.624 48.622C311.428 49.4833 311.831 50.526 311.831 51.75C311.831 52.974 311.428 54.0167 310.624 54.878C309.83 55.7393 308.816 56.17 307.581 56.17C306.538 56.17 305.711 55.847 305.099 55.201V59.298H303.229ZM307.377 54.47C308.113 54.47 308.72 54.2093 309.196 53.688C309.672 53.1553 309.91 52.5093 309.91 51.75C309.91 50.9907 309.672 50.3503 309.196 49.829C308.72 49.2963 308.113 49.03 307.377 49.03C306.402 49.03 305.643 49.421 305.099 50.203V53.28C305.631 54.0733 306.391 54.47 307.377 54.47ZM320.758 54.895C319.908 55.745 318.854 56.17 317.596 56.17C316.338 56.17 315.278 55.745 314.417 54.895C313.567 54.0337 313.142 52.9853 313.142 51.75C313.142 50.5147 313.567 49.472 314.417 48.622C315.278 47.7607 316.338 47.33 317.596 47.33C318.854 47.33 319.908 47.7607 320.758 48.622C321.619 49.472 322.05 50.5147 322.05 51.75C322.05 52.9853 321.619 54.0337 320.758 54.895ZM317.596 54.436C318.333 54.436 318.939 54.181 319.415 53.671C319.902 53.1497 320.146 52.5093 320.146 51.75C320.146 50.9907 319.902 50.356 319.415 49.846C318.939 49.3247 318.333 49.064 317.596 49.064C316.848 49.064 316.23 49.3247 315.743 49.846C315.267 50.356 315.029 50.9907 315.029 51.75C315.029 52.5093 315.267 53.1497 315.743 53.671C316.23 54.181 316.848 54.436 317.596 54.436ZM323.931 56V47.5H327.807C328.782 47.5 329.53 47.7323 330.051 48.197C330.572 48.6617 330.833 49.2397 330.833 49.931C330.833 50.5317 330.601 51.0473 330.136 51.478C330.963 51.92 331.377 52.5887 331.377 53.484C331.377 54.198 331.122 54.7987 330.612 55.286C330.102 55.762 329.331 56 328.3 56H323.931ZM325.801 54.419H328.283C328.657 54.419 328.952 54.3283 329.167 54.147C329.394 53.9543 329.507 53.6937 329.507 53.365C329.507 53.025 329.394 52.7643 329.167 52.583C328.952 52.3903 328.657 52.294 328.283 52.294H325.801V54.419ZM325.801 50.934H327.875C328.181 50.934 328.436 50.8603 328.64 50.713C328.855 50.5543 328.963 50.305 328.963 49.965C328.963 49.3303 328.6 49.013 327.875 49.013H325.801V50.934Z" fill="white"/>
</svg>
