<svg width="20" height="20" viewBox="0 0 20 20" fill="none" xmlns="http://www.w3.org/2000/svg">
<path d="M8.31342 11.6793C9.53936 12.9493 11.0227 13.9298 12.6593 14.5519L14.8733 12.7528C14.939 12.7066 15.0168 12.6819 15.0965 12.6819C15.1762 12.6819 15.254 12.7066 15.3197 12.7528L19.4306 15.4575C19.5867 15.5533 19.7188 15.6848 19.8166 15.8417C19.9143 15.9987 19.9749 16.1766 19.9937 16.3616C20.0125 16.5465 19.9889 16.7334 19.9249 16.9075C19.8608 17.0816 19.7579 17.238 19.6245 17.3645L17.6982 19.3075C17.4223 19.5859 17.0833 19.7902 16.7113 19.9021C16.3393 20.0141 15.9459 20.0303 15.5663 19.9492C11.7797 19.1506 8.28942 17.2803 5.49447 14.5519C2.76155 11.7964 0.870385 8.29031 0.0503803 4.4589C-0.0306256 4.07728 -0.0137186 3.68075 0.0994629 3.30776C0.212644 2.93477 0.418262 2.59795 0.696389 2.32996L2.69314 0.362933C2.81671 0.23327 2.9674 0.133832 3.13393 0.072064C3.30046 0.0102964 3.47851 -0.0122 3.65476 0.00625935C3.83101 0.0247187 4.00089 0.0836555 4.15168 0.178657C4.30246 0.273658 4.43025 0.402261 4.52546 0.554838L7.26219 4.69879C7.30939 4.76386 7.33487 4.84269 7.33487 4.92367C7.33487 5.00465 7.30939 5.08349 7.26219 5.14856L5.45924 7.36147C6.08503 8.99922 7.06001 10.4742 8.31342 11.6793Z" fill="white"/>
</svg>
