<svg width="109" height="48" viewBox="0 0 109 48" fill="none" xmlns="http://www.w3.org/2000/svg">
<path d="M15.653 1.14855L4.52745 19.2742H15.3472V21.3993H0.737305L11.8632 3.27373H2.17383V1.14855H15.653V1.14855ZM36.2848 21.3993L33.9005 15.6916H25.22L22.7747 21.3993H20.2685L29.6521 0.177246L38.7912 21.3993H36.2848ZM26.1065 13.5664H33.0144L29.5909 5.46001L26.1065 13.5664ZM42.9175 1.14855H45.4236L51.1702 16.6022L56.9165 1.14855H59.423L51.1702 22.6137L42.9175 1.14855ZM82.9738 18.7581C80.9256 20.7618 78.4141 21.7638 75.4393 21.7638C72.4641 21.7638 69.9526 20.7618 67.9048 18.7581C65.857 16.7541 64.8329 14.2647 64.8329 11.2893C64.8329 8.29348 65.862 5.79878 67.9201 3.80531C69.9782 1.81152 72.4844 0.814751 75.4393 0.814751C78.3938 0.814751 80.9004 1.81152 82.9585 3.80531C85.0166 5.79878 86.0454 8.29348 86.0454 11.2893C86.0454 14.2647 85.0216 16.7541 82.9738 18.7581ZM81.3078 5.36889C79.6981 3.7495 77.7417 2.93993 75.4393 2.93993C73.1365 2.93993 71.1805 3.7495 69.5707 5.36889C67.9606 6.98804 67.1559 8.96141 67.1559 11.2893C67.1559 13.6169 67.9606 15.5903 69.5707 17.2097C71.1805 18.8287 73.1365 19.6383 75.4393 19.6383C77.7417 19.6383 79.6981 18.8287 81.3078 17.2097C82.9176 15.5903 83.7226 13.6169 83.7226 11.2893C83.7226 8.96141 82.9176 6.98804 81.3078 5.36889ZM93.8394 21.3993V1.14855H97.9963C101.134 1.14855 103.641 1.93795 105.515 3.51674C107.838 5.43959 109 8.03029 109 11.2893C109 14.4466 107.808 17.0376 105.424 19.0615C104.445 19.8915 103.396 20.4885 102.275 20.853C101.155 21.2171 99.718 21.3993 97.9656 21.3993H93.8394V21.3993ZM96.101 3.27373V19.2742H98.088C100.513 19.2742 102.459 18.667 103.926 17.4524C105.76 15.9142 106.677 13.8598 106.677 11.2893C106.677 8.86036 105.892 6.91734 104.323 5.46001C102.754 4.00244 100.676 3.27373 98.088 3.27373H96.101V3.27373ZM2.32675 27.1167H6.30036V43.9672H12.5967V47.3675H2.32675V27.1167V27.1167ZM29.2243 47.3675L27.4211 43.1171H19.1989L17.3953 47.3675H13.086L21.8579 27.1167H24.9757L33.5037 47.3675H29.2243V47.3675ZM20.4519 39.8987H26.2594L23.3557 32.6121L20.4519 39.8987V39.8987ZM47.9917 29.0296L45.9129 31.7316C45.0368 30.5781 43.9263 30.0009 42.5815 30.0009C41.6033 30.0009 40.8903 30.239 40.4419 30.7144C39.9935 31.1902 39.7694 31.7419 39.7694 32.3692C39.7694 32.9159 39.9832 33.3712 40.4113 33.7353C40.7374 34.0391 41.5524 34.4237 42.8567 34.8893C44.8739 35.5773 46.2493 36.2554 46.9829 36.9234C48.1442 37.9558 48.7252 39.3725 48.7252 41.1738C48.7252 43.1574 48.0681 44.7616 46.7535 45.9862C45.4393 47.2107 43.7328 47.8229 41.6338 47.8229C38.6995 47.8229 36.3562 46.5478 34.6039 43.9976L37.2018 41.5383C37.6502 42.4492 38.2717 43.127 39.0664 43.5724C39.8612 44.0178 40.6659 44.2403 41.4809 44.2403C42.398 44.2403 43.1519 43.9825 43.7428 43.4661C44.3337 42.95 44.6292 42.2771 44.6292 41.4472C44.6292 40.7386 44.3644 40.1315 43.8345 39.6254C43.3456 39.1803 42.2963 38.6844 40.6862 38.1377C39.1785 37.6319 38.0474 37.0448 37.2935 36.377C36.2136 35.4459 35.6735 34.1909 35.6735 32.6121C35.6735 30.9726 36.2339 29.5711 37.3547 28.4073C38.4755 27.2435 40.0955 26.6614 42.2145 26.6614C44.5173 26.6614 46.4428 27.4508 47.9917 29.0296V29.0296ZM52.2096 27.1167H58.1394C59.4027 27.1167 60.4368 27.223 61.2418 27.4356C62.0465 27.6483 62.8057 28.058 63.5189 28.6652C64.9047 29.8798 65.5974 31.5091 65.5974 33.5534C65.5974 35.4558 65.037 36.964 63.9162 38.0772C62.714 39.2715 60.9922 39.8684 58.7506 39.8684H56.1832V47.3675H52.2096V27.1167V27.1167ZM56.1832 30.5173V36.4681H57.803C58.9646 36.4681 59.8305 36.2554 60.4012 35.8305C61.1348 35.2637 61.5014 34.4742 61.5014 33.4623C61.5014 32.4705 61.1245 31.7013 60.3706 31.1548C59.7594 30.7296 58.822 30.5173 57.5587 30.5173H56.1832V30.5173ZM82.4084 47.3675L80.6052 43.1171H72.383L70.5795 47.3675H66.2698L75.042 27.1167H78.1598L86.6878 47.3675H82.4084V47.3675ZM73.6361 39.8987H79.4435L76.5397 32.6121L73.6361 39.8987ZM93.0453 47.3675H89.0717V27.1167H91.8225L104.232 40.6274V27.1167H108.205V47.3675H105.455L93.0453 33.8265V47.3675Z" fill="white"/>
</svg>
