<svg width="133" height="59" viewBox="0 0 133 59" fill="none" xmlns="http://www.w3.org/2000/svg">
<path d="M19.0303 1.41167L5.44684 23.6911H18.657V26.3033H0.819336L14.4032 4.02387H2.57324V1.41167H19.0303ZM44.2203 26.3033L41.3093 19.2875H30.711L27.7254 26.3033H24.6655L36.1222 0.217773L47.2805 26.3033H44.2203ZM31.7933 16.6753H40.2274L36.0475 6.71117L31.7933 16.6753ZM52.3184 1.41167H55.3782L62.3944 20.4068L69.4102 1.41167H72.4705L62.3944 27.7959L52.3184 1.41167ZM101.224 23.0568C98.7236 25.5197 95.6573 26.7513 92.0252 26.7513C88.3927 26.7513 85.3264 25.5197 82.8261 23.0568C80.3259 20.5935 79.0756 17.5336 79.0756 13.8764C79.0756 10.194 80.332 7.12757 82.8448 4.67727C85.3577 2.22657 88.4175 1.00137 92.0252 1.00137C95.6325 1.00137 98.6928 2.22657 101.206 4.67727C103.718 7.12757 104.975 10.194 104.975 13.8764C104.975 17.5336 103.725 20.5935 101.224 23.0568ZM99.1903 6.59917C97.2249 4.60867 94.8363 3.61357 92.0252 3.61357C89.2137 3.61357 86.8255 4.60867 84.8601 6.59917C82.8943 8.58937 81.9118 11.015 81.9118 13.8764C81.9118 16.7374 82.8943 19.163 84.8601 21.1535C86.8255 23.1436 89.2137 24.1387 92.0252 24.1387C94.8363 24.1387 97.2249 23.1436 99.1903 21.1535C101.156 19.163 102.139 16.7374 102.139 13.8764C102.139 11.015 101.156 8.58937 99.1903 6.59917ZM114.491 26.3033V1.41167H119.566C123.397 1.41167 126.457 2.38197 128.746 4.32257C131.582 6.68607 133 9.87047 133 13.8764C133 17.7572 131.545 20.942 128.634 23.4297C127.44 24.4499 126.159 25.1837 124.79 25.6317C123.422 26.0793 121.668 26.3033 119.528 26.3033H114.491ZM117.252 4.02387V23.6911H119.678C122.638 23.6911 125.014 22.9448 126.805 21.4518C129.044 19.5611 130.164 17.036 130.164 13.8764C130.164 10.8908 129.206 8.50247 127.29 6.71117C125.375 4.91957 122.837 4.02387 119.678 4.02387H117.252ZM2.75994 33.3309H7.61144V54.043H15.2988V58.2225H2.75994V33.3309ZM35.5999 58.2225L33.3983 52.998H23.3596L21.1576 58.2225H15.8962L26.6061 33.3309H30.4127L40.8248 58.2225H35.5999ZM24.8895 49.0421H31.98L28.4348 40.0857L24.8895 49.0421ZM58.5136 35.6822L55.9756 39.0034C54.9059 37.5855 53.55 36.8761 51.9081 36.8761C50.7138 36.8761 49.8433 37.1687 49.2958 37.7531C48.7484 38.3379 48.4748 39.016 48.4748 39.7871C48.4748 40.4591 48.7358 41.0187 49.2585 41.4663C49.6566 41.8397 50.6517 42.3124 52.2441 42.8847C54.707 43.7304 56.3863 44.5639 57.2819 45.3849C58.6998 46.6539 59.4092 48.3953 59.4092 50.6094C59.4092 53.0476 58.6069 55.0194 57.0019 56.5246C55.3973 58.0298 53.3138 58.7822 50.7511 58.7822C47.1685 58.7822 44.3075 57.2149 42.168 54.0803L45.3399 51.0574C45.8874 52.1771 46.6462 53.0102 47.6165 53.5577C48.5868 54.1051 49.5693 54.3786 50.5644 54.3786C51.6841 54.3786 52.6045 54.0617 53.326 53.427C54.0475 52.7927 54.4083 51.9656 54.4083 50.9454C54.4083 50.0745 54.0849 49.3282 53.438 48.7061C52.841 48.1591 51.5599 47.5495 49.5941 46.8775C47.7533 46.2558 46.3723 45.5342 45.4519 44.7133C44.1334 43.5689 43.474 42.0263 43.474 40.0857C43.474 38.0704 44.1582 36.3477 45.5266 34.9172C46.895 33.4867 48.8729 32.7713 51.4601 32.7713C54.2716 32.7713 56.6225 33.7416 58.5136 35.6822ZM63.6634 33.3309H70.9032C72.4457 33.3309 73.7082 33.4616 74.6911 33.7229C75.6736 33.9843 76.6005 34.4879 77.4713 35.2342C79.1632 36.7272 80.0089 38.7299 80.0089 41.2427C80.0089 43.581 79.3247 45.4348 77.9563 46.8032C76.4885 48.2711 74.3863 49.0048 71.6495 49.0048H68.5149V58.2225H63.6634V33.3309ZM68.5149 37.5108V44.8253H70.4925C71.9108 44.8253 72.968 44.5639 73.6648 44.0416C74.5604 43.3449 75.008 42.3745 75.008 41.1307C75.008 39.9116 74.5478 38.9661 73.6274 38.2944C72.8811 37.7718 71.7367 37.5108 70.1942 37.5108H68.5149ZM100.534 58.2225L98.3325 52.998H88.2937L86.0917 58.2225H80.8299L91.5402 33.3309H95.3468L105.759 58.2225H100.534ZM89.8236 49.0421H96.9141L93.3688 40.0857L89.8236 49.0421ZM113.521 58.2225H108.669V33.3309H112.028L127.179 49.9378V33.3309H132.03V58.2225H128.672L113.521 41.5783V58.2225Z" fill="white"/>
</svg>
